*
G04 Job   : Y:\Users\CEG\Central Electronics\Projects\Hastingsp\MENTOR\DUNE\MIB_Module\PCB\MIB_Module.pcb*
G04 User  : ELWT2:hastingsp*
G04 Layer : 01_SilkscreenTop.gdo*
G04 Date  : Wed Jun 28 08:25:48 2023*
G04 VeriBest Example Gerber Output Definition*
%ICAS*%
%MOIN*%
%FSLAX24Y24*%
%OFA0.0000B0.0000*%
G90*
G74*
%ADD18C,0.00394*%
%ADD10C,0.00500*%
%ADD17C,0.00700*%
%ADD16C,0.00701*%
%ADD13C,0.00787*%
%ADD12C,0.00799*%
%ADD11C,0.00800*%
%ADD15C,0.01000*%
%ADD14C,0.01280*%
%ADD19C,0.03937*%
G01*
G54D10*
X3696Y14847D02*
X5596D01*
Y15547*
X3696*
Y14847*
X6215Y14059D02*
X8115D01*
Y14759*
X6215*
Y14059*
Y14847D02*
X8115D01*
Y15547*
X6215*
Y14847*
X7091Y11609D02*
X7791D01*
Y13509*
X7091*
Y11609*
X24926Y8696D02*
X25626D01*
Y10596*
X24926*
Y8696*
X29528Y1181D02*
G02X28346Y0I1182D01*
G01X28345*
X0*
Y15748*
X28346*
G02X29528Y14567J1181*
G01Y1181*
G54D11*
X347Y12607D02*
X570D01*
X592Y12814*
X570Y12792*
X503Y12770*
X436*
X369Y12792*
X325Y12837*
X302Y12903*
Y12955*
X325Y13022*
X369Y13067*
X436Y13089*
X503*
X570Y13067*
X592Y13045*
X614Y13000*
X574Y7144D02*
X544Y7122D01*
X507Y7055*
Y7538*
X582Y3118D02*
X648Y3141D01*
X671Y3185*
Y3230*
X648Y3282*
X604Y3304*
X515Y3326*
X448Y3348*
X403Y3393*
X381Y3438*
Y3512*
X403Y3556*
X426Y3579*
X492Y3601*
X582*
X648Y3579*
X671Y3556*
X693Y3512*
Y3438*
X671Y3393*
X626Y3348*
X559Y3326*
X470Y3304*
X426Y3282*
X403Y3230*
Y3185*
X426Y3141*
X492Y3118*
X582*
X1064Y3207D02*
X1034Y3185D01*
X997Y3118*
Y3601*
X1064Y7144D02*
X1034Y7122D01*
X997Y7055*
Y7538*
X1082Y12718D02*
Y12696D01*
X1060Y12651*
X1037Y12629*
X993Y12599*
X904*
X859Y12629*
X837Y12651*
X815Y12696*
Y12740*
X837Y12785*
X881Y12859*
X1104Y13089*
X792*
X1168Y2526D02*
X1191Y2600D01*
X1235Y2645*
X1317Y2667*
X1339*
X1413Y2645*
X1458Y2600*
X1480Y2526*
Y2504*
X1458Y2437*
X1413Y2393*
X1339Y2370*
X1317*
X1235Y2393*
X1191Y2437*
X1168Y2526*
Y2645*
X1191Y2764*
X1235Y2831*
X1317Y2853*
X1361*
X1436Y2831*
X1458Y2786*
X1438Y12837D02*
X1282Y13089D01*
X1458Y6419D02*
Y6396D01*
X1436Y6352*
X1413Y6330*
X1369Y6300*
X1280*
X1235Y6330*
X1213Y6352*
X1191Y6396*
Y6441*
X1213Y6485*
X1258Y6560*
X1480Y6790*
X1168*
X1517Y3348D02*
X1361Y3601D01*
X1517Y7285D02*
X1361Y7538D01*
X1594Y13089D02*
Y12599D01*
X1394*
X1327Y12629*
X1305Y12651*
X1282Y12696*
Y12740*
X1305Y12785*
X1327Y12814*
X1394Y12837*
X1594*
X1673Y3601D02*
Y3111D01*
X1472*
X1406Y3141*
X1383Y3163*
X1361Y3207*
Y3252*
X1383Y3297*
X1406Y3326*
X1472Y3348*
X1673*
Y7538D02*
Y7048D01*
X1472*
X1406Y7078*
X1383Y7100*
X1361Y7144*
Y7189*
X1383Y7234*
X1406Y7263*
X1472Y7285*
X1673*
X1851Y2459D02*
X1822Y2437D01*
X1785Y2370*
Y2853*
X1851Y6396D02*
X1822Y6374D01*
X1785Y6307*
Y6790*
X2018Y14465D02*
X2040Y14421D01*
X2114Y14399*
X2166*
X2240Y14421*
X2285Y14488*
X2307Y14607*
Y14718*
X2285Y14814*
X2240Y14859*
X2166Y14881*
X2144*
X2069Y14859*
X2018Y14814*
X1995Y14748*
Y14718*
X2018Y14651*
X2069Y14607*
X2144Y14584*
X2166*
X2240Y14607*
X2285Y14651*
X2307Y14718*
X2035Y10145D02*
X2057Y10219D01*
X2101Y10264*
X2183Y10286*
X2205*
X2280Y10264*
X2324Y10219*
X2346Y10145*
Y10123*
X2324Y10056*
X2280Y10011*
X2205Y9989*
X2183*
X2101Y10011*
X2057Y10056*
X2035Y10145*
Y10264*
X2057Y10383*
X2101Y10449*
X2183Y10472*
X2228*
X2302Y10449*
X2324Y10405*
X2304Y2600D02*
X2148Y2853D01*
X2304Y6537D02*
X2148Y6790D01*
X2460Y2853D02*
Y2363D01*
X2260*
X2193Y2393*
X2171Y2415*
X2148Y2459*
Y2504*
X2171Y2548*
X2193Y2578*
X2260Y2600*
X2460*
Y6790D02*
Y6300D01*
X2260*
X2193Y6330*
X2171Y6352*
X2148Y6396*
Y6441*
X2171Y6485*
X2193Y6515*
X2260Y6537*
X2460*
X2775Y14510D02*
Y14488D01*
X2752Y14443*
X2730Y14421*
X2686Y14391*
X2597*
X2552Y14421*
X2530Y14443*
X2508Y14488*
Y14532*
X2530Y14577*
X2574Y14651*
X2797Y14881*
X2485*
X2814Y10101D02*
Y10078D01*
X2792Y10034*
X2770Y10011*
X2725Y9982*
X2636*
X2591Y10011*
X2569Y10034*
X2547Y10078*
Y10123*
X2569Y10167*
X2614Y10242*
X2836Y10472*
X2525*
X3131Y14629D02*
X2975Y14881D01*
X3170Y10219D02*
X3015Y10472D01*
X3287Y14881D02*
Y14391D01*
X3087*
X3020Y14421*
X2997Y14443*
X2975Y14488*
Y14532*
X2997Y14577*
X3020Y14607*
X3087Y14629*
X3287*
X3326Y10472D02*
Y9982D01*
X3126*
X3059Y10011*
X3037Y10034*
X3015Y10078*
Y10123*
X3037Y10167*
X3059Y10197*
X3126Y10219*
X3326*
X5128Y4366D02*
X5150Y4322D01*
X5224Y4299*
X5276*
X5350Y4322*
X5395Y4389*
X5417Y4507*
Y4619*
X5395Y4715*
X5350Y4760*
X5276Y4782*
X5254*
X5180Y4760*
X5128Y4715*
X5105Y4648*
Y4619*
X5128Y4552*
X5180Y4507*
X5254Y4485*
X5276*
X5350Y4507*
X5395Y4552*
X5417Y4619*
X5284Y1709D02*
Y2021D01*
X5766Y1798*
X5373Y1337D02*
X5351Y1367D01*
X5284Y1404*
X5766*
X5514Y885D02*
X5766Y1041D01*
Y729D02*
X5276D01*
Y929*
X5306Y996*
X5328Y1018*
X5373Y1041*
X5417*
X5462Y1018*
X5492Y996*
X5514Y929*
Y729*
X5788Y4389D02*
X5759Y4366D01*
X5722Y4299*
Y4782*
X5874Y6842D02*
X5897Y6776D01*
X5963Y6731*
X6082Y6709*
X6149*
X6268Y6731*
X6335Y6776*
X6357Y6842*
Y6887*
X6335Y6954*
X6268Y6998*
X6149Y7021*
X6082*
X5963Y6998*
X5897Y6954*
X5874Y6887*
Y6842*
X5963Y6337D02*
X5941Y6367D01*
X5874Y6404*
X6357*
X6030Y8193D02*
X6104Y8171D01*
X6149Y8126*
X6171Y8044*
Y8022*
X6149Y7948*
X6104Y7903*
X6030Y7881*
X6008*
X5941Y7903*
X5897Y7948*
X5874Y8022*
Y8044*
X5897Y8126*
X5941Y8171*
X6030Y8193*
X6149*
X6268Y8171*
X6335Y8126*
X6357Y8044*
Y8000*
X6335Y7926*
X6290Y7903*
X6104Y5885D02*
X6357Y6041D01*
X6104Y7547D02*
X6357Y7703D01*
X6241Y4530D02*
X6085Y4782D01*
X6357Y5729D02*
X5867D01*
Y5929*
X5897Y5996*
X5919Y6018*
X5963Y6041*
X6008*
X6052Y6018*
X6082Y5996*
X6104Y5929*
Y5729*
X6357Y7391D02*
X5867D01*
Y7591*
X5897Y7658*
X5919Y7681*
X5963Y7703*
X6008*
X6052Y7681*
X6082Y7658*
X6104Y7591*
Y7391*
X6397Y4782D02*
Y4292D01*
X6197*
X6130Y4322*
X6108Y4344*
X6085Y4389*
Y4433*
X6108Y4478*
X6130Y4507*
X6197Y4530*
X6397*
X7119Y4536D02*
X6807D01*
X7030Y5018*
X7453Y4766D02*
X7297Y5018D01*
X7609D02*
Y4528D01*
X7409*
X7342Y4558*
X7319Y4580*
X7297Y4625*
Y4669*
X7319Y4714*
X7342Y4744*
X7409Y4766*
X7609*
X7913Y5559D02*
X7980Y5582D01*
X8002Y5626*
Y5671*
X7980Y5723*
X7935Y5745*
X7846Y5767*
X7779Y5789*
X7735Y5834*
X7713Y5879*
Y5953*
X7735Y5997*
X7757Y6020*
X7824Y6042*
X7913*
X7980Y6020*
X8002Y5997*
X8024Y5953*
Y5879*
X8002Y5834*
X7958Y5789*
X7891Y5767*
X7802Y5745*
X7757Y5723*
X7735Y5671*
Y5626*
X7757Y5582*
X7824Y5559*
X7913*
X8359Y5789D02*
X8203Y6042D01*
X8514D02*
Y5552D01*
X8314*
X8247Y5582*
X8225Y5604*
X8203Y5648*
Y5693*
X8225Y5737*
X8247Y5767*
X8314Y5789*
X8514*
X8613Y10619D02*
X8680Y10641D01*
X8702Y10686*
Y10730*
X8680Y10782*
X8635Y10805*
X8546Y10827*
X8479Y10849*
X8435Y10894*
X8413Y10938*
Y11013*
X8435Y11057*
X8457Y11079*
X8524Y11102*
X8613*
X8680Y11079*
X8702Y11057*
X8724Y11013*
Y10938*
X8702Y10894*
X8658Y10849*
X8591Y10827*
X8502Y10805*
X8457Y10782*
X8435Y10730*
Y10686*
X8457Y10641*
X8524Y10619*
X8613*
X8764Y11465D02*
X8452D01*
X8675Y11947*
X9192Y10730D02*
Y10708D01*
X9170Y10664*
X9148Y10641*
X9103Y10612*
X9014*
X8969Y10641*
X8947Y10664*
X8925Y10708*
Y10753*
X8947Y10797*
X8992Y10872*
X9214Y11102*
X8903*
X9231Y11576D02*
Y11554D01*
X9209Y11509*
X9187Y11487*
X9142Y11457*
X9053*
X9009Y11487*
X8986Y11509*
X8964Y11554*
Y11598*
X8986Y11643*
X9031Y11717*
X9254Y11947*
X8942*
X9548Y10849D02*
X9393Y11102D01*
X9588Y11695D02*
X9432Y11947D01*
X9704Y11102D02*
Y10612D01*
X9504*
X9437Y10641*
X9415Y10664*
X9393Y10708*
Y10753*
X9415Y10797*
X9437Y10827*
X9504Y10849*
X9704*
X9744Y11947D02*
Y11457D01*
X9543*
X9476Y11487*
X9454Y11509*
X9432Y11554*
Y11598*
X9454Y11643*
X9476Y11673*
X9543Y11695*
X9744*
X13230Y5481D02*
X13452D01*
X13475Y5688*
X13452Y5666*
X13386Y5644*
X13319*
X13252Y5666*
X13207Y5711*
X13185Y5778*
Y5829*
X13207Y5896*
X13252Y5941*
X13319Y5963*
X13386*
X13452Y5941*
X13475Y5919*
X13497Y5874*
X13831Y5711D02*
X13675Y5963D01*
X13921Y6716D02*
X13891Y6694D01*
X13854Y6627*
Y7110*
X13987Y5963D02*
Y5473D01*
X13786*
X13720Y5503*
X13697Y5525*
X13675Y5570*
Y5614*
X13697Y5659*
X13720Y5688*
X13786Y5711*
X13987*
X13995Y8627D02*
X13750D01*
X13883Y8813*
X13817*
X13772Y8835*
X13750Y8857*
X13728Y8924*
Y8976*
X13750Y9043*
X13794Y9087*
X13861Y9110*
X13928*
X13995Y9087*
X14017Y9065*
X14039Y9020*
X14017Y7738D02*
Y7716D01*
X13995Y7672*
X13973Y7649*
X13928Y7620*
X13839*
X13794Y7649*
X13772Y7672*
X13750Y7716*
Y7761*
X13772Y7805*
X13817Y7879*
X14039Y8110*
X13728*
X14485Y6627D02*
X14240D01*
X14373Y6813*
X14307*
X14262Y6835*
X14240Y6857*
X14218Y6924*
Y6976*
X14240Y7043*
X14284Y7087*
X14351Y7110*
X14418*
X14485Y7087*
X14507Y7065*
X14529Y7020*
X14485Y7627D02*
X14240D01*
X14373Y7813*
X14307*
X14262Y7835*
X14240Y7857*
X14218Y7924*
Y7976*
X14240Y8043*
X14284Y8087*
X14351Y8110*
X14418*
X14485Y8087*
X14507Y8065*
X14529Y8020*
X14485Y8627D02*
X14240D01*
X14373Y8813*
X14307*
X14262Y8835*
X14240Y8857*
X14218Y8924*
Y8976*
X14240Y9043*
X14284Y9087*
X14351Y9110*
X14418*
X14485Y9087*
X14507Y9065*
X14529Y9020*
X14863Y6857D02*
X14708Y7110D01*
X14863Y7857D02*
X14708Y8110D01*
X14863Y8857D02*
X14708Y9110D01*
X15019Y7110D02*
Y6620D01*
X14819*
X14752Y6649*
X14730Y6672*
X14708Y6716*
Y6761*
X14730Y6805*
X14752Y6835*
X14819Y6857*
X15019*
Y8110D02*
Y7620D01*
X14819*
X14752Y7649*
X14730Y7672*
X14708Y7716*
Y7761*
X14730Y7805*
X14752Y7835*
X14819Y7857*
X15019*
Y9110D02*
Y8620D01*
X14819*
X14752Y8649*
X14730Y8672*
X14708Y8716*
Y8761*
X14730Y8805*
X14752Y8835*
X14819Y8857*
X15019*
G54D12*
X16173Y15077D02*
X15928D01*
X16062Y15263*
X15995*
X15950Y15285*
X15928Y15308*
X15906Y15374*
Y15426*
X15928Y15493*
X15973Y15538*
X16040Y15560*
X16106*
X16173Y15538*
X16195Y15515*
X16218Y15471*
X16686Y15189D02*
Y15166D01*
X16663Y15122*
X16641Y15100*
X16596Y15070*
X16507*
X16463Y15100*
X16441Y15122*
X16418Y15166*
Y15211*
X16441Y15256*
X16485Y15330*
X16708Y15560*
X16396*
X17064Y15077D02*
X17131Y15100D01*
X17176Y15166*
X17198Y15285*
Y15352*
X17176Y15471*
X17131Y15538*
X17064Y15560*
X17020*
X16953Y15538*
X16908Y15471*
X16886Y15352*
Y15285*
X16908Y15166*
X16953Y15100*
X17020Y15077*
X17064*
X17666Y15189D02*
Y15166D01*
X17644Y15122*
X17621Y15100*
X17577Y15070*
X17488*
X17443Y15100*
X17421Y15122*
X17399Y15166*
Y15211*
X17421Y15256*
X17465Y15330*
X17688Y15560*
X17376*
X18668Y15374D02*
X18357D01*
Y15330*
X18379Y15285*
X18409Y15263*
X18461Y15241*
X18542*
X18594Y15263*
X18646Y15308*
X18668Y15374*
Y15426*
X18646Y15493*
X18594Y15538*
X18542Y15560*
X18461*
X18409Y15538*
X18357Y15493*
X19159Y15241D02*
Y15560D01*
Y15330D02*
X19077Y15263D01*
X19017Y15241*
X18936*
X18876Y15263*
X18847Y15330*
Y15560*
X19337Y15241D02*
Y15560D01*
X19649Y15241D02*
Y15471D01*
X19626Y15538*
X19567Y15560*
X19478*
X19426Y15538*
X19337Y15471*
X19827Y15070D02*
Y15441D01*
X19857Y15515*
X19894Y15538*
X19953Y15560*
X20020*
X20079Y15538*
X20109Y15515*
X20139Y15441*
Y15397*
X21008Y15077D02*
X21075Y15100D01*
X21097Y15144*
Y15189*
X21075Y15241*
X21030Y15263*
X20941Y15285*
X20874Y15308*
X20830Y15352*
X20807Y15397*
Y15471*
X20830Y15515*
X20852Y15538*
X20919Y15560*
X21008*
X21075Y15538*
X21097Y15515*
X21119Y15471*
Y15397*
X21097Y15352*
X21052Y15308*
X20985Y15285*
X20896Y15263*
X20852Y15241*
X20830Y15189*
Y15144*
X20852Y15100*
X20919Y15077*
X21008*
X21587Y15189D02*
Y15166D01*
X21565Y15122*
X21542Y15100*
X21498Y15070*
X21409*
X21364Y15100*
X21342Y15122*
X21320Y15166*
Y15211*
X21342Y15256*
X21386Y15330*
X21609Y15560*
X21297*
X22590Y15374D02*
X22278D01*
Y15330*
X22300Y15285*
X22330Y15263*
X22382Y15241*
X22463*
X22515Y15263*
X22567Y15308*
X22590Y15374*
Y15426*
X22567Y15493*
X22515Y15538*
X22463Y15560*
X22382*
X22330Y15538*
X22278Y15493*
X22924Y15077D02*
Y15560D01*
X23258Y15241D02*
Y15560D01*
X23570Y15241D02*
Y15471D01*
X23548Y15538*
X23488Y15560*
X23399*
X23347Y15538*
X23258Y15471*
X23748Y15077D02*
Y15560D01*
Y15308D02*
X23800Y15263D01*
X23852Y15241*
X23934*
X23986Y15263*
X24038Y15308*
X24060Y15374*
Y15426*
X24038Y15493*
X23986Y15538*
X23934Y15560*
X23852*
X23800Y15538*
X23748Y15493*
X24431Y15241D02*
X24483Y15263D01*
X24528Y15308*
X24550Y15374*
Y15426*
X24528Y15493*
X24483Y15538*
X24431Y15560*
X24357*
X24312Y15538*
X24261Y15493*
X24238Y15426*
Y15374*
X24261Y15308*
X24312Y15263*
X24357Y15241*
X24431*
X25040Y15560D02*
Y15070D01*
X24884Y15560*
X24728Y15070*
Y15560*
X26021Y15308D02*
X25820D01*
X25753Y15330*
X25731Y15352*
X25709Y15397*
Y15471*
X25731Y15515*
X25753Y15538*
X25820Y15560*
X26021*
Y15070*
X25820*
X25753Y15100*
X25731Y15122*
X25709Y15166*
Y15211*
X25731Y15256*
X25753Y15285*
X25820Y15308*
X26355Y15070D02*
Y15560D01*
X27001D02*
Y15070D01*
X26845Y15560*
X26689Y15070*
Y15560*
G54D13*
X29Y1823D02*
X521D01*
Y1621*
X491Y1554*
X469Y1532*
X424Y1509*
X379*
X334Y1532*
X305Y1554*
X282Y1621*
Y1823*
Y1666D02*
X29Y1509D01*
X443Y11285D02*
Y11263D01*
X420Y11218*
X398Y11196*
X353Y11166*
X264*
X219Y11196*
X197Y11218*
X174Y11263*
Y11307*
X197Y11352*
X241Y11427*
X465Y11658*
X152*
X513Y630D02*
X193Y838D01*
Y525*
X513Y630D02*
X29D01*
X513Y1286D02*
Y1040D01*
X327Y1174*
Y1107*
X305Y1062*
X282Y1040*
X215Y1017*
X163*
X96Y1040*
X51Y1084*
X29Y1151*
Y1219*
X51Y1286*
X73Y1308*
X118Y1330*
X644Y11166D02*
Y11539D01*
X674Y11613*
X711Y11636*
X771Y11658*
X838*
X898Y11636*
X927Y11613*
X957Y11539*
Y11494*
X696Y13856D02*
X450D01*
X584Y14042*
X517*
X472Y14065*
X450Y14087*
X427Y14154*
Y14206*
X450Y14273*
X495Y14318*
X562Y14341*
X629*
X696Y14318*
X718Y14296*
X741Y14251*
X1077Y7783D02*
X1099Y7857D01*
X1144Y7902*
X1226Y7924*
X1249*
X1323Y7902*
X1368Y7857*
X1390Y7783*
Y7760*
X1368Y7693*
X1323Y7648*
X1249Y7626*
X1226*
X1144Y7648*
X1099Y7693*
X1077Y7783*
Y7902*
X1099Y8021*
X1144Y8088*
X1226Y8111*
X1271*
X1346Y8088*
X1368Y8044*
X1233Y13848D02*
Y14199D01*
X1210Y14273*
X1166Y14318*
X1099Y14341*
X1054*
X987Y14318*
X942Y14273*
X920Y14199*
Y13848*
X1256Y3689D02*
X1323Y3711D01*
X1368Y3778*
X1390Y3898*
Y3965*
X1368Y4084*
X1323Y4151*
X1256Y4174*
X1211*
X1144Y4151*
X1099Y4084*
X1077Y3965*
Y3898*
X1099Y3778*
X1144Y3711*
X1211Y3689*
X1256*
X1335Y12035D02*
X1402Y12058D01*
X1447Y12125*
X1469Y12244*
Y12311*
X1447Y12431*
X1402Y12498*
X1335Y12520*
X1290*
X1223Y12498*
X1178Y12431*
X1156Y12311*
Y12244*
X1178Y12125*
X1223Y12058*
X1290Y12035*
X1335*
X1545Y14035D02*
X1732D01*
X1592Y4830D02*
X1346D01*
X1480Y5017*
X1413*
X1368Y5039*
X1346Y5061*
X1323Y5129*
Y5181*
X1346Y5248*
X1390Y5293*
X1457Y5315*
X1524*
X1592Y5293*
X1614Y5270*
X1636Y5225*
X1614Y8879D02*
Y8857D01*
X1592Y8812*
X1569Y8790*
X1524Y8760*
X1435*
X1390Y8790*
X1368Y8812*
X1346Y8857*
Y8902*
X1368Y8946*
X1413Y9021*
X1636Y9252*
X1323*
X1748Y7626D02*
X1815Y7648D01*
X1860Y7715*
X1882Y7835*
Y7902*
X1860Y8021*
X1815Y8088*
X1748Y8111*
X1703*
X1636Y8088*
X1592Y8021*
X1569Y7902*
Y7835*
X1592Y7715*
X1636Y7648*
X1703Y7626*
X1748*
X1763Y3778D02*
X1733Y3756D01*
X1696Y3689*
Y4174*
X1870Y13169D02*
X2067D01*
Y13996*
X1870*
Y13169*
X1939Y12147D02*
Y12125D01*
X1916Y12080*
X1894Y12058*
X1849Y12028*
X1760*
X1715Y12058*
X1693Y12080*
X1670Y12125*
Y12170*
X1693Y12214*
X1737Y12289*
X1961Y12520*
X1648*
X1972Y5061D02*
X1815Y5315D01*
X1972Y8998D02*
X1815Y9252D01*
X2128Y5315D02*
Y4823D01*
X1927*
X1860Y4853*
X1838Y4875*
X1815Y4920*
Y4965*
X1838Y5009*
X1860Y5039*
X1927Y5061*
X2128*
Y9252D02*
Y8760D01*
X1927*
X1860Y8790*
X1838Y8812*
X1815Y8857*
Y8902*
X1838Y8946*
X1860Y8976*
X1927Y8998*
X2128*
X2194Y15085D02*
X2261Y15107D01*
X2283Y15152*
Y15197*
X2261Y15249*
X2216Y15271*
X2127Y15294*
X2060Y15316*
X2015Y15361*
X1992Y15406*
Y15480*
X2015Y15525*
X2037Y15547*
X2104Y15570*
X2194*
X2261Y15547*
X2283Y15525*
X2306Y15480*
Y15406*
X2283Y15361*
X2239Y15316*
X2171Y15294*
X2082Y15271*
X2037Y15249*
X2015Y15197*
Y15152*
X2037Y15107*
X2104Y15085*
X2194*
X2255Y3778D02*
X2225Y3756D01*
X2188Y3689*
Y4174*
X2255Y7715D02*
X2225Y7693D01*
X2188Y7626*
Y8111*
X2334Y12125D02*
X2304Y12103D01*
X2267Y12035*
Y12520*
X2553Y3801D02*
X2576Y3756D01*
X2621Y3711*
X2658Y3682*
X2747*
X2785Y3711*
X2829Y3756*
X2852Y3801*
X2867Y3868*
Y3987*
X2852Y4054*
X2829Y4107*
X2785Y4151*
X2747Y4174*
X2658*
X2621Y4151*
X2576Y4107*
X2553Y4054*
Y7738D02*
X2576Y7693D01*
X2621Y7648*
X2658Y7619*
X2747*
X2785Y7648*
X2829Y7693*
X2852Y7738*
X2867Y7805*
Y7924*
X2852Y7991*
X2829Y8044*
X2785Y8088*
X2747Y8111*
X2658*
X2621Y8088*
X2576Y8044*
X2553Y7991*
X2621Y4823D02*
X2464Y5315D01*
X2307Y4823*
X2621Y8760D02*
X2464Y9252D01*
X2307Y8760*
X2632Y12147D02*
X2655Y12103D01*
X2699Y12058*
X2737Y12028*
X2826*
X2863Y12058*
X2908Y12103*
X2930Y12147*
X2945Y12214*
Y12334*
X2930Y12401*
X2908Y12453*
X2863Y12498*
X2826Y12520*
X2737*
X2699Y12498*
X2655Y12453*
X2632Y12401*
X2798Y15085D02*
X2485D01*
X2708Y15570*
X2977Y15197D02*
X2999Y15152D01*
X3044Y15107*
X3081Y15078*
X3171*
X3208Y15107*
X3253Y15152*
X3275Y15197*
X3290Y15264*
Y15383*
X3275Y15450*
X3253Y15503*
X3208Y15547*
X3171Y15570*
X3081*
X3044Y15547*
X2999Y15503*
X2977Y15450*
X3344Y1806D02*
X3366Y1762D01*
X3440Y1739*
X3493*
X3567Y1762*
X3612Y1829*
X3634Y1948*
Y2060*
X3612Y2157*
X3567Y2202*
X3493Y2224*
X3470*
X3396Y2202*
X3344Y2157*
X3321Y2090*
Y2060*
X3344Y1993*
X3396Y1948*
X3470Y1926*
X3493*
X3567Y1948*
X3612Y1993*
X3634Y2060*
X3597Y11732D02*
Y12072D01*
X4277*
Y11550*
X3780*
X3597Y11732*
X3612Y5788D02*
Y5766D01*
X3590Y5721*
X3567Y5699*
X3523Y5669*
X3433*
X3388Y5699*
X3366Y5721*
X3344Y5766*
Y5811*
X3366Y5855*
X3411Y5930*
X3634Y6161*
X3321*
X3637Y11550D02*
G03X3597Y11589I40D01*
X3558Y11550J39*
X3597Y11511I39*
X3637Y11550J39*
G01X3747Y9004D02*
X3501D01*
X3635Y9190*
X3568*
X3523Y9213*
X3501Y9235*
X3479Y9302*
Y9354*
X3501Y9421*
X3546Y9466*
X3613Y9489*
X3680*
X3747Y9466*
X3769Y9444*
X3792Y9399*
X3831Y5067D02*
X3518D01*
X3742Y5552*
X3992Y1739D02*
X4059Y1762D01*
X4104Y1829*
X4126Y1948*
Y2015*
X4104Y2135*
X4059Y2202*
X3992Y2224*
X3948*
X3880Y2202*
X3836Y2135*
X3813Y2015*
Y1948*
X3836Y1829*
X3880Y1762*
X3948Y1739*
X3992*
Y5676D02*
X4059Y5699D01*
X4104Y5766*
X4126Y5885*
Y5952*
X4104Y6072*
X4059Y6139*
X3992Y6161*
X3948*
X3880Y6139*
X3836Y6072*
X3813Y5952*
Y5885*
X3836Y5766*
X3880Y5699*
X3948Y5676*
X3992*
X4150Y9004D02*
X4217Y9026D01*
X4262Y9093*
X4284Y9213*
Y9280*
X4262Y9399*
X4217Y9466*
X4150Y9489*
X4105*
X4038Y9466*
X3993Y9399*
X3971Y9280*
Y9213*
X3993Y9093*
X4038Y9026*
X4105Y9004*
X4150*
X4189Y5067D02*
X4256Y5089D01*
X4301Y5156*
X4323Y5276*
Y5343*
X4301Y5462*
X4256Y5529*
X4189Y5552*
X4144*
X4077Y5529*
X4033Y5462*
X4010Y5343*
Y5276*
X4033Y5156*
X4077Y5089*
X4144Y5067*
X4189*
X4420Y10824D02*
X4628Y11145D01*
X4315*
X4420Y10824D02*
Y11309D01*
X4499Y1829D02*
X4469Y1806D01*
X4432Y1739*
Y2224*
X4499Y5766D02*
X4469Y5743D01*
X4432Y5676*
Y6161*
X4657Y9093D02*
X4627Y9071D01*
X4590Y9004*
Y9489*
X4696Y5156D02*
X4666Y5134D01*
X4629Y5067*
Y5552*
X4798Y1851D02*
X4820Y1806D01*
X4865Y1762*
X4902Y1732*
X4991*
X5029Y1762*
X5073Y1806*
X5096Y1851*
X5111Y1918*
Y2038*
X5096Y2105*
X5073Y2157*
X5029Y2202*
X4991Y2224*
X4902*
X4865Y2202*
X4820Y2157*
X4798Y2105*
Y5788D02*
X4820Y5743D01*
X4865Y5699*
X4902Y5669*
X4991*
X5029Y5699*
X5073Y5743*
X5096Y5788*
X5111Y5855*
Y5975*
X5096Y6042*
X5073Y6094*
X5029Y6139*
X4991Y6161*
X4902*
X4865Y6139*
X4820Y6094*
X4798Y6042*
X4955Y9116D02*
X4977Y9071D01*
X5022Y9026*
X5059Y8996*
X5149*
X5186Y9026*
X5231Y9071*
X5253Y9116*
X5268Y9183*
Y9302*
X5253Y9369*
X5231Y9421*
X5186Y9466*
X5149Y9489*
X5059*
X5022Y9466*
X4977Y9421*
X4955Y9369*
X4964Y11056D02*
X4807Y11309D01*
X4994Y5179D02*
X5017Y5134D01*
X5062Y5089*
X5099Y5059*
X5188*
X5226Y5089*
X5270Y5134*
X5293Y5179*
X5308Y5246*
Y5365*
X5293Y5432*
X5270Y5484*
X5226Y5529*
X5188Y5552*
X5099*
X5062Y5529*
X5017Y5484*
X4994Y5432*
X5121Y11309D02*
Y10817D01*
X4919*
X4852Y10847*
X4830Y10869*
X4807Y10914*
Y10959*
X4830Y11003*
X4852Y11033*
X4919Y11056*
X5121*
X5502Y13657D02*
X5994D01*
Y13970*
X5509Y14358D02*
X5830Y14149D01*
Y14462*
X5509Y14358D02*
X5994D01*
X5613Y10817D02*
X5456Y11309D01*
X5300Y10817*
X5715Y11477D02*
X5737Y11410D01*
X5782Y11388*
X5827*
X5879Y11410*
X5901Y11455*
X5924Y11545*
X5946Y11612*
X5991Y11656*
X6036Y11679*
X6110*
X6155Y11656*
X6177Y11634*
X6200Y11567*
Y11477*
X6177Y11410*
X6155Y11388*
X6110Y11366*
X6036*
X5991Y11388*
X5946Y11433*
X5924Y11500*
X5901Y11589*
X5879Y11634*
X5827Y11656*
X5782*
X5737Y11634*
X5715Y11567*
Y11477*
X5804Y10501D02*
X5782Y10531D01*
X5715Y10568*
X6200*
X5804Y10993D02*
X5782Y11023D01*
X5715Y11060*
X6200*
X5827Y10202D02*
X5782Y10180D01*
X5737Y10135*
X5707Y10098*
Y10009*
X5737Y9971*
X5782Y9927*
X5827Y9904*
X5894Y9889*
X6013*
X6080Y9904*
X6132Y9927*
X6177Y9971*
X6200Y10009*
Y10098*
X6177Y10135*
X6132Y10180*
X6080Y10202*
X6087Y689D02*
X9268D01*
Y3248*
X6087*
Y689*
X6092Y3383D02*
X6316D01*
X6338Y3592*
X6316Y3570*
X6249Y3547*
X6182*
X6115Y3570*
X6070Y3615*
X6048Y3682*
Y3734*
X6070Y3801*
X6115Y3846*
X6182Y3868*
X6249*
X6316Y3846*
X6338Y3823*
X6361Y3779*
X6513Y10540D02*
X6491Y10570D01*
X6424Y10607*
X6908*
X6513Y11032D02*
X6491Y11062D01*
X6424Y11099*
X6908*
X6535Y10242D02*
X6491Y10219D01*
X6446Y10175*
X6416Y10137*
Y10048*
X6446Y10011*
X6491Y9966*
X6535Y9944*
X6603Y9929*
X6722*
X6789Y9944*
X6841Y9966*
X6886Y10011*
X6908Y10048*
Y10137*
X6886Y10175*
X6841Y10219*
X6789Y10242*
X6580Y11718D02*
X6655Y11696D01*
X6699Y11651*
X6722Y11569*
Y11547*
X6699Y11472*
X6655Y11427*
X6580Y11405*
X6558*
X6491Y11427*
X6446Y11472*
X6424Y11547*
Y11569*
X6446Y11651*
X6491Y11696*
X6580Y11718*
X6699*
X6819Y11696*
X6886Y11651*
X6908Y11569*
Y11524*
X6886Y11450*
X6841Y11427*
X6853Y3376D02*
X6696Y3868D01*
X6540Y3376*
X7194Y10431D02*
Y10744D01*
X7678Y10520*
X7306Y10252D02*
X7261Y10229D01*
X7216Y10185*
X7186Y10147*
Y10058*
X7216Y10021*
X7261Y9976*
X7306Y9953*
X7373Y9938*
X7492*
X7559Y9953*
X7611Y9976*
X7656Y10021*
X7678Y10058*
Y10147*
X7656Y10185*
X7611Y10229*
X7559Y10252*
X7323Y3495D02*
Y3473D01*
X7300Y3428*
X7278Y3406*
X7233Y3376*
X7144*
X7099Y3406*
X7077Y3428*
X7054Y3473*
Y3518*
X7077Y3562*
X7121Y3637*
X7345Y3868*
X7032*
X7345Y69D02*
X7188D01*
X7121Y99*
X7077Y143*
X7054Y188*
X7032Y255*
Y375*
X7054Y442*
X7077Y494*
X7121Y539*
X7188Y561*
X7345*
Y69*
X7350Y11236D02*
X7425Y11214D01*
X7470Y11169*
X7492Y11087*
Y11064*
X7470Y10990*
X7425Y10945*
X7350Y10923*
X7328*
X7261Y10945*
X7216Y10990*
X7194Y11064*
Y11087*
X7216Y11169*
X7261Y11214*
X7350Y11236*
X7470*
X7589Y11214*
X7656Y11169*
X7678Y11087*
Y11042*
X7656Y10967*
X7611Y10945*
X7629Y7423D02*
X7652Y7393D01*
X7719Y7355*
X7234*
X7652Y8213D02*
X7697Y8258D01*
X7726Y8325*
Y8414*
X7697Y8481*
X7652Y8526*
X7607*
X7562Y8504*
X7540Y8481*
X7510Y8437*
X7465Y8302*
X7443Y8258*
X7421Y8235*
X7376Y8213*
X7301*
X7257Y8258*
X7234Y8325*
Y8414*
X7257Y8481*
X7301Y8526*
X7726Y8034D02*
X7234Y7959D01*
X7726Y7877*
X7234Y7803*
X7726Y7721*
X7837Y561D02*
Y69D01*
X7524Y561*
Y69*
X8016Y188D02*
X8038Y143D01*
X8083Y99*
X8120Y69*
X8210*
X8247Y99*
X8292Y143*
X8314Y188*
X8329Y255*
Y375*
X8314Y442*
X8292Y494*
X8247Y539*
X8210Y561*
X8120*
X8083Y539*
X8038Y494*
X8016Y442*
Y375*
X8120*
X8324Y3383D02*
X8078D01*
X8212Y3570*
X8145*
X8100Y3592*
X8078Y3615*
X8055Y3682*
Y3734*
X8078Y3801*
X8123Y3846*
X8190Y3868*
X8257*
X8324Y3846*
X8346Y3823*
X8369Y3779*
X8353Y14938D02*
X8376Y14893D01*
X8450Y14871*
X8503*
X8577Y14893*
X8622Y14960*
X8644Y15080*
Y15191*
X8622Y15288*
X8577Y15333*
X8503Y15356*
X8480*
X8406Y15333*
X8353Y15288*
X8331Y15221*
Y15191*
X8353Y15124*
X8406Y15080*
X8480Y15057*
X8503*
X8577Y15080*
X8622Y15124*
X8644Y15191*
X8593Y4535D02*
Y5019D01*
Y4535D02*
X8802Y4855D01*
X8489*
X8644Y14241D02*
X8331D01*
X8555Y14726*
X8861Y3376D02*
X8704Y3868D01*
X8548Y3376*
X9026Y13051D02*
X9213D01*
X9136Y14241D02*
X8823D01*
X9047Y14726*
X9136Y14871D02*
X8823D01*
X9047Y15356*
X9154Y13226D02*
Y13711D01*
Y13226D02*
X9363Y13547D01*
X9050*
X9182Y4535D02*
X9249Y4557D01*
X9271Y4602*
Y4646*
X9249Y4699*
X9204Y4721*
X9115Y4743*
X9048Y4766*
X9003Y4811*
X8981Y4855*
Y4930*
X9003Y4975*
X9025Y4997*
X9092Y5019*
X9182*
X9249Y4997*
X9271Y4975*
X9294Y4930*
Y4855*
X9271Y4811*
X9227Y4766*
X9160Y4743*
X9070Y4721*
X9025Y4699*
X9003Y4646*
Y4602*
X9025Y4557*
X9092Y4535*
X9182*
X9308Y3383D02*
X9062D01*
X9196Y3570*
X9129*
X9084Y3592*
X9062Y3615*
X9040Y3682*
Y3734*
X9062Y3801*
X9107Y3846*
X9174Y3868*
X9241*
X9308Y3846*
X9330Y3823*
X9353Y3779*
X9315Y14353D02*
X9338Y14308D01*
X9382Y14263*
X9420Y14233*
X9509*
X9546Y14263*
X9591Y14308*
X9614Y14353*
X9628Y14420*
Y14539*
X9614Y14606*
X9591Y14658*
X9546Y14703*
X9509Y14726*
X9420*
X9382Y14703*
X9338Y14658*
X9315Y14606*
Y14983D02*
X9338Y14938D01*
X9382Y14893*
X9420Y14863*
X9509*
X9546Y14893*
X9591Y14938*
X9614Y14983*
X9628Y15050*
Y15169*
X9614Y15236*
X9591Y15288*
X9546Y15333*
X9509Y15356*
X9420*
X9382Y15333*
X9338Y15288*
X9315Y15236*
X9350Y12185D02*
X9547D01*
Y13012*
X9350*
Y12185*
X9473Y4646D02*
X9495Y4602D01*
X9540Y4557*
X9577Y4527*
X9667*
X9704Y4557*
X9749Y4602*
X9771Y4646*
X9786Y4714*
Y4833*
X9771Y4900*
X9749Y4952*
X9704Y4997*
X9667Y5019*
X9577*
X9540Y4997*
X9495Y4952*
X9473Y4900*
X9747Y3167D02*
Y2674D01*
X9433Y3167*
Y2674*
X9855Y13219D02*
Y13569D01*
X9832Y13644*
X9788Y13688*
X9721Y13711*
X9676*
X9609Y13688*
X9564Y13644*
X9542Y13569*
Y13219*
X10119Y2771D02*
X10090Y2749D01*
X10052Y2682*
Y3167*
X10731Y2674D02*
X10574Y3167D01*
X10418Y2674*
X11223Y3331D02*
X10910D01*
X11558Y2674D02*
Y3167D01*
X11715Y2674D02*
X11402D01*
X11894D02*
X12207Y3167D01*
X12107Y6699D02*
X12161Y6717D01*
X12197Y6770*
X12215Y6866*
Y6920*
X12197Y7015*
X12161Y7069*
X12107Y7087*
X12071*
X12018Y7069*
X11982Y7015*
X11964Y6920*
Y6866*
X11982Y6770*
X12018Y6717*
X12071Y6699*
X12107*
X12119Y7755D02*
X12095Y7737D01*
X12065Y7683*
Y8071*
X12197Y8757D02*
Y8739D01*
X12179Y8703*
X12161Y8685*
X12125Y8661*
X12054*
X12018Y8685*
X12000Y8703*
X11982Y8739*
Y8775*
X12000Y8811*
X12036Y8870*
X12215Y9055*
X11964*
X12207Y2674D02*
X11894Y3167D01*
X12386Y2674D02*
X12699D01*
Y3167*
X12386*
X12608Y7087D02*
Y6693D01*
X12483Y7087*
X12358Y6693*
Y7087*
X12608Y8071D02*
Y7677D01*
X12483Y8071*
X12358Y7677*
Y8071*
X12608Y9055D02*
Y8661D01*
X12483Y9055*
X12358Y8661*
Y9055*
X12699Y2913D02*
X12505D01*
X12835Y2854D02*
X13937D01*
Y4232*
X12835*
Y2854*
Y12303D02*
X13937D01*
Y13681*
X12835*
Y12303*
Y13189D02*
X13937D01*
X12835Y13228D02*
X13937D01*
X12835Y13268D02*
X13937D01*
Y3268D02*
X12835D01*
X13937Y3307D02*
X12835D01*
X13937Y3346D02*
X12835D01*
X14362Y12898D02*
X14332Y12876D01*
X14294Y12809*
Y13293*
X14458Y3023D02*
Y3000D01*
X14436Y2956*
X14414Y2933*
X14369Y2904*
X14279*
X14235Y2933*
X14212Y2956*
X14190Y3000*
Y3045*
X14212Y3090*
X14257Y3165*
X14481Y3396*
X14168*
X14660Y3023D02*
X14682Y2978D01*
X14727Y2933*
X14764Y2904*
X14854*
X14891Y2933*
X14936Y2978*
X14958Y3023*
X14973Y3090*
Y3209*
X14958Y3276*
X14936Y3329*
X14891Y3373*
X14854Y3396*
X14764*
X14727Y3373*
X14682Y3329*
X14660Y3276*
Y12920D02*
X14682Y12876D01*
X14727Y12831*
X14764Y12801*
X14854*
X14891Y12831*
X14936Y12876*
X14958Y12920*
X14973Y12988*
Y13107*
X14958Y13174*
X14936Y13226*
X14891Y13271*
X14854Y13293*
X14764*
X14727Y13271*
X14682Y13226*
X14660Y13174*
X18611Y1288D02*
X18678Y1311D01*
X18701Y1355*
Y1400*
X18678Y1452*
X18633Y1475*
X18544Y1497*
X18477Y1519*
X18432Y1564*
X18410Y1609*
Y1683*
X18432Y1728*
X18455Y1750*
X18522Y1773*
X18611*
X18678Y1750*
X18701Y1728*
X18723Y1683*
Y1609*
X18701Y1564*
X18656Y1519*
X18589Y1497*
X18499Y1475*
X18455Y1452*
X18432Y1400*
Y1355*
X18455Y1311*
X18522Y1288*
X18611*
X19193Y1400D02*
Y1378D01*
X19170Y1333*
X19148Y1311*
X19103Y1281*
X19014*
X18969Y1311*
X18947Y1333*
X18924Y1378*
Y1422*
X18947Y1467*
X18991Y1542*
X19215Y1773*
X18902*
X19394Y1400D02*
X19416Y1355D01*
X19461Y1311*
X19498Y1281*
X19588*
X19625Y1311*
X19670Y1355*
X19692Y1400*
X19707Y1467*
Y1586*
X19692Y1654*
X19670Y1706*
X19625Y1750*
X19588Y1773*
X19498*
X19461Y1750*
X19416Y1706*
X19394Y1654*
X19480Y2607D02*
X19450Y2584D01*
X19413Y2517*
Y3002*
X20091Y2510D02*
Y2860D01*
X20069Y2935*
X20024Y2980*
X19957Y3002*
X19912*
X19845Y2980*
X19800Y2935*
X19778Y2860*
Y2510*
X23819Y3346D02*
X15157D01*
Y12402*
X24213*
Y3740*
X23819Y3346*
X24359Y9866D02*
X24381Y9799D01*
X24449Y9754*
X24568Y9732*
X24635*
X24754Y9754*
X24821Y9799*
X24844Y9866*
Y9911*
X24821Y9978*
X24754Y10023*
X24635Y10045*
X24568*
X24449Y10023*
X24381Y9978*
X24359Y9911*
Y9866*
X24376Y5070D02*
X24399Y5003D01*
X24443Y4981*
X24488*
X24540Y5003*
X24563Y5048*
X24585Y5137*
X24608Y5204*
X24652Y5249*
X24697Y5271*
X24772*
X24816Y5249*
X24839Y5227*
X24861Y5159*
Y5070*
X24839Y5003*
X24816Y4981*
X24772Y4958*
X24697*
X24652Y4981*
X24608Y5025*
X24585Y5092*
X24563Y5182*
X24540Y5227*
X24488Y5249*
X24443*
X24399Y5227*
X24376Y5159*
Y5070*
Y5450D02*
Y5763D01*
X24861Y5540*
X24376Y7629D02*
X24399Y7562D01*
X24443Y7540*
X24488*
X24540Y7562*
X24563Y7607*
X24585Y7696*
X24608Y7763*
X24652Y7808*
X24697Y7830*
X24772*
X24816Y7808*
X24839Y7786*
X24861Y7719*
Y7629*
X24839Y7562*
X24816Y7540*
X24772Y7517*
X24697*
X24652Y7540*
X24608Y7584*
X24585Y7651*
X24563Y7741*
X24540Y7786*
X24488Y7808*
X24443*
X24399Y7786*
X24376Y7719*
Y7629*
Y8121D02*
X24399Y8054D01*
X24443Y8032*
X24488*
X24540Y8054*
X24563Y8099*
X24585Y8188*
X24608Y8255*
X24652Y8300*
X24697Y8323*
X24772*
X24816Y8300*
X24839Y8278*
X24861Y8211*
Y8121*
X24839Y8054*
X24816Y8032*
X24772Y8009*
X24697*
X24652Y8032*
X24608Y8076*
X24585Y8144*
X24563Y8233*
X24540Y8278*
X24488Y8300*
X24443*
X24399Y8278*
X24376Y8211*
Y8121*
X24449Y10343D02*
X24426Y10373D01*
X24359Y10410*
X24844*
X24449Y9359D02*
X24426Y9389D01*
X24359Y9426*
X24844*
X24471Y9061D02*
X24426Y9038D01*
X24381Y8994*
X24352Y8956*
Y8867*
X24381Y8830*
X24426Y8785*
X24471Y8762*
X24538Y8748*
X24657*
X24724Y8762*
X24777Y8785*
X24821Y8830*
X24844Y8867*
Y8956*
X24821Y8994*
X24777Y9038*
X24724Y9061*
X24488Y4779D02*
X24443Y4757D01*
X24399Y4712*
X24369Y4675*
Y4585*
X24399Y4548*
X24443Y4503*
X24488Y4481*
X24555Y4466*
X24675*
X24742Y4481*
X24794Y4503*
X24839Y4548*
X24861Y4585*
Y4675*
X24839Y4712*
X24794Y4757*
X24742Y4779*
X24488Y7338D02*
X24443Y7316D01*
X24399Y7271*
X24369Y7234*
Y7144*
X24399Y7107*
X24443Y7062*
X24488Y7040*
X24555Y7025*
X24675*
X24742Y7040*
X24794Y7062*
X24839Y7107*
X24861Y7144*
Y7234*
X24839Y7271*
X24794Y7316*
X24742Y7338*
X24977Y12221D02*
X25000Y12177D01*
X25074Y12154*
X25127*
X25201Y12177*
X25246Y12244*
X25268Y12363*
Y12475*
X25246Y12572*
X25201Y12617*
X25127Y12639*
X25104*
X25030Y12617*
X24977Y12572*
X24955Y12505*
Y12475*
X24977Y12408*
X25030Y12363*
X25104Y12341*
X25127*
X25201Y12363*
X25246Y12408*
X25268Y12475*
X25059Y11170D02*
Y11655D01*
Y11170D02*
X25268Y11491D01*
X24955*
X25268Y13139D02*
X24955D01*
X25144Y13547*
X24955Y13139*
X25268*
X25447Y11282D02*
X25470Y11237D01*
X25514Y11192*
X25552Y11163*
X25641*
X25678Y11192*
X25723Y11237*
X25745Y11282*
X25760Y11349*
Y11468*
X25745Y11535*
X25723Y11588*
X25678Y11632*
X25641Y11655*
X25552*
X25514Y11632*
X25470Y11588*
X25447Y11535*
Y12266D02*
X25470Y12221D01*
X25514Y12177*
X25552Y12147*
X25641*
X25678Y12177*
X25723Y12221*
X25745Y12266*
X25760Y12333*
Y12453*
X25745Y12520*
X25723Y12572*
X25678Y12617*
X25641Y12639*
X25552*
X25514Y12617*
X25470Y12572*
X25447Y12520*
Y13250D02*
X25470Y13206D01*
X25514Y13161*
X25552Y13131*
X25641*
X25678Y13161*
X25723Y13206*
X25745Y13250*
X25760Y13318*
Y13437*
X25745Y13504*
X25723Y13556*
X25678Y13601*
X25641Y13623*
X25552*
X25514Y13601*
X25470Y13556*
X25447Y13504*
X25586Y157D02*
X25837D01*
Y551*
X25711Y3228D02*
Y3622D01*
X25837Y348D02*
X25682D01*
X25837Y3228D02*
X25586D01*
X25980Y157D02*
X26230D01*
Y551*
X25980*
Y729D02*
X26016Y693D01*
X26069Y669*
X26141*
X26195Y693*
X26230Y729*
Y765*
X26212Y801*
X26195Y818*
X26159Y842*
X26051Y878*
X26016Y896*
X25998Y914*
X25980Y950*
Y1009*
X26016Y1045*
X26069Y1063*
X26141*
X26195Y1045*
X26230Y1009*
X25980Y1181D02*
X26230Y1444D01*
X25980Y2812D02*
X25998Y2776D01*
X26034Y2740*
X26063Y2717*
X26135*
X26165Y2740*
X26201Y2776*
X26218Y2812*
X26230Y2866*
Y2961*
X26218Y3015*
X26201Y3057*
X26165Y3092*
X26135Y3110*
X26063*
X26034Y3092*
X25998Y3057*
X25980Y3015*
X26105Y2205D02*
Y2598D01*
Y3228D02*
Y3622D01*
X26141Y1348D02*
X25980Y1575D01*
X26141Y1693D02*
X26171Y1717D01*
X26201Y1753*
X26218Y1788*
X26230Y1842*
Y1937*
X26218Y1991*
X26201Y2033*
X26171Y2069*
X26141Y2087*
X26075*
X26045Y2069*
X26010Y2033*
X25998Y1991*
X25980Y1937*
Y1842*
X25998Y1788*
X26010Y1753*
X26045Y1717*
X26075Y1693*
X26141*
X26230Y348D02*
X26075D01*
X26230Y1181D02*
Y1575D01*
X26374Y1277D02*
X26391Y1241D01*
X26427Y1205*
X26457Y1181*
X26529*
X26558Y1205*
X26594Y1241*
X26612Y1277*
X26624Y1330*
Y1426*
X26612Y1479*
X26594Y1521*
X26558Y1557*
X26529Y1575*
X26457*
X26427Y1557*
X26391Y1521*
X26374Y1479*
X26499Y348D02*
X26374Y551D01*
X26624D02*
Y157D01*
X26463*
X26409Y181*
X26391Y199*
X26374Y235*
Y271*
X26391Y307*
X26409Y330*
X26463Y348*
X26624*
Y1063D02*
Y669D01*
X26499Y1063*
X26374Y669*
Y1063*
X26624Y1693D02*
X26499D01*
X26445Y1717*
X26409Y1753*
X26391Y1788*
X26374Y1842*
Y1937*
X26391Y1991*
X26409Y2033*
X26445Y2069*
X26499Y2087*
X26624*
Y1693*
Y2205D02*
X26499D01*
X26445Y2229*
X26409Y2264*
X26391Y2300*
X26374Y2354*
Y2449*
X26391Y2503*
X26409Y2545*
X26445Y2581*
X26499Y2598*
X26624*
Y2205*
Y3170D02*
X26374Y2717D01*
X26624Y3622D02*
Y3228D01*
X26374Y3622*
Y3228*
X26892Y669D02*
Y1063D01*
Y1181D02*
Y1575D01*
Y1693D02*
Y2087D01*
Y2205D02*
Y2598D01*
Y3228D02*
Y3622D01*
X27018Y157D02*
X26892Y551D01*
X26767Y157*
X27018Y669D02*
X26767D01*
X27018Y1181D02*
X26767D01*
X27018Y1693D02*
X26767D01*
X27018Y2205D02*
X26767D01*
X27018Y3110D02*
Y2717D01*
X26767Y3110*
Y2717*
X28453Y3135D02*
X28422Y3112D01*
X28385Y3044*
Y3537*
X28756Y3037D02*
Y3415D01*
X28786Y3491*
X28824Y3514*
X28885Y3537*
X28953*
X29013Y3514*
X29044Y3491*
X29074Y3415*
Y3370*
G54D14*
X3066Y4705D02*
G03X3002Y4769I64D01*
X2938Y4705J64*
X3002Y4641I64*
X3066Y4705J64*
G01Y8642D02*
G03X3002Y8706I64D01*
X2938Y8642J64*
X3002Y8578I64*
X3066Y8642J64*
G54D15*
G01X1165Y10917D02*
X3165D01*
Y11917*
X1165*
Y10917*
G54D16*
X3732Y12874D02*
X5307D01*
Y14449*
X3732*
Y12874*
G54D17*
X1831Y3543D02*
Y3150D01*
X2133*
X1831Y3543D02*
X2133D01*
X1831Y7480D02*
Y7087D01*
X2133*
X1831Y7480D02*
X2133D01*
X2433Y3150D02*
X2736D01*
Y3543*
X2433*
Y7087D02*
X2736D01*
Y7480*
X2433*
X2697Y2795D02*
X3000D01*
X2697D02*
Y2402D01*
X3000*
X2697Y6732D02*
Y6339D01*
X3000*
X2697Y6732D02*
X3000D01*
X2756Y13630D02*
Y13327D01*
X3150*
Y13630*
X2881Y13189D02*
X2579D01*
Y12795*
X2881*
X3150Y14232D02*
X2756D01*
Y13930*
X3150Y14232D02*
Y13930D01*
X3300Y2402D02*
X3602D01*
Y2795*
X3300*
Y6339D02*
X3602D01*
Y6732*
X3300*
X3484Y12795D02*
X3181D01*
X3484D02*
Y13189D01*
X3181*
X3543Y10492D02*
Y10795D01*
Y10492D02*
X3937D01*
Y10795*
Y11095D02*
Y11398D01*
X3543*
Y11095*
X5315Y2488D02*
Y2185D01*
X5709*
Y2488*
X5315Y3511D02*
Y3209D01*
X5709*
Y3511*
X5315Y6425D02*
Y6122D01*
X5709*
Y6425*
X5315Y7448D02*
Y7146D01*
X5709*
Y7448*
Y3091D02*
Y2788D01*
Y3091D02*
X5315D01*
Y2788*
X5709Y4114D02*
X5315D01*
Y3811*
X5709Y4114D02*
Y3811D01*
Y7028D02*
X5315D01*
Y6725*
X5709Y7028D02*
Y6725D01*
Y8051D02*
Y7748D01*
Y8051D02*
X5315D01*
Y7748*
X7370Y4331D02*
X7067D01*
Y3937*
X7370*
X7874Y4469D02*
X8268D01*
Y4771*
X7874Y4469D02*
Y4771D01*
X7972Y3937D02*
Y4331D01*
X7670*
X7972Y3937D02*
X7670D01*
X8268Y5071D02*
Y5374D01*
X7874*
Y5071*
X10000Y11437D02*
X10394D01*
Y11740*
X10000Y11437D02*
Y11740D01*
X10204Y11063D02*
X9902D01*
Y10669*
X10204*
X10394Y12040D02*
Y12343D01*
X10000*
Y12040*
X10807Y10669D02*
X10504D01*
X10807D02*
Y11063D01*
X10504*
X13000Y7071D02*
X12697D01*
Y6677*
X13000*
Y8071D02*
X12697D01*
Y7677*
X13000*
Y9071D02*
X12697D01*
Y8677*
X13000*
X13130Y6496D02*
Y6102D01*
X13433*
X13130Y6496D02*
X13433D01*
X13602Y6677D02*
Y7071D01*
X13300*
X13602Y6677D02*
X13300D01*
X13602Y7677D02*
Y8071D01*
X13300*
X13602Y7677D02*
X13300D01*
X13602Y8677D02*
Y9071D01*
X13300*
X13602Y8677D02*
X13300D01*
X13733Y6102D02*
X14035D01*
Y6496*
X13733*
X29134Y10423D02*
X25984D01*
Y3750*
X28740*
X29134Y4144*
Y10423*
G54D18*
X8622Y5874D02*
Y6398D01*
Y5874*
X11063*
X8622*
Y9350D02*
Y9874D01*
Y9350*
Y9874D02*
X11063D01*
X8622*
X11063Y9350D02*
Y9843D01*
Y9350*
G54D19*
X11535Y6181D03*
X24409Y3150D03*
M02*
