*
G04 Job   : Y:\Users\CEG\Central Electronics\Projects\Hastingsp\MENTOR\DUNE\MIB_Module\PCB\MIB_Module.pcb*
G04 User  : ELWT2:hastingsp*
G04 Layer : 02_SoldermaskTop.gdo*
G04 Date  : Wed Jun 28 08:25:48 2023*
G04 VeriBest Example Gerber Output Definition*
%ICAS*%
%MOIN*%
%FSLAX24Y24*%
%OFA0.0000B0.0000*%
G90*
G74*
%AMVB_RECTANGLE*
21,1,$1,$2,0,0,$3*
%
%AMVB_FINGER0*
$3=$1/2*
$4=$2/2*
$5=0-$4*
1,1,$2,$3-$4,0*
21,1,$1-$4,$2,$5/2,0,0*
%
%AMVB_FINGER90*
$3=$1/2*
$4=$2/2*
$5=0-$4*
1,1,$2,0,$3-$4*
21,1,$2,$1-$4,0,$5/2,0*
%
%AMVB_FINGER180*
$3=$1/2*
$4=$2/2*
1,1,$2,$4-$3,0*
21,1,$1-$4,$2,$4/2,0,0*
%
%AMVB_FINGER270*
$3=$1/2*
$4=$2/2*
1,1,$2,0,$4-$3*
21,1,$2,$1-$4,0,$4/2,0*
%
%ADD28C,0.00890*%
%ADD19C,0.02362*%
%ADD16C,0.05906*%
%ADD15C,0.06693*%
%ADD10C,0.23622*%
%ADD70VB_RECTANGLE,0.06693X0.06693X0.00000*%
%ADD11VB_RECTANGLE,0.07000X0.07000X270.00000*%
%ADD71VB_RECTANGLE,0.01870X0.01181X0.00000*%
%ADD12VB_RECTANGLE,0.02500X0.02000X180.00000*%
%ADD22VB_RECTANGLE,0.02500X0.02000X270.00000*%
%ADD14VB_RECTANGLE,0.05906X0.04331X180.00000*%
%ADD20VB_RECTANGLE,0.07000X0.06500X0.00000*%
%ADD13VB_RECTANGLE,0.07000X0.06500X270.00000*%
%ADD17VB_RECTANGLE,0.08661X0.06299X180.00000*%
%ADD27VB_RECTANGLE,0.08858X0.08858X90.00000*%
%ADD18VB_RECTANGLE,0.10827X0.03937X180.00000*%
%ADD21VB_RECTANGLE,0.13386X0.03858X90.00000*%
%ADD29VB_RECTANGLE,0.19000X0.08000X270.00000*%
%ADD23VB_FINGER0,0.04134X0.01378*%
%ADD24VB_FINGER90,0.04134X0.01378*%
%ADD25VB_FINGER180,0.04134X0.01378*%
%ADD26VB_FINGER270,0.04134X0.01378*%
G01*
G54D10*
X11024Y1181D03*
Y14567D03*
X28346D03*
X28347Y1181D03*
G54D11*
X4066Y15197D03*
X5226D03*
X6585Y14409D03*
Y15197D03*
X7441Y11979D03*
Y13139D03*
X7745Y14409D03*
Y15197D03*
X25276Y9066D03*
Y10226D03*
G54D12*
X1752Y4528D03*
Y8465D03*
X2067Y3346D03*
Y7283D03*
X2185Y4528D03*
Y8465D03*
X2500Y3346D03*
Y7283D03*
X2815Y12992D03*
X2933Y2598D03*
Y6535D03*
X3248Y12992D03*
X3366Y2598D03*
Y6535D03*
X4272Y2598D03*
Y6535D03*
X4705Y2598D03*
Y6535D03*
X5689Y5315D03*
Y9252D03*
X6122Y5315D03*
Y9252D03*
X7303Y4134D03*
X7736D03*
X8484D03*
X8917D03*
X10138Y10866D03*
X10571D03*
X12933Y6874D03*
Y7874D03*
Y8874D03*
X13366Y6299D03*
Y6874D03*
Y7874D03*
Y8874D03*
X13799Y6299D03*
G54D13*
X5748Y12138D03*
Y13058D03*
X6614Y12138D03*
Y13058D03*
X25276Y4658D03*
Y5578D03*
Y7217D03*
Y8137D03*
G54D14*
X8091Y6874D03*
Y7874D03*
Y8874D03*
X11594Y6874D03*
Y7874D03*
Y8874D03*
G54D15*
X2665Y11417D03*
X6677Y1969D03*
X7677D03*
X8677D03*
G54D16*
X10984Y3947D03*
Y11801D03*
X13789Y2008D03*
Y14606D03*
X25581Y2008D03*
Y14606D03*
G54D17*
X13386Y2854D03*
Y4232D03*
Y12303D03*
Y13681D03*
G54D18*
X26722Y4724D03*
Y5512D03*
Y6299D03*
Y7087D03*
Y7874D03*
Y8661D03*
Y9449D03*
X28396Y4724D03*
Y5512D03*
Y6299D03*
Y7087D03*
Y7874D03*
Y8661D03*
Y9449D03*
G54D19*
X15551Y3740D03*
Y4134D03*
Y4528D03*
Y4921D03*
Y5315D03*
Y5709D03*
Y6102D03*
Y6496D03*
Y6890D03*
Y7283D03*
Y7677D03*
Y8071D03*
Y8465D03*
Y8858D03*
Y9252D03*
Y9646D03*
Y10039D03*
Y10433D03*
Y10827D03*
Y11220D03*
Y11614D03*
Y12008D03*
X15945Y3740D03*
Y4134D03*
Y4528D03*
Y4921D03*
Y5315D03*
Y5709D03*
Y6102D03*
Y6496D03*
Y6890D03*
Y7283D03*
Y7677D03*
Y8071D03*
Y8465D03*
Y8858D03*
Y9252D03*
Y9646D03*
Y10039D03*
Y10433D03*
Y10827D03*
Y11220D03*
Y11614D03*
Y12008D03*
X16339Y3740D03*
Y4134D03*
Y4528D03*
Y4921D03*
Y5315D03*
Y5709D03*
Y6102D03*
Y6496D03*
Y6890D03*
Y7283D03*
Y7677D03*
Y8071D03*
Y8465D03*
Y8858D03*
Y9252D03*
Y9646D03*
Y10039D03*
Y10433D03*
Y10827D03*
Y11220D03*
Y11614D03*
Y12008D03*
X16732Y3740D03*
Y4134D03*
Y4528D03*
Y4921D03*
Y5315D03*
Y5709D03*
Y6102D03*
Y6496D03*
Y6890D03*
Y7283D03*
Y7677D03*
Y8071D03*
Y8465D03*
Y8858D03*
Y9252D03*
Y9646D03*
Y10039D03*
Y10433D03*
Y10827D03*
Y11220D03*
Y11614D03*
Y12008D03*
X17126Y3740D03*
Y4134D03*
Y4528D03*
Y4921D03*
Y5315D03*
Y5709D03*
Y6102D03*
Y6496D03*
Y6890D03*
Y7283D03*
Y7677D03*
Y8071D03*
Y8465D03*
Y8858D03*
Y9252D03*
Y9646D03*
Y10039D03*
Y10433D03*
Y10827D03*
Y11220D03*
Y11614D03*
Y12008D03*
X17520Y3740D03*
Y4134D03*
Y4528D03*
Y4921D03*
Y5315D03*
Y5709D03*
Y6102D03*
Y6496D03*
Y6890D03*
Y7283D03*
Y7677D03*
Y8071D03*
Y8465D03*
Y8858D03*
Y9252D03*
Y9646D03*
Y10039D03*
Y10433D03*
Y10827D03*
Y11220D03*
Y11614D03*
Y12008D03*
X17913Y3740D03*
Y4134D03*
Y4528D03*
Y4921D03*
Y5315D03*
Y5709D03*
Y6102D03*
Y6496D03*
Y6890D03*
Y7283D03*
Y7677D03*
Y8071D03*
Y8465D03*
Y8858D03*
Y9252D03*
Y9646D03*
Y10039D03*
Y10433D03*
Y10827D03*
Y11220D03*
Y11614D03*
Y12008D03*
X18307Y3740D03*
Y4134D03*
Y4528D03*
Y4921D03*
Y5315D03*
Y5709D03*
Y6102D03*
Y6496D03*
Y6890D03*
Y7283D03*
Y7677D03*
Y8071D03*
Y8465D03*
Y8858D03*
Y9252D03*
Y9646D03*
Y10039D03*
Y10433D03*
Y10827D03*
Y11220D03*
Y11614D03*
Y12008D03*
X18701Y3740D03*
Y4134D03*
Y4528D03*
Y4921D03*
Y5315D03*
Y5709D03*
Y6102D03*
Y6496D03*
Y6890D03*
Y7283D03*
Y7677D03*
Y8071D03*
Y8465D03*
Y8858D03*
Y9252D03*
Y9646D03*
Y10039D03*
Y10433D03*
Y10827D03*
Y11220D03*
Y11614D03*
Y12008D03*
X19094Y3740D03*
Y4134D03*
Y4528D03*
Y4921D03*
Y5315D03*
Y5709D03*
Y6102D03*
Y6496D03*
Y6890D03*
Y7283D03*
Y7677D03*
Y8071D03*
Y8465D03*
Y8858D03*
Y9252D03*
Y9646D03*
Y10039D03*
Y10433D03*
Y10827D03*
Y11220D03*
Y11614D03*
Y12008D03*
X19488Y3740D03*
Y4134D03*
Y4528D03*
Y4921D03*
Y5315D03*
Y5709D03*
Y6102D03*
Y6496D03*
Y6890D03*
Y7283D03*
Y7677D03*
Y8071D03*
Y8465D03*
Y8858D03*
Y9252D03*
Y9646D03*
Y10039D03*
Y10433D03*
Y10827D03*
Y11220D03*
Y11614D03*
Y12008D03*
X19882Y3740D03*
Y4134D03*
Y4528D03*
Y4921D03*
Y5315D03*
Y5709D03*
Y6102D03*
Y6496D03*
Y6890D03*
Y7283D03*
Y7677D03*
Y8071D03*
Y8465D03*
Y8858D03*
Y9252D03*
Y9646D03*
Y10039D03*
Y10433D03*
Y10827D03*
Y11220D03*
Y11614D03*
Y12008D03*
X20276Y3740D03*
Y4134D03*
Y4528D03*
Y4921D03*
Y5315D03*
Y5709D03*
Y6102D03*
Y6496D03*
Y6890D03*
Y7283D03*
Y7677D03*
Y8071D03*
Y8465D03*
Y8858D03*
Y9252D03*
Y9646D03*
Y10039D03*
Y10433D03*
Y10827D03*
Y11220D03*
Y11614D03*
Y12008D03*
X20669Y3740D03*
Y4134D03*
Y4528D03*
Y4921D03*
Y5315D03*
Y5709D03*
Y6102D03*
Y6496D03*
Y6890D03*
Y7283D03*
Y7677D03*
Y8071D03*
Y8465D03*
Y8858D03*
Y9252D03*
Y9646D03*
Y10039D03*
Y10433D03*
Y10827D03*
Y11220D03*
Y11614D03*
Y12008D03*
X21063Y3740D03*
Y4134D03*
Y4528D03*
Y4921D03*
Y5315D03*
Y5709D03*
Y6102D03*
Y6496D03*
Y6890D03*
Y7283D03*
Y7677D03*
Y8071D03*
Y8465D03*
Y8858D03*
Y9252D03*
Y9646D03*
Y10039D03*
Y10433D03*
Y10827D03*
Y11220D03*
Y11614D03*
Y12008D03*
X21457Y3740D03*
Y4134D03*
Y4528D03*
Y4921D03*
Y5315D03*
Y5709D03*
Y6102D03*
Y6496D03*
Y6890D03*
Y7283D03*
Y7677D03*
Y8071D03*
Y8465D03*
Y8858D03*
Y9252D03*
Y9646D03*
Y10039D03*
Y10433D03*
Y10827D03*
Y11220D03*
Y11614D03*
Y12008D03*
X21850Y3740D03*
Y4134D03*
Y4528D03*
Y4921D03*
Y5315D03*
Y5709D03*
Y6102D03*
Y6496D03*
Y6890D03*
Y7283D03*
Y7677D03*
Y8071D03*
Y8465D03*
Y8858D03*
Y9252D03*
Y9646D03*
Y10039D03*
Y10433D03*
Y10827D03*
Y11220D03*
Y11614D03*
Y12008D03*
X22244Y3740D03*
Y4134D03*
Y4528D03*
Y4921D03*
Y5315D03*
Y5709D03*
Y6102D03*
Y6496D03*
Y6890D03*
Y7283D03*
Y7677D03*
Y8071D03*
Y8465D03*
Y8858D03*
Y9252D03*
Y9646D03*
Y10039D03*
Y10433D03*
Y10827D03*
Y11220D03*
Y11614D03*
Y12008D03*
X22638Y3740D03*
Y4134D03*
Y4528D03*
Y4921D03*
Y5315D03*
Y5709D03*
Y6102D03*
Y6496D03*
Y6890D03*
Y7283D03*
Y7677D03*
Y8071D03*
Y8465D03*
Y8858D03*
Y9252D03*
Y9646D03*
Y10039D03*
Y10433D03*
Y10827D03*
Y11220D03*
Y11614D03*
Y12008D03*
X23031Y3740D03*
Y4134D03*
Y4528D03*
Y4921D03*
Y5315D03*
Y5709D03*
Y6102D03*
Y6496D03*
Y6890D03*
Y7283D03*
Y7677D03*
Y8071D03*
Y8465D03*
Y8858D03*
Y9252D03*
Y9646D03*
Y10039D03*
Y10433D03*
Y10827D03*
Y11220D03*
Y11614D03*
Y12008D03*
X23425Y3740D03*
Y4134D03*
Y4528D03*
Y4921D03*
Y5315D03*
Y5709D03*
Y6102D03*
Y6496D03*
Y6890D03*
Y7283D03*
Y7677D03*
Y8071D03*
Y8465D03*
Y8858D03*
Y9252D03*
Y9646D03*
Y10039D03*
Y10433D03*
Y10827D03*
Y11220D03*
Y11614D03*
Y12008D03*
X23819Y3740D03*
Y4134D03*
Y4528D03*
Y4921D03*
Y5315D03*
Y5709D03*
Y6102D03*
Y6496D03*
Y6890D03*
Y7283D03*
Y7677D03*
Y8071D03*
Y8465D03*
Y8858D03*
Y9252D03*
Y9646D03*
Y10039D03*
Y10433D03*
Y10827D03*
Y11220D03*
Y11614D03*
Y12008D03*
G54D20*
X3477Y12441D03*
X4397D03*
X18595Y827D03*
X19515D03*
X26154Y11417D03*
Y12402D03*
Y13386D03*
X27074Y11417D03*
Y12402D03*
Y13386D03*
G54D21*
X3939Y13661D03*
X5100D03*
G54D22*
X2953Y13563D03*
Y13996D03*
X3740Y10728D03*
Y11161D03*
X5512Y2421D03*
Y2854D03*
Y3445D03*
Y3878D03*
Y6358D03*
Y6791D03*
Y7382D03*
Y7815D03*
X8071Y4705D03*
Y5138D03*
X10197Y11673D03*
Y12106D03*
G54D23*
X3209Y3553D03*
Y3809D03*
Y4065D03*
Y4321D03*
Y7490D03*
Y7746D03*
Y8002D03*
Y8258D03*
G54D24*
X3553Y3209D03*
Y7146D03*
X3809Y3209D03*
Y7146D03*
X4065Y3209D03*
Y7146D03*
X4321Y3209D03*
Y7146D03*
G54D25*
X4665Y3553D03*
Y3809D03*
Y4065D03*
Y4321D03*
Y7490D03*
Y7746D03*
Y8002D03*
Y8258D03*
G54D26*
X3553Y4665D03*
Y8602D03*
X3809Y4665D03*
Y8602D03*
X4065Y4665D03*
Y8602D03*
X4321Y4665D03*
Y8602D03*
G54D27*
X3937Y3937D03*
Y7874D03*
G54D28*
X3780Y11732D03*
Y11890D03*
X3937Y11732D03*
Y11890D03*
X4094Y11732D03*
Y11890D03*
G54D29*
X1104Y1220D03*
X2204D03*
G54D70*
X1665Y11417D03*
G54D71*
X1639Y13287D03*
Y13484D03*
Y13681D03*
Y13878D03*
X2298Y13287D03*
Y13484D03*
Y13681D03*
Y13878D03*
X9119Y12303D03*
Y12500D03*
Y12697D03*
Y12894D03*
X9779Y12303D03*
Y12500D03*
Y12697D03*
Y12894D03*
M02*
