*
G04 Job   : Y:\Users\CEG\Central Electronics\Projects\Hastingsp\MENTOR\DUNE\MIB_Module\PCB\MIB_Module.pcb*
G04 User  : ELWT2:hastingsp*
G04 Layer : 03_Layer1Top.gdo*
G04 Date  : Wed Jun 28 08:25:48 2023*
G04 VeriBest Example Gerber Output Definition*
%ICAS*%
%MOIN*%
%FSLAX24Y24*%
%OFA0.0000B0.0000*%
G90*
G74*
%AMVB_RECTANGLE*
21,1,$1,$2,0,0,$3*
%
%AMVB_FINGER0*
$3=$1/2*
$4=$2/2*
$5=0-$4*
1,1,$2,$3-$4,0*
21,1,$1-$4,$2,$5/2,0,0*
%
%AMVB_FINGER90*
$3=$1/2*
$4=$2/2*
$5=0-$4*
1,1,$2,0,$3-$4*
21,1,$2,$1-$4,0,$5/2,0*
%
%AMVB_FINGER180*
$3=$1/2*
$4=$2/2*
1,1,$2,$4-$3,0*
21,1,$1-$4,$2,$4/2,0,0*
%
%AMVB_FINGER270*
$3=$1/2*
$4=$2/2*
1,1,$2,0,$4-$3*
21,1,$2,$1-$4,0,$4/2,0*
%
%ADD13C,0.00394*%
%ADD12C,0.00630*%
%ADD11C,0.00787*%
%ADD30C,0.00890*%
%ADD14C,0.01969*%
%ADD21C,0.04134*%
%ADD70C,0.05906*%
%ADD19C,0.06693*%
%ADD10C,0.23622*%
%ADD15VB_RECTANGLE,0.06300X0.06300X270.00000*%
%ADD22VB_RECTANGLE,0.06693X0.06693X0.00000*%
%ADD23VB_RECTANGLE,0.01870X0.01181X0.00000*%
%ADD16VB_RECTANGLE,0.02500X0.02000X180.00000*%
%ADD26VB_RECTANGLE,0.02500X0.02000X270.00000*%
%ADD18VB_RECTANGLE,0.05906X0.04331X180.00000*%
%ADD24VB_RECTANGLE,0.06000X0.05500X0.00000*%
%ADD17VB_RECTANGLE,0.06000X0.05500X270.00000*%
%ADD71VB_RECTANGLE,0.08661X0.06299X180.00000*%
%ADD73VB_RECTANGLE,0.08858X0.08858X90.00000*%
%ADD20VB_RECTANGLE,0.10827X0.03937X180.00000*%
%ADD25VB_RECTANGLE,0.13386X0.03858X90.00000*%
%ADD31VB_RECTANGLE,0.18000X0.07000X270.00000*%
%ADD27VB_FINGER0,0.04134X0.01378*%
%ADD28VB_FINGER90,0.04134X0.01378*%
%ADD29VB_FINGER180,0.04134X0.01378*%
%ADD72VB_FINGER270,0.04134X0.01378*%
G01*
G36*
X-276Y198D02*
X118D01*
Y985*
X-276*
Y198*
X827Y15127D02*
G02X857Y15157I30D01*
G01X1481*
Y14124*
G03X1515Y14026I158*
G02X1521Y14008I24J18*
X1509Y13984I30*
G03X1486Y13937I36J47*
G01Y13819*
G03X1545Y13760I59*
G01X1732*
G03X1791Y13819J59*
G01Y13937*
G03X1768Y13984I59*
G02X1756Y14008I18J24*
X1762Y14026I30*
G03X1796Y14124I123J98*
X1639Y14281I157*
X1481Y14124J157*
G01Y15157*
X2146*
Y13819*
G03X2205Y13760I59*
G01X2392*
G03X2421Y13768J59*
G02X2432Y13771I15J27*
G01X2815Y13819*
G02X2818I3J30*
X2830Y13817J30*
G03X2853Y13812I23J54*
G01X3053*
G03X3112Y13871J59*
G01Y14121*
G03X3053Y14180I59*
G01X2853*
G03X2796Y14136J59*
G02X2774Y14114I30J7*
G01X2322Y13997*
G02X2314Y13996I8J29*
G01X2205*
G03X2146Y13937J59*
G01Y15157*
X3513*
G02X3543Y15127J30*
G01Y13652*
G02X3513Y13622I30*
G01X3142*
G02X3112Y13652J30*
G01Y13688*
G03X3053Y13747I59*
G01X2853*
G03X2794Y13688J59*
G01Y13652*
G02X2764Y13622I30*
G01X2628*
G02X2615Y13625J30*
G03X2544Y13642I71J141*
X2496Y13634J158*
G01X2463Y13623*
G02X2454Y13622I9J29*
G01X857*
G02X827Y13652J30*
G01Y15127*
X1496Y2096D02*
G03X1466Y2126I30D01*
G01X227*
G03X197Y2096J30*
G01Y345*
G03X227Y315I30*
G01X1466*
G03X1496Y345J30*
G01Y2096*
X1580Y13297D02*
X1541Y13057D01*
X1736*
X1697Y13297*
X1580*
X2205Y13228D02*
X2392D01*
X2338Y13189*
X2259*
X2205Y13228*
X2340Y13819D02*
X2965Y13897D01*
X2928Y14093*
X2318Y13935*
X2340Y13819*
X2514Y13578D02*
Y13391D01*
X2346Y13445*
Y13524*
X2514Y13578*
X2598Y3053D02*
X2402D01*
X2400Y3346*
X2600*
X2598Y3053*
Y6990D02*
X2600Y7283D01*
X2400*
X2402Y6990*
X2598*
X2625Y3246D02*
Y3446D01*
X2664Y3386*
Y3307*
X2625Y3246*
X2690Y13092D02*
Y12892D01*
X2532Y12953*
Y13031*
X2690Y13092*
X2875Y11157D02*
Y11678D01*
X3150Y11457*
Y11378*
X2875Y11157*
X3002Y3622D02*
X3355Y3485D01*
X2911Y3433*
X2855Y3488*
X3002Y3622*
X3048Y13322D02*
X2857D01*
X2913Y13547*
X2992*
X3048Y13322*
X3150Y1911D02*
G03X3123Y1941I30D01*
G02X2985Y2096I19J156*
G03X2955Y2126I30*
G01X1880*
G03X1850Y2096J30*
G01Y345*
G03X1880Y315I30*
G01X3120*
G03X3150Y345J30*
G01Y1911*
X3154Y13203D02*
X3342D01*
X3287Y13034*
X3209*
X3154Y13203*
X3232Y2057D02*
X3052Y2137D01*
X3275Y2639*
X3457Y2557*
X3232Y2057*
X3449Y6482D02*
X3324Y6624D01*
X3514Y6715*
X3593Y6705*
X3449Y6482*
X3484Y3002D02*
X3622D01*
X3593Y2963*
X3514*
X3484Y3002*
Y6939D02*
X3622D01*
X3593Y6900*
X3514*
X3484Y6939*
X3491Y2498D02*
X3241Y2698D01*
X3514Y2830*
X3593*
X3491Y2498*
Y6435D02*
X3241Y6635D01*
X3514Y6767*
X3593*
X3491Y6435*
X3746Y12992D02*
X4132D01*
X3978Y12953*
X3900*
X3746Y12992*
X3747Y11763D02*
X3810Y11700D01*
X3665Y11562*
X3609Y11617*
X3747Y11763*
X3836Y11863D02*
G03Y11869I30D01*
G02X3833Y11890I101J21*
X3834Y11893I104*
G01Y11913*
Y11914*
G03X3819Y11940I30*
G02X3781Y11995I39J68*
G01X3741Y12231*
G02X3740Y12244I78J13*
G01Y12687*
G03X3710Y12717I30*
G01X2008*
Y12904*
G03X1978Y12934I30*
G01X1766*
G03X1746Y12926J30*
G02X1639Y12884I107J116*
X1531Y12926J158*
G03X1511Y12934I20J22*
G01X857*
G03X827Y12904J30*
G01Y10621*
G03X857Y10591I30*
G01X3474*
G03X3504Y10621J30*
G01Y10994*
G03X3474Y11024I30*
G01X2205*
Y11811*
X3702*
G03X3719Y11817J30*
G02X3780Y11836I61J85*
X3800Y11834J104*
G03X3806Y11833I6J29*
X3836Y11863J30*
G01X3898Y5876D02*
G03X3868Y5906I30D01*
G01X2038*
G03X2008Y5876J30*
G01Y3652*
G03X2038Y3622I30*
G01X2883*
G03X2913Y3652J30*
G01Y3701*
X3356*
G03X3386Y3731J30*
G01Y4488*
X3868*
G03X3898Y4518J30*
G01Y5876*
Y9813D02*
G03X3868Y9843I30D01*
G01X2038*
G03X2008Y9813J30*
G01Y7589*
G03X2038Y7559I30*
G01X2883*
G03X2913Y7589J30*
G01Y7638*
X3356*
G03X3386Y7668J30*
G01Y8425*
X3868*
G03X3898Y8455J30*
G01Y9813*
X3981Y11891D02*
X3893D01*
X3898Y12092*
X3976*
X3981Y11891*
X3996Y3002D02*
X4134D01*
X4104Y2963*
X4026*
X3996Y3002*
Y6939D02*
X4134D01*
X4104Y6900*
X4026*
X3996Y6939*
X4190Y11441D02*
X3999D01*
X4055Y11666*
X4134*
X4190Y11441*
X4397Y2698D02*
X4147Y2498D01*
X4026Y2822*
X4104*
X4397Y2698*
Y6635D02*
X4147Y6435D01*
X4026Y6759*
X4104*
X4397Y6635*
X4409Y14616D02*
G03X4379Y14646I30D01*
G01X3691*
G03X3661Y14616J30*
G01Y12865*
G03X3691Y12835I30*
G01X3780*
X3815Y12763*
G03X3820Y12756I27J14*
G02X3836Y12716I43J40*
G01Y12166*
G02X3835Y12156I59*
G03Y12151I30J5*
Y12146I30*
G01X3854Y12033*
G03X3884Y12008I30J5*
G01X3990*
G03X4020Y12033J30*
G01X4039Y12146*
G03Y12151I30J5*
Y12156I30*
G02X4038Y12166I58J10*
G01Y12716*
G02X4054Y12756I59*
G03X4059Y12763I22J21*
G01X4094Y12835*
X4379*
G03X4409Y12865J30*
G01Y14616*
X4872Y3484D02*
Y3622D01*
X4911Y3593*
Y3514*
X4872Y3484*
Y7421D02*
Y7559D01*
X4911Y7530*
Y7451*
X4872Y7421*
X5412Y2879D02*
X5612D01*
Y3420*
X5412*
Y2879*
Y3570D02*
Y3320D01*
X5254Y3406*
Y3484*
X5412Y3570*
Y6816D02*
X5612D01*
Y7357*
X5412*
Y6816*
Y7507D02*
Y7257D01*
X5254Y7343*
Y7421*
X5412Y7507*
X5866Y5876D02*
G03X5836Y5906I30D01*
G01X4006*
G03X3976Y5876J30*
G01Y4518*
G03X4006Y4488I30*
G01X4488*
Y3731*
G03X4518Y3701I30*
G01X5836*
G03X5866Y3731J30*
G01Y5876*
Y9813D02*
G03X5836Y9843I30D01*
G01X4006*
G03X3976Y9813J30*
G01Y8455*
G03X4006Y8425I30*
G01X4488*
Y7668*
G03X4518Y7638I30*
G01X5836*
G03X5866Y7668J30*
G01Y9813*
X7428Y4234D02*
X7178D01*
X7264Y4273*
X7343*
X7428Y4234*
X7669Y6779D02*
Y6970D01*
X7893Y6913*
Y6835*
X7669Y6779*
Y7779D02*
Y7970D01*
X7893Y7913*
Y7835*
X7669Y7779*
Y8779D02*
Y8970D01*
X7893Y8913*
Y8835*
X7669Y8779*
X7761Y4034D02*
X8459D01*
Y4234*
X7761*
Y4034*
X7795Y12293D02*
G03X7765Y12323I30D01*
G01X5394*
X5009Y12708*
G03X4988Y12717I21J21*
G01X4164*
G03X4134Y12687J30*
G01Y12244*
G02X4133Y12231I79*
G01X4093Y11995*
G02X4055Y11940I77J13*
G03X4040Y11914I15J26*
G01Y11913*
X4041Y11892*
G02Y11890I104J2*
X4038Y11869I104*
G03Y11863I30J6*
X4068Y11833I30*
X4074Y11834J30*
G02X4094Y11836I20J102*
X4198Y11732J104*
X4194Y11704I104*
G03X4193Y11696I29J8*
G01Y11677*
G03X4194Y11669I30*
G01X4247Y11456*
G02X4252Y11417I153J39*
X4094Y11260I158*
X4054Y11265J157*
G03X4046Y11266I8J29*
X4016Y11236J30*
G01Y10621*
G03X4046Y10591I30*
G01X7765*
G03X7795Y10621J30*
G01Y12293*
Y13452D02*
G03X7786Y13473I30D01*
G01X7087Y14173*
Y15482*
G03X7057Y15512I30*
G01X4754*
G03X4724Y15482J30*
G01Y12904*
G03X4754Y12874I30*
G01X6890*
X7081Y12797*
G03X7092Y12795I11J28*
G01X7765*
G03X7795Y12825J30*
G01Y13452*
X7861Y4234D02*
X7611D01*
X7697Y4273*
X7776*
X7861Y4234*
X7971Y4830D02*
X8171Y4580D01*
X7887Y4466*
X7832Y4521*
X7971Y4830*
X8171Y5013D02*
Y5263D01*
X8210Y5177*
Y5098*
X8171Y5013*
X8268Y12529D02*
G02X8298Y12559I30D01*
G01X8961*
Y12057*
G03X9119Y11900I158*
X9276Y12057J157*
X9269Y12106I157*
G01X9247Y12172*
G02X9246Y12182I29J10*
X9254Y12203I30*
G03X9271Y12244I42J41*
G01Y12362*
G03X9212Y12421I59*
G01X9025*
G03X8966Y12362J59*
G01Y12244*
G03X8983Y12203I59*
G02X8992Y12182I21J21*
X8991Y12172I30*
G01X8969Y12106*
G03X8961Y12057I150J49*
G01Y12559*
X9419*
G02X9449Y12529J30*
G01Y12165*
X9891*
G02X9921Y12135J30*
G01Y11024*
X10246*
G02X10276Y10994J30*
G01Y10621*
G02X10246Y10591I30*
G01X8298*
G02X8268Y10621J30*
G01Y12529*
Y15127D02*
G02X8298Y15157I30D01*
G01X8961*
Y13140*
G03X8969Y13091I158*
G01X8991Y13025*
G02X8992Y13015I29J10*
X8983Y12994I30*
G03X8966Y12953I42J41*
G01Y12835*
G03X9025Y12776I59*
G01X9212*
G03X9271Y12835J59*
G01Y12953*
G03X9254Y12994I59*
G02X9246Y13015I22J21*
X9247Y13025I30*
G01X9269Y13091*
G03X9276Y13140I150J49*
X9119Y13297I157*
X8961Y13140J157*
G01Y15157*
X9729*
G02X9759Y15127J30*
X9756Y15116I30*
G03X9643Y14567I1268J549*
X9915Y13743I1381*
G02X9921Y13725I24J18*
G01Y13040*
G02X9891Y13010I30*
X9888J30*
G01X9880Y13011*
G03X9872Y13012I8J58*
G01X9685*
G03X9626Y12953J59*
G01Y12835*
G03X9685Y12776I59*
G01X9872*
G03X9880J59*
G01X9888Y12777*
G02X9891I3J30*
X9921Y12747J30*
G01Y12668*
G02X9891Y12638I30*
G01X8298*
G02X8268Y12668J30*
G01Y15127*
X9025Y13109D02*
X9213D01*
X9158Y12941*
X9080*
X9025Y13109*
X9213Y12088D02*
X9025D01*
X9080Y12256*
X9158*
X9213Y12088*
X9872Y12244D02*
Y12362D01*
X9912Y12343*
Y12264*
X9872Y12244*
Y12835D02*
Y12953D01*
X10030Y12933*
Y12854*
X9872Y12835*
X9994Y12594D02*
Y12406D01*
X9826Y12461*
Y12539*
X9994Y12594*
X10097Y11798D02*
Y11548D01*
X10057Y11634*
Y11713*
X10097Y11798*
X10297Y12231D02*
X10097Y11981D01*
X10132Y12231*
X10188Y12287*
X10297Y12231*
X10446Y10766D02*
X10696D01*
X10610Y10609*
X10531*
X10446Y10766*
X10696Y10966D02*
X10446D01*
X10531Y11124*
X10610*
X10696Y10966*
X11499Y7296D02*
X11690D01*
X11634Y7071*
X11555*
X11499Y7296*
Y9296D02*
X11690D01*
X11634Y9071*
X11555*
X11499Y9296*
X11500Y8346D02*
X11689D01*
X11803Y7931*
X11386*
X11500Y8346*
X11890Y7657D02*
Y8091D01*
X11929Y7913*
Y7835*
X11890Y7657*
X12832Y2759D02*
Y2950D01*
X13057Y2894*
Y2815*
X12832Y2759*
Y4137D02*
Y4328D01*
X13057Y4272*
Y4193*
X12832Y4137*
Y12208D02*
Y12399D01*
X13057Y12343*
Y12264*
X12832Y12208*
Y13586D02*
Y13777D01*
X13057Y13720*
Y13642*
X12832Y13586*
X13058Y7974D02*
X12808Y7774D01*
X12752Y7974*
X12808Y8030*
X13058Y7974*
X13730Y9352D02*
X13869Y9213D01*
X13462Y8803*
X13321Y8945*
X13730Y9352*
X14503Y6395D02*
Y6204D01*
X14278Y6260*
Y6339*
X14503Y6395*
X15285Y8198D02*
X15424Y8337D01*
X15621Y8140*
X15482Y8001*
X15285Y8198*
Y8592D02*
X15424Y8731D01*
X15621Y8534*
X15482Y8395*
X15285Y8592*
Y8986D02*
X15424Y9125D01*
X15621Y8928*
X15482Y8789*
X15285Y8986*
Y11348D02*
X15424Y11487D01*
X15621Y11290*
X15482Y11151*
X15285Y11348*
X15424Y3867D02*
X15285Y4007D01*
X15482Y4203*
X15621Y4064*
X15424Y3867*
Y4261D02*
X15285Y4400D01*
X15482Y4597*
X15621Y4458*
X15424Y4261*
Y4655D02*
X15285Y4794D01*
X15482Y4991*
X15621Y4852*
X15424Y4655*
Y5049D02*
X15285Y5188D01*
X15482Y5385*
X15621Y5245*
X15424Y5049*
Y5442D02*
X15285Y5581D01*
X15482Y5778*
X15621Y5639*
X15424Y5442*
Y6230D02*
X15285Y6369D01*
X15482Y6566*
X15621Y6426*
X15424Y6230*
Y6623D02*
X15285Y6763D01*
X15482Y6959*
X15621Y6820*
X15424Y6623*
Y7017D02*
X15285Y7156D01*
X15482Y7353*
X15621Y7214*
X15424Y7017*
X15525Y6197D02*
Y6007D01*
X15295Y6071*
Y6134*
X15525Y6197*
X15650Y12009D02*
X15507Y12096D01*
X15604Y12144*
X15649Y12100*
X15650Y12009*
X15678Y8198D02*
X15818Y8337D01*
X16014Y8140*
X15875Y8001*
X15678Y8198*
Y8592D02*
X15875Y8395D01*
X16014Y8534*
X15818Y8731*
X15678Y8592*
Y8986D02*
X15818Y9125D01*
X16014Y8928*
X15875Y8789*
X15678Y8986*
Y9379D02*
X15818Y9518D01*
X16014Y9322*
X15875Y9182*
X15678Y9379*
Y9773D02*
X15818Y9912D01*
X16014Y9715*
X15875Y9576*
X15678Y9773*
Y10167D02*
X15818Y10306D01*
X16014Y10109*
X15875Y9970*
X15678Y10167*
Y10560D02*
X15875Y10363D01*
X16014Y10503*
X15818Y10700*
X15678Y10560*
Y11348D02*
X15818Y11487D01*
X16014Y11290*
X15875Y11151*
X15678Y11348*
Y11741D02*
X15818Y11881D01*
X16014Y11684*
X15875Y11545*
X15678Y11741*
X15818Y4261D02*
X15678Y4400D01*
X15875Y4597*
X16014Y4458*
X15818Y4261*
Y4655D02*
X16014Y4852D01*
X15875Y4991*
X15678Y4794*
X15818Y4655*
Y5049D02*
X15678Y5188D01*
X15875Y5385*
X16014Y5245*
X15818Y5049*
Y6623D02*
X15678Y6763D01*
X15875Y6959*
X16014Y6820*
X15818Y6623*
Y7017D02*
X15678Y7156D01*
X15875Y7353*
X16014Y7214*
X15818Y7017*
X15859Y6151D02*
X15993Y6017D01*
X15786Y5899*
X15742Y5944*
X15859Y6151*
X15918Y15360D02*
X16105Y15392D01*
X16080Y15151*
X16017*
X15918Y15360*
X15989Y12096D02*
X15846Y12009D01*
X15847Y12100*
X15892Y12144*
X15989Y12096*
X16072Y10167D02*
X16211Y10306D01*
X16408Y10109*
X16269Y9970*
X16072Y10167*
Y10560D02*
X16211Y10700D01*
X16408Y10503*
X16269Y10363*
X16072Y10560*
Y10954D02*
X16211Y11093D01*
X16408Y10896*
X16269Y10757*
X16072Y10954*
Y11741D02*
X16211Y11881D01*
X16408Y11684*
X16269Y11545*
X16072Y11741*
Y12135D02*
X16211Y12274D01*
X16408Y12077*
X16269Y11938*
X16072Y12135*
X16185Y15392D02*
X16371Y15360D01*
X16273Y15151*
X16210*
X16185Y15392*
X16211Y5049D02*
X16072Y5188D01*
X16269Y5385*
X16408Y5245*
X16211Y5049*
Y5442D02*
X16072Y5581D01*
X16269Y5778*
X16408Y5639*
X16211Y5442*
Y5836D02*
X16072Y5975D01*
X16269Y6172*
X16408Y6033*
X16211Y5836*
Y6230D02*
X16072Y6369D01*
X16269Y6566*
X16408Y6426*
X16211Y6230*
Y6623D02*
X16072Y6763D01*
X16269Y6959*
X16408Y6820*
X16211Y6623*
Y7017D02*
X16072Y7156D01*
X16269Y7353*
X16408Y7214*
X16211Y7017*
Y7411D02*
X16072Y7550D01*
X16269Y7747*
X16408Y7608*
X16211Y7411*
X16269Y4597D02*
X16408Y4458D01*
X16211Y4261*
X16072Y4400*
X16269Y4597*
Y4991D02*
X16408Y4852D01*
X16211Y4655*
X16072Y4794*
X16269Y4991*
X16466Y8592D02*
X16605Y8731D01*
X16802Y8534*
X16663Y8395*
X16466Y8592*
Y8986D02*
X16605Y9125D01*
X16802Y8928*
X16663Y8789*
X16466Y8986*
Y9773D02*
X16605Y9912D01*
X16802Y9715*
X16663Y9576*
X16466Y9773*
Y10167D02*
X16663Y9970D01*
X16802Y10109*
X16605Y10306*
X16466Y10167*
Y10560D02*
X16605Y10700D01*
X16802Y10503*
X16663Y10363*
X16466Y10560*
Y10954D02*
X16605Y11093D01*
X16802Y10896*
X16663Y10757*
X16466Y10954*
Y11348D02*
X16605Y11487D01*
X16802Y11290*
X16663Y11151*
X16466Y11348*
Y11741D02*
X16605Y11881D01*
X16802Y11684*
X16663Y11545*
X16466Y11741*
X16605Y5049D02*
X16466Y5188D01*
X16663Y5385*
X16802Y5245*
X16605Y5049*
Y5442D02*
X16466Y5581D01*
X16663Y5778*
X16802Y5639*
X16605Y5442*
Y6230D02*
X16466Y6369D01*
X16663Y6566*
X16802Y6426*
X16605Y6230*
Y6623D02*
X16466Y6763D01*
X16663Y6959*
X16802Y6820*
X16605Y6623*
Y7411D02*
X16466Y7550D01*
X16663Y7747*
X16802Y7608*
X16605Y7411*
X16663Y4203D02*
X16802Y4064D01*
X16605Y3867*
X16466Y4007*
X16663Y4203*
Y4991D02*
X16802Y4852D01*
X16605Y4655*
X16466Y4794*
X16663Y4991*
X16798Y4454D02*
X16792Y4606D01*
X16880Y4539*
X16857Y4507*
X16798Y4454*
X16860Y8592D02*
X16999Y8731D01*
X17196Y8534*
X17056Y8395*
X16860Y8592*
Y8986D02*
X16999Y9125D01*
X17196Y8928*
X17056Y8789*
X16860Y8986*
Y9379D02*
X16999Y9518D01*
X17196Y9322*
X17056Y9182*
X16860Y9379*
Y10167D02*
X16999Y10306D01*
X17196Y10109*
X17056Y9970*
X16860Y10167*
Y10560D02*
X16999Y10700D01*
X17196Y10503*
X17056Y10363*
X16860Y10560*
Y10954D02*
X16999Y11093D01*
X17196Y10896*
X17056Y10757*
X16860Y10954*
Y11348D02*
X16999Y11487D01*
X17196Y11290*
X17056Y11151*
X16860Y11348*
Y11741D02*
X16999Y11881D01*
X17196Y11684*
X17056Y11545*
X16860Y11741*
Y12135D02*
X16999Y12274D01*
X17196Y12077*
X17056Y11938*
X16860Y12135*
X16999Y5836D02*
X16860Y5975D01*
X17056Y6172*
X17196Y6033*
X16999Y5836*
Y6623D02*
X16860Y6763D01*
X17056Y6959*
X17196Y6820*
X16999Y6623*
X17067Y4606D02*
X17060Y4454D01*
X17001Y4507*
X16978Y4539*
X17067Y4606*
X17253Y8198D02*
X17392Y8337D01*
X17589Y8140*
X17450Y8001*
X17253Y8198*
Y9379D02*
X17392Y9518D01*
X17589Y9322*
X17450Y9182*
X17253Y9379*
Y9773D02*
X17392Y9912D01*
X17589Y9715*
X17450Y9576*
X17253Y9773*
Y10167D02*
X17392Y10306D01*
X17589Y10109*
X17450Y9970*
X17253Y10167*
Y10560D02*
X17392Y10700D01*
X17589Y10503*
X17450Y10363*
X17253Y10560*
Y10954D02*
X17392Y11093D01*
X17589Y10896*
X17450Y10757*
X17253Y10954*
X17392Y4261D02*
X17253Y4400D01*
X17450Y4597*
X17589Y4458*
X17392Y4261*
Y4655D02*
X17253Y4794D01*
X17450Y4991*
X17589Y4852*
X17392Y4655*
Y5836D02*
X17589Y6033D01*
X17450Y6172*
X17253Y5975*
X17392Y5836*
Y6623D02*
X17253Y6763D01*
X17450Y6959*
X17589Y6820*
X17392Y6623*
Y7017D02*
X17253Y7156D01*
X17450Y7353*
X17589Y7214*
X17392Y7017*
X17647Y8592D02*
X17786Y8731D01*
X17983Y8534*
X17844Y8395*
X17647Y8592*
Y10560D02*
X17844Y10363D01*
X17983Y10503*
X17786Y10700*
X17647Y10560*
X17669Y1914D02*
X17534Y1779D01*
X17415Y1977*
X17470Y2033*
X17669Y1914*
X17786Y3474D02*
X17647Y3613D01*
X17844Y3810*
X17983Y3671*
X17786Y3474*
Y4261D02*
X17647Y4400D01*
X17844Y4597*
X17983Y4458*
X17786Y4261*
Y5836D02*
X17647Y5975D01*
X17844Y6172*
X17983Y6033*
X17786Y5836*
Y6230D02*
X17647Y6369D01*
X17844Y6566*
X17983Y6426*
X17786Y6230*
X18041Y11348D02*
X18180Y11487D01*
X18377Y11290*
X18237Y11151*
X18041Y11348*
X18180Y3474D02*
X18041Y3613D01*
X18237Y3810*
X18377Y3671*
X18180Y3474*
Y4261D02*
X18041Y4400D01*
X18237Y4597*
X18377Y4458*
X18180Y4261*
Y4655D02*
X18041Y4794D01*
X18237Y4991*
X18377Y4852*
X18180Y4655*
Y5836D02*
X18377Y6033D01*
X18237Y6172*
X18041Y5975*
X18180Y5836*
Y7017D02*
X18041Y7156D01*
X18237Y7353*
X18377Y7214*
X18180Y7017*
Y7411D02*
X18041Y7550D01*
X18237Y7747*
X18377Y7608*
X18180Y7411*
X18270Y1357D02*
X18083Y1388D01*
X18177Y1593*
X18245Y1598*
X18270Y1357*
X18434Y10167D02*
X18631Y9970D01*
X18770Y10109*
X18574Y10306*
X18434Y10167*
Y10560D02*
X18574Y10700D01*
X18770Y10503*
X18631Y10363*
X18434Y10560*
Y10954D02*
X18574Y11093D01*
X18770Y10896*
X18631Y10757*
X18434Y10954*
Y11348D02*
X18574Y11487D01*
X18770Y11290*
X18631Y11151*
X18434Y11348*
Y11741D02*
X18574Y11881D01*
X18770Y11684*
X18631Y11545*
X18434Y11741*
X18537Y1389D02*
X18350Y1357D01*
X18375Y1598*
X18438*
X18537Y1389*
X18574Y3867D02*
X18434Y4007D01*
X18631Y4203*
X18770Y4064*
X18574Y3867*
Y4261D02*
X18434Y4400D01*
X18631Y4597*
X18770Y4458*
X18574Y4261*
Y4655D02*
X18770Y4852D01*
X18631Y4991*
X18434Y4794*
X18574Y4655*
Y5049D02*
X18434Y5188D01*
X18631Y5385*
X18770Y5245*
X18574Y5049*
Y7017D02*
X18434Y7156D01*
X18631Y7353*
X18770Y7214*
X18574Y7017*
Y7411D02*
X18434Y7550D01*
X18631Y7747*
X18770Y7608*
X18574Y7411*
X18697Y400D02*
X18506Y394D01*
X18556Y621*
X18634*
X18697Y400*
X18828Y8198D02*
X18967Y8337D01*
X19164Y8140*
X19025Y8001*
X18828Y8198*
Y8986D02*
X18967Y9125D01*
X19164Y8928*
X19025Y8789*
X18828Y8986*
Y9379D02*
X18967Y9518D01*
X19164Y9322*
X19025Y9182*
X18828Y9379*
Y9773D02*
X18967Y9912D01*
X19164Y9715*
X19025Y9576*
X18828Y9773*
Y10167D02*
X18967Y10306D01*
X19164Y10109*
X19025Y9970*
X18828Y10167*
Y10560D02*
X18967Y10700D01*
X19164Y10503*
X19025Y10363*
X18828Y10560*
Y10954D02*
X18967Y11093D01*
X19164Y10896*
X19025Y10757*
X18828Y10954*
Y11348D02*
X18967Y11487D01*
X19164Y11290*
X19025Y11151*
X18828Y11348*
Y11741D02*
X18967Y11881D01*
X19164Y11684*
X19025Y11545*
X18828Y11741*
Y12135D02*
X18967Y12274D01*
X19164Y12077*
X19025Y11938*
X18828Y12135*
X18967Y3867D02*
X18828Y4007D01*
X19025Y4203*
X19164Y4064*
X18967Y3867*
Y4261D02*
X18828Y4400D01*
X19025Y4597*
X19164Y4458*
X18967Y4261*
Y5049D02*
X19164Y5245D01*
X19025Y5385*
X18828Y5188*
X18967Y5049*
Y5836D02*
X18828Y5975D01*
X19025Y6172*
X19164Y6033*
X18967Y5836*
Y6230D02*
X18828Y6369D01*
X19025Y6566*
X19164Y6426*
X18967Y6230*
Y6623D02*
X18828Y6763D01*
X19025Y6959*
X19164Y6820*
X18967Y6623*
Y7017D02*
X18828Y7156D01*
X19025Y7353*
X19164Y7214*
X18967Y7017*
Y7411D02*
X18828Y7550D01*
X19025Y7747*
X19164Y7608*
X18967Y7411*
X19222Y8198D02*
X19361Y8337D01*
X19558Y8140*
X19419Y8001*
X19222Y8198*
Y8592D02*
X19361Y8731D01*
X19558Y8534*
X19419Y8395*
X19222Y8592*
Y8986D02*
X19361Y9125D01*
X19558Y8928*
X19419Y8789*
X19222Y8986*
Y9379D02*
X19361Y9518D01*
X19558Y9322*
X19419Y9182*
X19222Y9379*
Y9773D02*
X19361Y9912D01*
X19558Y9715*
X19419Y9576*
X19222Y9773*
Y10167D02*
X19361Y10306D01*
X19558Y10109*
X19419Y9970*
X19222Y10167*
Y10560D02*
X19361Y10700D01*
X19558Y10503*
X19419Y10363*
X19222Y10560*
Y10954D02*
X19361Y11093D01*
X19558Y10896*
X19419Y10757*
X19222Y10954*
Y11348D02*
X19361Y11487D01*
X19558Y11290*
X19419Y11151*
X19222Y11348*
X19361Y5836D02*
X19222Y5975D01*
X19419Y6172*
X19558Y6033*
X19361Y5836*
Y6230D02*
X19222Y6369D01*
X19419Y6566*
X19558Y6426*
X19361Y6230*
Y6623D02*
X19222Y6763D01*
X19419Y6959*
X19558Y6820*
X19361Y6623*
Y7017D02*
X19222Y7156D01*
X19419Y7353*
X19558Y7214*
X19361Y7017*
Y7411D02*
X19222Y7550D01*
X19419Y7747*
X19558Y7608*
X19361Y7411*
X19815Y552D02*
Y1102D01*
X19854Y866*
Y787*
X19815Y552*
X19885Y1297D02*
X20076D01*
X20020Y1072*
X19941*
X19885Y1297*
X20009Y8337D02*
X20148Y8198D01*
X19951Y8001*
X19812Y8140*
X20009Y8337*
Y8731D02*
X20148Y8592D01*
X19951Y8395*
X19812Y8534*
X20009Y8731*
Y9125D02*
X20148Y8986D01*
X19951Y8789*
X19812Y8928*
X20009Y9125*
Y9518D02*
X20148Y9379D01*
X19951Y9182*
X19812Y9322*
X20009Y9518*
Y9912D02*
X20148Y9773D01*
X19951Y9576*
X19812Y9715*
X20009Y9912*
Y10306D02*
X20148Y10167D01*
X19951Y9970*
X19812Y10109*
X20009Y10306*
Y10700D02*
X20148Y10560D01*
X19951Y10363*
X19812Y10503*
X20009Y10700*
Y11093D02*
X20148Y10954D01*
X19951Y10757*
X19812Y10896*
X20009Y11093*
Y11487D02*
X20148Y11348D01*
X19951Y11151*
X19812Y11290*
X20009Y11487*
Y11881D02*
X20148Y11741D01*
X19951Y11545*
X19812Y11684*
X20009Y11881*
X20148Y4400D02*
X19951Y4597D01*
X19812Y4458*
X20009Y4261*
X20148Y4400*
Y4794D02*
X20009Y4655D01*
X19812Y4852*
X19951Y4991*
X20148Y4794*
Y5975D02*
X19951Y6172D01*
X19812Y6033*
X20009Y5836*
X20148Y5975*
Y6369D02*
X20009Y6230D01*
X19812Y6426*
X19951Y6566*
X20148Y6369*
Y6763D02*
X20009Y6623D01*
X19812Y6820*
X19951Y6959*
X20148Y6763*
X20403Y8731D02*
X20542Y8592D01*
X20345Y8395*
X20206Y8534*
X20403Y8731*
Y9125D02*
X20542Y8986D01*
X20345Y8789*
X20206Y8928*
X20403Y9125*
Y9518D02*
X20542Y9379D01*
X20345Y9182*
X20206Y9322*
X20403Y9518*
Y9912D02*
X20542Y9773D01*
X20345Y9576*
X20206Y9715*
X20403Y9912*
Y10306D02*
X20542Y10167D01*
X20345Y9970*
X20206Y10109*
X20403Y10306*
Y11487D02*
X20206Y11290D01*
X20345Y11151*
X20542Y11348*
X20403Y11487*
Y11881D02*
X20542Y11741D01*
X20345Y11545*
X20206Y11684*
X20403Y11881*
X20542Y6369D02*
X20403Y6230D01*
X20206Y6426*
X20345Y6566*
X20542Y6369*
Y6763D02*
X20403Y6623D01*
X20206Y6820*
X20345Y6959*
X20542Y6763*
Y7550D02*
X20403Y7411D01*
X20206Y7608*
X20345Y7747*
X20542Y7550*
X20627Y356D02*
X20440Y388D01*
X20539Y597*
X20602*
X20627Y356*
X20797Y9518D02*
X20936Y9379D01*
X20739Y9182*
X20600Y9322*
X20797Y9518*
Y9912D02*
X20936Y9773D01*
X20739Y9576*
X20600Y9715*
X20797Y9912*
Y10306D02*
X20936Y10167D01*
X20739Y9970*
X20600Y10109*
X20797Y10306*
Y12274D02*
X20936Y12135D01*
X20739Y11938*
X20600Y12077*
X20797Y12274*
X20893Y388D02*
X20707Y356D01*
X20732Y597*
X20795*
X20893Y388*
X20936Y6369D02*
X20797Y6230D01*
X20600Y6426*
X20739Y6566*
X20936Y6369*
Y6763D02*
X20797Y6623D01*
X20600Y6820*
X20739Y6959*
X20936Y6763*
X21190Y6623D02*
X21329Y6763D01*
X21526Y6566*
X21387Y6426*
X21190Y6623*
Y7017D02*
X21329Y7156D01*
X21526Y6959*
X21387Y6820*
X21190Y7017*
Y8337D02*
X21329Y8198D01*
X21133Y8001*
X20993Y8140*
X21190Y8337*
Y8731D02*
X21329Y8592D01*
X21133Y8395*
X20993Y8534*
X21190Y8731*
Y9125D02*
X21329Y8986D01*
X21133Y8789*
X20993Y8928*
X21190Y9125*
Y9518D02*
X21329Y9379D01*
X21133Y9182*
X20993Y9322*
X21190Y9518*
Y9912D02*
X21329Y9773D01*
X21133Y9576*
X20993Y9715*
X21190Y9912*
Y10306D02*
X20993Y10109D01*
X21133Y9970*
X21329Y10167*
X21190Y10306*
Y11093D02*
X21329Y10954D01*
X21133Y10757*
X20993Y10896*
X21190Y11093*
X21329Y3613D02*
X21133Y3810D01*
X20993Y3671*
X21190Y3474*
X21329Y3613*
Y4007D02*
X21190Y3867D01*
X20993Y4064*
X21133Y4203*
X21329Y4007*
Y5581D02*
X21190Y5442D01*
X20993Y5639*
X21133Y5778*
X21329Y5581*
Y6369D02*
X21190Y6230D01*
X20993Y6426*
X21133Y6566*
X21329Y6369*
Y6763D02*
X21190Y6623D01*
X20993Y6820*
X21133Y6959*
X21329Y6763*
Y7156D02*
X21190Y7017D01*
X20993Y7214*
X21133Y7353*
X21329Y7156*
Y7550D02*
X21190Y7411D01*
X20993Y7608*
X21133Y7747*
X21329Y7550*
X21584Y8337D02*
X21723Y8198D01*
X21526Y8001*
X21387Y8140*
X21584Y8337*
Y8731D02*
X21723Y8592D01*
X21526Y8395*
X21387Y8534*
X21584Y8731*
Y9125D02*
X21723Y8986D01*
X21526Y8789*
X21387Y8928*
X21584Y9125*
Y9518D02*
X21723Y9379D01*
X21526Y9182*
X21387Y9322*
X21584Y9518*
Y11093D02*
X21387Y10896D01*
X21526Y10757*
X21723Y10954*
X21584Y11093*
Y11881D02*
X21387Y11684D01*
X21526Y11545*
X21723Y11741*
X21584Y11881*
X21723Y7156D02*
X21584Y7017D01*
X21387Y7214*
X21526Y7353*
X21723Y7156*
Y7550D02*
X21584Y7411D01*
X21387Y7608*
X21526Y7747*
X21723Y7550*
X21978Y10700D02*
X21781Y10503D01*
X21920Y10363*
X22117Y10560*
X21978Y10700*
X22117Y5188D02*
X21978Y5049D01*
X21781Y5245*
X21920Y5385*
X22117Y5188*
Y5581D02*
X21978Y5442D01*
X21781Y5639*
X21920Y5778*
X22117Y5581*
X22371Y11487D02*
X22511Y11348D01*
X22314Y11151*
X22174Y11290*
X22371Y11487*
X22511Y4400D02*
X22371Y4261D01*
X22174Y4458*
X22314Y4597*
X22511Y4400*
Y4794D02*
X22371Y4655D01*
X22174Y4852*
X22314Y4991*
X22511Y4794*
X22765Y8337D02*
X22904Y8198D01*
X22707Y8001*
X22568Y8140*
X22765Y8337*
Y10306D02*
X22568Y10109D01*
X22707Y9970*
X22904Y10167*
X22765Y10306*
Y12274D02*
X22568Y12077D01*
X22707Y11938*
X22904Y12135*
X22765Y12274*
X22904Y3613D02*
X22765Y3474D01*
X22568Y3671*
X22707Y3810*
X22904Y3613*
Y4007D02*
X22765Y3867D01*
X22568Y4064*
X22707Y4203*
X22904Y4007*
Y5975D02*
X22765Y5836D01*
X22568Y6033*
X22707Y6172*
X22904Y5975*
Y6369D02*
X22765Y6230D01*
X22568Y6426*
X22707Y6566*
X22904Y6369*
X23159Y10700D02*
X23298Y10560D01*
X23101Y10363*
X22962Y10503*
X23159Y10700*
X23552Y9912D02*
X23692Y9773D01*
X23495Y9576*
X23356Y9715*
X23552Y9912*
X23692Y7550D02*
X23552Y7411D01*
X23356Y7608*
X23495Y7747*
X23692Y7550*
X23946Y8731D02*
X24085Y8592D01*
X23888Y8395*
X23749Y8534*
X23946Y8731*
Y10700D02*
X24085Y10560D01*
X23888Y10363*
X23749Y10503*
X23946Y10700*
X24840Y9709D02*
X24649D01*
X24705Y9933*
X24783*
X24840Y9709*
X25574Y6107D02*
X25739Y6014D01*
X25579Y5851*
X25524Y5907*
X25574Y6107*
X26050Y4629D02*
Y4820D01*
X26275Y4764*
Y4685*
X26050Y4629*
Y5416D02*
Y5607D01*
X26275Y5551*
Y5472*
X26050Y5416*
Y6204D02*
Y6395D01*
X26275Y6339*
Y6260*
X26050Y6204*
X26457Y13671D02*
G03X26427Y13701I30D01*
G01X25857*
G03X25827Y13671J30*
G01Y11132*
G03X25857Y11102I30*
G01X26427*
G03X26457Y11132J30*
G01Y11708*
G03X26427Y11738I30*
X26422J30*
G02X26395Y11736I27J155*
X26238Y11893J157*
X26395Y12051I157*
X26422Y12048J158*
G03X26427I5J30*
X26457Y12078J30*
G01Y13671*
X26627Y9917D02*
X26818D01*
X26762Y9693*
X26683*
X26627Y9917*
X27394Y7970D02*
Y7779D01*
X27170Y7835*
Y7913*
X27394Y7970*
X29068Y4820D02*
Y4629D01*
X28843Y4685*
Y4764*
X29068Y4820*
Y5607D02*
Y5416D01*
X28843Y5472*
Y5551*
X29068Y5607*
Y6395D02*
Y6204D01*
X28843Y6260*
Y6339*
X29068Y6395*
Y7182D02*
Y6991D01*
X28843Y7047*
Y7126*
X29068Y7182*
Y7970D02*
Y7779D01*
X28843Y7835*
Y7913*
X29068Y7970*
Y8757D02*
Y8566D01*
X28843Y8622*
Y8701*
X29068Y8757*
Y9544D02*
Y9353D01*
X28843Y9409*
Y9488*
X29068Y9544*
G37*
G54D10*
X11024Y1181D03*
Y14567D03*
X28346D03*
X28347Y1181D03*
G54D11*
X-191Y-638D02*
X-161Y-616D01*
X-124Y-549*
Y-1033*
X1343Y13334D02*
X1458Y13448D01*
G02X1545Y13484I87J87*
G01X1639*
Y13287D02*
Y13042D01*
Y13878D02*
Y14124D01*
X1752Y4528D02*
X1459D01*
X1752Y8465D02*
X1459D01*
X2067Y3346D02*
X1774D01*
X2067Y7283D02*
X1774D01*
X2298Y13123D02*
G03X2337Y13031I131D01*
G01X2298Y13287D02*
Y13123D01*
Y13484D02*
X2544D01*
X2298Y13681D02*
X1639D01*
X2298Y13878D02*
X2438D01*
X2337Y13031D02*
G03X2429Y12992I92J92D01*
G01X2815*
X2438Y13878D02*
G03X2491Y13899J79D01*
G02X2545Y13919I54J58*
G01X2500Y3346D02*
Y3053D01*
Y7283D02*
X2625D01*
X2500D02*
Y6990D01*
X2545Y13919D02*
X2646D01*
X2625Y7283D02*
G03X2853Y7378J322D01*
G01X2646Y13919D02*
G03X2696Y13937J79D01*
G01X2665Y11417D02*
X3301D01*
X2679Y3346D02*
X2500D01*
X2696Y13937D02*
G02X2838Y13996I142J143D01*
G01X2833Y3410D02*
G02X2679Y3346I154J154D01*
G01X2838Y13996D02*
X2953D01*
X2853Y7378D02*
X2939Y7464D01*
X2933Y2598D02*
X2640D01*
X2933Y6535D02*
X2640D01*
X2939Y7464D02*
G02X3002Y7490I63J63D01*
G01X2953Y13563D02*
Y13298D01*
X2957Y3535D02*
X2833Y3410D01*
X3002Y3553D02*
G03X2957Y3535I6J78D01*
G01X3002Y7490D02*
X3209D01*
X3142Y2097D02*
X3241Y2196D01*
X3209Y3553D02*
X3002D01*
X3241Y2196D02*
G03X3366Y2498I303J302D01*
G01X3248Y12992D02*
Y13233D01*
X3301Y11417D02*
G03X3580Y11533J394D01*
G01X3366Y2498D02*
Y2598D01*
Y6535D02*
X3391D01*
X3472Y6616*
G03X3553Y6812I195J196*
G01X3491Y2698D02*
X3391Y2598D01*
X3366*
X3553Y2848D02*
G02X3491Y2698I212D01*
G01X3553Y3209D02*
Y2848D01*
Y6812D02*
Y7146D01*
X3580Y11533D02*
X3780Y11732D01*
X3740Y9810D02*
Y10728D01*
Y11260D02*
Y11161D01*
X3809Y2864D02*
Y3209D01*
Y6801D02*
Y7146D01*
X3815Y11440D02*
G03X3740Y11260I180J180D01*
G01X3848Y11474D02*
X3815Y11440D01*
X3937Y11688D02*
G02X3848Y11474I303D01*
G01X3937Y11732D02*
Y11688D01*
Y11890D02*
Y12911D01*
X3938Y12912*
G03X3939Y12925I78J13*
G01Y13661*
X4065Y2896D02*
Y3209D01*
Y6833D02*
G03X4147Y6635I279D01*
G01X4065Y7146D02*
Y6833D01*
X4094Y11417D02*
Y11732D01*
X4147Y2698D02*
G02X4065Y2896I197J198D01*
G01X4147Y6635D02*
X4247Y6535D01*
X4272*
Y2598D02*
X4247D01*
X4147Y2698*
X4665Y3553D02*
X5004D01*
X4665Y7490D02*
X5004D01*
X4705Y2598D02*
Y2860D01*
Y6535D02*
Y6797D01*
X5004Y3553D02*
G02X5140Y3499J197D01*
G01X5004Y7490D02*
G02X5140Y7436J197D01*
G01Y3499D02*
G03X5276Y3445I136J143D01*
G01X5140Y7436D02*
G03X5276Y7382I136J143D01*
G01Y3445D02*
X5512D01*
X5276Y7382D02*
X5512D01*
Y2421D02*
Y2152D01*
Y2854D02*
Y3445D01*
Y6358D02*
Y6089D01*
Y6791D02*
Y7382D01*
X5709Y13668D02*
Y13780D01*
X5728Y13583D02*
G02X5709Y13668I178J85D01*
G01X5748Y13058D02*
Y13497D01*
G03X5728Y13583I197*
G01X6122Y5315D02*
X6415D01*
X6122Y9252D02*
X6415D01*
X6496Y13681D02*
G03X6552Y13547I197J3D01*
G01X6496Y13780D02*
Y13681D01*
X6552Y13547D02*
X6555Y13543D01*
G02X6614Y13401I142J142*
G01Y13058*
X7283Y4379D02*
Y4480D01*
X7303*
X7283Y4528D02*
X7293Y4513D01*
Y4341D02*
G02X7283Y4379I69J38D01*
G01X7293Y4513D02*
G02X7303Y4480I49J33D01*
G01Y4134D02*
Y4302D01*
G03X7293Y4341I79*
G01X7736Y4134D02*
X8484D01*
X7736Y4309D02*
Y4134D01*
X7779Y4413D02*
G03X7736Y4309I104J104D01*
G01X8071Y4705D02*
X7779Y4413D01*
X8071Y5138D02*
X8238D01*
X8091Y6874D02*
X7645D01*
X8091Y7874D02*
X7645D01*
X8091Y8874D02*
X7645D01*
X8266Y5126D02*
G03X8238Y5138I28J28D01*
G01X8328Y5064D02*
X8266Y5126D01*
X8339Y5050D02*
G03X8328Y5064I67J42D01*
G01X8351Y5035D02*
G02X8339Y5050I55J56D01*
G01X8465Y3740D02*
Y3907D01*
Y4921D02*
X8351Y5035D01*
X8465Y3907D02*
G02X8474Y3945I78D01*
G03X8484Y3978I49J33*
G01Y4134*
X9119Y12303D02*
Y12057D01*
Y12894D02*
Y13140D01*
X9779Y12303D02*
X10100D01*
X9779Y12500D02*
X10025D01*
X10006Y11672D02*
X9884D01*
X10017D02*
G02X10006I11J78D01*
G01X10127Y12292D02*
G03X10100Y12303I27J28D01*
G01X10157Y12894D02*
X9779D01*
X10197Y11673D02*
X10018D01*
X10017Y11672*
X10197Y12106D02*
Y12222D01*
X10127Y12292*
X10436Y12778D02*
G03X10157Y12894I279J278D01*
G01X10456Y12758D02*
X10436Y12778D01*
X10571Y5931D02*
Y10866D01*
Y12480*
G03X10456Y12758I394*
G01X10686Y5653D02*
G02X10571Y5931I279J278D01*
G01X11110Y5229D02*
X10686Y5653D01*
X11388Y5114D02*
G02X11110Y5229J394D01*
G01X11594Y6874D02*
Y7320D01*
Y6874D02*
X12933D01*
X11594Y7874D02*
Y8320D01*
Y8874D02*
X12933D01*
X11594D02*
Y9320D01*
X11932Y7874D02*
X11594D01*
X12210Y7989D02*
G02X11932Y7874I278J279D01*
G01X12272Y8051D02*
X12210Y7989D01*
X12501Y8146D02*
G03X12272Y8051J324D01*
G01X12731D02*
G03X12501Y8146I230J229D01*
G01X12933Y7874D02*
X12908D01*
X12731Y8051*
X13366Y6299D02*
Y6874D01*
Y7874*
Y8874D02*
X13391D01*
X13366D02*
Y7874D01*
X13386Y2854D02*
X12809D01*
X13386Y4232D02*
X12809D01*
X13386Y12303D02*
X12809D01*
X13386Y13681D02*
X12809D01*
X13391Y8874D02*
X13799Y9282D01*
X13603Y5114D02*
X11388D01*
X13799Y6299D02*
X14526D01*
X13882Y4999D02*
G03X13603Y5114I279J279D01*
G01X14200Y4680D02*
X13882Y4999D01*
X14315Y2553D02*
Y2631D01*
Y4402*
G03X14200Y4680I393*
G01X14783Y2085D02*
G02X14315Y2553J468D01*
G01X17258Y2085D02*
G02X17436Y2012J251D01*
G01X17258Y2085D02*
X14783D01*
X17436Y2012D02*
X17618Y1830D01*
X18602Y373D02*
X18595Y380D01*
Y827*
X19515D02*
X19857D01*
G03X19942Y851J160*
X19980Y921I44J70*
G01Y1320*
X24744Y10018D02*
Y9685D01*
X24805Y10165D02*
G03X24744Y10018I147J147D01*
G01X24952Y10226D02*
G03X24805Y10165J208D01*
G01X25276Y5578D02*
Y5603D01*
X25669Y5997*
Y6083*
X25276Y10226D02*
X24952D01*
X26722Y4724D02*
X26027D01*
X26722Y5512D02*
X26027D01*
X26722Y6299D02*
X26027D01*
X26722Y7874D02*
X27418D01*
X26722Y9449D02*
Y9941D01*
X27273Y7087D02*
X26722D01*
X27374Y7120D02*
G02X27273Y7087I101J137D01*
G01X27419Y7382D02*
Y7208D01*
G02X27374Y7120I110*
G01X28396Y4724D02*
X29092D01*
X28396Y5512D02*
X29092D01*
X28396Y6299D02*
X29092D01*
X28396Y7087D02*
X29092D01*
X28396Y7874D02*
X29092D01*
X28396Y8661D02*
X29092D01*
X28396Y9449D02*
X29092D01*
G54D12*
X14687Y3357D02*
Y5710D01*
G02X14802Y5987I393*
X15080Y6102I278J277*
G01X14803Y3079D02*
G02X14687Y3357I278J278D01*
G01X14880D02*
Y5710D01*
G02X14939Y5851I200*
X15080Y5909I141J141*
G01X14939Y3215D02*
G02X14880Y3357I142J142D01*
G01X15080Y5909D02*
X15551D01*
X15080Y6102D02*
X15551D01*
X15354Y3937D02*
X15551Y4134D01*
X15354Y4331D02*
X15551Y4528D01*
X15354Y4724D02*
X15551Y4921D01*
X15354Y5118D02*
X15551Y5315D01*
X15354Y6299D02*
X15551Y6496D01*
X15354Y6693D02*
X15551Y6890D01*
X15354Y7087D02*
X15551Y7283D01*
X15354Y8268D02*
X15551Y8071D01*
X15354Y8661D02*
X15551Y8465D01*
X15354Y11417D02*
X15551Y11220D01*
X15418Y2464D02*
X14803Y3079D01*
X15551Y3740D02*
X15354Y3543D01*
X15551Y5709D02*
X15354Y5512D01*
X15551Y5909D02*
X15739D01*
X15551Y7677D02*
X15354Y7480D01*
X15551Y8858D02*
X15354Y9055D01*
X15551Y9252D02*
X15354Y9449D01*
X15551Y9646D02*
X15354Y9843D01*
X15551Y11614D02*
X15354Y11811D01*
X15551Y12008D02*
Y12047D01*
X15642Y12138*
X15554Y2600D02*
X14939Y3215D01*
X15642Y12138D02*
G03X15652Y12160I22J22D01*
G01Y12737D02*
Y12160D01*
Y12817D02*
Y12737D01*
Y12817D02*
G02X15767Y13095I393D01*
G01X15696Y2349D02*
G02X15418Y2464J393D01*
G01X15696Y2542D02*
G02X15554Y2600J200D01*
G01X15739Y5909D02*
G03X15761Y5919J32D01*
G01X15748Y4724D02*
X15945Y4921D01*
X15748Y5118D02*
X15945Y5315D01*
X15748Y6693D02*
X15945Y6890D01*
X15748Y7087D02*
X15945Y7283D01*
X15748Y7480D02*
X15945Y7677D01*
X15748Y8268D02*
X15945Y8071D01*
X15748Y11417D02*
X15945Y11220D01*
X15748Y11811D02*
X15945Y11614D01*
X15761Y5919D02*
X15945Y6102D01*
X15844Y12160D02*
G03X15854Y12138I32D01*
G01X15844Y12737D02*
Y12160D01*
X15854Y12138D02*
X15945Y12047D01*
Y12008*
Y4528D02*
X15748Y4331D01*
X15945Y6496D02*
X15748Y6299D01*
X15945Y8465D02*
X15748Y8661D01*
X15945Y8858D02*
X15748Y9055D01*
X15945Y9252D02*
X15748Y9449D01*
X15945Y9646D02*
X15748Y9843D01*
X15945Y10039D02*
X15748Y10236D01*
X15945Y10433D02*
X15748Y10630D01*
X15960Y13016D02*
G03X15844Y12737I278J279D01*
G01X15989Y13318D02*
X15767Y13095D01*
X16007Y15402D02*
X16048Y15238D01*
Y13460*
G02X15989Y13318I201*
G01X16126Y13181D02*
X15960Y13016D01*
X16142Y4331D02*
X16339Y4528D01*
X16142Y4724D02*
X16220Y4803D01*
X16142Y5512D02*
X16339Y5709D01*
X16142Y5906D02*
X16339Y6102D01*
X16142Y6299D02*
X16339Y6496D01*
X16142Y6693D02*
X16339Y6890D01*
X16142Y7480D02*
X16339Y7677D01*
X16142Y10236D02*
X16339Y10039D01*
X16142Y10630D02*
X16339Y10433D01*
X16142Y11024D02*
X16339Y10827D01*
X16142Y11811D02*
X16339Y11614D01*
X16142Y12205D02*
X16339Y12008D01*
X16220Y4803D02*
X16339Y4921D01*
X16241Y13460D02*
G02X16126Y13181I394D01*
G01X16282Y15402D02*
X16241Y15238D01*
Y13460*
X16339Y5315D02*
X16142Y5118D01*
X16339Y7283D02*
X16142Y7087D01*
X16339Y9252D02*
X16142Y9449D01*
X16339Y11220D02*
X16142Y11417D01*
X16535Y4724D02*
X16614Y4803D01*
X16535Y5118D02*
X16732Y5315D01*
X16535Y5512D02*
X16732Y5709D01*
X16535Y6299D02*
X16732Y6496D01*
X16535Y6693D02*
X16732Y6890D01*
X16535Y7480D02*
X16732Y7677D01*
X16535Y8661D02*
X16732Y8465D01*
X16535Y9055D02*
X16732Y8858D01*
X16535Y10630D02*
X16732Y10433D01*
X16535Y11024D02*
X16732Y10827D01*
X16535Y11417D02*
X16732Y11220D01*
X16535Y11811D02*
X16732Y11614D01*
X16614Y4803D02*
X16732Y4921D01*
Y4134D02*
X16535Y3937D01*
X16732Y6102D02*
X16535Y5906D01*
X16732Y8071D02*
X16535Y8268D01*
X16732Y9646D02*
X16535Y9843D01*
X16732Y10039D02*
X16535Y10236D01*
X16732Y12008D02*
X16535Y12205D01*
X16929Y5906D02*
X17126Y6102D01*
X16929Y8661D02*
X17126Y8465D01*
X16929Y9449D02*
X17126Y9252D01*
X16929Y10236D02*
X17126Y10039D01*
X16929Y10630D02*
X17126Y10433D01*
X16929Y11417D02*
X17126Y11220D01*
X16929Y11811D02*
X17126Y11614D01*
X16929Y12205D02*
X17126Y12008D01*
X17008Y4803D02*
X16929Y4724D01*
X17126Y4921D02*
X17008Y4803D01*
X17126Y6890D02*
X16929Y6693D01*
X17126Y8858D02*
X16929Y9055D01*
X17126Y10827D02*
X16929Y11024D01*
X17323Y4331D02*
X17520Y4528D01*
X17323Y4724D02*
X17402Y4803D01*
X17323Y5906D02*
X17520Y6102D01*
X17323Y6693D02*
X17520Y6890D01*
X17323Y7087D02*
X17520Y7283D01*
X17323Y9449D02*
X17520Y9252D01*
X17323Y10236D02*
X17520Y10039D01*
X17323Y10630D02*
X17520Y10433D01*
X17323Y11024D02*
X17520Y10827D01*
X17402Y4803D02*
X17520Y4921D01*
Y3740D02*
X17323Y3543D01*
X17520Y5709D02*
X17323Y5512D01*
X17520Y7677D02*
X17323Y7480D01*
X17520Y8071D02*
X17323Y8268D01*
X17520Y9646D02*
X17323Y9843D01*
X17520Y11614D02*
X17323Y11811D01*
X17717Y3543D02*
X17913Y3740D01*
X17717Y5906D02*
X17913Y6102D01*
X17840Y2349D02*
X15696D01*
X17840Y2542D02*
X15696D01*
X17913Y4528D02*
X17717Y4331D01*
X17913Y6496D02*
X17717Y6299D01*
X17913Y8465D02*
X17717Y8661D01*
X17913Y10433D02*
X17717Y10630D01*
X17982Y2290D02*
G03X17840Y2349I142J142D01*
G01X18110Y3543D02*
X18307Y3740D01*
X18110Y4331D02*
X18307Y4528D01*
X18110Y4724D02*
X18189Y4803D01*
X18110Y5906D02*
X18307Y6102D01*
X18110Y7480D02*
X18307Y7677D01*
X18118Y2426D02*
G03X17840Y2542I278J278D01*
G01X18139Y2132D02*
X17982Y2290D01*
X18189Y4803D02*
X18307Y4921D01*
X18198Y1625D02*
Y1696D01*
Y1990*
G03X18139Y2132I201*
G01X18200Y1614D02*
G02X18198Y1625I30J11D01*
G01X18214Y1600D02*
Y1511D01*
X18172Y1347*
X18214Y1600D02*
X18200Y1614D01*
X18276Y2269D02*
X18118Y2426D01*
X18307Y5315D02*
X18110Y5118D01*
X18307Y7283D02*
X18110Y7087D01*
X18307Y9252D02*
X18110Y9449D01*
X18307Y11220D02*
X18110Y11417D01*
X18391Y1696D02*
Y1990D01*
G03X18276Y2269I394*
G01X18397Y1689D02*
X18391Y1696D01*
X18407Y1670D02*
Y1511D01*
X18448Y1347*
X18407Y1670D02*
G03X18397Y1689I32J3D01*
G01X18504Y4331D02*
X18701Y4528D01*
X18504Y4724D02*
X18583Y4803D01*
X18504Y5118D02*
X18701Y5315D01*
X18504Y7087D02*
X18701Y7283D01*
X18504Y7480D02*
X18701Y7677D01*
X18504Y10630D02*
X18701Y10433D01*
X18504Y11024D02*
X18701Y10827D01*
X18504Y11417D02*
X18701Y11220D01*
X18504Y11811D02*
X18701Y11614D01*
X18583Y4803D02*
X18701Y4921D01*
X18651Y3179D02*
G02X18633Y3208I56J56D01*
G01X18701Y3153D02*
X18651Y3179D01*
X18701Y4134D02*
X18504Y3937D01*
X18701Y6102D02*
X18504Y5906D01*
X18701Y8071D02*
X18504Y8268D01*
X18701Y10039D02*
X18504Y10236D01*
X18701Y12008D02*
X18504Y12205D01*
X18708Y3149D02*
X18701Y3153D01*
X18898Y3937D02*
X19094Y4134D01*
X18898Y4331D02*
X19094Y4528D01*
X18898Y5118D02*
X19094Y5315D01*
X18898Y5906D02*
X19094Y6102D01*
X18898Y6299D02*
X19094Y6496D01*
X18898Y7087D02*
X19094Y7283D01*
X18898Y7480D02*
X19094Y7677D01*
X18898Y8268D02*
X19094Y8071D01*
X18898Y10630D02*
X19094Y10433D01*
X18898Y11417D02*
X19094Y11220D01*
X18898Y11811D02*
X19094Y11614D01*
X18898Y12205D02*
X19094Y12008D01*
X18923Y3085D02*
G02X18708Y3149J394D01*
G01X18931Y3085D02*
X18923D01*
X18931Y3278D02*
G02X18769Y3345J229D01*
G01X19094Y4921D02*
X18898Y4724D01*
X19094Y6890D02*
X18898Y6693D01*
X19094Y8858D02*
X18898Y9055D01*
X19094Y9252D02*
X18898Y9449D01*
X19094Y9646D02*
X18898Y9843D01*
X19094Y10039D02*
X18898Y10236D01*
X19094Y10827D02*
X18898Y11024D01*
X19291D02*
X19488Y10827D01*
X19291Y11417D02*
X19488Y11220D01*
Y3740D02*
X19291Y3543D01*
X19488Y4134D02*
X19291Y3937D01*
X19488Y4528D02*
X19291Y4331D01*
X19488Y4921D02*
X19291Y4724D01*
X19488Y5315D02*
X19291Y5118D01*
X19488Y5709D02*
X19291Y5512D01*
X19488Y6102D02*
X19291Y5906D01*
X19488Y6496D02*
X19291Y6299D01*
X19488Y6890D02*
X19291Y6693D01*
X19488Y7283D02*
X19291Y7087D01*
X19488Y7677D02*
X19291Y7480D01*
X19488Y8071D02*
X19291Y8268D01*
X19488Y8465D02*
X19291Y8661D01*
X19488Y8858D02*
X19291Y9055D01*
X19488Y9252D02*
X19291Y9449D01*
X19488Y9646D02*
X19291Y9843D01*
X19488Y10039D02*
X19291Y10236D01*
X19488Y10433D02*
X19291Y10630D01*
X19488Y11614D02*
X19291Y11811D01*
X19882Y3740D02*
X20079Y3543D01*
X19882Y4134D02*
X20079Y3937D01*
X19882Y5315D02*
X20079Y5118D01*
X19882Y5709D02*
X20079Y5512D01*
X19882Y6102D02*
X20079Y5906D01*
X19882Y6496D02*
X20079Y6299D01*
X19882Y6890D02*
X20079Y6693D01*
X19882Y7283D02*
X20079Y7087D01*
X19882Y7677D02*
X20079Y7480D01*
X19882Y8071D02*
X20079Y8268D01*
X19882Y8465D02*
X20079Y8661D01*
X19882Y8858D02*
X20079Y9055D01*
X19882Y9252D02*
X20079Y9449D01*
X19882Y9646D02*
X20079Y9843D01*
X19882Y10039D02*
X20079Y10236D01*
X19882Y10433D02*
X20079Y10630D01*
Y4331D02*
X19882Y4528D01*
X20079Y4724D02*
X19882Y4921D01*
X20079Y11024D02*
X19882Y10827D01*
X20079Y11417D02*
X19882Y11220D01*
X20079Y11811D02*
X19882Y11614D01*
X20276Y4528D02*
X20472Y4331D01*
X20276Y4921D02*
X20472Y4724D01*
X20276Y6102D02*
X20472Y5906D01*
X20276Y6496D02*
X20472Y6299D01*
X20276Y6890D02*
X20472Y6693D01*
X20276Y7283D02*
X20472Y7087D01*
X20276Y7677D02*
X20472Y7480D01*
X20276Y8071D02*
X20472Y8268D01*
X20276Y8465D02*
X20472Y8661D01*
X20276Y8858D02*
X20472Y9055D01*
X20276Y9252D02*
X20472Y9449D01*
X20276Y9646D02*
X20472Y9843D01*
X20276Y10039D02*
X20472Y10236D01*
X20276Y11220D02*
X20472Y11417D01*
Y11811D02*
X20276Y11614D01*
X20529Y346D02*
X20570Y510D01*
Y2210*
G02X20686Y2488I394*
G01X20579Y3085D02*
X18931D01*
X20579Y3278D02*
X18931D01*
X20669Y3740D02*
X20866Y3543D01*
X20669Y4134D02*
X20866Y3937D01*
X20669Y5315D02*
X20866Y5118D01*
X20669Y5709D02*
X20866Y5512D01*
X20669Y6102D02*
X20866Y5906D01*
X20669Y6496D02*
X20866Y6299D01*
X20669Y6890D02*
X20866Y6693D01*
X20669Y7283D02*
X20866Y7087D01*
X20669Y7677D02*
X20866Y7480D01*
X20669Y8071D02*
X20866Y8268D01*
X20669Y8465D02*
X20866Y8661D01*
X20669Y8858D02*
X20866Y9055D01*
X20669Y9252D02*
X20866Y9449D01*
X20669Y9646D02*
X20866Y9843D01*
X20669Y10039D02*
X20866Y10236D01*
X20669Y12008D02*
X20866Y12205D01*
X20686Y2488D02*
X20724Y2526D01*
X20710Y3031D02*
G03X20579Y3085I131J131D01*
G01X20724Y2526D02*
G03X20764Y2624I98J98D01*
G01X20763Y2210D02*
G02X20822Y2352I201D01*
G01X20764Y2624D02*
Y2900D01*
G03X20710Y3031I185*
G01X20804Y346D02*
X20763Y510D01*
Y2210*
X20822Y2352D02*
X20860Y2390D01*
X20846Y3167D02*
G03X20579Y3278I267J267D01*
G01X20860Y2390D02*
G03X20957Y2624I234J234D01*
G01Y2900*
G03X20846Y3167I378*
G01X21063Y4528D02*
X21260Y4331D01*
X21063Y4921D02*
X21260Y4724D01*
X21063Y5315D02*
X21260Y5118D01*
X21063Y5709D02*
X21260Y5512D01*
X21063Y6102D02*
X21260Y5906D01*
X21063Y6496D02*
X21260Y6299D01*
X21063Y6890D02*
X21260Y6693D01*
X21063Y7283D02*
X21260Y7087D01*
X21063Y7677D02*
X21260Y7480D01*
X21063Y8071D02*
X21260Y8268D01*
X21063Y8465D02*
X21260Y8661D01*
X21063Y8858D02*
X21260Y9055D01*
X21063Y9252D02*
X21260Y9449D01*
X21063Y9646D02*
X21260Y9843D01*
X21063Y10039D02*
X21260Y10236D01*
X21063Y10827D02*
X21260Y11024D01*
Y3543D02*
X21063Y3740D01*
X21260Y3937D02*
X21063Y4134D01*
X21457Y3740D02*
X21654Y3543D01*
X21457Y4134D02*
X21654Y3937D01*
X21457Y5315D02*
X21654Y5118D01*
X21457Y5709D02*
X21654Y5512D01*
X21457Y6102D02*
X21654Y5906D01*
X21457Y6496D02*
X21260Y6693D01*
X21457Y6890D02*
X21260Y7087D01*
X21457Y7283D02*
X21654Y7087D01*
X21457Y7677D02*
X21654Y7480D01*
X21457Y8071D02*
X21654Y8268D01*
X21457Y8465D02*
X21654Y8661D01*
X21457Y8858D02*
X21654Y9055D01*
X21457Y9252D02*
X21654Y9449D01*
X21457Y9646D02*
X21654Y9843D01*
X21457Y10827D02*
X21654Y11024D01*
X21457Y11614D02*
X21654Y11811D01*
X21850Y4528D02*
X22047Y4331D01*
X21850Y4921D02*
X22047Y4724D01*
X21850Y5315D02*
X22047Y5118D01*
X21850Y5709D02*
X22047Y5512D01*
X21850Y6102D02*
X22047Y5906D01*
X21850Y6496D02*
X22047Y6299D01*
X21850Y8465D02*
X22047Y8661D01*
X21850Y10433D02*
X22047Y10630D01*
Y5906D02*
X22244Y5709D01*
Y3740D02*
X22441Y3543D01*
X22244Y4134D02*
X22441Y3937D01*
X22244Y5315D02*
X22441Y5118D01*
X22244Y6102D02*
X22441Y5906D01*
X22244Y7283D02*
X22441Y7087D01*
X22244Y9252D02*
X22441Y9449D01*
X22244Y11220D02*
X22441Y11417D01*
Y4331D02*
X22244Y4528D01*
X22441Y4724D02*
X22244Y4921D01*
X22638Y4528D02*
X22835Y4331D01*
X22638Y4921D02*
X22835Y4724D01*
X22638Y5315D02*
X22441Y5118D01*
X22638Y5709D02*
X22441Y5906D01*
X22638Y6102D02*
X22835Y5906D01*
X22638Y6496D02*
X22835Y6299D01*
X22638Y8071D02*
X22835Y8268D01*
X22638Y10039D02*
X22835Y10236D01*
X22638Y12008D02*
X22835Y12205D01*
Y3543D02*
X22638Y3740D01*
X22835Y3937D02*
X22638Y4134D01*
X23031Y3740D02*
X23228Y3543D01*
X23031Y4134D02*
X23228Y3937D01*
X23031Y4528D02*
X23228Y4331D01*
X23031Y4921D02*
X23228Y4724D01*
X23031Y6890D02*
X23228Y6693D01*
X23031Y8858D02*
X23228Y9055D01*
X23031Y10433D02*
X23228Y10630D01*
X23031Y10827D02*
X23228Y11024D01*
X23425Y3740D02*
X23622Y3543D01*
X23425Y5709D02*
X23622Y5512D01*
X23425Y7677D02*
X23622Y7480D01*
X23425Y9646D02*
X23622Y9843D01*
X23425Y11614D02*
X23622Y11811D01*
X23819Y4528D02*
X24016Y4331D01*
X23819Y6496D02*
X24016Y6299D01*
X23819Y8465D02*
X24016Y8661D01*
X23819Y10433D02*
X24016Y10630D01*
G54D13*
X16102Y3474D02*
G03X16209Y3217I364D01*
G01X16102Y3706D02*
Y3474D01*
X16181D02*
G03X16265Y3273I285D01*
G01X16181Y3706D02*
Y3474D01*
X16196Y3931D02*
G03X16102Y3706I225J225D01*
G01X16199Y3935D02*
X16196Y3931D01*
X16209Y3217D02*
G03X16466Y3110I257J257D01*
G01X16227Y4003D02*
G02X16199Y3935I96D01*
G01X16249Y4044D02*
G03X16227Y4003I56J55D01*
G01X16251Y3876D02*
G03X16181Y3706I170J170D01*
G01X16265Y3273D02*
G03X16466Y3189I201J201D01*
G01X16294Y3898D02*
G03X16251Y3876I13J78D01*
G01X16327Y3886D02*
G03X16294Y3898I42J67D01*
G01X16339Y3740D02*
Y3845D01*
G03X16327Y3886I79*
G01X16339Y4134D02*
X16249Y4044D01*
X16466Y3110D02*
X18178D01*
X16466Y3189D02*
X18178D01*
X16863Y4528D02*
X16732D01*
X16890Y3642D02*
Y3675D01*
Y4468*
G03X16863Y4528I79*
G01X16936Y3531D02*
G02X16890Y3642I111J111D01*
G01X16969D02*
Y3675D01*
Y4468*
G02X16996Y4528I78*
G01X16992Y3587D02*
G02X16969Y3642I55J55D01*
G01X16996Y4528D02*
X17126D01*
X17044Y3422D02*
X16936Y3531D01*
X17100Y3478D02*
X16992Y3587D01*
X17323Y3307D02*
X18574D01*
X17323D02*
G02X17044Y3422J394D01*
G01X17323Y3386D02*
X18574D01*
X17323D02*
G02X17100Y3478J315D01*
G01X18178Y3110D02*
G02X18237Y3086J83D01*
G01X18178Y3189D02*
G02X18292Y3141J162D01*
G01X18237Y3086D02*
G02X18261Y3027I59J59D01*
G01X18242Y2873D02*
X18172Y2804D01*
X18261Y2925D02*
G02X18242Y2873I79D01*
G01X18261Y2966D02*
Y2925D01*
Y3027D02*
Y2966D01*
X18292Y3141D02*
G02X18340Y3027I114J114D01*
G01Y2966D02*
G03X18378Y2873I131D01*
G01X18340Y3027D02*
Y2966D01*
X18378Y2873D02*
X18448Y2804D01*
X18574Y3386D02*
X18618D01*
X18617Y3294D02*
G03X18574Y3307I43J66D01*
G01X18633Y3208D02*
Y3247D01*
G03X18617Y3294I79*
G01X18659Y3374D02*
G03X18618Y3386I41J67D01*
G01X18673Y3363D02*
X18659Y3374D01*
X18701Y3349D02*
G02X18673Y3363I24J82D01*
G01X18726Y3345D02*
G02X18701Y3349J79D01*
G01X18769Y3345D02*
X18726D01*
G54D14*
X394Y787D03*
Y1181D03*
Y1575D03*
X787Y787D03*
Y1181D03*
Y1575D03*
X984Y10827D03*
Y11220D03*
Y11614D03*
Y12008D03*
Y12402D03*
Y12795D03*
Y13780D03*
Y14173D03*
Y14567D03*
Y14961D03*
X1181Y787D03*
Y1181D03*
Y1575D03*
X1343Y13334D03*
X1378Y10827D03*
Y12008D03*
Y12402D03*
Y12795D03*
Y13780D03*
Y14567D03*
Y14961D03*
X1459Y4528D03*
Y8465D03*
X1639Y13042D03*
Y14124D03*
X1772Y10827D03*
Y12008D03*
Y12402D03*
Y14567D03*
Y14961D03*
X1774Y3346D03*
Y7283D03*
X2165Y787D03*
Y1181D03*
Y1575D03*
Y3740D03*
Y4134D03*
Y4921D03*
Y5315D03*
Y5709D03*
Y7677D03*
Y8071D03*
Y8858D03*
Y9252D03*
Y9646D03*
Y10827D03*
Y12008D03*
Y12402D03*
Y14173D03*
Y14567D03*
Y14961D03*
X2500Y3053D03*
Y6990D03*
X2544Y13484D03*
X2559Y787D03*
Y1181D03*
Y1575D03*
Y3740D03*
Y4134D03*
Y4528D03*
Y4921D03*
Y5315D03*
Y5709D03*
Y7677D03*
Y8071D03*
Y8465D03*
Y8858D03*
Y9252D03*
Y9646D03*
Y10827D03*
Y12008D03*
Y12402D03*
Y14173D03*
Y14567D03*
Y14961D03*
X2640Y2598D03*
Y6535D03*
X2953Y787D03*
Y1181D03*
Y1575D03*
Y4528D03*
Y4921D03*
Y5315D03*
Y5709D03*
Y8465D03*
Y8858D03*
Y9252D03*
Y9646D03*
Y10827D03*
Y12008D03*
Y12402D03*
Y13298D03*
Y14567D03*
Y14961D03*
X3142Y2097D03*
X3248Y13233D03*
X3346Y4528D03*
Y4921D03*
Y5315D03*
Y5709D03*
Y8465D03*
Y8858D03*
Y9252D03*
Y9646D03*
Y10827D03*
Y12008D03*
Y13780D03*
Y14173D03*
Y14567D03*
Y14961D03*
X3366Y6535D03*
X3740Y5315D03*
Y5709D03*
Y9252D03*
Y9646D03*
Y11161D03*
X3809Y2864D03*
Y6801D03*
X4066Y15197D03*
X4094Y11417D03*
X4134Y5315D03*
Y5709D03*
Y9252D03*
Y9646D03*
X4213Y10827D03*
X4528Y4528D03*
Y4921D03*
Y5315D03*
Y5709D03*
Y8465D03*
Y8858D03*
Y9252D03*
Y9646D03*
X4606Y10827D03*
Y11220D03*
Y11614D03*
Y12008D03*
X4705Y2860D03*
Y6797D03*
X4921Y4528D03*
Y4921D03*
Y5315D03*
Y5709D03*
Y8465D03*
Y8858D03*
Y9252D03*
Y9646D03*
Y14567D03*
Y14961D03*
X5000Y10827D03*
Y11220D03*
Y11614D03*
Y12008D03*
X5315Y4134D03*
Y4528D03*
Y4921D03*
Y5315D03*
Y5709D03*
Y8071D03*
Y8465D03*
Y8858D03*
Y9252D03*
Y9646D03*
Y14567D03*
Y14961D03*
X5394Y10827D03*
Y11220D03*
Y11614D03*
X5512Y2152D03*
Y6089D03*
X5709Y4134D03*
Y4528D03*
Y4921D03*
Y5709D03*
Y8071D03*
Y8465D03*
Y8858D03*
Y9646D03*
Y13780D03*
Y14173D03*
Y14567D03*
Y14961D03*
X5787Y10827D03*
Y11220D03*
Y11614D03*
X6102Y13780D03*
Y14173D03*
Y14567D03*
Y14961D03*
X6178Y12949D03*
X6181Y10827D03*
Y11220D03*
Y11614D03*
X6415Y5315D03*
Y9252D03*
X6496Y13780D03*
Y14173D03*
Y14567D03*
Y14961D03*
X6575Y10827D03*
Y11220D03*
Y11614D03*
X6890Y13780D03*
Y14173D03*
Y14567D03*
Y14961D03*
X7283Y3740D03*
Y4528D03*
Y4921D03*
X7645Y6874D03*
Y7874D03*
Y8874D03*
X7677Y3740D03*
Y4921D03*
X7745Y14409D03*
Y15197D03*
X8465Y3740D03*
Y4528D03*
Y4921D03*
Y11220D03*
Y12008D03*
Y12992D03*
Y13780D03*
Y14567D03*
X8858Y10827D03*
Y11614D03*
Y12402D03*
Y13386D03*
Y14173D03*
Y14961D03*
X8917Y4134D03*
X9119Y12057D03*
Y13140D03*
X9252Y11220D03*
Y13780D03*
Y14567D03*
X9409Y7294D03*
Y8454D03*
X9646Y10827D03*
Y11614D03*
Y13386D03*
X10025Y12500D03*
X10245Y5413D03*
Y6004D03*
Y6595D03*
Y7185D03*
Y7776D03*
Y8366D03*
Y9350D03*
X11594Y7320D03*
Y8320D03*
Y9320D03*
X12590Y5413D03*
Y6004D03*
Y6595D03*
Y7185D03*
Y7776D03*
Y8366D03*
Y9350D03*
X12809Y2854D03*
Y4232D03*
Y12303D03*
Y13681D03*
X13740Y7231D03*
Y7657D03*
Y8091D03*
X13799Y9282D03*
X14291Y7231D03*
Y7657D03*
Y8091D03*
X14526Y6299D03*
X14843Y6548D03*
Y7231D03*
Y7657D03*
Y8091D03*
X14862Y373D03*
Y1829D03*
Y12971D03*
Y15376D03*
X15059Y1320D03*
Y13919D03*
Y14428D03*
X15256Y373D03*
Y15376D03*
X15354Y3543D03*
Y3937D03*
Y4331D03*
Y4724D03*
Y5118D03*
Y5512D03*
Y6299D03*
Y6693D03*
Y7087D03*
Y7480D03*
Y8268D03*
Y8661D03*
Y9055D03*
Y9449D03*
Y9843D03*
Y11417D03*
Y11811D03*
X15453Y1829D03*
Y12971D03*
Y14428D03*
X15551Y3740D03*
Y4134D03*
Y4528D03*
Y4921D03*
Y5315D03*
Y5709D03*
Y6102D03*
Y6496D03*
Y6890D03*
Y7283D03*
Y7677D03*
Y8071D03*
Y8465D03*
Y8858D03*
Y9252D03*
Y9646D03*
Y10039D03*
Y10433D03*
Y10827D03*
Y11220D03*
Y11614D03*
Y12008D03*
X15650Y373D03*
Y13919D03*
Y15376D03*
X15748Y4331D03*
Y4724D03*
Y5118D03*
Y6299D03*
Y6693D03*
Y7087D03*
Y7480D03*
Y8268D03*
Y8661D03*
Y9055D03*
Y9449D03*
Y9843D03*
Y10236D03*
Y10630D03*
Y11417D03*
Y11811D03*
X15847Y1320D03*
Y14428D03*
X15945Y3740D03*
Y4134D03*
Y4528D03*
Y4921D03*
Y5315D03*
Y5709D03*
Y6102D03*
Y6496D03*
Y6890D03*
Y7283D03*
Y7677D03*
Y8071D03*
Y8465D03*
Y8858D03*
Y9252D03*
Y9646D03*
Y10039D03*
Y10433D03*
Y10827D03*
Y11220D03*
Y11614D03*
Y12008D03*
X16007Y15402D03*
X16043Y373D03*
Y1829D03*
X16142Y4331D03*
Y4724D03*
Y5118D03*
Y5512D03*
Y5906D03*
Y6299D03*
Y6693D03*
Y7087D03*
Y7480D03*
Y9449D03*
Y10236D03*
Y10630D03*
Y11024D03*
Y11417D03*
Y11811D03*
Y12205D03*
X16204Y2804D03*
X16240Y1320D03*
X16282Y15402D03*
X16339Y3740D03*
Y4134D03*
Y4528D03*
Y4921D03*
Y5315D03*
Y5709D03*
Y6102D03*
Y6496D03*
Y6890D03*
Y7283D03*
Y7677D03*
Y8071D03*
Y8465D03*
Y8858D03*
Y9252D03*
Y9646D03*
Y10039D03*
Y10433D03*
Y10827D03*
Y11220D03*
Y11614D03*
Y12008D03*
X16395Y346D03*
X16479Y2804D03*
X16535Y3543D03*
Y3937D03*
Y4724D03*
Y5118D03*
Y5512D03*
Y5906D03*
Y6299D03*
Y6693D03*
Y7480D03*
Y8268D03*
Y8661D03*
Y9055D03*
Y9843D03*
Y10236D03*
Y10630D03*
Y11024D03*
Y11417D03*
Y11811D03*
Y12205D03*
X16634Y1829D03*
Y14428D03*
X16671Y346D03*
X16732Y3740D03*
Y4134D03*
Y4528D03*
Y4921D03*
Y5315D03*
Y5709D03*
Y6102D03*
Y6496D03*
Y6890D03*
Y7283D03*
Y7677D03*
Y8071D03*
Y8465D03*
Y8858D03*
Y9252D03*
Y9646D03*
Y10039D03*
Y10433D03*
Y10827D03*
Y11220D03*
Y11614D03*
Y12008D03*
X16791Y14016D03*
X16794Y1347D03*
Y2804D03*
Y15402D03*
X16929Y4724D03*
Y5906D03*
Y6693D03*
Y8661D03*
Y9055D03*
Y9449D03*
Y10236D03*
Y10630D03*
Y11024D03*
Y11417D03*
Y11811D03*
Y12205D03*
X17067Y14016D03*
X17070Y1347D03*
Y2804D03*
Y15402D03*
X17126Y3740D03*
Y4134D03*
Y4528D03*
Y4921D03*
Y5315D03*
Y5709D03*
Y6102D03*
Y6496D03*
Y6890D03*
Y7283D03*
Y7677D03*
Y8071D03*
Y8465D03*
Y8858D03*
Y9252D03*
Y9646D03*
Y10039D03*
Y10433D03*
Y10827D03*
Y11220D03*
Y11614D03*
Y12008D03*
X17182Y346D03*
Y14401D03*
X17185Y12874D03*
X17225Y1829D03*
X17323Y3543D03*
Y4331D03*
Y4724D03*
Y5512D03*
Y5906D03*
Y6693D03*
Y7087D03*
Y7480D03*
Y8268D03*
Y9449D03*
Y9843D03*
Y10236D03*
Y10630D03*
Y11024D03*
Y11811D03*
X17458Y346D03*
Y14401D03*
X17461Y12874D03*
X17520Y3740D03*
Y4134D03*
Y4528D03*
Y4921D03*
Y5315D03*
Y5709D03*
Y6102D03*
Y6496D03*
Y6890D03*
Y7283D03*
Y7677D03*
Y8071D03*
Y8465D03*
Y8858D03*
Y9252D03*
Y9646D03*
Y10039D03*
Y10433D03*
Y10827D03*
Y11220D03*
Y11614D03*
Y12008D03*
X17618Y1830D03*
Y1320D03*
X17717Y3543D03*
Y4331D03*
Y5906D03*
Y6299D03*
Y8661D03*
Y10630D03*
X17737Y14401D03*
X17773Y346D03*
X17778Y15402D03*
X17913Y3740D03*
Y4134D03*
Y4528D03*
Y4921D03*
Y5315D03*
Y5709D03*
Y6102D03*
Y6496D03*
Y6890D03*
Y7283D03*
Y7677D03*
Y8071D03*
Y8465D03*
Y8858D03*
Y9252D03*
Y9646D03*
Y10039D03*
Y10433D03*
Y10827D03*
Y11220D03*
Y11614D03*
Y12008D03*
X17939Y1782D03*
X18049Y346D03*
X18054Y15402D03*
X18110Y3543D03*
Y4331D03*
Y4724D03*
Y5118D03*
Y5906D03*
Y7087D03*
Y7480D03*
Y9449D03*
Y11417D03*
X18167Y14401D03*
X18169Y14016D03*
X18172Y1347D03*
Y2804D03*
X18307Y3740D03*
Y4134D03*
Y4528D03*
Y4921D03*
Y5315D03*
Y5709D03*
Y6102D03*
Y6496D03*
Y6890D03*
Y7283D03*
Y7677D03*
Y8071D03*
Y8465D03*
Y8858D03*
Y9252D03*
Y9646D03*
Y10039D03*
Y10433D03*
Y10827D03*
Y11220D03*
Y11614D03*
Y12008D03*
X18442Y14401D03*
X18445Y14016D03*
X18448Y1347D03*
Y2804D03*
X18475Y15403D03*
X18504Y3937D03*
Y4331D03*
Y4724D03*
Y5118D03*
Y5906D03*
Y7087D03*
Y7480D03*
Y8268D03*
Y10236D03*
Y10630D03*
Y11024D03*
Y11417D03*
Y11811D03*
Y12205D03*
X18560Y1803D03*
X18602Y373D03*
Y12971D03*
X18701Y3740D03*
Y4134D03*
Y4528D03*
Y4921D03*
Y5315D03*
Y5709D03*
Y6102D03*
Y6496D03*
Y6890D03*
Y7283D03*
Y7677D03*
Y8071D03*
Y8465D03*
Y8858D03*
Y9252D03*
Y9646D03*
Y10039D03*
Y10433D03*
Y10827D03*
Y11220D03*
Y11614D03*
Y12008D03*
X18763Y1347D03*
Y15402D03*
X18836Y1803D03*
X18898Y3937D03*
Y4331D03*
Y4724D03*
Y5118D03*
Y5906D03*
Y6299D03*
Y6693D03*
Y7087D03*
Y7480D03*
Y8268D03*
Y9055D03*
Y9449D03*
Y9843D03*
Y10236D03*
Y10630D03*
Y11024D03*
Y11417D03*
Y11811D03*
Y12205D03*
X18996Y2777D03*
X19038Y1347D03*
Y15402D03*
X19094Y3740D03*
Y4134D03*
Y4528D03*
Y4921D03*
Y5315D03*
Y5709D03*
Y6102D03*
Y6496D03*
Y6890D03*
Y7283D03*
Y7677D03*
Y8071D03*
Y8465D03*
Y8858D03*
Y9252D03*
Y9646D03*
Y10039D03*
Y10433D03*
Y10827D03*
Y11220D03*
Y11614D03*
Y12008D03*
X19154Y12874D03*
X19291Y3543D03*
Y3937D03*
Y4331D03*
Y4724D03*
Y5118D03*
Y5512D03*
Y5906D03*
Y6299D03*
Y6693D03*
Y7087D03*
Y7480D03*
Y8268D03*
Y8661D03*
Y9055D03*
Y9449D03*
Y9843D03*
Y10236D03*
Y10630D03*
Y11024D03*
Y11417D03*
Y11811D03*
X19429Y12874D03*
X19488Y3740D03*
Y4134D03*
Y4528D03*
Y4921D03*
Y5315D03*
Y5709D03*
Y6102D03*
Y6496D03*
Y6890D03*
Y7283D03*
Y7677D03*
Y8071D03*
Y8465D03*
Y8858D03*
Y9252D03*
Y9646D03*
Y10039D03*
Y10433D03*
Y10827D03*
Y11220D03*
Y11614D03*
Y12008D03*
X19544Y346D03*
X19550Y2804D03*
X19587Y13919D03*
Y14428D03*
X19744Y12874D03*
X19747Y15402D03*
X19820Y346D03*
X19826Y2804D03*
X19882Y3740D03*
Y4134D03*
Y4528D03*
Y4921D03*
Y5315D03*
Y5709D03*
Y6102D03*
Y6496D03*
Y6890D03*
Y7283D03*
Y7677D03*
Y8071D03*
Y8465D03*
Y8858D03*
Y9252D03*
Y9646D03*
Y10039D03*
Y10433D03*
Y10827D03*
Y11220D03*
Y11614D03*
Y12008D03*
X19980Y1320D03*
Y1829D03*
X20020Y12874D03*
X20023Y15402D03*
X20079Y3543D03*
Y3937D03*
Y4331D03*
Y4724D03*
Y5118D03*
Y5512D03*
Y5906D03*
Y6299D03*
Y6693D03*
Y7087D03*
Y7480D03*
Y8268D03*
Y8661D03*
Y9055D03*
Y9449D03*
Y9843D03*
Y10236D03*
Y10630D03*
Y11024D03*
Y11417D03*
Y11811D03*
X20135Y14401D03*
X20141Y2804D03*
X20276Y3740D03*
Y4134D03*
Y4528D03*
Y4921D03*
Y5315D03*
Y5709D03*
Y6102D03*
Y6496D03*
Y6890D03*
Y7283D03*
Y7677D03*
Y8071D03*
Y8465D03*
Y8858D03*
Y9252D03*
Y9646D03*
Y10039D03*
Y10433D03*
Y10827D03*
Y11220D03*
Y11614D03*
Y12008D03*
X20411Y14401D03*
X20416Y2804D03*
X20472Y4331D03*
Y4724D03*
Y5906D03*
Y6299D03*
Y6693D03*
Y7087D03*
Y7480D03*
Y8268D03*
Y8661D03*
Y9055D03*
Y9449D03*
Y9843D03*
Y10236D03*
Y11417D03*
Y11811D03*
X20529Y346D03*
X20571Y13919D03*
X20669Y3740D03*
Y4134D03*
Y4528D03*
Y4921D03*
Y5315D03*
Y5709D03*
Y6102D03*
Y6496D03*
Y6890D03*
Y7283D03*
Y7677D03*
Y8071D03*
Y8465D03*
Y8858D03*
Y9252D03*
Y9646D03*
Y10039D03*
Y10433D03*
Y10827D03*
Y11220D03*
Y11614D03*
Y12008D03*
X20728Y12874D03*
X20731Y15402D03*
X20804Y346D03*
X20866Y3543D03*
Y3937D03*
Y5118D03*
Y5512D03*
Y5906D03*
Y6299D03*
Y6693D03*
Y7087D03*
Y7480D03*
Y8268D03*
Y8661D03*
Y9055D03*
Y9449D03*
Y9843D03*
Y10236D03*
Y12205D03*
X20965Y1320D03*
Y1829D03*
X21004Y12874D03*
X21007Y15402D03*
X21063Y3740D03*
Y4134D03*
Y4528D03*
Y4921D03*
Y5315D03*
Y5709D03*
Y6102D03*
Y6496D03*
Y6890D03*
Y7283D03*
Y7677D03*
Y8071D03*
Y8465D03*
Y8858D03*
Y9252D03*
Y9646D03*
Y10039D03*
Y10433D03*
Y10827D03*
Y11220D03*
Y11614D03*
Y12008D03*
X21119Y346D03*
X21260Y3543D03*
Y3937D03*
Y4331D03*
Y4724D03*
Y5118D03*
Y5512D03*
Y5906D03*
Y6299D03*
Y6693D03*
Y7087D03*
Y7480D03*
Y8268D03*
Y8661D03*
Y9055D03*
Y9449D03*
Y9843D03*
Y10236D03*
Y11024D03*
X21336Y1499D03*
X21395Y346D03*
X21457Y3740D03*
Y4134D03*
Y4528D03*
Y4921D03*
Y5315D03*
Y5709D03*
Y6102D03*
Y6496D03*
Y6890D03*
Y7283D03*
Y7677D03*
Y8071D03*
Y8465D03*
Y8858D03*
Y9252D03*
Y9646D03*
Y10039D03*
Y10433D03*
Y10827D03*
Y11220D03*
Y11614D03*
Y12008D03*
X21555Y13919D03*
Y14428D03*
X21612Y1499D03*
X21654Y3543D03*
Y3937D03*
Y5118D03*
Y5512D03*
Y5906D03*
Y7087D03*
Y7480D03*
Y8268D03*
Y8661D03*
Y9055D03*
Y9449D03*
Y9843D03*
Y11024D03*
Y11811D03*
X21715Y15402D03*
X21850Y3740D03*
Y4134D03*
Y4528D03*
Y4921D03*
Y5315D03*
Y5709D03*
Y6102D03*
Y6496D03*
Y6890D03*
Y7283D03*
Y7677D03*
Y8071D03*
Y8465D03*
Y8858D03*
Y9252D03*
Y9646D03*
Y10039D03*
Y10433D03*
Y10827D03*
Y11220D03*
Y11614D03*
Y12008D03*
X21949Y1320D03*
Y1829D03*
X21991Y15402D03*
X22047Y4331D03*
Y4724D03*
Y5118D03*
Y5512D03*
Y5906D03*
Y6299D03*
Y8661D03*
Y10630D03*
X22104Y346D03*
Y14401D03*
X22244Y3740D03*
Y4134D03*
Y4528D03*
Y4921D03*
Y5315D03*
Y5709D03*
Y6102D03*
Y6496D03*
Y6890D03*
Y7283D03*
Y7677D03*
Y8071D03*
Y8465D03*
Y8858D03*
Y9252D03*
Y9646D03*
Y10039D03*
Y10433D03*
Y10827D03*
Y11220D03*
Y11614D03*
Y12008D03*
X22379Y346D03*
Y14401D03*
X22441Y3543D03*
Y3937D03*
Y4331D03*
Y4724D03*
Y5118D03*
Y5906D03*
Y7087D03*
Y9449D03*
Y11417D03*
X22539Y13919D03*
Y15376D03*
X22638Y3740D03*
Y4134D03*
Y4528D03*
Y4921D03*
Y5315D03*
Y5709D03*
Y6102D03*
Y6496D03*
Y6890D03*
Y7283D03*
Y7677D03*
Y8071D03*
Y8465D03*
Y8858D03*
Y9252D03*
Y9646D03*
Y10039D03*
Y10433D03*
Y10827D03*
Y11220D03*
Y11614D03*
Y12008D03*
X22694Y346D03*
X22835Y3543D03*
Y3937D03*
Y4331D03*
Y4724D03*
Y5906D03*
Y6299D03*
Y8268D03*
Y10236D03*
Y12205D03*
X22933Y1829D03*
X22970Y346D03*
X23031Y3740D03*
Y4134D03*
Y4528D03*
Y4921D03*
Y5315D03*
Y5709D03*
Y6102D03*
Y6496D03*
Y6890D03*
Y7283D03*
Y7677D03*
Y8071D03*
Y8465D03*
Y8858D03*
Y9252D03*
Y9646D03*
Y10039D03*
Y10433D03*
Y10827D03*
Y11220D03*
Y11614D03*
Y12008D03*
X23093Y1347D03*
Y2804D03*
Y15402D03*
X23228Y3543D03*
Y3937D03*
Y4331D03*
Y4724D03*
Y5906D03*
Y6693D03*
Y9055D03*
Y10630D03*
Y11024D03*
X23369Y1347D03*
Y2804D03*
Y15402D03*
X23425Y3740D03*
Y4134D03*
Y4528D03*
Y4921D03*
Y5315D03*
Y5709D03*
Y6102D03*
Y6496D03*
Y6890D03*
Y7283D03*
Y7677D03*
Y8071D03*
Y8465D03*
Y8858D03*
Y9252D03*
Y9646D03*
Y10039D03*
Y10433D03*
Y10827D03*
Y11220D03*
Y11614D03*
Y12008D03*
X23524Y1829D03*
Y14428D03*
X23622Y3543D03*
Y5512D03*
Y7480D03*
Y9843D03*
Y11811D03*
X23678Y346D03*
X23721Y12971D03*
X23819Y3740D03*
Y4134D03*
Y4528D03*
Y4921D03*
Y5315D03*
Y5709D03*
Y6102D03*
Y6496D03*
Y6890D03*
Y7283D03*
Y7677D03*
Y8071D03*
Y8465D03*
Y8858D03*
Y9252D03*
Y9646D03*
Y10039D03*
Y10433D03*
Y10827D03*
Y11220D03*
Y11614D03*
Y12008D03*
X23881Y2804D03*
X23954Y346D03*
X24016Y3937D03*
Y4331D03*
Y6299D03*
Y8661D03*
Y10630D03*
X24072Y14401D03*
X24114Y1320D03*
X24154Y3425D03*
X24157Y2804D03*
X24213Y12441D03*
X24311Y373D03*
X24348Y14401D03*
X24508Y1320D03*
X24550Y15402D03*
X24714Y11750D03*
X24737Y3819D03*
Y4094D03*
Y4370D03*
X24744Y9685D03*
X24850Y3425D03*
X25069Y12052D03*
X25085Y12480D03*
X25118Y6083D03*
X25177Y9685D03*
X25276Y4658D03*
Y7217D03*
Y8137D03*
Y9066D03*
X25669Y6083D03*
X26027Y4724D03*
Y5512D03*
Y6299D03*
X26154Y12402D03*
Y13386D03*
X26395Y11893D03*
X26722Y9941D03*
X27074Y11417D03*
Y12402D03*
Y13386D03*
X27106Y9924D03*
X27418Y7874D03*
X27419Y7382D03*
X27539Y9685D03*
X28757Y11893D03*
X29092Y4724D03*
Y5512D03*
Y6299D03*
Y7087D03*
Y7874D03*
Y8661D03*
Y9449D03*
G54D15*
X4066Y15197D03*
X5226D03*
X6585Y14409D03*
Y15197D03*
X7441Y11979D03*
Y13139D03*
X7745Y14409D03*
Y15197D03*
X25276Y9066D03*
Y10226D03*
G54D16*
X1752Y4528D03*
Y8465D03*
X2067Y3346D03*
Y7283D03*
X2185Y4528D03*
Y8465D03*
X2500Y3346D03*
Y7283D03*
X2815Y12992D03*
X2933Y2598D03*
Y6535D03*
X3248Y12992D03*
X3366Y2598D03*
Y6535D03*
X4272Y2598D03*
Y6535D03*
X4705Y2598D03*
Y6535D03*
X5689Y5315D03*
Y9252D03*
X6122Y5315D03*
Y9252D03*
X7303Y4134D03*
X7736D03*
X8484D03*
X8917D03*
X10138Y10866D03*
X10571D03*
X12933Y6874D03*
Y7874D03*
Y8874D03*
X13366Y6299D03*
Y6874D03*
Y7874D03*
Y8874D03*
X13799Y6299D03*
G54D17*
X5748Y12138D03*
Y13058D03*
X6614Y12138D03*
Y13058D03*
X25276Y4658D03*
Y5578D03*
Y7217D03*
Y8137D03*
G54D18*
X8091Y6874D03*
Y7874D03*
Y8874D03*
X11594Y6874D03*
Y7874D03*
Y8874D03*
G54D19*
X2665Y11417D03*
X6677Y1969D03*
X7677D03*
X8677D03*
G54D20*
X26722Y4724D03*
Y5512D03*
Y6299D03*
Y7087D03*
Y7874D03*
Y8661D03*
Y9449D03*
X28396Y4724D03*
Y5512D03*
Y6299D03*
Y7087D03*
Y7874D03*
Y8661D03*
Y9449D03*
G54D21*
X27559Y5118D03*
Y9055D03*
G54D22*
X1665Y11417D03*
G54D23*
X1639Y13287D03*
Y13484D03*
Y13681D03*
Y13878D03*
X2298Y13287D03*
Y13484D03*
Y13681D03*
Y13878D03*
X9119Y12303D03*
Y12500D03*
Y12697D03*
Y12894D03*
X9779Y12303D03*
Y12500D03*
Y12697D03*
Y12894D03*
G54D24*
X3477Y12441D03*
X4397D03*
X18595Y827D03*
X19515D03*
X26154Y11417D03*
Y12402D03*
Y13386D03*
X27074Y11417D03*
Y12402D03*
Y13386D03*
G54D25*
X3939Y13661D03*
X5100D03*
G54D26*
X2953Y13563D03*
Y13996D03*
X3740Y10728D03*
Y11161D03*
X5512Y2421D03*
Y2854D03*
Y3445D03*
Y3878D03*
Y6358D03*
Y6791D03*
Y7382D03*
Y7815D03*
X8071Y4705D03*
Y5138D03*
X10197Y11673D03*
Y12106D03*
G54D27*
X3209Y3553D03*
Y3809D03*
Y4065D03*
Y4321D03*
Y7490D03*
Y7746D03*
Y8002D03*
Y8258D03*
G54D28*
X3553Y3209D03*
Y7146D03*
X3809Y3209D03*
Y7146D03*
X4065Y3209D03*
Y7146D03*
X4321Y3209D03*
Y7146D03*
G54D29*
X4665Y3553D03*
Y3809D03*
Y4065D03*
Y4321D03*
Y7490D03*
Y7746D03*
Y8002D03*
Y8258D03*
G54D30*
X3780Y11732D03*
Y11890D03*
X3937Y11732D03*
Y11890D03*
X4094Y11732D03*
Y11890D03*
G54D31*
X1104Y1220D03*
X2204D03*
G54D70*
X10984Y3947D03*
Y11801D03*
X13789Y2008D03*
Y14606D03*
X25581Y2008D03*
Y14606D03*
G54D71*
X13386Y2854D03*
Y4232D03*
Y12303D03*
Y13681D03*
G54D72*
X3553Y4665D03*
Y8602D03*
X3809Y4665D03*
Y8602D03*
X4065Y4665D03*
Y8602D03*
X4321Y4665D03*
Y8602D03*
G54D73*
X3937Y3937D03*
Y7874D03*
M02*
