*
G04 Job   : Y:\Users\CEG\Central Electronics\Projects\Hastingsp\MENTOR\DUNE\MIB_Module\PCB\MIB_Module.pcb*
G04 User  : ELWT2:hastingsp*
G04 Layer : 05_Layer3.gdo*
G04 Date  : Wed Jun 28 08:25:48 2023*
G04 VeriBest Example Gerber Output Definition*
%ICAS*%
%MOIN*%
%FSLAX24Y24*%
%OFA0.0000B0.0000*%
G90*
G74*
%ADD12C,0.00394*%
%ADD11C,0.00787*%
%ADD13C,0.01181*%
%ADD14C,0.01969*%
%ADD10C,0.21654*%
G01*
G36*
X-276Y1772D02*
X118D01*
Y2559*
X-276*
Y1772*
X1594Y12954D02*
X1726Y13086D01*
X1807Y12929*
X1751Y12873*
X1594Y12954*
X2416Y7041D02*
X2551Y6906D01*
X2352Y6787*
X2296Y6842*
X2416Y7041*
X2476Y3149D02*
Y2958D01*
X2252Y3014*
Y3092*
X2476Y3149*
X3193Y2182D02*
X3058Y2047D01*
X2939Y2245*
X2994Y2301*
X3193Y2182*
X3451Y6485D02*
X3315Y6620D01*
X3514Y6739*
X3570Y6683*
X3451Y6485*
X3645Y11138D02*
X3836D01*
X3780Y10913*
X3701*
X3645Y11138*
X3976Y5876D02*
G02X4006Y5906I30D01*
G01X6258*
Y5315*
G03X6415Y5157I157*
X6573Y5315J158*
X6415Y5472I158*
X6258Y5315J157*
G01Y5906*
X7126*
Y3740*
G03X7283Y3583I157*
X7441Y3740J157*
X7283Y3898I158*
X7126Y3740J158*
G01Y4528*
G03X7283Y4370I157*
X7441Y4528J158*
X7283Y4685I158*
X7126Y4528J157*
G01Y4921*
G03X7283Y4764I157*
X7441Y4921J157*
X7283Y5079I158*
X7126Y4921J158*
G01Y5906*
X7520*
Y3740*
G03X7677Y3583I157*
X7835Y3740J157*
X7677Y3898I158*
X7520Y3740J158*
G01Y4921*
G03X7677Y4764I157*
X7835Y4921J157*
X7677Y5079I158*
X7520Y4921J158*
G01Y5906*
X8307*
Y3740*
G03X8465Y3583I158*
X8622Y3740J157*
X8465Y3898I157*
X8307Y3740J158*
G01Y4528*
G03X8465Y4370I158*
X8622Y4528J158*
X8465Y4685I157*
X8307Y4528J157*
G01Y4921*
G03X8465Y4764I158*
X8622Y4921J157*
X8465Y5079I157*
X8307Y4921J158*
G01Y5906*
X8760*
Y4134*
G03X8917Y3976I157*
X9075Y4134J158*
X8917Y4291I158*
X8760Y4134J157*
G01Y5906*
X10087*
Y5413*
G03X10245Y5256I158*
X10402Y5413J157*
X10245Y5571I157*
X10087Y5413J158*
G01Y5906*
X10108*
G02X10130Y5896J30*
G03X10245Y5847I115J108*
X10359Y5896J157*
G02X10381Y5906I22J20*
G01X10679*
Y3947*
G03X10984Y3642I305*
X11289Y3947J305*
X10984Y4252I305*
X10679Y3947J305*
G01Y5906*
X11267*
Y4528*
G03X11752Y4042I485*
X12237Y4528J486*
X11752Y5013I485*
X11267Y4528J485*
G01Y5906*
X12432*
Y5413*
G03X12590Y5256I158*
X12651Y5268J157*
G01Y4232*
G03X12809Y4075I158*
X12966Y4232J157*
X12809Y4390I157*
X12651Y4232J158*
G01Y5268*
G03X12747Y5413I61J145*
X12590Y5571I157*
X12432Y5413J158*
G01Y5906*
X12453*
G02X12475Y5896J30*
G03X12590Y5847I115J108*
X12704Y5896J157*
G02X12726Y5906I22J20*
G01X14379*
G02X14409Y5876J30*
G01Y4488*
X15217*
G02X15247Y4458J30*
X15239Y4438I30*
G03X15197Y4331I115J107*
G01Y3543*
G03X15354Y3386I157*
X15512Y3543J157*
X15354Y3701I158*
X15197Y3543J158*
G01Y3937*
G03X15354Y3780I157*
X15512Y3937J157*
X15354Y4094I158*
X15197Y3937J157*
G01Y4331*
G03X15354Y4173I157*
X15512Y4331J158*
X15470Y4438I158*
G02X15462Y4458I22J20*
X15492Y4488I30*
G01X15611*
G02X15641Y4458J30*
X15633Y4438I30*
G03X15591Y4331I115J107*
X15748Y4173I157*
X15906Y4331J158*
X15864Y4438I158*
G02X15856Y4458I22J20*
X15886Y4488I30*
G01X16004*
G02X16034Y4458J30*
X16026Y4438I30*
G03X15984Y4331I116J107*
X16142Y4173I158*
X16299Y4331J158*
X16257Y4438I157*
G02X16249Y4458I22J20*
X16279Y4488I30*
G01X16378*
Y3543*
G03X16535Y3386I157*
X16693Y3543J157*
X16535Y3701I158*
X16378Y3543J158*
G01Y3937*
G03X16535Y3780I157*
X16693Y3937J157*
X16535Y4094I158*
X16378Y3937J157*
G01Y4488*
X17185*
G02X17215Y4458J30*
X17207Y4438I30*
G03X17165Y4331I116J107*
G01Y3543*
G03X17323Y3386I158*
X17480Y3543J157*
X17323Y3701I157*
X17165Y3543J158*
G01Y4331*
G03X17323Y4173I158*
X17480Y4331J158*
X17438Y4438I157*
G02X17430Y4458I22J20*
X17460Y4488I30*
G01X17579*
G02X17609Y4458J30*
X17601Y4438I30*
G03X17559Y4331I116J107*
G01Y3543*
G03X17717Y3386I158*
X17874Y3543J157*
X17717Y3701I157*
X17559Y3543J158*
G01Y4331*
G03X17717Y4173I158*
X17874Y4331J158*
X17832Y4438I157*
G02X17824Y4458I22J20*
X17854Y4488I30*
G01X17973*
G02X18003Y4458J30*
X17995Y4438I30*
G03X17953Y4331I115J107*
G01Y3543*
G03X18110Y3386I157*
X18268Y3543J157*
X18110Y3701I158*
X17953Y3543J158*
G01Y4331*
G03X18110Y4173I157*
X18268Y4331J158*
X18226Y4438I158*
G02X18218Y4458I22J20*
X18248Y4488I30*
G01X18366*
G02X18396Y4458J30*
X18388Y4438I30*
G03X18346Y4331I116J107*
G01Y3937*
G03X18504Y3780I158*
X18661Y3937J157*
X18504Y4094I157*
X18346Y3937J157*
G01Y4331*
G03X18504Y4173I158*
X18661Y4331J158*
X18619Y4438I157*
G02X18611Y4458I22J20*
X18641Y4488I30*
G01X18760*
G02X18790Y4458J30*
X18782Y4438I30*
G03X18740Y4331I116J107*
G01Y3937*
G03X18898Y3780I158*
X19055Y3937J157*
X18898Y4094I157*
X18740Y3937J157*
G01Y4331*
G03X18898Y4173I158*
X19055Y4331J158*
X18989Y4459I157*
G02X18976Y4484I17J25*
Y4488I30*
G01Y4572*
G02X18989Y4596I30*
G03X19055Y4724I91J128*
X18989Y4853I157*
G02X18976Y4877I17J24*
G01Y4965*
G02X18989Y4990I30*
G03X19055Y5118I91J128*
X18989Y5246I157*
G02X18976Y5271I17J25*
G01Y5753*
G02X18989Y5777I30*
G03X19055Y5906I91J129*
G01Y8745*
G02X19085Y8775I30*
G01X19124*
G02X19154Y8745J30*
X19150Y8732I30*
G03X19134Y8661I141J71*
G01Y3543*
G03X19291Y3386I157*
X19449Y3543J157*
X19291Y3701I158*
X19134Y3543J158*
G01Y3937*
G03X19291Y3780I157*
X19449Y3937J157*
X19291Y4094I158*
X19134Y3937J157*
G01Y4331*
G03X19291Y4173I157*
X19449Y4331J158*
X19291Y4488I158*
X19134Y4331J157*
G01Y4724*
G03X19291Y4567I157*
X19449Y4724J157*
X19291Y4882I158*
X19134Y4724J158*
G01Y5512*
G03X19291Y5354I157*
X19449Y5512J158*
X19291Y5669I158*
X19134Y5512J157*
G01Y5906*
G03X19291Y5748I157*
X19449Y5906J158*
X19291Y6063I158*
X19134Y5906J157*
G01Y6693*
G03X19291Y6535I157*
X19449Y6693J158*
X19291Y6850I158*
X19134Y6693J157*
G01Y7480*
G03X19291Y7323I157*
X19449Y7480J157*
X19291Y7638I158*
X19134Y7480J158*
G01Y8661*
G03X19291Y8504I157*
X19449Y8661J157*
X19430Y8735I158*
G02X19427Y8750I27J15*
X19457Y8780I30*
G01X19843*
Y9576*
G02X19873Y9606I30*
G01X19921*
Y3543*
G03X20079Y3386I158*
X20236Y3543J157*
X20079Y3701I157*
X19921Y3543J158*
G01Y3937*
G03X20079Y3780I158*
X20236Y3937J157*
X20079Y4094I157*
X19921Y3937J157*
G01Y4331*
G03X20079Y4173I158*
X20236Y4331J158*
X20079Y4488I157*
X19921Y4331J157*
G01Y4724*
G03X20079Y4567I158*
X20236Y4724J157*
X20079Y4882I157*
X19921Y4724J158*
G01Y5118*
G03X20079Y4961I158*
X20236Y5118J157*
X20079Y5276I157*
X19921Y5118J158*
G01Y5512*
G03X20079Y5354I158*
X20236Y5512J158*
X20079Y5669I157*
X19921Y5512J157*
G01Y5906*
G03X20079Y5748I158*
X20236Y5906J158*
X20079Y6063I157*
X19921Y5906J157*
G01Y6299*
G03X20079Y6142I158*
X20236Y6299J157*
X20079Y6457I157*
X19921Y6299J158*
G01Y6693*
G03X20079Y6535I158*
X20236Y6693J158*
X20079Y6850I157*
X19921Y6693J157*
G01Y7087*
G03X20079Y6929I158*
X20236Y7087J158*
X20079Y7244I157*
X19921Y7087J157*
G01Y7480*
G03X20079Y7323I158*
X20236Y7480J157*
X20079Y7638I157*
X19921Y7480J158*
G01Y8268*
G03X20079Y8110I158*
X20236Y8268J158*
X20079Y8425I157*
X19921Y8268J157*
G01Y8661*
G03X20079Y8504I158*
X20236Y8661J157*
X20079Y8819I157*
X19921Y8661J158*
G01Y9055*
G03X20079Y8898I158*
X20236Y9055J157*
X20079Y9213I157*
X19921Y9055J158*
G01Y9606*
X20335*
G02X20365Y9576J30*
X20357Y9556I30*
G03X20315Y9449I115J107*
G01Y4331*
G03X20472Y4173I157*
X20630Y4331J158*
X20472Y4488I158*
X20315Y4331J157*
G01Y4724*
G03X20472Y4567I157*
X20630Y4724J157*
X20472Y4882I158*
X20315Y4724J158*
G01Y5906*
G03X20472Y5748I157*
X20630Y5906J158*
X20472Y6063I158*
X20315Y5906J157*
G01Y6299*
G03X20472Y6142I157*
X20630Y6299J157*
X20472Y6457I158*
X20315Y6299J158*
G01Y6693*
G03X20472Y6535I157*
X20630Y6693J158*
X20472Y6850I158*
X20315Y6693J157*
G01Y7087*
G03X20472Y6929I157*
X20630Y7087J158*
X20472Y7244I158*
X20315Y7087J157*
G01Y7480*
G03X20472Y7323I157*
X20630Y7480J157*
X20472Y7638I158*
X20315Y7480J158*
G01Y8268*
G03X20472Y8110I157*
X20630Y8268J158*
X20472Y8425I158*
X20315Y8268J157*
G01Y8661*
G03X20472Y8504I157*
X20630Y8661J157*
X20472Y8819I158*
X20315Y8661J158*
G01Y9055*
G03X20472Y8898I157*
X20630Y9055J157*
X20472Y9213I158*
X20315Y9055J158*
G01Y9449*
G03X20472Y9291I157*
X20593Y9347J158*
G02X20616Y9358I23J19*
X20640Y9346J30*
G03X20668Y9313I223J162*
G01X20700Y9281*
G02X20709Y9260I21J21*
G01Y2983*
G02X20679Y2953I30*
G01X20472*
G02X20463Y2954J30*
G03X20416Y2961I47J150*
X20370Y2954J157*
G02X20361Y2953I9J29*
G01X20197*
G02X20188Y2954J30*
G03X20141Y2961I47J150*
X20094Y2954J157*
G02X20085Y2953I9J29*
G01X19881*
G02X19873Y2954J30*
G03X19826Y2961I47J150*
X19779Y2954J157*
G02X19770Y2953I9J29*
G01X19606*
G02X19597Y2954J30*
G03X19550Y2961I47J150*
X19503Y2954J157*
G02X19494Y2953I9J29*
G01X18503*
G02X18495Y2954I1J30*
G03X18448Y2961I47J150*
X18401Y2954J157*
G02X18392Y2953I9J29*
G01X18228*
G02X18219Y2954J30*
G03X18172Y2961I47J150*
X18125Y2954J157*
G02X18116Y2953I9J29*
G01X17126*
G02X17117Y2954J30*
G03X17070Y2961I47J150*
X17023Y2954J157*
G02X17014Y2953I9J29*
G01X16850*
G02X16841Y2954J30*
G03X16794Y2961I47J150*
X16747Y2954J157*
G02X16738Y2953I9J29*
G01X16535*
G02X16526Y2954J30*
G03X16479Y2961I47J150*
X16433Y2954J157*
G02X16424Y2953I9J29*
G01X16260*
G02X16251Y2954J30*
G03X16204Y2961I47J150*
X16157Y2954J157*
G02X16148Y2953I9J29*
G01X12945*
G02X12923Y2962J30*
G03X12809Y3012I114J108*
X12694Y2962J158*
G02X12672Y2953I22J21*
G01X4846*
G02X4824Y2963J30*
G03X4705Y3017I119J103*
X4586Y2963J157*
G02X4563Y2953I23J20*
G01X4006*
G02X3976Y2983J30*
G01Y3567*
G02X4006Y3597I30*
X4034Y3579J30*
G03X4213Y3465I179J82*
X4409Y3661J196*
X4213Y3858I196*
X4164Y3852J197*
G02X4157Y3851I7J29*
X4127Y3881J30*
X4128Y3889I30*
G03X4134Y3937I191J48*
X4128Y3985I197*
G02X4127Y3993I29J8*
X4157Y4023I30*
X4164Y4022J30*
G03X4213Y4016I49J191*
X4409Y4213J197*
X4213Y4409I196*
X4034Y4295J196*
G02X4006Y4277I28J12*
X3976Y4307J30*
G01Y5876*
X9214Y12081D02*
X9023D01*
X9080Y12306*
X9158*
X9214Y12081*
X11571Y8415D02*
Y8224D01*
X11346Y8280*
Y8359*
X11571Y8415*
Y9415D02*
Y9224D01*
X11346Y9280*
Y9359*
X11571Y9415*
X11645Y7404D02*
X11510Y7269D01*
X11391Y7468*
X11447Y7523*
X11645Y7404*
X15434Y5454D02*
X15297Y5592D01*
X15488Y5729*
X15572Y5646*
X15434Y5454*
X15694Y8579D02*
X15830Y8715D01*
X15930Y8563*
X15847Y8479*
X15694Y8579*
X16059Y7140D02*
X16196Y7004D01*
X16043Y6905*
X15960Y6988*
X16059Y7140*
X16199Y7167D02*
X16062Y7029D01*
X15924Y7221*
X16008Y7304*
X16199Y7167*
X17279Y9361D02*
X17411Y9492D01*
X17512Y9287*
X17485Y9259*
X17279Y9361*
X18809Y9886D02*
X18941Y9754D01*
X18736Y9653*
X18708Y9681*
X18809Y9886*
X18941Y10324D02*
X18809Y10193D01*
X18708Y10398*
X18736Y10426*
X18941Y10324*
X18986Y9405D02*
X18854Y9537D01*
X19059Y9638*
X19087Y9611*
X18986Y9405*
X19336Y10718D02*
X19204Y10585D01*
X19096Y10797*
X19124Y10825*
X19336Y10718*
X19383Y10201D02*
X19256Y10328D01*
X19418Y10390*
X19446Y10363*
X19383Y10201*
X24181Y12534D02*
Y12348D01*
X23964Y12421*
Y12461*
X24181Y12534*
X24297Y12390D02*
X24162Y12525D01*
X24360Y12644*
X24416Y12589*
X24297Y12390*
X24526Y15498D02*
Y15307D01*
X24302Y15363*
Y15442*
X24526Y15498*
X24629Y11801D02*
X24764Y11666D01*
X24566Y11547*
X24510Y11602*
X24629Y11801*
X25019Y11968D02*
X25154Y12103D01*
X25273Y11904*
X25217Y11849*
X25019Y11968*
X25029Y12142D02*
Y11962D01*
X24871Y12033*
Y12072*
X25029Y12142*
X25053Y12573D02*
Y12387D01*
X24837Y12460*
Y12500*
X25053Y12573*
X25109Y12385D02*
Y12576D01*
X25333Y12519*
Y12441*
X25109Y12385*
X26003Y5607D02*
Y5416D01*
X25778Y5472*
Y5551*
X26003Y5607*
X26111Y6249D02*
X25976Y6384D01*
X26174Y6503*
X26230Y6447*
X26111Y6249*
X26818Y9965D02*
X26627D01*
X26683Y10190*
X26762*
X26818Y9965*
X27373Y7786D02*
X27506Y7919D01*
X27586Y7762*
X27531Y7706*
X27373Y7786*
X27469Y7466D02*
X27334Y7331D01*
X27215Y7530*
X27271Y7585*
X27469Y7466*
G37*
G54D10*
X11024Y1181D03*
Y14567D03*
X28346D03*
X28347Y1181D03*
G54D11*
X597Y-549D02*
X843D01*
X709Y-735*
X776*
X821Y-758*
X843Y-780*
X865Y-847*
Y-899*
X843Y-966*
X798Y-1011*
X731Y-1033*
X664*
X597Y-1011*
X574Y-989*
X552Y-944*
X957Y3610D02*
Y9122D01*
G02X1072Y9400I394*
G01Y3332D02*
G02X957Y3610I279J278D01*
G01X1072Y9400D02*
X1793Y10121D01*
X1236Y3168D02*
X1072Y3332D01*
X1514Y3053D02*
G02X1236Y3168J394D01*
G01X1793Y10121D02*
G02X2071Y10236I278J278D01*
G01X1811Y12869D02*
X1639Y13042D01*
X1957Y3744D02*
G03X2303Y3397I346D01*
G01X1957Y5957D02*
Y3744D01*
Y5957D02*
G02X2302Y6793I1181D01*
G01X2046Y12772D02*
G02X1811Y12869J332D01*
G01X2071Y10236D02*
X3393D01*
X2303Y3397D02*
X2520D01*
X2500Y3053D02*
X1514D01*
X2500Y6990D02*
X2302Y6793D01*
X2520Y3397D02*
G02X2743Y3304J316D01*
X2835Y3081I223J223*
G01X2757Y3814D02*
Y5733D01*
Y3814D02*
G03X2873Y3536I394D01*
G01X2757Y5733D02*
G02X2873Y6011I394D01*
G01X2835Y2567D02*
G03X2951Y2289I394D01*
G01X2835Y3081D02*
Y2567D01*
X2873Y3536D02*
X2896Y3512D01*
X2873Y6011D02*
X2984Y6123D01*
X2951Y2289D02*
X3142Y2097D01*
X2984Y6123D02*
G02X3174Y6202I190J190D01*
G01X3012Y2982D02*
Y3234D01*
G03X2896Y3512I394*
G01X3127Y2703D02*
G02X3012Y2982I279J279D01*
G01X3157Y3060D02*
G03X3272Y2781I393D01*
G01X3157Y5835D02*
Y3060D01*
Y5835D02*
G02X3168Y5863I39D01*
G01X3262Y5957*
X3174Y6202D02*
X3339D01*
X3272Y2781D02*
X3442Y2612D01*
X3328Y5996D02*
G03X3262Y5957I45J151D01*
G01X3328Y5996D02*
X3445Y6031D01*
X3339Y6202D02*
G03X3474Y6257J190D01*
G01X3341Y3136D02*
Y4106D01*
G02X3442Y4350I345*
G01X3366Y6535D02*
X3581Y6750D01*
X3382Y2448D02*
X3127Y2703D01*
X3393Y10236D02*
G03X3638Y10338J348D01*
G01X3442Y2612D02*
G03X3720Y2496I278J278D01*
G01X3442Y4350D02*
G03X3543Y4594I244J244D01*
G01X3445Y6031D02*
G03X3511Y6071I45J151D01*
G01X3788Y6347*
X3543Y4594D02*
Y5576D01*
X3581Y6750D02*
G03X3632Y6838I139J140D01*
G02X3683Y6925I190J52*
G01X3638Y10338D02*
G03X3740Y10584I245J246D01*
G01X3661Y2333D02*
G02X3382Y2448J394D01*
G01X3683Y6925D02*
X3846Y7088D01*
X3721Y6505D02*
X3474Y6257D01*
X3721Y6505D02*
G02X3999Y6620I278J279D01*
G01X3740Y10584D02*
Y11161D01*
X3820Y2657D02*
G02X3341Y3136J479D01*
G01X3846Y7088D02*
G02X4044Y7170I198J198D01*
G01X3999Y6620D02*
X6478D01*
X4044Y7170D02*
G03X4242Y7252J280D01*
G01X4066Y6462D02*
G03X3788Y6347J393D01*
G01X4242Y7252D02*
X4252Y7262D01*
G02X4530Y7377I278J278*
G01X4272Y6305D02*
X6662D01*
X4272D02*
G03X3543Y5576J729D01*
G01X4530Y7377D02*
X4709D01*
G03X4987Y7493J394*
G01X5456Y7962*
G03X5512Y8071I139J139*
G02X5567Y8180I194J30*
G01X5600Y8212*
G02X5709Y8268I139J139*
G03X5818Y8323I31J194*
G01X7325Y9830*
X6478Y6620D02*
G03X6757Y6735J394D01*
G01X6572Y6462D02*
X4066D01*
X6572D02*
G03X6850Y6578J394D01*
G01X6662Y6305D02*
G03X6940Y6420J394D01*
G01X6757Y6735D02*
X8856Y8835D01*
X6850Y6578D02*
X8829Y8557D01*
X6940Y6420D02*
X8536Y8016D01*
X7325Y9830D02*
G03X7440Y10108I279J278D01*
G01Y10876D02*
G02X7555Y11154I394D01*
G01X7440Y10108D02*
Y10876D01*
X7555Y11154D02*
X8097Y11696D01*
G02X8375Y11811I278J279*
G01X8710*
X8536Y8016D02*
G02X8815Y8131I279J278D01*
G01X8692Y12772D02*
X2046D01*
X8710Y11811D02*
G03X8988Y11926J394D01*
G01X8815Y8131D02*
X10620D01*
X8829Y8557D02*
G02X9108Y8672I279J278D01*
G01X8856Y8835D02*
G02X9134Y8950I278J279D01*
G01X8971Y12657D02*
G03X8692Y12772I279J279D01*
G01X8987Y12640D02*
X8971Y12657D01*
X8988Y11926D02*
X9119Y12057D01*
X9108Y8672D02*
X10302D01*
X9119Y12057D02*
Y12322D01*
G03X8987Y12640I450*
G01X9134Y8950D02*
X9932D01*
X9690Y2657D02*
X3820D01*
X9744Y2496D02*
X3720D01*
X9789Y2333D02*
X3661D01*
X9831Y2688D02*
G02X9690Y2657I141J310D01*
G01X9893Y2528D02*
G02X9744Y2496I149J327D01*
G01X9932Y8950D02*
G03X10210Y9065J394D01*
G01X9951Y2368D02*
G02X9789Y2333I162J357D01*
G01X9972Y2718D02*
G03X9831Y2688J340D01*
G01X10041Y2561D02*
G03X9893Y2528J359D01*
G01X10113Y2403D02*
G03X9951Y2368J392D01*
G01X10210Y9065D02*
X10349Y9204D01*
X10302Y8672D02*
G02X10580Y8557J393D01*
G01X10349Y9204D02*
G02X10628Y9320I279J278D01*
G01X10580Y8557D02*
X10702Y8435D01*
X10620Y8131D02*
G02X10898Y8016J393D01*
G01X10628Y9320D02*
X11594D01*
X10702Y8435D02*
G03X10980Y8320I278J278D01*
G01X10898Y8016D02*
X11285Y7629D01*
X11594Y7320*
X10980Y8320D02*
X11594D01*
X12300Y2403D02*
X10113D01*
X12365Y2561D02*
X10041D01*
X12397Y2378D02*
G03X12300Y2403I97J172D01*
G01X12430Y2718D02*
X9972D01*
X12462Y2535D02*
G03X12365Y2561I97J171D01*
G01X12493Y2352D02*
G02X12397Y2378J197D01*
G01X12527Y2693D02*
G03X12430Y2718I97J172D01*
G01X12559Y2510D02*
G02X12462Y2535J197D01*
G01X12624Y2667D02*
G02X12527Y2693J197D01*
G01X13856Y2352D02*
X12493D01*
X13921Y2510D02*
X12559D01*
X13966Y2319D02*
G03X13856Y2352I110J163D01*
G01X13986Y2667D02*
X12624D01*
X14031Y2476D02*
G03X13921Y2510I110J163D01*
G01X14076Y2285D02*
G02X13966Y2319J197D01*
G01X14096Y2634D02*
G03X13986Y2667I110J164D01*
G01X14141Y2442D02*
G02X14031Y2476J197D01*
G01X14206Y2600D02*
G02X14096Y2634J197D01*
G01X21299Y2600D02*
X14206D01*
X21423Y2647D02*
G02X21299Y2600I124J139D01*
G01X21476Y3150D02*
Y2765D01*
G02X21423Y2647I158*
G01X21610Y2442D02*
X14141D01*
X21682Y2285D02*
X14076D01*
X21894Y2726D02*
G02X21610Y2442I284D01*
G01X21894Y2726D02*
Y3150D01*
X21961Y2400D02*
G02X21682Y2285I279J279D01*
G01X22089Y2529D02*
X21961Y2400D01*
X22205Y2808D02*
G02X22089Y2529I394D01*
G01X22205Y3150D02*
Y2808D01*
X22788Y13255D02*
X22822Y13288D01*
G03X22835Y13305I56J56*
G01X22938Y13427*
G03X23032Y13682I300J255*
G01Y14023D02*
G02X23147Y14302I393D01*
G01X23032Y13682D02*
Y14023D01*
X23147Y14302D02*
X24215Y15370D01*
G02X24294Y15402I79J79*
G01X24550*
X24409Y11446D02*
X24714Y11750D01*
X24508Y1320D02*
Y7148D01*
Y9040*
G03X24409Y9278I336*
G01X24542Y12770D02*
X24213Y12441D01*
X24764Y11700D02*
X24714Y11750D01*
X24820Y12886D02*
G03X24542Y12770J394D01*
G01X24941Y6006D02*
Y11272D01*
G03X24764Y11700I605*
G01X25056Y5727D02*
G02X24941Y6006I279J279D01*
G01X25085Y12480D02*
X25342D01*
X25156Y5627D02*
X25056Y5727D01*
X25256Y11866D02*
X25069Y12052D01*
X25342Y12480D02*
G02X25710Y12328J519D01*
G01X25435Y5512D02*
G02X25156Y5627J394D01*
G01X25469Y12018D02*
G02X25580Y11972J157D01*
G01X26607Y10945*
X25602Y6564D02*
Y11030D01*
G03X25256Y11866I1181*
G01X25710Y12328D02*
X26814Y11224D01*
X25717Y6285D02*
G02X25602Y6564I279J279D01*
G01X25839Y6163D02*
X25717Y6285D01*
X25980Y12886D02*
X24820D01*
X26027Y5512D02*
X25435D01*
X26117Y6048D02*
G02X25839Y6163J394D01*
G01X26259Y12770D02*
G03X25980Y12886I279J278D01*
G01X26462Y6048D02*
X26117D01*
X26607Y10945D02*
G02X26722Y10667I278J278D01*
G01Y9941*
X26740Y6163D02*
G02X26462Y6048I278J279D01*
G01X26814Y7086D02*
X26027Y6299D01*
X26814Y11224D02*
G02X26929Y10945I279J279D01*
G01Y7365D02*
G02X26814Y7086I394D01*
G01X26929Y10945D02*
Y7365D01*
X27157Y7708D02*
Y9254D01*
G02X27216Y9462I394*
G01X27168Y11861D02*
X26259Y12770D01*
X27203Y7597D02*
G02X27157Y7708I112J111D01*
G01X27203Y7597D02*
X27419Y7382D01*
X27216Y9462D02*
X27224Y9475D01*
G03X27283Y9682I334J207*
G01Y11582*
G03X27168Y11861I393*
G01X27418Y7874D02*
X27581Y7711D01*
Y7005D02*
X26740Y6163D01*
X27581Y7711D02*
G02X27728Y7358I352J353D01*
X27581Y7005I499*
G54D12*
G01X15906Y10630D02*
Y12426D01*
G02X16021Y12704I393*
G01X15975Y10463D02*
G02X15906Y10630I167J167D01*
G01X15984D02*
Y12426D01*
G02X16077Y12648I315*
G01X16021Y12704D02*
X16798Y13481D01*
X16030Y10519D02*
G02X15984Y10630I112J111D01*
G01X16077Y12648D02*
X16853Y13425D01*
X16142Y10394D02*
G02X15975Y10463J236D01*
G01X16142Y10472D02*
G02X16030Y10519J158D01*
G01X16211Y12135D02*
X16142Y12205D01*
X16299Y11022D02*
Y11529D01*
Y11923*
G03X16211Y12135I300*
G01X16368Y10856D02*
G02X16299Y11022I166J166D01*
G01X16378D02*
Y11529D01*
G02X16466Y11741I300*
G01X16424Y10912D02*
G02X16378Y11022I110J110D01*
G01X16466Y11741D02*
X16535Y11811D01*
X16534Y10787D02*
G02X16368Y10856J235D01*
G01X16534Y10866D02*
G02X16424Y10912J156D01*
G01X16535Y10630D02*
X16640D01*
X16535Y11417D02*
X16655D01*
X16535Y10394D02*
X16142D01*
X16535Y10472D02*
X16142D01*
X16640Y10630D02*
G02X16681Y10618J79D01*
G01X16647Y10519D02*
G02X16535Y10472I112J111D01*
G01X16655Y11417D02*
G02X16678Y11414J78D01*
G01X16671Y10543D02*
X16647Y10519D01*
X16678Y11414D02*
G03X16687Y11404I49J33D01*
G01X16681Y10618D02*
G02X16693Y10586I66J42D01*
G01X16687Y11404D02*
X16691Y11378D01*
X16693Y11348*
Y10586D02*
G02X16671Y10543I78J12D01*
G01X16693Y11348D02*
G03X16716Y11296I80J5D01*
G01X16702Y10463D02*
G02X16535Y10394I167J167D01*
G01X16716Y11296D02*
X16738Y11274D01*
X16727Y10487D02*
X16702Y10463D01*
X16738Y11274D02*
X16765Y11247D01*
X16777Y11236*
X16771Y10573D02*
G02X16727Y10487I156J25D01*
G01X16772Y10581D02*
G02X16771Y10573I157J17D01*
G01X16772Y10582D02*
Y10581D01*
X16774Y11362D02*
G03X16794Y11330I75J24D01*
G01X16777Y11236D02*
G03X16908Y11181I131J131D01*
G01X16779Y11398D02*
G03X16774Y11369I74J29D01*
Y11362I79*
G01X16783Y10618D02*
G03X16772Y10582I67J41D01*
G01X16794Y11330D02*
X16821Y11303D01*
X16798Y13481D02*
G03X16890Y13703I223J222D01*
G01X16821Y11303D02*
G03X16925Y11260I104J103D01*
G01X16824Y10630D02*
G03X16783Y10618J79D01*
G01X16831Y11417D02*
G03X16779Y11398I1J78D01*
G01X16847Y13934D02*
X16791Y13990D01*
Y14016*
X16853Y13425D02*
G03X16969Y13703I278J278D01*
G01X16890D02*
Y13832D01*
G03X16847Y13934I145*
G01X16908Y11181D02*
X16925D01*
X17146*
X16925Y11260D02*
X17146D01*
X16929Y10630D02*
X16824D01*
X16929Y11417D02*
X16831D01*
X16969Y13703D02*
Y13832D01*
G02X17011Y13934I145*
G01X17067Y13990*
Y14016*
X17120Y8634D02*
G03X17235Y8355I394D01*
G01X17120Y9753D02*
Y8634D01*
X17146Y11181D02*
G03X17425Y11296J394D01*
G01X17146Y11260D02*
G03X17369Y11352J315D01*
G01X17202Y9951D02*
G03X17120Y9753I199J198D01*
G01X17235Y8355D02*
X17323Y8268D01*
X17241Y12792D02*
X17185Y12848D01*
Y12874*
X17284Y12542D02*
Y12690D01*
G03X17241Y12792I146*
G01X17362Y12542D02*
Y12690D01*
G02X17405Y12792I145*
G01X17369Y11352D02*
X17388Y11371D01*
G03X17480Y11594I223J223*
G01X17399Y12263D02*
G02X17284Y12542I278J279D01*
G01X17401Y10034D02*
G03X17202Y9951J281D01*
G01X17405Y12792D02*
X17461Y12848D01*
Y12874*
X17405Y12257D02*
X17399Y12263D01*
X17425Y11296D02*
X17444Y11316D01*
G03X17559Y11594I279J278*
G01X17455Y12319D02*
G02X17362Y12542I222J223D01*
G01X17461Y12313D02*
X17455Y12319D01*
X17480Y11594D02*
Y12075D01*
G03X17405Y12257I257*
G01X17542Y10034D02*
X17401D01*
X17559Y11594D02*
Y12075D01*
G03X17461Y12313I336*
G01X17602Y10787D02*
X16534D01*
X17602Y10866D02*
X16534D01*
X17692Y10904D02*
G02X17602Y10866I90J90D01*
G01X17699Y10066D02*
G02X17542Y10034I157J361D01*
G01X17728Y10079D02*
X17699Y10066D01*
X17730Y10994D02*
G02X17692Y10904I128D01*
G01X17730Y11550D02*
Y10994D01*
X17748Y10848D02*
G02X17602Y10787I146J146D01*
G01X17754Y10090D02*
X17728Y10079D01*
X17802Y8969D02*
X17323Y9449D01*
X17809Y10994D02*
G02X17748Y10848I207D01*
G01X17809Y11550D02*
Y10994D01*
X17845Y11828D02*
G03X17730Y11550I279J278D01*
G01X17876Y10173D02*
G02X17754Y10090I278J278D01*
G01X17901Y11773D02*
G03X17809Y11550I223J223D01*
G01X18038Y10335D02*
X17967Y10264D01*
X17876Y10173*
X18081Y8854D02*
G02X17802Y8969J394D01*
G01X18110Y11115D02*
Y10509D01*
Y11115D02*
G02X18120Y11126I65J45D01*
G01X18110Y10509D02*
G02X18038Y10335I245D01*
G01X18120Y11126D02*
X18232Y11238D01*
X18169Y14016D02*
Y13990D01*
X18225Y13934*
X18175Y12159D02*
X17845Y11828D01*
X18225Y13934D02*
G02X18268Y13832I102J102D01*
G01X18231Y12103D02*
X17901Y11773D01*
X18232Y11238D02*
G03X18310Y11426I188J188D01*
G01X18268Y12381D02*
G02X18175Y12159I315D01*
G01X18268Y13832D02*
Y13138D01*
Y13137*
Y12381*
X18310Y11426D02*
Y11481D01*
G02X18349Y11575I133*
G01X18346Y12381D02*
G02X18231Y12103I393D01*
G01X18347Y13832D02*
Y13105D01*
X18346*
Y12381*
X18349Y11575D02*
G02X18443Y11614I94J94D01*
G01X18389Y13934D02*
G03X18347Y13832I103J102D01*
G01X18443Y11614D02*
X18490D01*
X18445Y14016D02*
Y13990D01*
X18389Y13934*
X18490Y11614D02*
G03X18582Y11666I47J191D01*
G01X18695Y11779*
X18655Y9372D02*
G03X18694Y9278I133D01*
G01X18655Y9523D02*
G02X18709Y9654I184D01*
G01X18655Y9523D02*
Y9372D01*
X18694Y9278D02*
G03X18788Y9239I94J94D01*
G01X18695Y11779D02*
G03X18740Y11850I140J139D01*
G01X18709Y10433D02*
G03X18715Y10419I20D01*
G01X18709Y10433D02*
Y11416D01*
G02X18763Y11544I180*
G01X18715Y10419D02*
X18898Y10236D01*
X18740Y11850D02*
G02X18786Y11922I185J67D01*
G01X18763Y11544D02*
G02X18891Y11596I128J130D01*
G01X18786Y11922D02*
X18787Y11923D01*
G02X18858Y11969I139J139*
G01X18788Y9239D02*
X19252D01*
X18858Y11969D02*
G03X18930Y12014I67J184D01*
G01X18898Y9843D02*
X18709Y9654D01*
X18930Y12014D02*
X19337Y12421D01*
X19089Y9640D02*
X18898Y9449D01*
X19094Y9654D02*
G02X19089Y9640I19D01*
G01X19094Y9757D02*
Y9654D01*
X19104Y10826D02*
Y11078D01*
Y10826D02*
G03X19110Y10812I19D01*
G01X19291Y10630*
X19145Y11179D02*
G03X19104Y11078I101J101D01*
G01X19173Y9947D02*
G03X19094Y9757I190J190D01*
G01X19180Y9954D02*
X19173Y9947D01*
X19185Y11596D02*
X18891D01*
X19246Y11220D02*
G03X19145Y11179J142D01*
G01X19252Y9239D02*
G03X19482Y9334J325D01*
G01X19294Y11220D02*
X19246D01*
X19301Y8854D02*
X18081D01*
X19337Y12421D02*
G02X19615Y12536I278J278D01*
G01X19386Y10039D02*
G03X19180Y9954J292D01*
G01X19448Y10039D02*
X19386D01*
X19452Y10396D02*
X19291Y10236D01*
X19463Y11712D02*
G02X19185Y11596I278J278D01*
G01X19463Y11712D02*
X19999Y12247D01*
X19476Y11296D02*
G02X19294Y11220I182J182D01*
G01X19482Y9334D02*
G03X19578Y9564I230J230D01*
G01X19567Y10675D02*
G02X19452Y10396I394D01*
G01X19567Y11024D02*
Y10675D01*
X19578Y9564D02*
Y9711D01*
G02X19693Y9990I393*
G01X19579Y10079D02*
G02X19448Y10039I131J197D01*
G01X19580Y8969D02*
G02X19301Y8854I279J279D01*
G01X19601Y10094D02*
G02X19579Y10079I55J56D01*
G01X19615Y12536D02*
X21907D01*
X19682Y11302D02*
G03X19567Y11024I279J278D01*
G01X19685Y10297D02*
G02X19601Y10094I286D01*
G01X19685Y10921D02*
Y10297D01*
X19693Y9990D02*
X19782Y10079D01*
X19694Y9083D02*
X19580Y8969D01*
X19742Y11078D02*
G03X19685Y10921I187J157D01*
G01X19747Y9212D02*
G02X19694Y9083I183D01*
G01X19747Y9276D02*
Y9212D01*
X19748Y9289D02*
G03X19747Y9276I78J13D01*
G01X19749Y9303D02*
G02X19748Y9289I78D01*
G01X19749Y9563D02*
Y9303D01*
X19795Y11615D02*
X19476Y11296D01*
X19803Y10132D02*
G02X19782Y10079I79D01*
G01X19803Y10468D02*
Y10132D01*
X19835Y9770D02*
G03X19749Y9563I208J207D01*
G01X19843Y11730D02*
G02X19795Y11615I163D01*
G01X19851Y11176D02*
X19843Y11171D01*
X19800Y11146*
X19742Y11078*
X19890Y11845D02*
G03X19843Y11730I115J115D01*
G01X19921Y9977D02*
G02X19835Y9770I293D01*
G01X19921Y10072D02*
Y9977D01*
Y10309D02*
Y10072D01*
X19973Y10420D02*
G03X19921Y10309I92J111D01*
G01X19990Y11610D02*
X19682Y11302D01*
X19999Y12247D02*
G02X20277Y12362I278J278D01*
G01X20004Y11616D02*
X22835D01*
X20004D02*
G03X19990Y11610J20D01*
G01X20036Y11991D02*
X19890Y11845D01*
X20050Y11229D02*
G03X19851Y11176J393D01*
G01X20050Y11997D02*
G03X20036Y11991J20D01*
G01X20091Y10463D02*
G03X19973Y10420J184D01*
G01X20171Y10836D02*
G03X19803Y10468J368D01*
G01X20214Y10101D02*
X20079Y10236D01*
X20229Y10079D02*
G03X20214Y10101I71J33D01*
G01X20276Y9928D02*
G03X20229Y10079I269D01*
G01X20277Y12362D02*
X22349D01*
X20354Y9738D02*
G02X20276Y9928I190J190D01*
G01X20392Y9700D02*
X20354Y9738D01*
X20496Y9646D02*
G02X20392Y9700I35J193D01*
G01X20599Y9591D02*
G03X20496Y9646I139J139D01*
G01X20607Y10101D02*
X20472Y10236D01*
X20615Y9576D02*
X20599Y9591D01*
X20623Y10079D02*
G03X20607Y10101I71J33D01*
G01X20629Y10070D02*
X20623Y10079D01*
X20669Y9472D02*
G03X20615Y9576I193J35D01*
G01X20675Y9876D02*
Y9919D01*
G03X20629Y10070I269*
G01X20724Y9369D02*
G02X20669Y9472I139J139D01*
G01X20782Y9310D02*
X20724Y9369D01*
X20782Y9310D02*
G03X20923Y9252I141J141D01*
G01X20899Y9652D02*
G02X20675Y9876J224D01*
G01X20923Y9252D02*
X21251D01*
X20996Y10106D02*
X20866Y10236D01*
X21062Y10079D02*
G02X20996Y10106J93D01*
G01X21070Y10075D02*
X21062Y10079D01*
X21234Y10039D02*
G02X21070Y10075J394D01*
G01X21251Y9252D02*
G02X21410Y9186J225D01*
X21476Y9027I159J159*
G01Y3150*
X21769Y9652D02*
X20899D01*
X21769D02*
G02X21890Y9531J121D01*
G01X21811Y10039D02*
G02X22205Y9646J393D01*
G01X21811Y10039D02*
X21234D01*
X21890Y3174D02*
G03X21894Y3150I79D01*
G01X21890Y9531D02*
Y3174D01*
X21907Y12536D02*
G03X22185Y12652J394D01*
G01X22788Y13255*
X22205Y9646D02*
Y3150D01*
X22349Y12362D02*
G03X22467Y12402J197D01*
G02X22585Y12441I118J158*
G01X22835*
Y10463D02*
X23061D01*
X22835D02*
X20091D01*
X22835Y10836D02*
X23636D01*
X22835D02*
X20171D01*
X22835Y11229D02*
X20050D01*
X22835Y11616D02*
X22863D01*
X22835Y11997D02*
X20050D01*
X22835Y12441D02*
X24213D01*
X22863Y11616D02*
G03X22918Y11639J78D01*
G01X23183Y11903*
X22935Y11997D02*
X22835D01*
X23061Y10463D02*
G02X23340Y10348J394D01*
G01X23141Y12083D02*
G02X22935Y11997I206J206D01*
G01X23340Y10348D02*
X23572Y10115D01*
X24409Y9278*
X23347Y12168D02*
G03X23141Y12083J292D01*
G01X23461Y12018D02*
X24294D01*
X23461D02*
G03X23183Y11903J393D01*
G01X23636Y10836D02*
G03X23915Y10951J394D01*
G01X23680Y11229D02*
X22835D01*
X23915Y10951D02*
X24409Y11446D01*
X23959Y11345D02*
G02X23680Y11229I279J278D01*
G01X24294Y12018D02*
G03X24525Y12114J327D01*
G01X24391Y12168D02*
X23347D01*
X24405Y12174D02*
G02X24391Y12168I14J14D01*
G01X24525Y12114D02*
G02X24756Y12210I231J231D01*
G01X24660Y12046D02*
X23959Y11345D01*
X24674Y12052D02*
G03X24660Y12046J19D01*
G01X24706Y12474D02*
X24405Y12174D01*
X24706Y12474D02*
G02X24720Y12480I14J14D01*
G01X25085*
X24756Y12210D02*
X25115D01*
X25069Y12052D02*
X24674D01*
X25115Y12210D02*
G02X25393Y12094J394D01*
G01X25469Y12018*
G54D13*
X15354Y5512D02*
X15830Y5987D01*
G03X15945Y6265I279J278*
G01X15902Y8507D02*
X15748Y8661D01*
X15945Y6265D02*
Y6811D01*
G02X16001Y6945I190*
G01X15945Y7308D02*
Y8404D01*
G03X15902Y8507I145*
G01X15962Y7266D02*
G02X15945Y7308I42J42D01*
G01X16001Y6945D02*
X16142Y7087D01*
X15962Y7266*
G54D14*
X1639Y13042D03*
X2500Y3053D03*
Y6990D03*
X3142Y2097D03*
X3366Y6535D03*
X3740Y11161D03*
X4134Y5315D03*
Y5709D03*
X4528Y4528D03*
Y4921D03*
Y5315D03*
Y5709D03*
X4921Y4528D03*
Y4921D03*
Y5315D03*
Y5709D03*
X5315Y4134D03*
Y4528D03*
Y4921D03*
Y5315D03*
Y5709D03*
X5709Y4134D03*
Y4528D03*
Y4921D03*
Y5709D03*
X9119Y12057D03*
X11594Y7320D03*
Y8320D03*
Y9320D03*
X15354Y5512D03*
X15748Y8661D03*
X16142Y7087D03*
Y12205D03*
X16535Y10630D03*
Y11417D03*
Y11811D03*
X16791Y14016D03*
X16929Y10630D03*
Y11417D03*
X17067Y14016D03*
X17185Y12874D03*
X17323Y8268D03*
Y9449D03*
X17461Y12874D03*
X18169Y14016D03*
X18445D03*
X18898Y9449D03*
Y9843D03*
Y10236D03*
X19291Y5118D03*
Y6299D03*
Y7087D03*
Y8268D03*
Y10236D03*
Y10630D03*
X20079Y9449D03*
Y10236D03*
X20472D03*
X20866D03*
X24213Y12441D03*
X24508Y1320D03*
X24550Y15402D03*
X24714Y11750D03*
X25069Y12052D03*
X25085Y12480D03*
X26027Y5512D03*
Y6299D03*
X26722Y9941D03*
X27418Y7874D03*
X27419Y7382D03*
M02*
