*
G04 Job   : Y:\Users\CEG\Central Electronics\Projects\Hastingsp\MENTOR\DUNE\MIB_Module\PCB\MIB_Module.pcb*
G04 User  : ELWT2:hastingsp*
G04 Layer : 07_Layer5.gdo*
G04 Date  : Wed Jun 28 08:25:47 2023*
G04 VeriBest Example Gerber Output Definition*
%ICAS*%
%MOIN*%
%FSLAX24Y24*%
%OFA0.0000B0.0000*%
G90*
G74*
%ADD11C,0.00787*%
%ADD12C,0.01969*%
%ADD13C,0.06693*%
%ADD10C,0.21654*%
G01*
G36*
X-276Y3346D02*
X118D01*
Y4134*
X-276*
Y3346*
X197Y15521D02*
G02X227Y15551I30D01*
G01X403*
G02X433Y15521J30*
G01Y13543*
G03X512Y13465I79*
G01X630*
Y787*
G03X787Y630I157*
X945Y787J157*
X787Y945I158*
X630Y787J158*
G01Y1181*
G03X787Y1024I157*
X945Y1181J157*
X787Y1339I158*
X630Y1181J158*
G01Y1575*
G03X787Y1417I157*
X945Y1575J158*
X787Y1732I158*
X630Y1575J157*
G01Y13465*
X827*
Y10827*
G03X984Y10669I157*
X1024Y10674J158*
G01Y787*
G03X1181Y630I157*
X1339Y787J157*
X1181Y945I158*
X1024Y787J158*
G01Y1181*
G03X1181Y1024I157*
X1339Y1181J157*
X1181Y1339I158*
X1024Y1181J158*
G01Y1575*
G03X1181Y1417I157*
X1339Y1575J158*
X1181Y1732I158*
X1024Y1575J157*
G01Y10674*
G03X1142Y10827I40J153*
X984Y10984I158*
X827Y10827J157*
G01Y11220*
G03X984Y11063I157*
X1142Y11220J157*
X984Y11378I158*
X827Y11220J158*
G01Y11614*
G03X984Y11457I157*
X1142Y11614J157*
X984Y11772I158*
X827Y11614J158*
G01Y12008*
G03X984Y11850I157*
X1142Y12008J158*
X984Y12165I158*
X827Y12008J157*
G01Y12402*
G03X984Y12244I157*
X1142Y12402J158*
X984Y12559I158*
X827Y12402J157*
G01Y12795*
G03X984Y12638I157*
X1142Y12795J157*
X984Y12953I158*
X827Y12795J158*
G01Y13465*
X1220*
Y10827*
G03X1301Y10689I158*
G01Y4528*
G03X1459Y4370I158*
X1616Y4528J158*
G01Y3346*
G03X1774Y3189I158*
X1931Y3346J157*
X1774Y3504I157*
X1616Y3346J158*
G01Y4528*
G03X1459Y4685I157*
X1301Y4528J157*
G01Y8465*
G03X1459Y8307I158*
X1616Y8465J158*
G01Y7283*
G03X1774Y7126I158*
X1931Y7283J157*
X1774Y7441I157*
X1616Y7283J158*
G01Y8465*
G03X1459Y8622I157*
X1301Y8465J157*
G01Y10689*
G03X1378Y10669I77J138*
X1535Y10827J158*
X1378Y10984I157*
X1220Y10827J157*
G01Y12008*
G03X1350Y11853I158*
G01Y11417*
G03X1614Y11107I315*
G01Y10827*
G03X1772Y10669I158*
X1929Y10827J158*
X1772Y10984I157*
X1614Y10827J157*
G01Y11107*
G03X1665Y11102I51J310*
X1980Y11417J315*
X1665Y11732I315*
X1350Y11417J315*
G01Y11853*
G03X1378Y11850I28J155*
X1535Y12008J158*
X1378Y12165I157*
X1220Y12008J157*
G01Y12402*
G03X1378Y12244I158*
X1535Y12402J158*
X1378Y12559I157*
X1220Y12402J157*
G01Y12795*
G03X1378Y12638I158*
X1535Y12795J157*
X1519Y12865I157*
G02X1516Y12879I27J14*
X1546Y12909I30*
X1561Y12905J30*
G03X1614Y12886I78J137*
G01Y12008*
G03X1772Y11850I158*
X1929Y12008J158*
X1772Y12165I157*
X1614Y12008J157*
G01Y12402*
G03X1772Y12244I158*
X1929Y12402J158*
X1772Y12559I157*
X1614Y12402J157*
G01Y12886*
G03X1639Y12884I25J156*
X1796Y13042J158*
X1639Y13199I157*
X1481Y13042J157*
X1498Y12972I158*
G02X1501Y12958I27J14*
X1471Y12928I30*
X1456Y12932J30*
G03X1378Y12953I78J137*
X1220Y12795J158*
G01Y13465*
X2008*
Y3740*
G03X2165Y3583I157*
X2323Y3740J157*
X2165Y3898I158*
X2008Y3740J158*
G01Y4134*
G03X2165Y3976I157*
X2323Y4134J158*
X2165Y4291I158*
X2008Y4134J157*
G01Y4921*
G03X2165Y4764I157*
X2323Y4921J157*
X2165Y5079I158*
X2008Y4921J158*
G01Y5315*
G03X2165Y5157I157*
X2323Y5315J158*
X2165Y5472I158*
X2008Y5315J157*
G01Y5709*
G03X2165Y5551I157*
X2323Y5709J158*
X2165Y5866I158*
X2008Y5709J157*
G01Y7677*
G03X2165Y7520I157*
X2323Y7677J157*
X2165Y7835I158*
X2008Y7677J158*
G01Y8071*
G03X2165Y7913I157*
X2323Y8071J158*
X2165Y8228I158*
X2008Y8071J157*
G01Y8858*
G03X2165Y8701I157*
X2323Y8858J157*
X2165Y9016I158*
X2008Y8858J158*
G01Y9252*
G03X2165Y9094I157*
X2323Y9252J158*
X2165Y9409I158*
X2008Y9252J157*
G01Y9646*
G03X2165Y9488I157*
X2323Y9646J158*
X2165Y9803I158*
X2008Y9646J157*
G01Y10827*
G03X2165Y10669I157*
X2323Y10827J158*
X2165Y10984I158*
X2008Y10827J157*
G01Y12008*
G03X2165Y11850I157*
X2323Y12008J158*
X2165Y12165I158*
X2008Y12008J157*
G01Y12402*
G03X2165Y12244I157*
X2323Y12402J158*
X2165Y12559I158*
X2008Y12402J157*
G01Y13465*
X2343*
Y3053*
G03X2482Y2897I157*
G01Y2598*
G03X2640Y2441I158*
X2797Y2598J157*
X2640Y2756I157*
X2482Y2598J158*
G01Y2897*
G03X2500Y2896I18J156*
X2657Y3053J157*
X2500Y3211I157*
X2343Y3053J158*
G01Y6990*
G03X2402Y6867I157*
G01Y3740*
G03X2559Y3583I157*
X2717Y3740J157*
X2559Y3898I158*
X2402Y3740J158*
G01Y4134*
G03X2559Y3976I157*
X2717Y4134J158*
X2559Y4291I158*
X2402Y4134J157*
G01Y4528*
G03X2559Y4370I157*
X2717Y4528J158*
X2559Y4685I158*
X2402Y4528J157*
G01Y4921*
G03X2559Y4764I157*
X2717Y4921J157*
X2559Y5079I158*
X2402Y4921J158*
G01Y5315*
G03X2559Y5157I157*
X2717Y5315J158*
X2559Y5472I158*
X2402Y5315J157*
G01Y5709*
G03X2559Y5551I157*
X2717Y5709J158*
X2559Y5866I158*
X2402Y5709J157*
G01Y6867*
G03X2482Y6834I98J123*
G01Y6535*
G03X2640Y6378I158*
X2795Y6511J157*
G01Y4528*
G03X2953Y4370I158*
X2985Y4373J158*
G01Y2097*
G03X3142Y1940I157*
X3300Y2097J157*
X3142Y2255I158*
X2985Y2097J158*
G01Y4373*
G03X3110Y4528I32J155*
X2953Y4685I157*
X2795Y4528J157*
G01Y4921*
G03X2953Y4764I158*
X3110Y4921J157*
X2953Y5079I157*
X2795Y4921J158*
G01Y5315*
G03X2953Y5157I158*
X3110Y5315J158*
X2953Y5472I157*
X2795Y5315J157*
G01Y5709*
G03X2953Y5551I158*
X3110Y5709J158*
X2953Y5866I157*
X2795Y5709J157*
G01Y6511*
G03X2797Y6535I155J24*
X2640Y6693I157*
X2482Y6535J158*
G01Y6834*
G03X2500Y6833I18J156*
X2657Y6990J157*
X2500Y7148I157*
X2343Y6990J158*
G01Y13465*
X2350*
Y11417*
G03X2402Y11245I315*
G01Y7677*
G03X2559Y7520I157*
X2717Y7677J157*
X2559Y7835I158*
X2402Y7677J158*
G01Y8071*
G03X2559Y7913I157*
X2717Y8071J158*
X2559Y8228I158*
X2402Y8071J157*
G01Y8465*
G03X2559Y8307I157*
X2717Y8465J158*
X2559Y8622I158*
X2402Y8465J157*
G01Y8858*
G03X2559Y8701I157*
X2717Y8858J157*
X2559Y9016I158*
X2402Y8858J158*
G01Y9252*
G03X2559Y9094I157*
X2717Y9252J158*
X2559Y9409I158*
X2402Y9252J157*
G01Y9646*
G03X2559Y9488I157*
X2717Y9646J158*
X2559Y9803I158*
X2402Y9646J157*
G01Y10827*
G03X2559Y10669I157*
X2717Y10827J158*
X2559Y10984I158*
X2402Y10827J157*
G01Y11245*
G03X2665Y11102I263J172*
X2795Y11130J315*
G01Y8465*
G03X2953Y8307I158*
X3110Y8465J158*
X2953Y8622I157*
X2795Y8465J157*
G01Y8858*
G03X2953Y8701I158*
X3110Y8858J157*
X2953Y9016I157*
X2795Y8858J158*
G01Y9252*
G03X2953Y9094I158*
X3110Y9252J158*
X2953Y9409I157*
X2795Y9252J157*
G01Y9646*
G03X2953Y9488I158*
X3110Y9646J158*
X2953Y9803I157*
X2795Y9646J157*
G01Y10827*
G03X2953Y10669I158*
X3110Y10827J158*
X2953Y10984I157*
X2795Y10827J157*
G01Y11130*
G03X2980Y11417I130J287*
X2665Y11732I315*
X2350Y11417J315*
G01Y13465*
X2363*
G02X2392Y13443J30*
G03X2402Y13418I152J41*
G01Y12008*
G03X2559Y11850I157*
X2717Y12008J158*
X2559Y12165I158*
X2402Y12008J157*
G01Y12402*
G03X2559Y12244I157*
X2717Y12402J158*
X2559Y12559I158*
X2402Y12402J157*
G01Y13418*
G03X2544Y13327I142J66*
X2696Y13443J157*
G02X2725Y13465I29J8*
G01X2824*
G02X2854Y13435J30*
X2845Y13413I30*
G03X2795Y13298I108J115*
G01Y12008*
G03X2953Y11850I158*
X3110Y12008J158*
X2953Y12165I157*
X2795Y12008J157*
G01Y12402*
G03X2953Y12244I158*
X3110Y12402J158*
X2953Y12559I157*
X2795Y12402J157*
G01Y13298*
G03X2953Y13141I158*
X3110Y13298J157*
X3061Y13413I157*
G02X3052Y13435I21J22*
X3082Y13465I30*
G01X3189*
Y4528*
G03X3346Y4370I157*
X3465Y4423J158*
G01Y4213*
G03X3661Y4016I196*
X3710Y4022J197*
G02X3717Y4023I7J29*
X3747Y3993J30*
X3746Y3985I30*
G03X3740Y3937I191J48*
X3746Y3889I197*
G02X3747Y3881I29J8*
X3717Y3851I30*
X3710Y3852J30*
G03X3661Y3858I49J191*
X3465Y3661J197*
X3652Y3465I196*
G01Y2864*
G03X3809Y2707I157*
X3967Y2864J157*
X3809Y3021I158*
X3652Y2864J157*
G01Y3465*
G03X3661I9J196*
X3858Y3661J196*
X3852Y3710I197*
G02X3851Y3717I29J7*
X3881Y3747I30*
X3889Y3746J30*
G03X3937Y3740I48J191*
X3985Y3746J197*
G02X3993Y3747I8J29*
X4023Y3717J30*
X4022Y3710I30*
G03X4016Y3661I191J49*
X4213Y3465I197*
X4409Y3661J196*
X4213Y3858I196*
X4164Y3852J197*
G02X4157Y3851I7J29*
X4127Y3881J30*
X4128Y3889I30*
G03X4134Y3937I191J48*
X4128Y3985I197*
G02X4127Y3993I29J8*
X4157Y4023I30*
X4164Y4022J30*
G03X4213Y4016I49J191*
X4409Y4213J197*
X4213Y4409I196*
X4016Y4213J196*
X4022Y4164I197*
G02X4023Y4157I29J7*
X3993Y4127I30*
X3985Y4128J30*
G03X3937Y4134I48J191*
X3889Y4128J197*
G02X3881Y4127I8J29*
X3851Y4157J30*
X3852Y4164I30*
G03X3858Y4213I191J49*
X3661Y4409I197*
X3465Y4213J196*
G01Y4423*
G03X3504Y4528I119J105*
X3346Y4685I158*
X3189Y4528J157*
G01Y4921*
G03X3346Y4764I157*
X3504Y4921J157*
X3346Y5079I158*
X3189Y4921J158*
G01Y5315*
G03X3346Y5157I157*
X3504Y5315J158*
X3346Y5472I158*
X3189Y5315J157*
G01Y5709*
G03X3346Y5551I157*
X3504Y5709J158*
X3346Y5866I158*
X3189Y5709J157*
G01Y8465*
G03X3209Y8388I157*
G01Y6535*
G03X3366Y6378I157*
X3524Y6535J157*
X3366Y6693I158*
X3209Y6535J158*
G01Y8388*
G03X3346Y8307I137J77*
X3465Y8360J158*
G01Y8150*
G03X3661Y7953I196*
X3710Y7959J197*
G02X3717Y7960I7J29*
X3747Y7930J30*
X3746Y7922I30*
G03X3740Y7874I191J48*
X3746Y7826I197*
G02X3747Y7818I29J8*
X3717Y7788I30*
X3710Y7789J30*
G03X3661Y7795I49J191*
X3465Y7598J197*
X3583Y7418I196*
G01Y5315*
G03X3740Y5157I157*
X3898Y5315J158*
X3740Y5472I158*
X3583Y5315J157*
G01Y5709*
G03X3740Y5551I157*
X3898Y5709J158*
X3740Y5866I158*
X3583Y5709J157*
G01Y7418*
G03X3652Y7402I78J180*
G01Y6801*
G03X3809Y6644I157*
X3967Y6801J157*
X3809Y6958I158*
X3652Y6801J157*
G01Y7402*
G03X3661I9J196*
X3858Y7598J196*
X3852Y7647I197*
G02X3851Y7654I29J7*
X3881Y7684I30*
X3889Y7683J30*
G03X3937Y7677I48J191*
X3976Y7681J197*
G01Y5315*
G03X4134Y5157I158*
X4291Y5315J158*
X4134Y5472I157*
X3976Y5315J157*
G01Y5709*
G03X4134Y5551I158*
X4291Y5709J158*
X4134Y5866I157*
X3976Y5709J157*
G01Y7681*
G03X3985Y7683I39J193*
G02X3993Y7684I8J29*
X4023Y7654J30*
X4022Y7647I30*
G03X4016Y7598I191J49*
X4213Y7402I197*
X4370Y7480J196*
G01Y4528*
G03X4528Y4370I158*
X4547Y4371J158*
G01Y2860*
G03X4705Y2703I158*
X4862Y2860J157*
X4705Y3017I157*
X4547Y2860J157*
G01Y4371*
G03X4685Y4528I19J157*
X4528Y4685I157*
X4370Y4528J157*
G01Y4921*
G03X4528Y4764I158*
X4685Y4921J157*
X4528Y5079I157*
X4370Y4921J158*
G01Y5315*
G03X4528Y5157I158*
X4685Y5315J158*
X4528Y5472I157*
X4370Y5315J157*
G01Y5709*
G03X4528Y5551I158*
X4685Y5709J158*
X4528Y5866I157*
X4370Y5709J157*
G01Y7480*
G03X4409Y7598I157J118*
X4213Y7795I196*
X4164Y7789J197*
G02X4157Y7788I7J29*
X4127Y7818J30*
X4128Y7826I30*
G03X4134Y7874I191J48*
X4128Y7922I197*
G02X4127Y7930I29J8*
X4157Y7960I30*
X4164Y7959J30*
G03X4213Y7953I49J191*
X4409Y8150J197*
X4213Y8346I196*
X4016Y8150J196*
X4022Y8101I197*
G02X4023Y8094I29J7*
X3993Y8064I30*
X3985Y8065J30*
G03X3937Y8071I48J191*
X3889Y8065J197*
G02X3881Y8064I8J29*
X3851Y8094J30*
X3852Y8101I30*
G03X3858Y8150I191J49*
X3661Y8346I197*
X3465Y8150J196*
G01Y8360*
G03X3504Y8465I119J105*
X3346Y8622I158*
X3189Y8465J157*
G01Y8858*
G03X3346Y8701I157*
X3504Y8858J157*
X3346Y9016I158*
X3189Y8858J158*
G01Y9252*
G03X3346Y9094I157*
X3504Y9252J158*
X3346Y9409I158*
X3189Y9252J157*
G01Y9646*
G03X3346Y9488I157*
X3504Y9646J158*
X3346Y9803I158*
X3189Y9646J157*
G01Y10827*
G03X3346Y10669I157*
X3504Y10827J158*
X3346Y10984I158*
X3189Y10827J157*
G01Y12008*
G03X3346Y11850I157*
X3504Y12008J158*
X3346Y12165I158*
X3189Y12008J157*
G01Y13465*
X3583*
Y9252*
G03X3740Y9094I157*
X3898Y9252J158*
X3740Y9409I158*
X3583Y9252J157*
G01Y9646*
G03X3740Y9488I157*
X3898Y9646J158*
X3740Y9803I158*
X3583Y9646J157*
G01Y11161*
G03X3740Y11004I157*
X3898Y11161J157*
X3740Y11319I158*
X3583Y11161J158*
G01Y13465*
X3937*
Y11417*
G03X3976Y11313I157*
G01Y9252*
G03X4134Y9094I158*
X4291Y9252J158*
X4134Y9409I157*
X3976Y9252J157*
G01Y9646*
G03X4134Y9488I158*
X4291Y9646J158*
X4134Y9803I157*
X3976Y9646J157*
G01Y11313*
G03X4055Y11265I118J104*
G01Y10827*
G03X4213Y10669I158*
X4370Y10827J158*
G01Y8465*
G03X4528Y8307I158*
X4547Y8308J158*
G01Y6797*
G03X4705Y6640I158*
X4764Y6651J157*
G01Y4528*
G03X4921Y4370I157*
X5079Y4528J158*
X4921Y4685I158*
X4764Y4528J157*
G01Y4921*
G03X4921Y4764I157*
X5079Y4921J157*
X4921Y5079I158*
X4764Y4921J158*
G01Y5315*
G03X4921Y5157I157*
X5079Y5315J158*
X4921Y5472I158*
X4764Y5315J157*
G01Y5709*
G03X4921Y5551I157*
X5079Y5709J158*
X4921Y5866I158*
X4764Y5709J157*
G01Y6651*
G03X4862Y6797I59J146*
X4705Y6955I157*
X4547Y6797J158*
G01Y8308*
G03X4685Y8465I19J157*
X4528Y8622I157*
X4370Y8465J157*
G01Y8858*
G03X4528Y8701I158*
X4685Y8858J157*
X4528Y9016I157*
X4370Y8858J158*
G01Y9252*
G03X4528Y9094I158*
X4685Y9252J158*
X4528Y9409I157*
X4370Y9252J157*
G01Y9646*
G03X4528Y9488I158*
X4685Y9646J158*
X4528Y9803I157*
X4370Y9646J157*
G01Y10827*
G03X4213Y10984I157*
X4055Y10827J157*
G01Y11265*
G03X4094Y11260I39J152*
X4252Y11417J157*
X4094Y11575I158*
X3937Y11417J158*
G01Y13465*
X4449*
Y10827*
G03X4606Y10669I157*
X4764Y10827J158*
G01Y8465*
G03X4921Y8307I157*
X5079Y8465J158*
X4921Y8622I158*
X4764Y8465J157*
G01Y8858*
G03X4921Y8701I157*
X5079Y8858J157*
X4921Y9016I158*
X4764Y8858J158*
G01Y9252*
G03X4921Y9094I157*
X5079Y9252J158*
X4921Y9409I158*
X4764Y9252J157*
G01Y9646*
G03X4921Y9488I157*
X5079Y9646J158*
X4921Y9803I158*
X4764Y9646J157*
G01Y10827*
G03X4606Y10984I158*
X4449Y10827J157*
G01Y11220*
G03X4606Y11063I157*
X4764Y11220J157*
X4606Y11378I158*
X4449Y11220J158*
G01Y11614*
G03X4606Y11457I157*
X4764Y11614J157*
X4606Y11772I158*
X4449Y11614J158*
G01Y12008*
G03X4606Y11850I157*
X4764Y12008J158*
X4606Y12165I158*
X4449Y12008J157*
G01Y13465*
X4843*
Y10827*
G03X5000Y10669I157*
X5157Y10827J158*
G01Y4134*
G03X5315Y3976I158*
X5354Y3981J158*
G01Y2152*
G03X5512Y1995I158*
X5669Y2152J157*
X5512Y2310I157*
X5354Y2152J158*
G01Y3981*
G03X5472Y4134I39J153*
X5315Y4291I157*
X5157Y4134J157*
G01Y4528*
G03X5315Y4370I158*
X5472Y4528J158*
X5315Y4685I157*
X5157Y4528J157*
G01Y4921*
G03X5315Y4764I158*
X5472Y4921J157*
X5315Y5079I157*
X5157Y4921J158*
G01Y5315*
G03X5315Y5157I158*
X5472Y5315J158*
X5315Y5472I157*
X5157Y5315J157*
G01Y5709*
G03X5315Y5551I158*
X5472Y5709J158*
X5315Y5866I157*
X5157Y5709J157*
G01Y8071*
G03X5315Y7913I158*
X5354Y7918J158*
G01Y6089*
G03X5512Y5932I158*
X5551Y5937J157*
G01Y4134*
G03X5709Y3976I158*
X5866Y4134J158*
X5709Y4291I157*
X5551Y4134J157*
G01Y4528*
G03X5709Y4370I158*
X5866Y4528J158*
X5709Y4685I157*
X5551Y4528J157*
G01Y4921*
G03X5709Y4764I158*
X5866Y4921J157*
X5709Y5079I157*
X5551Y4921J158*
G01Y5709*
G03X5709Y5551I158*
X5866Y5709J158*
X5709Y5866I157*
X5551Y5709J157*
G01Y5937*
G03X5669Y6089I39J152*
X5512Y6247I157*
X5354Y6089J158*
G01Y7918*
G03X5472Y8071I39J153*
X5315Y8228I157*
X5157Y8071J157*
G01Y8465*
G03X5315Y8307I158*
X5472Y8465J158*
X5315Y8622I157*
X5157Y8465J157*
G01Y8858*
G03X5315Y8701I158*
X5472Y8858J157*
X5315Y9016I157*
X5157Y8858J158*
G01Y9252*
G03X5315Y9094I158*
X5472Y9252J158*
X5315Y9409I157*
X5157Y9252J157*
G01Y9646*
G03X5315Y9488I158*
X5472Y9646J158*
X5315Y9803I157*
X5157Y9646J157*
G01Y10827*
G03X5000Y10984I157*
X4843Y10827J157*
G01Y11220*
G03X5000Y11063I157*
X5157Y11220J157*
X5000Y11378I157*
X4843Y11220J158*
G01Y11614*
G03X5000Y11457I157*
X5157Y11614J157*
X5000Y11772I157*
X4843Y11614J158*
G01Y12008*
G03X5000Y11850I157*
X5157Y12008J158*
X5000Y12165I157*
X4843Y12008J157*
G01Y13465*
X5236*
Y10827*
G03X5394Y10669I158*
X5551Y10827J158*
G01Y8071*
G03X5709Y7913I158*
X5866Y8071J158*
X5709Y8228I157*
X5551Y8071J157*
G01Y8465*
G03X5709Y8307I158*
X5866Y8465J158*
X5709Y8622I157*
X5551Y8465J157*
G01Y8858*
G03X5709Y8701I158*
X5866Y8858J157*
X5709Y9016I157*
X5551Y8858J158*
G01Y9646*
G03X5709Y9488I158*
X5866Y9646J158*
X5709Y9803I157*
X5551Y9646J157*
G01Y10827*
G03X5394Y10984I157*
X5236Y10827J157*
G01Y11220*
G03X5394Y11063I158*
X5551Y11220J157*
X5394Y11378I157*
X5236Y11220J158*
G01Y11614*
G03X5394Y11457I158*
X5551Y11614J157*
X5394Y11772I157*
X5236Y11614J158*
G01Y13465*
X5546*
G02X5567Y13456J30*
G01X5630Y13393*
Y10827*
G03X5787Y10669I157*
X5945Y10827J158*
X5787Y10984I158*
X5630Y10827J157*
G01Y11220*
G03X5787Y11063I157*
X5945Y11220J157*
X5787Y11378I158*
X5630Y11220J158*
G01Y11614*
G03X5787Y11457I157*
X5945Y11614J157*
X5787Y11772I158*
X5630Y11614J158*
G01Y13393*
X6016Y13007*
G02X6025Y12985I21J22*
X6024Y12980I30*
G03X6021Y12949I154J31*
X6024Y12920I157*
G01Y10827*
G03X6181Y10669I157*
X6258Y10689J158*
G01Y5315*
G03X6362Y5167I157*
G01Y1969*
G03X6677Y1654I315*
X6992Y1969J315*
X6677Y2283I315*
X6362Y1969J314*
G01Y5167*
G03X6415Y5157I53J148*
X6573Y5315J158*
X6415Y5472I158*
X6258Y5315J157*
G01Y9252*
G03X6415Y9094I157*
X6573Y9252J158*
X6415Y9409I158*
X6258Y9252J157*
G01Y10689*
G03X6339Y10827I77J138*
X6181Y10984I158*
X6024Y10827J157*
G01Y11220*
G03X6181Y11063I157*
X6339Y11220J157*
X6181Y11378I158*
X6024Y11220J158*
G01Y11614*
G03X6181Y11457I157*
X6339Y11614J157*
X6181Y11772I158*
X6024Y11614J158*
G01Y12920*
G03X6178Y12792I154J29*
X6209Y12795J157*
G02X6215I6J30*
X6236Y12786J30*
G01X6417Y12605*
Y10827*
G03X6575Y10669I158*
X6732Y10827J158*
X6575Y10984I157*
X6417Y10827J157*
G01Y11220*
G03X6575Y11063I158*
X6732Y11220J157*
X6575Y11378I157*
X6417Y11220J158*
G01Y11614*
G03X6575Y11457I158*
X6732Y11614J157*
X6575Y11772I157*
X6417Y11614J158*
G01Y12605*
X7126Y11897*
Y3740*
G03X7283Y3583I157*
X7362Y3604J157*
G01Y1969*
G03X7677Y1654I315*
X7992Y1969J315*
X7677Y2283I315*
X7362Y1969J314*
G01Y3604*
G03X7441Y3740I79J136*
X7283Y3898I158*
X7126Y3740J158*
G01Y4528*
G03X7283Y4370I157*
X7441Y4528J158*
X7283Y4685I158*
X7126Y4528J157*
G01Y4921*
G03X7283Y4764I157*
X7441Y4921J157*
X7283Y5079I158*
X7126Y4921J158*
G01Y11897*
X7487Y11535*
Y6874*
G03X7520Y6778I158*
G01Y3740*
G03X7677Y3583I157*
X7835Y3740J157*
X7677Y3898I158*
X7520Y3740J158*
G01Y4921*
G03X7677Y4764I157*
X7835Y4921J157*
X7677Y5079I158*
X7520Y4921J158*
G01Y6778*
G03X7645Y6717I125J96*
X7802Y6874J157*
X7645Y7031I157*
X7487Y6874J157*
G01Y7874*
G03X7645Y7717I158*
X7802Y7874J157*
X7645Y8031I157*
X7487Y7874J157*
G01Y8874*
G03X7645Y8717I158*
X7802Y8874J157*
X7645Y9031I157*
X7487Y8874J157*
G01Y11535*
X8062Y10960*
G02X8071Y10939I21J21*
G01Y3543*
G03X8150Y3465I79*
G01X8858*
G03X8937Y3543J78*
G01Y3953*
G02X8959Y3982I30*
G03X9075Y4134I42J152*
X8959Y4286I158*
G02X8937Y4315I8J29*
G01Y8946*
G02X8967Y8976I30*
G01X9252*
Y7294*
G03X9409Y7137I157*
X9567Y7294J157*
X9409Y7451I158*
X9252Y7294J157*
G01Y8454*
G03X9409Y8297I157*
X9567Y8454J157*
X9409Y8611I158*
X9252Y8454J157*
G01Y8976*
X10087*
Y5413*
G03X10245Y5256I158*
X10402Y5413J157*
X10245Y5571I157*
X10087Y5413J158*
G01Y6004*
G03X10245Y5847I158*
X10402Y6004J157*
X10245Y6162I157*
X10087Y6004J158*
G01Y6595*
G03X10245Y6437I158*
X10402Y6595J158*
X10245Y6752I157*
X10087Y6595J157*
G01Y7185*
G03X10245Y7028I158*
X10402Y7185J157*
X10245Y7343I157*
X10087Y7185J158*
G01Y7776*
G03X10245Y7618I158*
X10402Y7776J158*
X10245Y7933I157*
X10087Y7776J157*
G01Y8366*
G03X10245Y8209I158*
X10402Y8366J157*
X10245Y8524I157*
X10087Y8366J158*
G01Y8976*
X10679*
Y3947*
G03X10984Y3642I305*
X11289Y3947J305*
X10984Y4252I305*
X10679Y3947J305*
G01Y8976*
X11267*
Y4528*
G03X11752Y4042I485*
X12237Y4528J486*
X11752Y5013I485*
X11267Y4528J485*
G01Y8976*
X11437*
Y7320*
G03X11594Y7162I157*
X11752Y7320J158*
X11594Y7477I158*
X11437Y7320J157*
G01Y8320*
G03X11594Y8162I157*
X11752Y8320J158*
X11594Y8477I158*
X11437Y8320J157*
G01Y8976*
X12432*
Y5413*
G03X12590Y5256I158*
X12651Y5268J157*
G01Y2854*
G03X12809Y2697I158*
X12966Y2854J157*
X12809Y3012I157*
X12651Y2854J158*
G01Y4232*
G03X12809Y4075I158*
X12966Y4232J157*
X12809Y4390I157*
X12651Y4232J158*
G01Y5268*
G03X12747Y5413I61J145*
X12590Y5571I157*
X12432Y5413J158*
G01Y6004*
G03X12590Y5847I158*
X12747Y6004J157*
X12590Y6162I157*
X12432Y6004J158*
G01Y6595*
G03X12590Y6437I158*
X12747Y6595J158*
X12590Y6752I157*
X12432Y6595J157*
G01Y7185*
G03X12590Y7028I158*
X12747Y7185J157*
X12590Y7343I157*
X12432Y7185J158*
G01Y7776*
G03X12590Y7618I158*
X12747Y7776J158*
X12590Y7933I157*
X12432Y7776J157*
G01Y8366*
G03X12590Y8209I158*
X12747Y8366J157*
X12590Y8524I157*
X12432Y8366J158*
G01Y8976*
X13484*
Y2008*
G03X13789Y1703I305*
X13885Y1718J305*
G01Y1240*
G03X14370Y755I485*
X14856Y1240J485*
X14855Y1249I486*
G01Y1250*
G02X14885Y1280I30*
X14913Y1261J30*
G03X15059Y1163I146J59*
X15217Y1320J157*
X15059Y1478I158*
X14904Y1344J158*
G02X14874Y1319I30J5*
X14845Y1343J30*
G03X14370Y1726I475J103*
X13885Y1240J486*
G01Y1718*
G03X14094Y2008I96J290*
X13789Y2313I305*
X13484Y2008J305*
G01Y8976*
X13583*
Y7231*
G03X13740Y7074I157*
X13898Y7231J157*
X13740Y7389I158*
X13583Y7231J158*
G01Y7657*
G03X13740Y7500I157*
X13898Y7657J157*
X13740Y7815I158*
X13583Y7657J158*
G01Y8091*
G03X13740Y7933I157*
X13898Y8091J158*
X13740Y8248I158*
X13583Y8091J157*
G01Y8976*
X14134*
Y7231*
G03X14291Y7074I157*
X14369Y7094J157*
G01Y6299*
G03X14526Y6142I157*
X14684Y6299J157*
X14526Y6457I158*
X14369Y6299J158*
G01Y7094*
G03X14449Y7231I78J137*
X14291Y7389I158*
X14134Y7231J158*
G01Y7657*
G03X14291Y7500I157*
X14449Y7657J157*
X14291Y7815I158*
X14134Y7657J158*
G01Y8091*
G03X14291Y7933I157*
X14449Y8091J158*
X14291Y8248I158*
X14134Y8091J157*
G01Y8976*
X14685*
Y6548*
G03X14705Y6472I158*
G01Y1829*
G03X14862Y1672I157*
X15020Y1829J157*
X14862Y1987I158*
X14705Y1829J158*
G01Y6472*
G03X14843Y6391I138J76*
X15000Y6548J157*
X14843Y6706I157*
X14685Y6548J158*
G01Y7231*
G03X14843Y7074I158*
X15000Y7231J157*
X14843Y7389I157*
X14685Y7231J158*
G01Y7657*
G03X14843Y7500I158*
X15000Y7657J157*
X14843Y7815I157*
X14685Y7657J158*
G01Y8091*
G03X14843Y7933I158*
X15000Y8091J158*
X14843Y8248I157*
X14685Y8091J157*
G01Y8976*
X15197*
Y3543*
G03X15295Y3397I157*
G01Y1829*
G03X15453Y1672I158*
X15610Y1829J157*
X15453Y1987I157*
X15295Y1829J158*
G01Y3397*
G03X15354Y3386I59J146*
X15512Y3543J157*
X15354Y3701I158*
X15197Y3543J158*
G01Y3937*
G03X15354Y3780I157*
X15512Y3937J157*
X15354Y4094I158*
X15197Y3937J157*
G01Y4331*
G03X15354Y4173I157*
X15512Y4331J158*
X15354Y4488I158*
X15197Y4331J157*
G01Y4724*
G03X15354Y4567I157*
X15512Y4724J157*
X15354Y4882I158*
X15197Y4724J158*
G01Y5118*
G03X15354Y4961I157*
X15512Y5118J157*
X15354Y5276I158*
X15197Y5118J158*
G01Y5512*
G03X15354Y5354I157*
X15512Y5512J158*
X15354Y5669I158*
X15197Y5512J157*
G01Y6299*
G03X15354Y6142I157*
X15512Y6299J157*
X15354Y6457I158*
X15197Y6299J158*
G01Y6693*
G03X15354Y6535I157*
X15512Y6693J158*
X15354Y6850I158*
X15197Y6693J157*
G01Y7087*
G03X15354Y6929I157*
X15512Y7087J158*
X15354Y7244I158*
X15197Y7087J157*
G01Y7480*
G03X15354Y7323I157*
X15512Y7480J157*
X15354Y7638I158*
X15197Y7480J158*
G01Y8268*
G03X15354Y8110I157*
X15512Y8268J158*
X15354Y8425I158*
X15197Y8268J157*
G01Y8661*
G03X15354Y8504I157*
X15512Y8661J157*
X15354Y8819I158*
X15197Y8661J158*
G01Y8976*
X15202*
G02X15226Y8964J30*
G03X15354Y8898I128J91*
X15483Y8964J157*
G02X15507Y8976I24J18*
G01X15591*
Y4331*
G03X15689Y4185I157*
G01Y1320*
G03X15847Y1163I158*
X16003Y1304J157*
X16004Y1320I156J16*
X16003Y1337I157*
X15847Y1478I156J17*
X15689Y1320J158*
G01Y4185*
G03X15748Y4173I59J146*
X15906Y4331J158*
X15748Y4488I158*
X15591Y4331J157*
G01Y4724*
G03X15748Y4567I157*
X15906Y4724J157*
X15748Y4882I158*
X15591Y4724J158*
G01Y5118*
G03X15748Y4961I157*
X15906Y5118J157*
X15748Y5276I158*
X15591Y5118J158*
G01Y6299*
G03X15748Y6142I157*
X15906Y6299J157*
X15748Y6457I158*
X15591Y6299J158*
G01Y6693*
G03X15748Y6535I157*
X15906Y6693J158*
X15748Y6850I158*
X15591Y6693J157*
G01Y7087*
G03X15748Y6929I157*
X15906Y7087J158*
X15748Y7244I158*
X15591Y7087J157*
G01Y7480*
G03X15748Y7323I157*
X15906Y7480J157*
X15748Y7638I158*
X15591Y7480J158*
G01Y8268*
G03X15748Y8110I157*
X15906Y8268J158*
X15748Y8425I158*
X15591Y8268J157*
G01Y8661*
G03X15748Y8504I157*
X15906Y8661J157*
X15748Y8819I158*
X15591Y8661J158*
G01Y8976*
X15595*
G02X15620Y8964J30*
G03X15748Y8898I128J91*
X15876Y8964J157*
G02X15901Y8976I25J18*
G01X15984*
Y4331*
G03X16046Y4206I158*
G01Y2804*
G03X16060Y2739I158*
X16204Y2646I144J65*
X16319Y2697J158*
G02X16341Y2707I22J20*
X16364Y2697J30*
G03X16476Y2646I115J107*
G01Y1829*
G03X16634Y1672I158*
X16637J157*
G01Y1347*
G03X16794Y1190I157*
X16910Y1240J157*
G02X16932Y1250I22J20*
X16954Y1240J30*
G03X17070Y1190I116J107*
X17227Y1347J157*
X17070Y1505I157*
X16954Y1454J158*
G02X16932Y1444I22J20*
X16910Y1454J30*
G03X16794Y1505I116J107*
X16637Y1347J158*
G01Y1672*
G03X16791Y1829I3J157*
X16634Y1987I157*
X16476Y1829J158*
G01Y2646*
G03X16479I3J158*
X16612Y2718J158*
G02X16637Y2732I25J16*
X16662Y2718J30*
G03X16794Y2646I132J86*
X16910Y2697J158*
G02X16932Y2707I22J20*
X16954Y2697J30*
G03X17067Y2646I116J107*
G01Y1829*
G03X17225Y1672I158*
X17382Y1829J157*
X17225Y1987I157*
X17067Y1829J158*
G01Y2646*
G03X17070I3J158*
X17227Y2804J158*
X17070Y2961I157*
X16954Y2911J157*
G02X16932Y2901I22J20*
X16910Y2911J30*
G03X16794Y2961I116J107*
X16662Y2889J157*
G02X16637Y2876I25J17*
X16612Y2889J30*
G03X16479Y2961I133J85*
X16364Y2911J157*
G02X16342Y2901I22J20*
X16319Y2911J30*
G03X16204Y2961I115J107*
X16060Y2869J157*
X16046Y2804I144J65*
G01Y4206*
G03X16050Y4202I96J125*
X16142Y4173I92J129*
X16299Y4331J158*
X16142Y4488I157*
X16050Y4459J157*
X15984Y4331I92J128*
G01Y4724*
G03X16050Y4596I158*
X16142Y4567I92J128*
X16299Y4724J157*
X16142Y4882I157*
X16050Y4853J158*
X15984Y4724I92J129*
G01Y5118*
G03X16050Y4990I158*
X16142Y4961I92J128*
X16299Y5118J157*
X16142Y5276I157*
X16050Y5246J158*
X15984Y5118I92J128*
G01Y5512*
G03X16050Y5384I158*
X16142Y5354I92J128*
X16299Y5512J158*
X16142Y5669I157*
X16050Y5640J157*
X15984Y5512I92J128*
G01Y5906*
G03X16050Y5777I158*
X16142Y5748I92J129*
X16299Y5906J158*
X16142Y6063I157*
X16050Y6034J157*
X15984Y5906I92J128*
G01Y6299*
G03X16050Y6171I158*
X16142Y6142I92J128*
X16299Y6299J157*
X16142Y6457I157*
X16050Y6427J158*
X15984Y6299I92J128*
G01Y6693*
G03X16050Y6565I158*
X16142Y6535I92J128*
X16299Y6693J158*
X16142Y6850I157*
X16050Y6821J157*
X15984Y6693I92J128*
G01Y7087*
G03X16050Y6958I158*
X16142Y6929I92J129*
X16299Y7087J158*
X16142Y7244I157*
X16050Y7215J157*
X15984Y7087I92J128*
G01Y7480*
G03X16050Y7352I158*
X16142Y7323I92J128*
X16299Y7480J157*
X16142Y7638I157*
X16050Y7609J158*
X15984Y7480I92J129*
G01Y8976*
X16033*
G02X16063Y8946J30*
G01Y8031*
G03X16142Y7953I79*
G01X16378*
Y3543*
G03X16535Y3386I157*
X16693Y3543J157*
X16535Y3701I158*
X16378Y3543J158*
G01Y3937*
G03X16535Y3780I157*
X16693Y3937J157*
X16535Y4094I158*
X16378Y3937J157*
G01Y4724*
G03X16535Y4567I157*
X16693Y4724J157*
X16535Y4882I158*
X16378Y4724J158*
G01Y5118*
G03X16535Y4961I157*
X16693Y5118J157*
X16535Y5276I158*
X16378Y5118J158*
G01Y5512*
G03X16535Y5354I157*
X16693Y5512J158*
X16535Y5669I158*
X16378Y5512J157*
G01Y5906*
G03X16535Y5748I157*
X16693Y5906J158*
X16535Y6063I158*
X16378Y5906J157*
G01Y6299*
G03X16535Y6142I157*
X16693Y6299J157*
X16535Y6457I158*
X16378Y6299J158*
G01Y6693*
G03X16535Y6535I157*
X16693Y6693J158*
X16535Y6850I158*
X16378Y6693J157*
G01Y7480*
G03X16535Y7323I157*
X16693Y7480J157*
X16535Y7638I158*
X16378Y7480J158*
G01Y7953*
X16772*
Y4724*
G03X16929Y4567I157*
X17087Y4724J157*
X16929Y4882I158*
X16772Y4724J158*
G01Y5906*
G03X16929Y5748I157*
X17087Y5906J158*
X16929Y6063I158*
X16772Y5906J157*
G01Y6693*
G03X16929Y6535I157*
X17087Y6693J158*
X16929Y6850I158*
X16772Y6693J157*
G01Y7953*
X17165*
Y3543*
G03X17323Y3386I158*
X17461Y3467J157*
G01Y1830*
G03Y1824I157*
G01Y1320*
G03X17618Y1163I157*
X17776Y1320J157*
X17618Y1478I158*
X17461Y1320J158*
G01Y1824*
G03X17618Y1672I157J6*
X17741Y1731J158*
G02X17765Y1743I24J18*
X17793Y1724J30*
G03X17939Y1624I146J58*
X18015Y1644J158*
G01Y1347*
G03X18172Y1190I157*
X18288Y1240J157*
G02X18310Y1250I22J20*
X18332Y1240J30*
G03X18448Y1190I116J107*
X18580Y1262J157*
G02X18605Y1275I25J17*
X18631Y1262J30*
G03X18763Y1190I132J85*
X18878Y1240J157*
G02X18900Y1250I22J20*
X18923Y1240J30*
G03X19038Y1190I115J107*
X19196Y1347J157*
X19038Y1505I158*
X18923Y1454J158*
G02X18901Y1444I22J20*
X18879Y1454J30*
G03X18763Y1505I116J107*
X18630Y1433J158*
G02X18605Y1419I25J16*
X18580Y1433J30*
G03X18448Y1505I132J86*
X18332Y1454J158*
G02X18310Y1444I22J20*
X18288Y1454J30*
G03X18172Y1505I116J107*
X18015Y1347J158*
G01Y1644*
G03X18097Y1782I76J138*
X17939Y1939I158*
X17816Y1880J157*
G02X17792Y1869I24J19*
X17765Y1888J30*
G03X17618Y1987I147J58*
X17461Y1830J157*
G01Y3467*
G03X17480Y3543I138J76*
X17323Y3701I157*
X17165Y3543J158*
G01Y4331*
G03X17323Y4173I158*
X17480Y4331J158*
X17323Y4488I157*
X17165Y4331J157*
G01Y4724*
G03X17323Y4567I158*
X17480Y4724J157*
X17323Y4882I157*
X17165Y4724J158*
G01Y5512*
G03X17323Y5354I158*
X17480Y5512J158*
X17323Y5669I157*
X17165Y5512J157*
G01Y5906*
G03X17323Y5748I158*
X17480Y5906J158*
X17323Y6063I157*
X17165Y5906J157*
G01Y6693*
G03X17323Y6535I158*
X17480Y6693J158*
X17323Y6850I157*
X17165Y6693J157*
G01Y7087*
G03X17323Y6929I158*
X17480Y7087J158*
X17323Y7244I157*
X17165Y7087J157*
G01Y7480*
G03X17323Y7323I158*
X17480Y7480J157*
X17323Y7638I157*
X17165Y7480J158*
G01Y7953*
X17559*
Y3543*
G03X17717Y3386I158*
X17874Y3543J157*
X17717Y3701I157*
X17559Y3543J158*
G01Y4331*
G03X17717Y4173I158*
X17874Y4331J158*
X17717Y4488I157*
X17559Y4331J157*
G01Y5906*
G03X17717Y5748I158*
X17874Y5906J158*
X17717Y6063I157*
X17559Y5906J157*
G01Y6299*
G03X17717Y6142I158*
X17874Y6299J157*
X17717Y6457I157*
X17559Y6299J158*
G01Y7953*
X17953*
Y3543*
G03X18015Y3418I157*
G01Y2804*
G03X18172Y2646I157*
X18288Y2697J158*
G02X18310Y2707I22J20*
X18332Y2697J30*
G03X18403Y2653I116J107*
G01Y1803*
G03X18560Y1645I157*
X18676Y1696J158*
G02X18698Y1706I22J20*
X18720Y1696J30*
G03X18836Y1645I116J107*
X18993Y1803J158*
X18836Y1960I157*
X18720Y1909J157*
G02X18698Y1900I22J21*
X18676Y1909J30*
G03X18560Y1960I116J106*
X18403Y1803J157*
G01Y2653*
G03X18448Y2646I45J151*
X18605Y2804J158*
X18448Y2961I157*
X18332Y2911J157*
G02X18310Y2901I22J20*
X18288Y2911J30*
G03X18172Y2961I116J107*
X18015Y2804J157*
G01Y3418*
G03X18110Y3386I95J125*
X18268Y3543J157*
X18110Y3701I158*
X17953Y3543J158*
G01Y4331*
G03X18110Y4173I157*
X18268Y4331J158*
X18110Y4488I158*
X17953Y4331J157*
G01Y4724*
G03X18110Y4567I157*
X18268Y4724J157*
X18110Y4882I158*
X17953Y4724J158*
G01Y5118*
G03X18110Y4961I157*
X18268Y5118J157*
X18110Y5276I158*
X17953Y5118J158*
G01Y5906*
G03X18110Y5748I157*
X18268Y5906J158*
X18110Y6063I158*
X17953Y5906J157*
G01Y7087*
G03X18110Y6929I157*
X18268Y7087J158*
X18110Y7244I158*
X17953Y7087J157*
G01Y7480*
G03X18110Y7323I157*
X18268Y7480J157*
X18110Y7638I158*
X17953Y7480J158*
G01Y7953*
X18346*
Y3937*
G03X18504Y3780I158*
X18661Y3937J157*
X18504Y4094I157*
X18346Y3937J157*
G01Y4331*
G03X18504Y4173I158*
X18661Y4331J158*
X18504Y4488I157*
X18346Y4331J157*
G01Y4724*
G03X18504Y4567I158*
X18661Y4724J157*
X18504Y4882I157*
X18346Y4724J158*
G01Y5118*
G03X18504Y4961I158*
X18661Y5118J157*
X18504Y5276I157*
X18346Y5118J158*
G01Y5906*
G03X18504Y5748I158*
X18661Y5906J158*
X18504Y6063I157*
X18346Y5906J157*
G01Y7087*
G03X18504Y6929I158*
X18661Y7087J158*
X18504Y7244I157*
X18346Y7087J157*
G01Y7480*
G03X18504Y7323I158*
X18661Y7480J157*
X18504Y7638I157*
X18346Y7480J158*
G01Y7953*
X18986*
G02X19016Y7923J30*
G01Y7646*
G02X18986Y7616I30*
X18972Y7619J30*
G03X18898Y7638I74J139*
X18740Y7480J158*
X18898Y7323I158*
X18972Y7341J157*
G02X18986Y7345I14J26*
X19016Y7315J30*
G01Y7252*
G02X18986Y7222I30*
X18972Y7226J30*
G03X18898Y7244I74J139*
X18740Y7087J157*
X18898Y6929I158*
X18972Y6948J158*
G02X18986Y6951I14J27*
X19016Y6921J30*
G01Y6858*
G02X18986Y6828I30*
X18972Y6832J30*
G03X18898Y6850I74J139*
X18740Y6693J157*
X18898Y6535I158*
X18972Y6554J158*
G02X18986Y6557I14J27*
X19016Y6527J30*
G01Y6465*
G02X18986Y6435I30*
X18972Y6438J30*
G03X18898Y6457I74J139*
X18740Y6299J158*
X18898Y6142I158*
X18972Y6160J157*
G02X18986Y6164I14J26*
X19016Y6134J30*
G01Y6071*
G02X18986Y6041I30*
X18972Y6045J30*
G03X18898Y6063I74J139*
X18740Y5906J157*
G01Y3937*
G03X18839Y3791I158*
G01Y2777*
G03X18996Y2620I157*
X19154Y2777J157*
X18996Y2935I158*
X18839Y2777J158*
G01Y3791*
G03X18898Y3780I59J146*
X19055Y3937J157*
X18898Y4094I157*
X18740Y3937J157*
G01Y4331*
G03X18898Y4173I158*
X19055Y4331J158*
X18898Y4488I157*
X18740Y4331J157*
G01Y4724*
G03X18898Y4567I158*
X19055Y4724J157*
X18898Y4882I157*
X18740Y4724J158*
G01Y5118*
G03X18898Y4961I158*
X19055Y5118J157*
X18898Y5276I157*
X18740Y5118J158*
G01Y5906*
G03X18898Y5748I158*
X18972Y5767J158*
G02X18986Y5770I14J27*
X19016Y5740J30*
G01Y5394*
G03X19094Y5315I78*
G01X19206*
G02X19236Y5285J30*
X19220Y5258I30*
G03X19134Y5118I71J140*
G01Y3543*
G03X19291Y3386I157*
X19393Y3423J157*
G01Y2804*
G03X19550Y2646I157*
X19666Y2697J158*
G02X19688Y2707I22J20*
X19710Y2697J30*
G03X19823Y2646I116J107*
G01Y1320*
G03X19980Y1163I157*
X20138Y1320J157*
X19980Y1478I158*
X19823Y1320J158*
G01Y1829*
G03X19980Y1672I157*
X20138Y1829J157*
X19980Y1987I158*
X19823Y1829J158*
G01Y2646*
G03X19826I3J158*
X19958Y2718J158*
G02X19983Y2732I25J16*
X20008Y2718J30*
G03X20141Y2646I133J86*
X20256Y2697J158*
G02X20278Y2707I22J20*
X20301Y2697J30*
G03X20416Y2646I115J107*
X20574Y2804J158*
X20416Y2961I158*
X20301Y2911J157*
G02X20279Y2901I22J20*
X20256Y2911J30*
G03X20141Y2961I115J107*
X20008Y2889J157*
G02X19983Y2876I25J17*
X19958Y2889J30*
G03X19826Y2961I132J85*
X19710Y2911J157*
G02X19688Y2901I22J20*
X19666Y2911J30*
G03X19550Y2961I116J107*
X19393Y2804J157*
G01Y3423*
G03X19449Y3543I102J120*
X19291Y3701I158*
X19134Y3543J158*
G01Y3937*
G03X19291Y3780I157*
X19449Y3937J157*
X19291Y4094I158*
X19134Y3937J157*
G01Y4331*
G03X19291Y4173I157*
X19449Y4331J158*
X19291Y4488I158*
X19134Y4331J157*
G01Y4724*
G03X19291Y4567I157*
X19449Y4724J157*
X19291Y4882I158*
X19134Y4724J158*
G01Y5118*
G03X19291Y4961I157*
X19449Y5118J157*
X19363Y5258I158*
G02X19347Y5285I14J27*
X19377Y5315I30*
G01X19993*
G02X20023Y5285J30*
X20007Y5258I30*
G03X19921Y5118I72J140*
G01Y3543*
G03X20079Y3386I158*
X20236Y3543J157*
X20079Y3701I157*
X19921Y3543J158*
G01Y3937*
G03X20079Y3780I158*
X20236Y3937J157*
X20079Y4094I157*
X19921Y3937J157*
G01Y4331*
G03X20079Y4173I158*
X20236Y4331J158*
X20079Y4488I157*
X19921Y4331J157*
G01Y4724*
G03X20079Y4567I158*
X20236Y4724J157*
X20079Y4882I157*
X19921Y4724J158*
G01Y5118*
G03X20079Y4961I158*
X20236Y5118J157*
X20151Y5258I157*
G02X20134Y5285I13J27*
X20164Y5315I30*
G01X20315*
Y4331*
G03X20472Y4173I157*
X20630Y4331J158*
X20472Y4488I158*
X20315Y4331J157*
G01Y4724*
G03X20472Y4567I157*
X20630Y4724J157*
X20472Y4882I158*
X20315Y4724J158*
G01Y5315*
X20781*
G02X20811Y5285J30*
X20794Y5258I30*
G03X20709Y5118I72J140*
G01Y3543*
G03X20807Y3397I157*
G01Y1320*
G03X20965Y1163I158*
X21122Y1320J157*
X20965Y1478I157*
X20807Y1320J158*
G01Y1829*
G03X20965Y1672I158*
X21122Y1829J157*
X20965Y1987I157*
X20807Y1829J158*
G01Y3397*
G03X20866Y3386I59J146*
X21024Y3543J157*
X20866Y3701I158*
X20709Y3543J158*
G01Y3937*
G03X20866Y3780I157*
X21024Y3937J157*
X20866Y4094I158*
X20709Y3937J157*
G01Y5118*
G03X20866Y4961I157*
X21024Y5118J157*
X20938Y5258I158*
G02X20922Y5285I14J27*
X20952Y5315I30*
G01X21174*
G02X21204Y5285J30*
X21188Y5258I30*
G03X21102Y5118I72J140*
G01Y3543*
G03X21178Y3408I158*
G01Y1499*
G03X21336Y1342I158*
X21452Y1393J157*
G02X21474Y1402I22J21*
X21496Y1393J30*
G03X21612Y1342I116J106*
X21769Y1499J157*
X21612Y1657I157*
X21496Y1606J158*
G02X21474Y1597I22J21*
X21452Y1606J30*
G03X21336Y1657I116J107*
X21178Y1499J158*
G01Y3408*
G03X21260Y3386I82J135*
X21417Y3543J157*
X21260Y3701I157*
X21102Y3543J158*
G01Y3937*
G03X21260Y3780I158*
X21417Y3937J157*
X21260Y4094I157*
X21102Y3937J157*
G01Y4331*
G03X21260Y4173I158*
X21417Y4331J158*
X21260Y4488I157*
X21102Y4331J157*
G01Y4724*
G03X21260Y4567I158*
X21417Y4724J157*
X21260Y4882I157*
X21102Y4724J158*
G01Y5118*
G03X21260Y4961I158*
X21417Y5118J157*
X21332Y5258I157*
G02X21315Y5285I13J27*
X21345Y5315I30*
G01X21568*
G02X21598Y5285J30*
X21582Y5258I30*
G03X21496Y5118I72J140*
G01Y3543*
G03X21654Y3386I158*
X21791Y3467J157*
G01Y1320*
G03X21949Y1163I158*
X22106Y1320J157*
X21949Y1478I157*
X21791Y1320J158*
G01Y1829*
G03X21949Y1672I158*
X22106Y1829J157*
X21949Y1987I157*
X21791Y1829J158*
G01Y3467*
G03X21811Y3543I137J76*
X21654Y3701I157*
X21496Y3543J158*
G01Y3937*
G03X21654Y3780I158*
X21811Y3937J157*
X21654Y4094I157*
X21496Y3937J157*
G01Y5118*
G03X21654Y4961I158*
X21811Y5118J157*
X21725Y5258I157*
G02X21709Y5285I14J27*
X21739Y5315I30*
G01X21962*
G02X21992Y5285J30*
X21975Y5258I30*
G03X21890Y5118I72J140*
G01Y4331*
G03X22047Y4173I157*
X22205Y4331J158*
X22047Y4488I158*
X21890Y4331J157*
G01Y4724*
G03X22047Y4567I157*
X22205Y4724J157*
X22047Y4882I158*
X21890Y4724J158*
G01Y5118*
G03X22047Y4961I157*
X22205Y5118J157*
X22119Y5258I158*
G02X22103Y5285I14J27*
X22133Y5315I30*
G01X22355*
G02X22385Y5285J30*
X22369Y5258I30*
G03X22283Y5118I72J140*
G01Y3543*
G03X22441Y3386I158*
X22598Y3543J157*
X22441Y3701I157*
X22283Y3543J158*
G01Y3937*
G03X22441Y3780I158*
X22598Y3937J157*
X22441Y4094I157*
X22283Y3937J157*
G01Y4331*
G03X22441Y4173I158*
X22598Y4331J158*
X22441Y4488I157*
X22283Y4331J157*
G01Y4724*
G03X22441Y4567I158*
X22598Y4724J157*
X22441Y4882I157*
X22283Y4724J158*
G01Y5118*
G03X22441Y4961I158*
X22598Y5118J157*
X22513Y5258I157*
G02X22496Y5285I13J27*
X22526Y5315I30*
G01X22677*
Y3543*
G03X22776Y3397I158*
G01Y1829*
G03X22933Y1672I157*
X22936J157*
G01Y1347*
G03X23093Y1190I157*
X23209Y1240J157*
G02X23231Y1250I22J20*
X23253Y1240J30*
G03X23369Y1190I116J107*
X23527Y1347J157*
X23369Y1505I158*
X23253Y1454J158*
G02X23231Y1444I22J20*
X23209Y1454J30*
G03X23093Y1505I116J107*
X22936Y1347J158*
G01Y1672*
G03X23091Y1829I3J157*
X22933Y1987I158*
X22776Y1829J158*
G01Y3397*
G03X22835Y3386I59J146*
X22936Y3423J157*
G01Y2804*
G03X23093Y2646I157*
X23209Y2697J158*
G02X23231Y2707I22J20*
X23253Y2697J30*
G03X23366Y2646I116J107*
G01Y1829*
G03X23524Y1672I158*
X23681Y1829J157*
X23524Y1987I157*
X23366Y1829J158*
G01Y2646*
G03X23369I3J158*
X23527Y2804J158*
X23369Y2961I158*
X23253Y2911J157*
G02X23231Y2901I22J20*
X23209Y2911J30*
G03X23093Y2961I116J107*
X22936Y2804J157*
G01Y3423*
G03X22992Y3543I101J120*
X22835Y3701I157*
X22677Y3543J158*
G01Y3937*
G03X22835Y3780I158*
X22992Y3937J157*
X22835Y4094I157*
X22677Y3937J157*
G01Y4331*
G03X22835Y4173I158*
X22992Y4331J158*
X22835Y4488I157*
X22677Y4331J157*
G01Y4724*
G03X22835Y4567I158*
X22992Y4724J157*
X22835Y4882I157*
X22677Y4724J158*
G01Y5315*
X23071*
Y3543*
G03X23228Y3386I157*
X23386Y3543J157*
X23228Y3701I158*
X23071Y3543J158*
G01Y3937*
G03X23228Y3780I157*
X23386Y3937J157*
X23228Y4094I158*
X23071Y3937J157*
G01Y4331*
G03X23228Y4173I157*
X23386Y4331J158*
X23228Y4488I158*
X23071Y4331J157*
G01Y4724*
G03X23228Y4567I157*
X23386Y4724J157*
X23228Y4882I158*
X23071Y4724J158*
G01Y5315*
X23465*
Y3543*
G03X23622Y3386I157*
X23723Y3423J157*
G01Y2804*
G03X23881Y2646I158*
X23957Y2666J158*
G01Y1320*
G03X24114Y1163I157*
X24272Y1320J157*
X24114Y1478I158*
X23957Y1320J158*
G01Y2666*
G03X23997Y2697I76J138*
G02X24019Y2707I22J20*
X24041Y2697J30*
G03X24157Y2646I116J107*
X24314Y2804J158*
X24157Y2961I157*
X24041Y2911J157*
G02X24019Y2901I22J20*
X23997Y2911J30*
G03X23881Y2961I116J107*
X23723Y2804J157*
G01Y3423*
G03X23780Y3543I101J120*
X23622Y3701I158*
X23465Y3543J158*
G01Y5315*
X23858*
Y3937*
G03X23996Y3781I158*
G01Y3425*
G03X24154Y3268I158*
X24311Y3425J157*
X24154Y3583I157*
X23996Y3425J158*
G01Y3781*
G03X24016Y3780I20J156*
X24173Y3937J157*
X24016Y4094I157*
X23858Y3937J157*
G01Y4331*
G03X24016Y4173I158*
X24173Y4331J158*
X24016Y4488I157*
X23858Y4331J157*
G01Y5315*
X24350*
Y1320*
G03X24498Y1163I158*
G02X24525Y1140I2J30*
G03X25000Y755I475J100*
X25485Y1240J485*
X25000Y1726I485*
X24582Y1486J486*
G02X24556Y1472I26J16*
X24548Y1473J30*
G03X24508Y1478I40J153*
X24350Y1320J158*
G01Y5315*
X24580*
Y4370*
G03X24631Y4254I157*
G02X24640Y4232I21J22*
X24631Y4210I30*
G03X24580Y4094I106J116*
X24631Y3979I157*
G02X24640Y3957I21J22*
X24631Y3935I30*
G03X24580Y3819I106J116*
X24692Y3668I157*
G01Y3425*
G03X24850Y3268I158*
X25007Y3425J157*
X24850Y3583I157*
X24692Y3425J158*
G01Y3668*
G03X24737Y3661I45J151*
X24895Y3819J158*
X24844Y3935I158*
G02X24835Y3957I21J22*
X24844Y3979I30*
G03X24895Y4094I107J115*
X24844Y4210I158*
G02X24835Y4232I21J22*
X24844Y4254I30*
G03X24895Y4370I107J116*
X24737Y4528I158*
X24580Y4370J158*
G01Y5315*
X25403*
G02X25433Y5285J30*
G01Y4796*
G02X25403Y4766I30*
X25383Y4774J30*
G03X25276Y4816I107J116*
X25118Y4658J158*
X25276Y4501I158*
G01Y2008*
G03X25581Y1703I305*
X25886Y2008J305*
X25581Y2313I305*
X25276Y2008J305*
G01Y4501*
G03X25389Y4549J157*
G02X25410Y4558I21J21*
X25438Y4539J30*
G03X25512Y4488I74J28*
G01X26181*
G03X26260Y4567J79*
G01Y9419*
G02X26290Y9449I30*
G01X27261*
Y7874*
G03Y7867I157*
G01Y7382*
G03X27264Y7353I158*
G01Y5118*
G03X27559Y4823I295*
X27854Y5118J295*
X27559Y5413I295*
X27264Y5118J295*
G01Y7353*
G03X27419Y7224I155J29*
X27576Y7382J158*
X27419Y7539I157*
X27261Y7382J157*
G01Y7867*
G03X27418Y7717I157J7*
X27576Y7874J157*
X27418Y8031I158*
X27261Y7874J157*
G01Y9449*
X27264*
Y9055*
G03X27559Y8760I295*
X27854Y9055J295*
X27559Y9350I295*
X27264Y9055J295*
G01Y9449*
X27717*
G03X27795Y9528J79*
G01Y10197*
G03X27717Y10276I78*
G01X26290*
G02X26260Y10306J30*
G01Y10433*
G03X26181Y10512I79*
G01X24181*
G02X24151Y10542J30*
X24155Y10556I30*
G03X24173Y10630I139J74*
X24016Y10787I157*
X23858Y10630J157*
X23877Y10556I158*
G02X23880Y10542I27J14*
X23850Y10512I30*
G01X23394*
G02X23364Y10542J30*
X23367Y10556I30*
G03X23386Y10630I139J74*
X23228Y10787I158*
X23071Y10630J157*
X23089Y10556I157*
G02X23093Y10542I26J14*
X23063Y10512I30*
G01X22213*
G02X22183Y10542J30*
X22186Y10556I30*
G03X22205Y10630I139J74*
X22047Y10787I158*
X21890Y10630J157*
X21908Y10556I157*
G02X21912Y10542I26J14*
X21882Y10512I30*
G01X20244*
G02X20214Y10542J30*
X20218Y10556I30*
G03X20236Y10630I139J74*
X20079Y10787I157*
X19921Y10630J157*
X19940Y10556I158*
G02X19943Y10542I27J14*
X19913Y10512I30*
G01X19457*
G02X19427Y10542J30*
X19430Y10556I30*
G03X19449Y10630I139J74*
X19291Y10787I158*
X19134Y10630J157*
X19152Y10556I157*
G02X19156Y10542I26J14*
X19126Y10512I30*
G01X19063*
G02X19033Y10542J30*
X19037Y10556I30*
G03X19055Y10630I139J74*
X18898Y10787I157*
X18740Y10630J157*
X18759Y10556I158*
G02X18762Y10542I27J14*
X18732Y10512I30*
G01X18669*
G02X18639Y10542J30*
X18643Y10556I30*
G03X18661Y10630I139J74*
X18504Y10787I157*
X18346Y10630J157*
X18365Y10556I158*
G02X18368Y10542I27J14*
X18338Y10512I30*
G01X17882*
G02X17852Y10542J30*
X17856Y10556I30*
G03X17874Y10630I139J74*
X17717Y10787I157*
X17559Y10630J157*
X17578Y10556I158*
G02X17581Y10542I27J14*
X17551Y10512I30*
G01X17488*
G02X17458Y10542J30*
X17462Y10556I30*
G03X17480Y10630I139J74*
X17323Y10787I157*
X17282Y10782J157*
G02X17274Y10781I8J29*
X17244Y10811J30*
G01Y10843*
G02X17274Y10873I30*
X17282Y10872J30*
G03X17323Y10866I41J152*
X17480Y11024J158*
X17323Y11181I157*
X17282Y11176J157*
G02X17274Y11175I8J29*
X17244Y11205J30*
G01Y11630*
G02X17274Y11660I30*
X17282Y11659J30*
G03X17323Y11654I41J152*
X17480Y11811J157*
X17323Y11969I157*
X17282Y11963J158*
G02X17274Y11962I8J29*
X17244Y11992J30*
G01Y12008*
G03X17165Y12087I79*
G01X17095*
G02X17065Y12117J30*
X17068Y12131I30*
G03X17087Y12205I139J74*
X16929Y12362I158*
X16772Y12205J157*
X16790Y12131I157*
G02X16794Y12117I26J14*
X16764Y12087I30*
G01X16701*
G02X16671Y12117J30*
X16674Y12131I30*
G03X16693Y12205I139J74*
X16535Y12362I158*
X16378Y12205J157*
X16396Y12131I157*
G02X16400Y12117I26J14*
X16370Y12087I30*
G01X16307*
G02X16277Y12117J30*
X16281Y12131I30*
G03X16299Y12205I139J74*
X16142Y12362I157*
X16050Y12333J157*
X15984Y12205I92J128*
X16003Y12131I158*
G02X16006Y12117I27J14*
X15976Y12087I30*
G01X12858*
G02X12828Y12117J30*
G01Y12122*
G02X12850Y12151I30*
G03X12966Y12303I41J152*
X12809Y12461I157*
X12657Y12347J158*
G02X12628Y12325I29J8*
X12598Y12355J30*
G01Y12520*
G03X12520Y12598I78*
G01X10936*
G02X10906Y12628J30*
G01Y13257*
G02X10936Y13287I30*
X10938J30*
G03X11024Y13284I86J1280*
X12306Y14567J1283*
X11904Y15499I1282*
G02X11895Y15521I21J22*
X11925Y15551I30*
G01X13484*
Y14606*
G03X13789Y14301I305*
X13885Y14316J305*
G01Y13839*
G03X14370Y13353I485*
X14705Y13487J486*
G01Y12971*
G03X14862Y12814I157*
X15020Y12971J157*
X14862Y13129I158*
X14705Y12971J158*
G01Y13487*
G03X14856Y13839I335J352*
X14855Y13848I486*
G02X14885Y13878I30*
X14913Y13860J30*
G03X15059Y13761I146J59*
X15217Y13919J158*
X15059Y14076I158*
X14904Y13943J157*
G02X14874Y13917I30J4*
X14845Y13941J30*
G03X14370Y14324I475J102*
X13885Y13839J485*
G01Y14316*
G03X14094Y14606I96J290*
X13789Y14911I305*
X13484Y14606J305*
G01Y15551*
X15295*
Y12971*
G03X15453Y12814I158*
X15610Y12971J157*
X15453Y13129I157*
X15295Y12971J158*
G01Y15551*
X15492*
Y13919*
G03X15650Y13761I158*
X15807Y13919J158*
X15650Y14076I157*
X15492Y13919J157*
G01Y15551*
X15862*
G02X15892Y15521J30*
X15885Y15502I30*
G03X15849Y15402I122J100*
X16007Y15245I158*
X16123Y15295J157*
G02X16145Y15305I22J20*
X16167Y15295J30*
G03X16282Y15245I115J107*
X16440Y15402J157*
X16404Y15502I158*
G02X16397Y15521I23J19*
X16427Y15551I30*
G01X16476*
Y14428*
G03X16634Y14270I158*
G01Y14016*
G03X16791Y13859I157*
X16907Y13909J157*
G02X16929Y13919I22J20*
X16951Y13909J30*
G03X17028Y13864I116J107*
G01Y12874*
G03X17185Y12716I157*
X17301Y12767J158*
G02X17323Y12777I22J20*
X17345Y12767J30*
G03X17461Y12716I116J107*
X17618Y12874J158*
X17461Y13031I157*
X17345Y12981J157*
G02X17323Y12971I22J20*
X17301Y12981J30*
G03X17185Y13031I116J107*
X17028Y12874J157*
G01Y13864*
G03X17067Y13859I39J152*
X17225Y14016J157*
X17067Y14174I158*
X16951Y14123J158*
G02X16929Y14113I22J20*
X16907Y14123J30*
G03X16791Y14174I116J107*
X16634Y14016J158*
G01Y14270*
G03X16791Y14428J158*
X16634Y14585I157*
X16476Y14428J157*
G01Y15551*
X16649*
G02X16679Y15521J30*
X16672Y15502I30*
G03X16637Y15402I122J100*
X16794Y15245I157*
X16910Y15295J157*
G02X16932Y15305I22J20*
X16954Y15295J30*
G03X17025Y15251I116J107*
G01Y14401*
G03X17182Y14244I157*
X17298Y14294J157*
G02X17320Y14304I22J20*
X17342Y14294J30*
G03X17458Y14244I116J107*
X17575Y14296J157*
G02X17598Y14306I23J20*
X17620Y14296J30*
G03X17737Y14244I117J105*
X17894Y14401J157*
X17737Y14559I157*
X17620Y14506J158*
G02X17597Y14496I23J20*
X17575Y14506J30*
G03X17458Y14559I117J105*
X17342Y14508J158*
G02X17320Y14498I22J20*
X17298Y14508J30*
G03X17182Y14559I116J107*
X17025Y14401J158*
G01Y15251*
G03X17070Y15245I45J151*
X17227Y15402J157*
X17192Y15502I157*
G02X17185Y15521I23J19*
X17215Y15551I30*
G01X17634*
G02X17664Y15521J30*
X17657Y15502I30*
G03X17621Y15402I121J100*
X17778Y15245I157*
X17894Y15295J157*
G02X17916Y15305I22J20*
X17938Y15295J30*
G03X17953Y15282I116J107*
G01Y11417*
G03X18110Y11260I157*
X18268Y11417J157*
X18110Y11575I158*
X17953Y11417J158*
G01Y15282*
G03X18009Y15251I101J120*
G01Y14401*
G03X18012Y14371I158*
G01Y14016*
G03X18169Y13859I157*
X18285Y13909J157*
G02X18307Y13919I22J20*
X18329Y13909J30*
G03X18346Y13893I116J107*
G01Y11024*
G03X18504Y10866I158*
X18661Y11024J158*
X18504Y11181I157*
X18346Y11024J157*
G01Y11417*
G03X18504Y11260I158*
X18661Y11417J157*
X18504Y11575I157*
X18346Y11417J158*
G01Y11811*
G03X18504Y11654I158*
X18661Y11811J157*
X18504Y11969I157*
X18346Y11811J158*
G01Y12205*
G03X18504Y12047I158*
X18661Y12205J158*
X18504Y12362I157*
X18346Y12205J157*
G01Y13893*
G03X18445Y13859I99J123*
G01Y12971*
G03X18602Y12814I157*
X18740Y12895J157*
G01Y11024*
G03X18898Y10866I158*
X19055Y11024J158*
X18898Y11181I157*
X18740Y11024J157*
G01Y11417*
G03X18898Y11260I158*
X19055Y11417J157*
X18898Y11575I157*
X18740Y11417J158*
G01Y11811*
G03X18898Y11654I158*
X19055Y11811J157*
X18898Y11969I157*
X18740Y11811J158*
G01Y12205*
G03X18898Y12047I158*
X19055Y12205J158*
X18898Y12362I157*
X18740Y12205J157*
G01Y12895*
G03X18760Y12971I138J76*
X18602Y13129I158*
X18445Y12971J158*
G01Y13859*
G03X18602Y14016J157*
X18445Y14174I157*
X18329Y14123J158*
G02X18307Y14113I22J20*
X18285Y14123J30*
G03X18169Y14174I116J107*
X18012Y14016J158*
G01Y14371*
G03X18167Y14244I155J30*
X18282Y14294J157*
G02X18304Y14304I22J20*
X18326Y14294J30*
G03X18442Y14244I116J107*
X18600Y14401J157*
X18442Y14559I158*
X18326Y14508J158*
G02X18304Y14498I22J20*
X18282Y14508J30*
G03X18167Y14559I115J107*
X18009Y14401J158*
G01Y15251*
G03X18054Y15245I45J151*
X18212Y15402J157*
X18176Y15502I158*
G02X18169Y15521I23J19*
X18199Y15551I30*
G01X18330*
G02X18360Y15521J30*
X18353Y15502I30*
G03X18318Y15403I122J99*
X18475Y15245I157*
X18596Y15301J158*
G02X18619Y15312I23J19*
X18642Y15301J30*
G03X18763Y15245I121J101*
X18878Y15295J157*
G02X18900Y15305I22J20*
X18923Y15295J30*
G03X18996Y15250I115J107*
G01Y12874*
G03X19134Y12718I158*
G01Y11024*
G03X19291Y10866I157*
X19449Y11024J158*
X19291Y11181I158*
X19134Y11024J157*
G01Y11417*
G03X19291Y11260I157*
X19449Y11417J157*
X19291Y11575I158*
X19134Y11417J158*
G01Y11811*
G03X19291Y11654I157*
X19449Y11811J157*
X19291Y11969I158*
X19134Y11811J158*
G01Y12718*
G03X19154Y12716I20J156*
X19269Y12767J158*
G02X19291Y12777I22J20*
X19313Y12767J30*
G03X19429Y12716I116J107*
X19562Y12788J158*
G02X19587Y12802I25J16*
X19612Y12788J30*
G03X19744Y12716I132J86*
X19860Y12767J158*
G02X19882Y12777I22J20*
X19904Y12767J30*
G03X19921Y12751I116J107*
G01Y11024*
G03X20079Y10866I158*
X20236Y11024J158*
X20079Y11181I157*
X19921Y11024J157*
G01Y11417*
G03X20079Y11260I158*
X20236Y11417J157*
X20079Y11575I157*
X19921Y11417J158*
G01Y11811*
G03X20079Y11654I158*
X20236Y11811J157*
X20079Y11969I157*
X19921Y11811J158*
G01Y12751*
G03X20020Y12716I99J123*
X20177Y12874J158*
X20020Y13031I157*
X19904Y12981J157*
G02X19882Y12971I22J20*
X19860Y12981J30*
G03X19744Y13031I116J107*
X19612Y12959J157*
G02X19587Y12946I25J17*
X19562Y12959J30*
G03X19429Y13031I133J85*
X19313Y12981J157*
G02X19291Y12971I22J20*
X19269Y12981J30*
G03X19154Y13031I115J107*
X18996Y12874J157*
G01Y15250*
G03X19038Y15245I42J152*
X19196Y15402J157*
X19160Y15502I158*
G02X19153Y15521I23J19*
X19183Y15551I30*
G01X19429*
Y13919*
G03X19587Y13761I158*
X19744Y13919J158*
X19587Y14076I157*
X19429Y13919J157*
G01Y14428*
G03X19587Y14270I158*
X19744Y14428J158*
X19587Y14585I157*
X19429Y14428J157*
G01Y15551*
X19602*
G02X19632Y15521J30*
X19625Y15502I30*
G03X19589Y15402I122J100*
X19747Y15245I158*
X19863Y15295J157*
G02X19885Y15305I22J20*
X19907Y15295J30*
G03X19978Y15251I116J107*
G01Y14401*
G03X20135Y14244I157*
X20251Y14294J157*
G02X20273Y14304I22J20*
X20295Y14294J30*
G03X20315Y14276I116J107*
G01Y11417*
G03X20472Y11260I157*
X20630Y11417J157*
X20472Y11575I158*
X20315Y11417J158*
G01Y11811*
G03X20472Y11654I157*
X20630Y11811J157*
X20472Y11969I158*
X20315Y11811J158*
G01Y14276*
G03X20411Y14244I96J125*
X20413J157*
G01Y13919*
G03X20571Y13761I158*
G01Y12874*
G03X20709Y12718I157*
G01Y12205*
G03X20866Y12047I157*
X21024Y12205J158*
X20866Y12362I158*
X20709Y12205J157*
G01Y12718*
G03X20728Y12716I19J156*
X20844Y12767J158*
G02X20866Y12777I22J20*
X20888Y12767J30*
G03X21004Y12716I116J107*
X21102Y12751J158*
G01Y11024*
G03X21260Y10866I158*
X21417Y11024J158*
X21260Y11181I157*
X21102Y11024J157*
G01Y12751*
G03X21162Y12874I98J123*
X21004Y13031I158*
X20888Y12981J157*
G02X20866Y12971I22J20*
X20844Y12981J30*
G03X20728Y13031I116J107*
X20571Y12874J157*
G01Y13761*
G03X20728Y13919J158*
X20571Y14076I157*
X20413Y13919J157*
G01Y14244*
G03X20568Y14401I2J157*
X20411Y14559I157*
X20295Y14508J158*
G02X20273Y14498I22J20*
X20251Y14508J30*
G03X20135Y14559I116J107*
X19978Y14401J158*
G01Y15251*
G03X20023Y15245I45J151*
X20180Y15402J157*
X20144Y15502I157*
G02X20137Y15521I23J19*
X20167Y15551I30*
G01X20586*
G02X20616Y15521J30*
X20609Y15502I30*
G03X20574Y15402I122J100*
X20731Y15245I157*
X20847Y15295J157*
G02X20869Y15305I22J20*
X20891Y15295J30*
G03X21007Y15245I116J107*
X21164Y15402J157*
X21129Y15502I157*
G02X21122Y15521I23J19*
X21152Y15551I30*
G01X21398*
Y13919*
G03X21496Y13773I157*
G01Y11024*
G03X21654Y10866I158*
X21811Y11024J158*
X21654Y11181I157*
X21496Y11024J157*
G01Y11811*
G03X21654Y11654I158*
X21811Y11811J157*
X21654Y11969I157*
X21496Y11811J158*
G01Y13773*
G03X21555Y13761I59J146*
X21713Y13919J158*
X21555Y14076I158*
X21398Y13919J157*
G01Y14428*
G03X21555Y14270I157*
X21713Y14428J158*
X21555Y14585I158*
X21398Y14428J157*
G01Y15551*
X21571*
G02X21601Y15521J30*
X21594Y15502I30*
G03X21558Y15402I121J100*
X21715Y15245I157*
X21831Y15295J157*
G02X21853Y15305I22J20*
X21875Y15295J30*
G03X21946Y15251I116J107*
G01Y14401*
G03X21967Y14324I158*
X22067Y14248I137J77*
X22104Y14244I37J153*
X22219Y14294J157*
G02X22241Y14304I22J20*
X22263Y14294J30*
G03X22283Y14276I116J107*
G01Y11417*
G03X22441Y11260I158*
X22598Y11417J157*
X22441Y11575I157*
X22283Y11417J158*
G01Y14276*
G03X22379Y14244I96J125*
X22382J157*
G01Y13919*
G03X22539Y13761I157*
X22677Y13842J158*
G01Y12205*
G03X22835Y12047I158*
X22992Y12205J158*
X22835Y12362I157*
X22677Y12205J157*
G01Y13842*
G03X22697Y13919I138J77*
X22539Y14076I158*
X22382Y13919J157*
G01Y14244*
G03X22537Y14401I3J157*
X22379Y14559I158*
X22263Y14508J158*
G02X22241Y14498I22J20*
X22219Y14508J30*
G03X22104Y14559I115J107*
X21946Y14401J158*
G01Y15251*
G03X21991Y15245I45J151*
X22149Y15402J157*
X22142Y15449I158*
X22113Y15502I151J47*
G02X22106Y15521I23J19*
X22136Y15551I30*
G01X22421*
G02X22451Y15521J30*
X22440Y15498I30*
G03X22382Y15376I99J122*
X22539Y15218I157*
X22697Y15376J158*
X22639Y15498I158*
G02X22627Y15521I18J23*
X22657Y15551I30*
G01X22948*
G02X22978Y15521J30*
X22972Y15502I30*
G03X22936Y15402I121J100*
X23071Y15246I157*
G01Y11024*
G03X23228Y10866I157*
X23386Y11024J158*
X23228Y11181I158*
X23071Y11024J157*
G01Y15246*
G03X23093Y15245I22J156*
X23209Y15295J157*
G02X23231Y15305I22J20*
X23253Y15295J30*
G03X23366Y15245I116J107*
G01Y14428*
G03X23465Y14282I158*
G01Y11811*
G03X23622Y11654I157*
X23780Y11811J157*
X23622Y11969I158*
X23465Y11811J158*
G01Y14282*
G03X23524Y14270I59J146*
X23681Y14428J158*
X23524Y14585I157*
X23366Y14428J157*
G01Y15245*
G03X23369I3J157*
X23527Y15402J157*
X23491Y15502I158*
G02X23484Y15521I23J19*
X23514Y15551I30*
G01X23915*
Y14401*
G03X24055Y14245I157*
G01Y12441*
G03X24213Y12283I158*
X24370Y12441J158*
X24213Y12598I157*
X24055Y12441J157*
G01Y14245*
G03X24072Y14244I17J156*
X24188Y14294J157*
G02X24210Y14304I22J20*
X24232Y14294J30*
G03X24348Y14244I116J107*
X24505Y14401J157*
X24348Y14559I157*
X24232Y14508J158*
G02X24210Y14498I22J20*
X24188Y14508J30*
G03X24072Y14559I116J107*
X23915Y14401J158*
G01Y15551*
X24405*
G02X24435Y15521J30*
X24429Y15502I30*
G03X24393Y15402I121J100*
X24515Y15249I157*
G01Y13839*
G03X24556Y13642I485*
G01Y11750*
G03X24714Y11593I158*
X24871Y11750J157*
X24714Y11908I157*
X24556Y11750J158*
G01Y13642*
G03X24912Y13361I444J197*
G01Y12052*
G03X25069Y11895I157*
X25227Y12052J157*
X25069Y12210I158*
X24912Y12052J158*
G01Y13361*
G03X24928Y13359I88J478*
G01Y12480*
G03X25085Y12323I157*
X25242Y12480J157*
X25085Y12638I157*
X24928Y12480J158*
G01Y13359*
G03X25000Y13353I72J480*
X25485Y13839J486*
X25000Y14324I485*
X24515Y13839J485*
G01Y15249*
G03X24550Y15245I35J153*
X24708Y15402J157*
X24672Y15502I158*
G02X24665Y15521I23J19*
X24695Y15551I30*
G01X25276*
Y14606*
G03X25581Y14301I305*
X25886Y14606J305*
X25581Y14911I305*
X25276Y14606J305*
G01Y15551*
X25997*
Y12402*
G03X26154Y12244I157*
X26238Y12268J158*
G01Y11893*
G03X26395Y11736I157*
X26553Y11893J157*
X26395Y12051I158*
X26238Y11893J158*
G01Y12268*
G03X26312Y12402I84J134*
X26154Y12559I158*
X25997Y12402J157*
G01Y13386*
G03X26154Y13228I157*
X26312Y13386J158*
X26154Y13543I158*
X25997Y13386J157*
G01Y15551*
X26917*
Y11417*
G03X27074Y11260I157*
X27232Y11417J157*
X27074Y11575I158*
X26917Y11417J158*
G01Y12402*
G03X27074Y12244I157*
X27232Y12402J158*
X27074Y12559I158*
X26917Y12402J157*
G01Y13386*
G03X27074Y13228I157*
X27232Y13386J158*
X27074Y13543I158*
X26917Y13386J157*
G01Y15551*
X27445*
G02X27475Y15521J30*
X27466Y15499I30*
G03X27064Y14567I880J932*
X28346Y13284I1282*
X28600Y13310J1283*
G01Y11893*
G03X28757Y11736I157*
X28915Y11893J157*
X28757Y12051I158*
X28600Y11893J158*
G01Y13310*
G03X28934Y13427I254J1257*
G01Y4724*
G03X29092Y4567I158*
X29249Y4724J157*
X29092Y4882I157*
X28934Y4724J158*
G01Y5512*
G03X29092Y5354I158*
X29249Y5512J158*
X29092Y5669I157*
X28934Y5512J157*
G01Y6299*
G03X29092Y6142I158*
X29249Y6299J157*
X29092Y6457I157*
X28934Y6299J158*
G01Y7087*
G03X29092Y6929I158*
X29249Y7087J158*
X29092Y7244I157*
X28934Y7087J157*
G01Y7874*
G03X29092Y7717I158*
X29249Y7874J157*
X29092Y8031I157*
X28934Y7874J157*
G01Y8661*
G03X29092Y8504I158*
X29249Y8661J157*
X29092Y8819I157*
X28934Y8661J158*
G01Y9449*
G03X29092Y9291I158*
X29249Y9449J158*
X29092Y9606I157*
X28934Y9449J157*
G01Y13427*
G03X29279Y13686I588J1140*
G02X29301Y13696I22J20*
X29331Y13666J30*
G01Y2083*
G02X29301Y2053I30*
X29279Y2062J30*
G03X28347Y2464I932J881*
X27064Y1181J1283*
X27466Y249I1283*
G02X27475Y227I21J22*
X27445Y197I30*
G01X24429*
G02X24399Y227J30*
X24410Y250I30*
G03X24469Y373I99J123*
X24311Y530I158*
X24158Y408J157*
G02X24128Y385I30J7*
X24101Y404J30*
G03X23954Y503I147J58*
X23838Y453J157*
G02X23816Y443I22J20*
X23794Y453J30*
G03X23678Y504I116J107*
X23521Y346J158*
X23557Y246I157*
G02X23564Y227I23J19*
X23534Y197I30*
G01X23115*
G02X23085Y227J30*
X23091Y246I30*
G03X23127Y346I121J100*
X22970Y503I157*
X22854Y453J157*
G02X22832Y443I22J20*
X22810Y453J30*
G03X22694Y504I116J107*
X22562Y432J158*
G02X22537Y418I25J16*
X22511Y432J30*
G03X22379Y503I132J86*
X22263Y453J157*
G02X22241Y443I22J20*
X22219Y453J30*
G03X22104Y504I115J107*
X21946Y346J158*
X21982Y246I158*
G02X21989Y227I23J19*
X21959Y197I30*
G01X21540*
G02X21510Y227J30*
X21517Y246I30*
G03X21552Y346I122J100*
X21395Y503I157*
X21279Y453J157*
G02X21257Y443I22J20*
X21235Y453J30*
G03X21119Y504I116J107*
X20987Y432J158*
G02X20962Y418I25J16*
X20937Y432J30*
G03X20804Y503I133J86*
X20689Y453J157*
G02X20667Y443I22J20*
X20645Y453J30*
G03X20529Y504I116J107*
X20371Y346J158*
X20407Y246I158*
G02X20414Y227I23J19*
X20384Y197I30*
G01X19965*
G02X19935Y227J30*
X19942Y246I30*
G03X19978Y346I122J100*
X19820Y503I158*
X19704Y453J157*
G02X19682Y443I22J20*
X19660Y453J30*
G03X19544Y504I116J107*
X19387Y346J158*
X19423Y246I157*
G02X19430Y227I23J19*
X19400Y197I30*
G01X18720*
G02X18690Y227J30*
X18701Y250I30*
G03X18760Y373I99J123*
X18602Y530I158*
X18445Y373J157*
X18504Y250I157*
G02X18515Y227I19J23*
X18485Y197I30*
G01X18193*
G02X18163Y227J30*
X18170Y246I30*
G03X18206Y346I121J100*
X18049Y503I157*
X17933Y453J157*
G02X17911Y443I22J20*
X17889Y453J30*
G03X17773Y504I116J107*
X17641Y432J158*
G02X17615Y418I26J16*
X17590Y432J30*
G03X17458Y503I132J86*
X17342Y453J157*
G02X17320Y443I22J20*
X17298Y453J30*
G03X17182Y504I116J107*
X17025Y346J158*
X17061Y246I157*
G02X17068Y227I23J19*
X17038Y197I30*
G01X16815*
G02X16785Y227J30*
X16792Y246I30*
G03X16828Y346I121J100*
X16671Y503I157*
X16555Y453J157*
G02X16533Y443I22J20*
X16511Y453J30*
G03X16395Y504I116J107*
X16237Y346J158*
X16273Y246I158*
G02X16280Y227I23J19*
X16250Y197I30*
G01X15768*
G02X15738Y227J30*
X15749Y250I30*
G03X15807Y373I99J123*
X15650Y530I157*
X15492Y373J157*
X15551Y250I158*
G02X15562Y227I19J23*
X15532Y197I30*
G01X15374*
G02X15344Y227J30*
X15355Y250I30*
G03X15413Y373I99J123*
X15256Y530I157*
X15099Y373J157*
X15157Y250I157*
G02X15168Y227I19J23*
X15138Y197I30*
G01X14980*
G02X14950Y227J30*
X14961Y250I30*
G03X15020Y373I99J123*
X14862Y530I158*
X14705Y373J157*
X14763Y250I157*
G02X14775Y227I18J23*
X14745Y197I30*
G01X11925*
G02X11895Y227J30*
X11904Y249I30*
G03X12306Y1181I880J932*
X11024Y2464I1282*
X9741Y1181J1283*
X10143Y249I1283*
G02X10152Y227I21J22*
X10122Y197I30*
G01X227*
G02X197Y227J30*
G01Y702*
G02X227Y732I30*
X254Y716J30*
G03X394Y630I140J71*
X551Y787J157*
X394Y945I157*
X254Y859J158*
G02X227Y843I27J14*
X197Y873J30*
G01Y1096*
G02X227Y1126I30*
X254Y1109J30*
G03X394Y1024I140J72*
X551Y1181J157*
X394Y1339I157*
X254Y1253J158*
G02X227Y1237I27J14*
X197Y1267J30*
G01Y1489*
G02X227Y1519I30*
X254Y1503J30*
G03X394Y1417I140J72*
X551Y1575J158*
X394Y1732I157*
X254Y1647J157*
G02X227Y1630I27J13*
X197Y1660J30*
G01Y15521*
X512D02*
G02X542Y15551I30D01*
G01X1481*
Y14124*
G03X1639Y13966I158*
X1796Y14124J158*
X1639Y14281I157*
X1481Y14124J157*
G01Y15551*
X3908*
Y15197*
G03X4066Y15039I158*
X4223Y15197J158*
X4066Y15354I157*
X3908Y15197J157*
G01Y15551*
X4764*
Y14567*
G03X4921Y14409I157*
X5079Y14567J158*
X4921Y14724I158*
X4764Y14567J157*
G01Y14961*
G03X4921Y14803I157*
X5079Y14961J158*
X4921Y15118I158*
X4764Y14961J157*
G01Y15551*
X5157*
Y14567*
G03X5315Y14409I158*
X5472Y14567J158*
X5315Y14724I157*
X5157Y14567J157*
G01Y14961*
G03X5315Y14803I158*
X5472Y14961J158*
X5315Y15118I157*
X5157Y14961J157*
G01Y15551*
X5551*
Y13780*
G03X5709Y13622I158*
X5866Y13780J158*
X5709Y13937I157*
X5551Y13780J157*
G01Y14173*
G03X5709Y14016I158*
X5866Y14173J157*
X5709Y14331I157*
X5551Y14173J158*
G01Y14567*
G03X5709Y14409I158*
X5866Y14567J158*
X5709Y14724I157*
X5551Y14567J157*
G01Y14961*
G03X5709Y14803I158*
X5866Y14961J158*
X5709Y15118I157*
X5551Y14961J157*
G01Y15551*
X5945*
Y13780*
G03X6102Y13622I157*
X6260Y13780J158*
X6102Y13937I158*
X5945Y13780J157*
G01Y14173*
G03X6102Y14016I157*
X6260Y14173J157*
X6102Y14331I158*
X5945Y14173J158*
G01Y14567*
G03X6102Y14409I157*
X6260Y14567J158*
X6102Y14724I158*
X5945Y14567J157*
G01Y14961*
G03X6102Y14803I157*
X6260Y14961J158*
X6102Y15118I158*
X5945Y14961J157*
G01Y15551*
X6339*
Y13780*
G03X6496Y13622I157*
X6654Y13780J158*
X6496Y13937I158*
X6339Y13780J157*
G01Y14173*
G03X6496Y14016I157*
X6654Y14173J157*
X6496Y14331I158*
X6339Y14173J158*
G01Y14567*
G03X6496Y14409I157*
X6654Y14567J158*
X6496Y14724I158*
X6339Y14567J157*
G01Y14961*
G03X6496Y14803I157*
X6654Y14961J158*
X6496Y15118I158*
X6339Y14961J157*
G01Y15551*
X6732*
Y13780*
G03X6890Y13622I158*
X7047Y13780J158*
X6890Y13937I157*
X6732Y13780J157*
G01Y14173*
G03X6890Y14016I158*
X7047Y14173J157*
X6890Y14331I157*
X6732Y14173J158*
G01Y14567*
G03X6890Y14409I158*
X7047Y14567J158*
X6890Y14724I157*
X6732Y14567J157*
G01Y14961*
G03X6890Y14803I158*
X7047Y14961J158*
X6890Y15118I157*
X6732Y14961J157*
G01Y15551*
X7588*
Y14409*
G03X7745Y14252I157*
X7903Y14409J157*
X7745Y14567I158*
X7588Y14409J158*
G01Y15197*
G03X7745Y15039I157*
X7903Y15197J158*
X7745Y15354I158*
X7588Y15197J157*
G01Y15551*
X8307*
Y4528*
G03X8465Y4370I158*
X8622Y4528J158*
X8465Y4685I157*
X8307Y4528J157*
G01Y4921*
G03X8465Y4764I158*
X8622Y4921J157*
X8465Y5079I157*
X8307Y4921J158*
G01Y11220*
G03X8465Y11063I158*
X8622Y11220J157*
X8465Y11378I157*
X8307Y11220J158*
G01Y12008*
G03X8465Y11850I158*
X8622Y12008J158*
X8465Y12165I157*
X8307Y12008J157*
G01Y12992*
G03X8465Y12835I158*
X8622Y12992J157*
X8465Y13150I157*
X8307Y12992J158*
G01Y13780*
G03X8465Y13622I158*
X8622Y13780J158*
X8465Y13937I157*
X8307Y13780J157*
G01Y14567*
G03X8465Y14409I158*
X8622Y14567J158*
X8465Y14724I157*
X8307Y14567J157*
G01Y15551*
X8701*
Y10827*
G03X8858Y10669I157*
X9016Y10827J158*
X8858Y10984I158*
X8701Y10827J157*
G01Y11614*
G03X8858Y11457I157*
X9016Y11614J157*
X8858Y11772I158*
X8701Y11614J158*
G01Y12402*
G03X8858Y12244I157*
X8961Y12283J158*
G01Y12057*
G03X9094Y11902I158*
G01Y11220*
G03X9252Y11063I158*
X9409Y11220J157*
X9252Y11378I157*
X9094Y11220J158*
G01Y11902*
G03X9119Y11900I25J155*
X9276Y12057J157*
X9119Y12215I157*
X8961Y12057J158*
G01Y12283*
G03X9016Y12402I103J119*
X8858Y12559I158*
X8701Y12402J157*
G01Y13386*
G03X8858Y13228I157*
X8936Y13249J158*
G02X8951Y13253I15J26*
X8981Y13223J30*
X8978Y13210I30*
G03X8961Y13140I141J70*
X9119Y12982I158*
X9276Y13140J158*
X9119Y13297I157*
X9041Y13276J157*
G02X9026Y13272I15J26*
X8996Y13302J30*
X8999Y13316I30*
G03X9016Y13386I141J70*
X8858Y13543I158*
X8701Y13386J157*
G01Y14173*
G03X8858Y14016I157*
X9016Y14173J157*
X8858Y14331I158*
X8701Y14173J158*
G01Y14961*
G03X8858Y14803I157*
X9016Y14961J158*
X8858Y15118I158*
X8701Y14961J157*
G01Y15551*
X9094*
Y13780*
G03X9252Y13622I158*
X9409Y13780J158*
X9252Y13937I157*
X9094Y13780J157*
G01Y14567*
G03X9252Y14409I158*
X9409Y14567J158*
X9252Y14724I157*
X9094Y14567J157*
G01Y15551*
X9488*
Y10827*
G03X9646Y10669I158*
X9803Y10827J158*
X9646Y10984I157*
X9488Y10827J157*
G01Y11614*
G03X9646Y11457I158*
X9803Y11614J157*
X9646Y11772I157*
X9488Y11614J158*
G01Y13386*
G03X9646Y13228I158*
X9803Y13386J158*
X9646Y13543I157*
X9488Y13386J157*
G01Y15551*
X10122*
G02X10152Y15521J30*
X10143Y15499I30*
G03X9741Y14567I881J932*
X9867Y14012I1283*
G01Y12500*
G03X10025Y12343I158*
X10087Y12356J157*
G01Y9350*
G03X10245Y9193I158*
X10402Y9350J157*
X10245Y9508I157*
X10087Y9350J158*
G01Y12356*
G03X10182Y12500I62J144*
X10025Y12657I157*
X9867Y12500J157*
G01Y14012*
G03X10679Y13331I1157J555*
G01Y11801*
G03X10984Y11496I305*
X11267Y11685J305*
G01Y11220*
G03X11437Y10851I485*
G01Y9320*
G03X11594Y9162I157*
X11752Y9320J158*
X11594Y9477I158*
X11437Y9320J157*
G01Y10851*
G03X11752Y10735I315J369*
X12237Y11220J485*
X11752Y11706I485*
X11267Y11220J486*
G01Y11685*
G03X11289Y11801I283J116*
X10984Y12106I305*
X10679Y11801J305*
G01Y13331*
G03X10802Y13304I345J1236*
G02X10827Y13274I5J30*
G01Y12520*
X12432*
Y9350*
G03X12590Y9193I158*
X12747Y9350J157*
X12590Y9508I157*
X12432Y9350J158*
G01Y12520*
X12490*
G02X12520Y12490J30*
G01Y12008*
X15269*
G02X15299Y11978J30*
X15283Y11951I30*
G03X15197Y11811I71J140*
G01Y9449*
G03X15354Y9291I157*
X15512Y9449J158*
X15354Y9606I158*
X15197Y9449J157*
G01Y11417*
G03X15354Y11260I157*
X15512Y11417J157*
X15354Y11575I158*
X15197Y11417J158*
G01Y11811*
G03X15354Y11654I157*
X15512Y11811J157*
X15426Y11951I158*
G02X15410Y11978I14J27*
X15440Y12008I30*
G01X15663*
G02X15693Y11978J30*
X15676Y11951I30*
G03X15591Y11811I72J140*
G01Y9449*
G03X15748Y9291I157*
X15906Y9449J158*
X15748Y9606I158*
X15591Y9449J157*
G01Y9843*
G03X15748Y9685I157*
X15906Y9843J158*
X15748Y10000I158*
X15591Y9843J157*
G01Y10236*
G03X15748Y10079I157*
X15906Y10236J157*
X15748Y10394I158*
X15591Y10236J158*
G01Y10630*
G03X15748Y10472I157*
X15906Y10630J158*
X15748Y10787I158*
X15591Y10630J157*
G01Y11417*
G03X15748Y11260I157*
X15906Y11417J157*
X15748Y11575I158*
X15591Y11417J158*
G01Y11811*
G03X15748Y11654I157*
X15906Y11811J157*
X15820Y11951I158*
G02X15804Y11978I14J27*
X15834Y12008I30*
G01X16056*
G02X16086Y11978J30*
X16070Y11951I30*
G03X15984Y11811I72J140*
G01Y9449*
G03X16142Y9291I158*
X16299Y9449J158*
X16142Y9606I157*
X15984Y9449J157*
G01Y10236*
G03X16142Y10079I158*
X16299Y10236J157*
X16142Y10394I157*
X15984Y10236J158*
G01Y10630*
G03X16142Y10472I158*
X16299Y10630J158*
X16142Y10787I157*
X15984Y10630J157*
G01Y11024*
G03X16142Y10866I158*
X16299Y11024J158*
X16142Y11181I157*
X15984Y11024J157*
G01Y11811*
G03X16142Y11654I158*
X16299Y11811J157*
X16214Y11951I157*
G02X16197Y11978I13J27*
X16227Y12008I30*
G01X16450*
G02X16480Y11978J30*
X16464Y11951I30*
G03X16378Y11811I71J140*
G01Y8268*
G03X16535Y8110I157*
X16693Y8268J158*
X16535Y8425I158*
X16378Y8268J157*
G01Y8661*
G03X16535Y8504I157*
X16693Y8661J157*
X16535Y8819I158*
X16378Y8661J158*
G01Y9055*
G03X16535Y8898I157*
X16693Y9055J157*
X16535Y9213I158*
X16378Y9055J158*
G01Y9843*
G03X16535Y9685I157*
X16693Y9843J158*
X16535Y10000I158*
X16378Y9843J157*
G01Y10630*
G03X16535Y10472I157*
X16693Y10630J158*
X16535Y10787I158*
X16378Y10630J157*
G01Y11024*
G03X16535Y10866I157*
X16693Y11024J158*
X16535Y11181I158*
X16378Y11024J157*
G01Y11417*
G03X16535Y11260I157*
X16693Y11417J157*
X16535Y11575I158*
X16378Y11417J158*
G01Y11811*
G03X16535Y11654I157*
X16693Y11811J157*
X16607Y11951I158*
G02X16591Y11978I14J27*
X16621Y12008I30*
G01X16844*
G02X16874Y11978J30*
X16857Y11951I30*
G03X16772Y11811I72J140*
G01Y8661*
G03X16929Y8504I157*
X17087Y8661J157*
X16929Y8819I158*
X16772Y8661J158*
G01Y9449*
G03X16929Y9291I157*
X17087Y9449J158*
X16929Y9606I158*
X16772Y9449J157*
G01Y10236*
G03X16929Y10079I157*
X17087Y10236J157*
X16929Y10394I158*
X16772Y10236J158*
G01Y10630*
G03X16929Y10472I157*
X17087Y10630J158*
X16929Y10787I158*
X16772Y10630J157*
G01Y11024*
G03X16929Y10866I157*
X17087Y11024J158*
X16929Y11181I158*
X16772Y11024J157*
G01Y11417*
G03X16929Y11260I157*
X17087Y11417J157*
X16929Y11575I158*
X16772Y11417J158*
G01Y11811*
G03X16929Y11654I157*
X17087Y11811J157*
X17001Y11951I158*
G02X16985Y11978I14J27*
X17015Y12008I30*
G01X17135*
G02X17165Y11978J30*
G01Y10433*
X17237*
G02X17267Y10403J30*
X17251Y10376I30*
G03X17165Y10236I72J140*
G01Y8268*
G03X17323Y8110I158*
X17480Y8268J158*
X17323Y8425I157*
X17165Y8268J157*
G01Y9449*
G03X17323Y9291I158*
X17480Y9449J158*
X17323Y9606I157*
X17165Y9449J157*
G01Y9843*
G03X17323Y9685I158*
X17480Y9843J158*
X17323Y10000I157*
X17165Y9843J157*
G01Y10236*
G03X17323Y10079I158*
X17480Y10236J157*
X17395Y10376I157*
G02X17378Y10403I13J27*
X17408Y10433I30*
G01X17559*
Y8661*
G03X17717Y8504I158*
X17874Y8661J157*
X17717Y8819I157*
X17559Y8661J158*
G01Y10433*
X18418*
G02X18448Y10403J30*
X18432Y10376I30*
G03X18346Y10236I72J140*
X18504Y10079I158*
X18661Y10236J157*
X18576Y10376I157*
G02X18559Y10403I13J27*
X18589Y10433I30*
G01X18812*
G02X18842Y10403J30*
X18826Y10376I30*
G03X18740Y10236I72J140*
G01Y8268*
G03X18898Y8110I158*
X19055Y8268J158*
X18898Y8425I157*
X18740Y8268J157*
G01Y9055*
G03X18898Y8898I158*
X19055Y9055J157*
X18898Y9213I157*
X18740Y9055J158*
G01Y9449*
G03X18898Y9291I158*
X19055Y9449J158*
X18898Y9606I157*
X18740Y9449J157*
G01Y9843*
G03X18898Y9685I158*
X19055Y9843J158*
X18898Y10000I157*
X18740Y9843J157*
G01Y10236*
G03X18898Y10079I158*
X19055Y10236J157*
X18969Y10376I157*
G02X18953Y10403I14J27*
X18983Y10433I30*
G01X19206*
G02X19236Y10403J30*
X19220Y10376I30*
G03X19134Y10236I71J140*
G01Y8268*
G03X19291Y8110I157*
X19449Y8268J158*
X19291Y8425I158*
X19134Y8268J157*
G01Y8661*
G03X19291Y8504I157*
X19449Y8661J157*
X19291Y8819I158*
X19134Y8661J158*
G01Y9055*
G03X19291Y8898I157*
X19449Y9055J157*
X19291Y9213I158*
X19134Y9055J158*
G01Y9449*
G03X19291Y9291I157*
X19449Y9449J158*
X19291Y9606I158*
X19134Y9449J157*
G01Y10236*
G03X19291Y10079I157*
X19449Y10236J157*
X19363Y10376I158*
G02X19347Y10403I14J27*
X19377Y10433I30*
G01X19993*
G02X20023Y10403J30*
X20007Y10376I30*
G03X19921Y10236I72J140*
G01Y5906*
G03X20079Y5748I158*
X20236Y5906J158*
X20079Y6063I157*
X19921Y5906J157*
G01Y6299*
G03X20079Y6142I158*
X20236Y6299J157*
X20079Y6457I157*
X19921Y6299J158*
G01Y6693*
G03X20079Y6535I158*
X20236Y6693J158*
X20079Y6850I157*
X19921Y6693J157*
G01Y7087*
G03X20079Y6929I158*
X20236Y7087J158*
X20079Y7244I157*
X19921Y7087J157*
G01Y7480*
G03X20079Y7323I158*
X20236Y7480J157*
X20079Y7638I157*
X19921Y7480J158*
G01Y8268*
G03X20079Y8110I158*
X20236Y8268J158*
X20079Y8425I157*
X19921Y8268J157*
G01Y8661*
G03X20079Y8504I158*
X20236Y8661J157*
X20079Y8819I157*
X19921Y8661J158*
G01Y9055*
G03X20079Y8898I158*
X20236Y9055J157*
X20079Y9213I157*
X19921Y9055J158*
G01Y9449*
G03X20079Y9291I158*
X20236Y9449J158*
X20079Y9606I157*
X19921Y9449J157*
G01Y9843*
G03X20079Y9685I158*
X20236Y9843J158*
X20079Y10000I157*
X19921Y9843J157*
G01Y10236*
G03X20079Y10079I158*
X20236Y10236J157*
X20151Y10376I157*
G02X20134Y10403I13J27*
X20164Y10433I30*
G01X20387*
G02X20417Y10403J30*
X20401Y10376I30*
G03X20315Y10236I71J140*
G01Y5906*
G03X20472Y5748I157*
X20630Y5906J158*
X20472Y6063I158*
X20315Y5906J157*
G01Y6299*
G03X20472Y6142I157*
X20630Y6299J157*
X20472Y6457I158*
X20315Y6299J158*
G01Y6693*
G03X20472Y6535I157*
X20630Y6693J158*
X20472Y6850I158*
X20315Y6693J157*
G01Y7087*
G03X20472Y6929I157*
X20630Y7087J158*
X20472Y7244I158*
X20315Y7087J157*
G01Y7480*
G03X20472Y7323I157*
X20630Y7480J157*
X20472Y7638I158*
X20315Y7480J158*
G01Y8268*
G03X20472Y8110I157*
X20630Y8268J158*
X20472Y8425I158*
X20315Y8268J157*
G01Y8661*
G03X20472Y8504I157*
X20630Y8661J157*
X20472Y8819I158*
X20315Y8661J158*
G01Y9055*
G03X20472Y8898I157*
X20630Y9055J157*
X20472Y9213I158*
X20315Y9055J158*
G01Y9449*
G03X20472Y9291I157*
X20630Y9449J158*
X20472Y9606I158*
X20315Y9449J157*
G01Y9843*
G03X20472Y9685I157*
X20630Y9843J158*
X20472Y10000I158*
X20315Y9843J157*
G01Y10236*
G03X20472Y10079I157*
X20630Y10236J157*
X20544Y10376I158*
G02X20528Y10403I14J27*
X20558Y10433I30*
G01X20781*
G02X20811Y10403J30*
X20794Y10376I30*
G03X20709Y10236I72J140*
G01Y5906*
G03X20866Y5748I157*
X21024Y5906J158*
X20866Y6063I158*
X20709Y5906J157*
G01Y6299*
G03X20866Y6142I157*
X21024Y6299J157*
X20866Y6457I158*
X20709Y6299J158*
G01Y6693*
G03X20866Y6535I157*
X21024Y6693J158*
X20866Y6850I158*
X20709Y6693J157*
G01Y7087*
G03X20866Y6929I157*
X21024Y7087J158*
X20866Y7244I158*
X20709Y7087J157*
G01Y7480*
G03X20866Y7323I157*
X21024Y7480J157*
X20866Y7638I158*
X20709Y7480J158*
G01Y8268*
G03X20866Y8110I157*
X21024Y8268J158*
X20866Y8425I158*
X20709Y8268J157*
G01Y8661*
G03X20866Y8504I157*
X21024Y8661J157*
X20866Y8819I158*
X20709Y8661J158*
G01Y9055*
G03X20866Y8898I157*
X21024Y9055J157*
X20866Y9213I158*
X20709Y9055J158*
G01Y9449*
G03X20866Y9291I157*
X21024Y9449J158*
X20866Y9606I158*
X20709Y9449J157*
G01Y9843*
G03X20866Y9685I157*
X21024Y9843J158*
X20866Y10000I158*
X20709Y9843J157*
G01Y10236*
G03X20866Y10079I157*
X21024Y10236J157*
X20938Y10376I158*
G02X20922Y10403I14J27*
X20952Y10433I30*
G01X21102*
Y5906*
G03X21260Y5748I158*
X21417Y5906J158*
X21260Y6063I157*
X21102Y5906J157*
G01Y6299*
G03X21260Y6142I158*
X21417Y6299J157*
X21260Y6457I157*
X21102Y6299J158*
G01Y6693*
G03X21260Y6535I158*
X21417Y6693J158*
X21260Y6850I157*
X21102Y6693J157*
G01Y7087*
G03X21260Y6929I158*
X21417Y7087J158*
X21260Y7244I157*
X21102Y7087J157*
G01Y7480*
G03X21260Y7323I158*
X21417Y7480J157*
X21260Y7638I157*
X21102Y7480J158*
G01Y8268*
G03X21260Y8110I158*
X21417Y8268J158*
X21260Y8425I157*
X21102Y8268J157*
G01Y8661*
G03X21260Y8504I158*
X21417Y8661J157*
X21260Y8819I157*
X21102Y8661J158*
G01Y9055*
G03X21260Y8898I158*
X21417Y9055J157*
X21260Y9213I157*
X21102Y9055J158*
G01Y9449*
G03X21260Y9291I158*
X21417Y9449J158*
X21260Y9606I157*
X21102Y9449J157*
G01Y9843*
G03X21260Y9685I158*
X21417Y9843J158*
X21260Y10000I157*
X21102Y9843J157*
G01Y10433*
X21496*
Y5906*
G03X21654Y5748I158*
X21811Y5906J158*
X21654Y6063I157*
X21496Y5906J157*
G01Y7087*
G03X21654Y6929I158*
X21811Y7087J158*
X21654Y7244I157*
X21496Y7087J157*
G01Y7480*
G03X21654Y7323I158*
X21811Y7480J157*
X21654Y7638I157*
X21496Y7480J158*
G01Y8268*
G03X21654Y8110I158*
X21811Y8268J158*
X21654Y8425I157*
X21496Y8268J157*
G01Y8661*
G03X21654Y8504I158*
X21811Y8661J157*
X21654Y8819I157*
X21496Y8661J158*
G01Y9055*
G03X21654Y8898I158*
X21811Y9055J157*
X21654Y9213I157*
X21496Y9055J158*
G01Y9449*
G03X21654Y9291I158*
X21811Y9449J158*
X21654Y9606I157*
X21496Y9449J157*
G01Y9843*
G03X21654Y9685I158*
X21811Y9843J158*
X21654Y10000I157*
X21496Y9843J157*
G01Y10433*
X21890*
Y5906*
G03X22047Y5748I157*
X22205Y5906J158*
X22047Y6063I158*
X21890Y5906J157*
G01Y6299*
G03X22047Y6142I157*
X22205Y6299J157*
X22047Y6457I158*
X21890Y6299J158*
G01Y8661*
G03X22047Y8504I157*
X22205Y8661J157*
X22047Y8819I158*
X21890Y8661J158*
G01Y10433*
X22283*
Y5906*
G03X22441Y5748I158*
X22598Y5906J158*
X22441Y6063I157*
X22283Y5906J157*
G01Y7087*
G03X22441Y6929I158*
X22598Y7087J158*
X22441Y7244I157*
X22283Y7087J157*
G01Y9449*
G03X22441Y9291I158*
X22598Y9449J158*
X22441Y9606I157*
X22283Y9449J157*
G01Y10433*
X22749*
G02X22779Y10403J30*
X22763Y10376I30*
G03X22677Y10236I72J140*
G01Y5906*
G03X22835Y5748I158*
X22992Y5906J158*
X22835Y6063I157*
X22677Y5906J157*
G01Y6299*
G03X22835Y6142I158*
X22992Y6299J157*
X22835Y6457I157*
X22677Y6299J158*
G01Y8268*
G03X22835Y8110I158*
X22992Y8268J158*
X22835Y8425I157*
X22677Y8268J157*
G01Y10236*
G03X22835Y10079I158*
X22992Y10236J157*
X22906Y10376I157*
G02X22890Y10403I14J27*
X22920Y10433I30*
G01X23071*
Y5906*
G03X23228Y5748I157*
X23386Y5906J158*
X23228Y6063I158*
X23071Y5906J157*
G01Y6693*
G03X23228Y6535I157*
X23386Y6693J158*
X23228Y6850I158*
X23071Y6693J157*
G01Y9055*
G03X23228Y8898I157*
X23386Y9055J157*
X23228Y9213I158*
X23071Y9055J158*
G01Y10433*
X23465*
Y7480*
G03X23622Y7323I157*
X23780Y7480J157*
X23622Y7638I158*
X23465Y7480J158*
G01Y9843*
G03X23622Y9685I157*
X23780Y9843J158*
X23622Y10000I158*
X23465Y9843J157*
G01Y10433*
X23858*
Y6299*
G03X24016Y6142I158*
X24173Y6299J157*
X24016Y6457I157*
X23858Y6299J158*
G01Y8661*
G03X24016Y8504I158*
X24173Y8661J157*
X24016Y8819I157*
X23858Y8661J158*
G01Y10433*
X24587*
Y9685*
G03X24744Y9528I157*
X24902Y9685J157*
X24744Y9843I158*
X24587Y9685J158*
G01Y10433*
X24961*
Y6083*
G03X25118Y5925I157*
X25276Y6083J158*
X25118Y6240I158*
X24961Y6083J157*
G01Y10433*
X25020*
Y9685*
G03X25118Y9539I157*
G01Y7217*
G03X25276Y7060I158*
X25433Y7217J157*
X25276Y7375I157*
X25118Y7217J158*
G01Y8137*
G03X25276Y7980I158*
X25433Y8137J157*
X25276Y8295I157*
X25118Y8137J158*
G01Y9066*
G03X25276Y8908I158*
X25433Y9066J158*
X25276Y9223I157*
X25118Y9066J157*
G01Y9539*
G03X25177Y9528I59J146*
X25335Y9685J157*
X25177Y9843I158*
X25020Y9685J158*
G01Y10433*
X25512*
Y6083*
G03X25669Y5925I157*
X25827Y6083J158*
X25669Y6240I158*
X25512Y6083J157*
G01Y10433*
X26151*
G02X26181Y10403J30*
G01Y10197*
X26565*
Y9941*
G03X26722Y9784I157*
X26880Y9941J157*
X26722Y10099I158*
X26565Y9941J158*
G01Y10197*
X26949*
Y9924*
G03X27106Y9767I157*
X27264Y9924J157*
X27106Y10082I158*
X26949Y9924J158*
G01Y10197*
X27687*
G02X27717Y10167J30*
G01Y9558*
G02X27687Y9528I30*
G01X26181*
Y6439*
G02X26151Y6409I30*
X26131Y6417J30*
G03X26027Y6457I104J118*
X25869Y6299J158*
X26027Y6142I158*
X26131Y6182J157*
G02X26151Y6189I20J23*
X26181Y6159J30*
G01Y5652*
G02X26151Y5622I30*
X26131Y5630J30*
G03X26027Y5669I104J118*
X25869Y5512J157*
X26027Y5354I158*
X26131Y5394J158*
G02X26151Y5402I20J22*
X26181Y5372J30*
G01Y4597*
G02X26151Y4567I30*
G01X25542*
G02X25512Y4597J30*
G01Y5394*
X23788*
G02X23758Y5424J30*
X23761Y5438I30*
G03X23780Y5512I139J74*
X23622Y5669I158*
X23465Y5512J157*
X23483Y5438I157*
G02X23487Y5424I26J14*
X23457Y5394I30*
G01X22213*
G02X22183Y5424J30*
X22186Y5438I30*
G03X22205Y5512I139J74*
X22047Y5669I158*
X21890Y5512J157*
X21908Y5438I157*
G02X21912Y5424I26J14*
X21882Y5394I30*
G01X21819*
G02X21789Y5424J30*
X21793Y5438I30*
G03X21811Y5512I139J74*
X21654Y5669I157*
X21496Y5512J157*
X21515Y5438I158*
G02X21518Y5424I27J14*
X21488Y5394I30*
G01X21425*
G02X21395Y5424J30*
X21399Y5438I30*
G03X21417Y5512I139J74*
X21260Y5669I157*
X21102Y5512J157*
X21121Y5438I158*
G02X21124Y5424I27J14*
X21094Y5394I30*
G01X21032*
G02X21002Y5424J30*
X21005Y5438I30*
G03X21024Y5512I139J74*
X20866Y5669I158*
X20709Y5512J157*
X20727Y5438I157*
G02X20731Y5424I26J14*
X20701Y5394I30*
G01X20244*
G02X20214Y5424J30*
X20218Y5438I30*
G03X20236Y5512I139J74*
X20079Y5669I157*
X19921Y5512J157*
X19940Y5438I158*
G02X19943Y5424I27J14*
X19913Y5394I30*
G01X19124*
G02X19094Y5424J30*
G01Y5820*
G02X19124Y5850I30*
X19151Y5834J30*
G03X19291Y5748I140J72*
X19449Y5906J158*
X19291Y6063I158*
X19151Y5977J157*
G02X19124Y5961I27J14*
X19094Y5991J30*
G01Y6214*
G02X19124Y6244I30*
X19151Y6227J30*
G03X19291Y6142I140J72*
X19449Y6299J157*
X19291Y6457I158*
X19151Y6371J158*
G02X19124Y6355I27J14*
X19094Y6385J30*
G01Y6607*
G02X19124Y6637I30*
X19151Y6621J30*
G03X19291Y6535I140J72*
X19449Y6693J158*
X19291Y6850I158*
X19151Y6765J157*
G02X19124Y6748I27J13*
X19094Y6778J30*
G01Y7001*
G02X19124Y7031I30*
X19151Y7015J30*
G03X19291Y6929I140J72*
X19449Y7087J158*
X19291Y7244I158*
X19151Y7158J157*
G02X19124Y7142I27J14*
X19094Y7172J30*
G01Y7395*
G02X19124Y7425I30*
X19151Y7408J30*
G03X19291Y7323I140J72*
X19449Y7480J157*
X19291Y7638I158*
X19151Y7552J158*
G02X19124Y7536I27J14*
X19094Y7566J30*
G01Y8031*
X16172*
G02X16142Y8061J30*
G01Y9055*
X15933*
G02X15903Y9080J30*
G03X15748Y9213I155J25*
X15593Y9080J158*
G02X15563Y9055I30J5*
G01X15539*
G02X15510Y9080J30*
G03X15354Y9213I156J25*
X15199Y9080J158*
G02X15169Y9055I30J5*
G01X8858*
Y4299*
G02X8843Y4272I30*
G03X8760Y4134I74J138*
X8843Y3995I157*
G02X8858Y3969I15J26*
G01Y3573*
G02X8828Y3543I30*
G01X8180*
G02X8150Y3573J30*
G01Y10984*
X6312Y12822*
G02X6303Y12843I21J21*
X6308Y12860I30*
G03X6336Y12949I130J89*
X6178Y13107I158*
X6090Y13079J158*
G02X6073Y13074I17J25*
X6051Y13083J30*
G01X5591Y13543*
X2709*
G02X2683Y13559J30*
G03X2544Y13642I139J75*
X2406Y13559J158*
G02X2379Y13543I27J14*
G01X542*
G02X512Y13573J30*
G01Y15521*
G37*
G54D10*
X11024Y1181D03*
Y14567D03*
X28346D03*
X28347Y1181D03*
G54D11*
X1687Y-549D02*
X1463D01*
X1441Y-758*
X1463Y-735*
X1530Y-713*
X1597*
X1664Y-735*
X1709Y-780*
X1731Y-847*
Y-899*
X1709Y-966*
X1664Y-1011*
X1597Y-1033*
X1530*
X1463Y-1011*
X1441Y-989*
X1418Y-944*
G54D12*
X984Y13780D03*
Y14173D03*
Y14567D03*
Y14961D03*
X1343Y13334D03*
X1378Y13780D03*
Y14567D03*
Y14961D03*
X1772Y14567D03*
Y14961D03*
X2165Y787D03*
Y1181D03*
Y1575D03*
Y14173D03*
Y14567D03*
Y14961D03*
X2559Y787D03*
Y1181D03*
Y1575D03*
Y14173D03*
Y14567D03*
Y14961D03*
X2953Y787D03*
Y1181D03*
Y1575D03*
Y14567D03*
Y14961D03*
X3248Y13233D03*
X3346Y13780D03*
Y14173D03*
Y14567D03*
Y14961D03*
X8465Y3740D03*
X12809Y13681D03*
X13799Y9282D03*
X14862Y15376D03*
X15059Y14428D03*
X15256Y15376D03*
X15354Y9843D03*
X15453Y14428D03*
X15650Y15376D03*
X15847Y14428D03*
X16043Y373D03*
Y1829D03*
X16142Y11417D03*
X16240Y1320D03*
X16535Y10236D03*
X16929Y9055D03*
X18110Y9449D03*
X18504Y8268D03*
X19291Y5512D03*
Y9843D03*
X21260Y10236D03*
X23721Y12971D03*
X26027Y4724D03*
X27539Y9685D03*
G54D13*
X8677Y1969D03*
M02*
