*
G04 Job   : Y:\Users\CEG\Central Electronics\Projects\Hastingsp\MENTOR\DUNE\MIB_Module\PCB\MIB_Module.pcb*
G04 User  : ELWT2:hastingsp*
G04 Layer : 09_Layer7.gdo*
G04 Date  : Wed Jun 28 08:25:47 2023*
G04 VeriBest Example Gerber Output Definition*
%ICAS*%
%MOIN*%
%FSLAX24Y24*%
%OFA0.0000B0.0000*%
G90*
G74*
%ADD12C,0.00394*%
%ADD11C,0.00787*%
%ADD13C,0.01969*%
%ADD10C,0.21654*%
G01*
G36*
X-276Y4921D02*
X118D01*
Y5709*
X-276*
Y4921*
X6299Y13041D02*
G03X6269Y13071I30D01*
G01X4656*
G03X4302Y12924J500*
G01X4123Y12745*
G03X3976Y12391I353J354*
G01Y11329*
G03X4006Y11299I30*
G01X4183*
G03X4213Y11329J30*
G01Y12234*
G02X4359Y12587I500*
G01X4460Y12688*
G02X4813Y12835I353J353*
G01X6269*
G03X6299Y12865J30*
G01Y13041*
X7874Y15097D02*
G02X7879Y15113I30D01*
G03X7903Y15197I134J84*
Y15205I158*
G01Y15206*
G02X7933Y15236I30*
G01X8307*
Y3740*
G03X8465Y3583I158*
X8622Y3740J157*
X8465Y3898I157*
X8307Y3740J158*
G01Y4528*
G03X8465Y4370I158*
X8622Y4528J158*
X8465Y4685I157*
X8307Y4528J157*
G01Y4921*
G03X8465Y4764I158*
X8622Y4921J157*
X8465Y5079I157*
X8307Y4921J158*
G01Y11220*
G03X8465Y11063I158*
X8622Y11220J157*
X8465Y11378I157*
X8307Y11220J158*
G01Y12008*
G03X8465Y11850I158*
X8622Y12008J158*
X8465Y12165I157*
X8307Y12008J157*
G01Y15236*
X8701*
Y10827*
G03X8760Y10704I157*
G01Y4134*
G03X8917Y3976I157*
X9075Y4134J158*
X8917Y4291I158*
X8760Y4134J157*
G01Y10704*
G03X8858Y10669I98J123*
X9016Y10827J158*
X8858Y10984I158*
X8701Y10827J157*
G01Y11614*
G03X8858Y11457I157*
X9016Y11614J157*
X8858Y11772I158*
X8701Y11614J158*
G01Y12402*
G03X8858Y12244I157*
X8961Y12283J158*
G01Y12057*
G03X9094Y11902I158*
G01Y11220*
G03X9252Y11063I158*
G01Y7294*
G03X9409Y7137I157*
X9567Y7294J157*
X9409Y7451I158*
X9252Y7294J157*
G01Y8454*
G03X9409Y8297I157*
X9567Y8454J157*
X9409Y8611I158*
X9252Y8454J157*
G01Y11063*
G03X9409Y11220J157*
X9252Y11378I157*
X9094Y11220J158*
G01Y11902*
G03X9119Y11900I25J155*
X9276Y12057J157*
X9119Y12215I157*
X8961Y12057J158*
G01Y12283*
G03X9016Y12402I103J119*
X8858Y12559I158*
X8701Y12402J157*
G01Y15236*
X8961*
Y13140*
G03X9119Y12982I158*
X9276Y13140J158*
X9119Y13297I157*
X8961Y13140J157*
G01Y15236*
X9813*
G02X9843Y15206J30*
G01Y15073*
G02X9840Y15062I30*
G03X9741Y14567I1184J495*
X9840Y14072I1283*
G02X9843Y14061I27J11*
G01Y11700*
G02X9813Y11670I30*
X9786Y11686J30*
G03X9646Y11772I140J72*
X9488Y11614J158*
X9646Y11457I158*
X9786Y11542J157*
G02X9813Y11559I27J13*
X9843Y11529J30*
G01Y10912*
G02X9813Y10882I30*
X9786Y10899J30*
G03X9646Y10984I140J72*
X9488Y10827J157*
X9646Y10669I158*
X9786Y10755J158*
G02X9813Y10771I27J14*
X9843Y10741J30*
G01Y8465*
X10070*
G02X10100Y8435J30*
X10098Y8424I30*
G03X10087Y8366I147J58*
G01Y5413*
G03X10245Y5256I158*
X10402Y5413J157*
X10245Y5571I157*
X10087Y5413J158*
G01Y6004*
G03X10245Y5847I158*
X10402Y6004J157*
X10245Y6162I157*
X10087Y6004J158*
G01Y6595*
G03X10245Y6437I158*
X10402Y6595J158*
X10245Y6752I157*
X10087Y6595J157*
G01Y7185*
G03X10245Y7028I158*
X10402Y7185J157*
X10245Y7343I157*
X10087Y7185J158*
G01Y7776*
G03X10245Y7618I158*
X10402Y7776J158*
X10245Y7933I157*
X10087Y7776J157*
G01Y8366*
G03X10245Y8209I158*
X10402Y8366J157*
X10391Y8424I157*
G02X10389Y8435I28J11*
X10419Y8465I30*
G01X10679*
Y3947*
G03X10984Y3642I305*
X11289Y3947J305*
X10984Y4252I305*
X10679Y3947J305*
G01Y8465*
X11267*
Y4528*
G03X11752Y4042I485*
X12237Y4528J486*
X11752Y5013I485*
X11267Y4528J485*
G01Y8465*
X11446*
G02X11476Y8435J30*
X11470Y8416I30*
G03X11437Y8320I124J96*
G01Y7320*
G03X11594Y7162I157*
X11752Y7320J158*
X11594Y7477I158*
X11437Y7320J157*
G01Y8320*
G03X11594Y8162I157*
X11752Y8320J158*
X11719Y8416I158*
G02X11713Y8435I24J19*
X11743Y8465I30*
G01X12415*
G02X12445Y8435J30*
X12443Y8424I30*
G03X12432Y8366I147J58*
G01Y5413*
G03X12590Y5256I158*
X12651Y5268J157*
G01Y2854*
G03X12809Y2697I158*
X12966Y2854J157*
X12809Y3012I157*
X12651Y2854J158*
G01Y4232*
G03X12809Y4075I158*
X12966Y4232J157*
X12809Y4390I157*
X12651Y4232J158*
G01Y5268*
G03X12747Y5413I61J145*
X12590Y5571I157*
X12432Y5413J158*
G01Y6004*
G03X12590Y5847I158*
X12747Y6004J157*
X12590Y6162I157*
X12432Y6004J158*
G01Y6595*
G03X12590Y6437I158*
X12747Y6595J158*
X12590Y6752I157*
X12432Y6595J157*
G01Y7185*
G03X12590Y7028I158*
X12747Y7185J157*
X12590Y7343I157*
X12432Y7185J158*
G01Y7776*
G03X12590Y7618I158*
X12747Y7776J158*
X12590Y7933I157*
X12432Y7776J157*
G01Y8366*
G03X12590Y8209I158*
X12747Y8366J157*
X12736Y8424I157*
G02X12734Y8435I28J11*
X12764Y8465I30*
G01X13513*
G02X13543Y8435J30*
G01Y5748*
X15197*
Y3543*
G03X15354Y3386I157*
X15512Y3543J157*
X15354Y3701I158*
X15197Y3543J158*
G01Y3937*
G03X15354Y3780I157*
X15512Y3937J157*
X15354Y4094I158*
X15197Y3937J157*
G01Y4331*
G03X15354Y4173I157*
X15512Y4331J158*
X15354Y4488I158*
X15197Y4331J157*
G01Y4724*
G03X15354Y4567I157*
X15512Y4724J157*
X15354Y4882I158*
X15197Y4724J158*
G01Y5118*
G03X15354Y4961I157*
X15512Y5118J157*
X15496Y5188I158*
X15484Y5208I142J70*
X15354Y5276I130J90*
X15197Y5118J158*
G01Y5748*
X15591*
Y4724*
G03X15748Y4567I157*
X15906Y4724J157*
X15748Y4882I158*
X15591Y4724J158*
G01Y5118*
G03X15748Y4961I157*
X15906Y5118J157*
X15889Y5188I158*
X15877Y5208I141J70*
X15748Y5276I129J90*
X15591Y5118J158*
G01Y5748*
X15984*
Y4331*
G03X16046Y4206I158*
G01Y2804*
G03X16204Y2646I158*
X16319Y2697J158*
G02X16341Y2707I22J20*
X16364Y2697J30*
G03X16479Y2646I115J107*
X16612Y2718J158*
G02X16637Y2732I25J16*
X16662Y2718J30*
G03X16794Y2646I132J86*
X16910Y2697J158*
G02X16932Y2707I22J20*
X16954Y2697J30*
G03X17070Y2646I116J107*
X17227Y2804J158*
X17070Y2961I157*
X16954Y2911J157*
G02X16932Y2901I22J20*
X16910Y2911J30*
G03X16794Y2961I116J107*
X16662Y2889J157*
G02X16637Y2876I25J17*
X16612Y2889J30*
G03X16479Y2961I133J85*
X16364Y2911J157*
G02X16342Y2901I22J20*
X16319Y2911J30*
G03X16204Y2961I115J107*
X16046Y2804J157*
G01Y4206*
G03X16142Y4173I96J125*
X16299Y4331J158*
X16142Y4488I157*
X15984Y4331J157*
G01Y4724*
G03X16142Y4567I158*
X16299Y4724J157*
X16142Y4882I157*
X15984Y4724J158*
G01Y5118*
G03X16142Y4961I158*
X16299Y5118J157*
X16283Y5188I157*
X16271Y5208I141J70*
X16142Y5276I129J90*
X15984Y5118J158*
G01Y5512*
G03X16142Y5354I158*
X16299Y5512J158*
X16142Y5669I157*
X15984Y5512J157*
G01Y5748*
X16378*
Y3543*
G03X16535Y3386I157*
X16693Y3543J157*
X16535Y3701I158*
X16378Y3543J158*
G01Y3937*
G03X16535Y3780I157*
X16693Y3937J157*
X16535Y4094I158*
X16378Y3937J157*
G01Y4724*
G03X16535Y4567I157*
X16693Y4724J157*
X16535Y4882I158*
X16378Y4724J158*
G01Y5118*
G03X16535Y4961I157*
X16693Y5118J157*
X16677Y5188I158*
X16665Y5208I142J70*
X16535Y5276I130J90*
X16378Y5118J158*
G01Y5512*
G03X16535Y5354I157*
X16693Y5512J158*
X16535Y5669I158*
X16378Y5512J157*
G01Y6033*
G02X16408Y6063I30*
G01X16772*
Y5906*
G03X16929Y5748I157*
X17087Y5906J158*
X16929Y6063I158*
X16772Y5906J157*
G01Y6403*
G02X16782Y6426I30*
G03X16793Y6436I128J149*
X16843Y6522I139J139*
G02X16872Y6544I29J8*
X16881Y6543J30*
G03X16929Y6535I48J150*
X17087Y6693J158*
X16929Y6850I158*
X16888Y6845J157*
G02X16880Y6844I8J29*
X16850Y6874J30*
G01Y7530*
G03X16776Y7784I472*
G02X16772Y7800I26J16*
G01Y8373*
G02X16783Y8397I30*
G03X16804Y8416I146J186*
G01X16806Y8418*
G03X16847Y8489I111J111*
G02X16876Y8512I29J7*
X16885Y8510J30*
G03X16929Y8504I44J151*
X17087Y8661J157*
X16929Y8819I158*
X16822Y8777J158*
G02X16802Y8769I20J22*
X16772Y8799J30*
G01Y8918*
G02X16802Y8948I30*
X16822Y8940J30*
G03X16929Y8898I107J115*
X17087Y9055J157*
X16929Y9213I158*
X16822Y9171J158*
G02X16802Y9163I20J22*
X16772Y9193J30*
G01Y9311*
G02X16802Y9341I30*
X16822Y9333J30*
G03X16929Y9291I107J116*
X17087Y9449J158*
X16929Y9606I158*
X16822Y9564J157*
G02X16802Y9556I20J22*
X16772Y9586J30*
G01Y10099*
G02X16802Y10129I30*
X16822Y10121J30*
G03X16929Y10079I107J115*
X17087Y10236J157*
X16929Y10394I158*
X16822Y10352J158*
G02X16802Y10344I20J22*
X16772Y10374J30*
G01Y10492*
G02X16802Y10522I30*
X16822Y10514J30*
G03X16929Y10472I107J116*
X17087Y10630J158*
X16929Y10787I158*
X16822Y10745J157*
G02X16802Y10737I20J22*
X16772Y10767J30*
G01Y10886*
G02X16802Y10916I30*
X16822Y10908J30*
G03X16929Y10866I107J116*
X17087Y11024J158*
X16929Y11181I158*
X16822Y11139J157*
G02X16802Y11131I20J22*
X16772Y11161J30*
G01Y11280*
G02X16802Y11310I30*
X16822Y11302J30*
G03X16929Y11260I107J115*
X17087Y11417J157*
X16929Y11575I158*
X16822Y11533J158*
G02X16802Y11525I20J22*
X16772Y11555J30*
G01Y11674*
G02X16802Y11704I30*
X16822Y11696J30*
G03X16929Y11654I107J115*
X17087Y11811J157*
X16929Y11969I158*
X16822Y11926J158*
G02X16802Y11918I20J22*
X16772Y11948J30*
G01Y12067*
G02X16802Y12097I30*
X16822Y12089J30*
G03X16929Y12047I107J116*
X17087Y12205J158*
X16929Y12362I158*
X16822Y12320J157*
G02X16802Y12312I20J22*
X16772Y12342J30*
G01Y12411*
G02X16802Y12441I30*
G01X17165*
Y8268*
G03X17323Y8110I158*
X17480Y8268J158*
X17323Y8425I157*
X17165Y8268J157*
G01Y9449*
G03X17323Y9291I158*
X17480Y9449J158*
X17323Y9606I157*
X17165Y9449J157*
G01Y9843*
G03X17323Y9685I158*
X17480Y9843J158*
X17323Y10000I157*
X17165Y9843J157*
G01Y10236*
G03X17323Y10079I158*
X17480Y10236J157*
X17323Y10394I157*
X17165Y10236J158*
G01Y10630*
G03X17323Y10472I158*
X17480Y10630J158*
X17323Y10787I157*
X17165Y10630J157*
G01Y11024*
G03X17323Y10866I158*
X17480Y11024J158*
X17323Y11181I157*
X17165Y11024J157*
G01Y12441*
X17953*
Y9449*
G03X18110Y9291I157*
X18268Y9449J158*
X18110Y9606I158*
X17953Y9449J157*
G01Y11417*
G03X18110Y11260I157*
X18268Y11417J157*
X18110Y11575I158*
X17953Y11417J158*
G01Y12441*
X18346*
Y10236*
G03X18504Y10079I158*
X18661Y10236J157*
X18504Y10394I157*
X18346Y10236J158*
G01Y10630*
G03X18504Y10472I158*
X18661Y10630J158*
X18504Y10787I157*
X18346Y10630J157*
G01Y11024*
G03X18504Y10866I158*
X18661Y11024J158*
X18504Y11181I157*
X18346Y11024J157*
G01Y11417*
G03X18504Y11260I158*
X18661Y11417J157*
X18504Y11575I157*
X18346Y11417J158*
G01Y11811*
G03X18504Y11654I158*
X18661Y11811J157*
X18504Y11969I157*
X18346Y11811J158*
G01Y12441*
X18825*
G02X18854Y12421J30*
G03X18864Y12394I384J140*
G02X18867Y12382I27J12*
X18847Y12354I30*
G03X18740Y12205I51J149*
X18898Y12047I158*
X18939Y12053J158*
G02X18946Y12054I7J29*
X18976Y12024J30*
G01Y11992*
G02X18946Y11962I30*
X18939Y11963J30*
G03X18898Y11969I41J152*
X18740Y11811J158*
X18898Y11654I158*
X18939Y11659J157*
G02X18946Y11660I7J29*
X18976Y11630J30*
G01Y11598*
G02X18946Y11568I30*
X18939Y11569J30*
G03X18898Y11575I41J152*
X18740Y11417J158*
X18898Y11260I158*
X18939Y11265J157*
G02X18946Y11266I7J29*
X18976Y11236J30*
G01Y10811*
G02X18946Y10781I30*
X18939Y10782J30*
G03X18898Y10787I41J152*
X18740Y10630J157*
X18898Y10472I158*
X18939Y10478J158*
G02X18946Y10479I7J29*
X18976Y10449J30*
G01Y10417*
G02X18946Y10387I30*
X18939Y10388J30*
G03X18898Y10394I41J152*
X18740Y10236J158*
X18898Y10079I158*
X18939Y10084J157*
G02X18946Y10085I7J29*
X18976Y10055J30*
G01Y10024*
G02X18946Y9994I30*
X18939Y9995J30*
G03X18898Y10000I41J152*
X18740Y9843J157*
X18898Y9685I158*
X18939Y9690J158*
G02X18946Y9691I7J29*
X18976Y9661J30*
G01Y9630*
G02X18946Y9600I30*
X18939Y9601J30*
G03X18898Y9606I41J152*
X18740Y9449J157*
X18743Y9418I158*
G02X18744Y9412I29J6*
X18734Y9390I30*
G01X17923Y8656*
G02X17903Y8648I20J22*
X17873Y8675J30*
G03X17717Y8819I156J14*
X17559Y8661J158*
X17717Y8504I158*
X17724J157*
G01X17726*
G02X17756Y8474J30*
G01Y7353*
G02X17726Y7323I30*
G01X17205*
Y7202*
G02X17198Y7183I30*
G03X17165Y7087I125J96*
X17198Y6990I158*
G02X17205Y6972I23J18*
G01Y6808*
G02X17198Y6789I30*
G03X17165Y6693I125J96*
G01Y4331*
G03X17323Y4173I158*
X17480Y4331J158*
X17323Y4488I157*
X17165Y4331J157*
G01Y4724*
G03X17323Y4567I158*
X17480Y4724J157*
X17323Y4882I157*
X17165Y4724J158*
G01Y5512*
G03X17323Y5354I158*
X17480Y5512J158*
X17323Y5669I157*
X17165Y5512J157*
G01Y5906*
G03X17323Y5748I158*
X17480Y5906J158*
X17323Y6063I157*
X17165Y5906J157*
G01Y6693*
G03X17198Y6596I158*
G02X17205Y6578I23J18*
G01Y6417*
X17520*
Y6742*
G02X17550Y6772I30*
G01X17559*
Y3543*
G03X17717Y3386I158*
X17874Y3543J157*
X17717Y3701I157*
X17559Y3543J158*
G01Y4331*
G03X17717Y4173I158*
X17874Y4331J158*
X17717Y4488I157*
X17559Y4331J157*
G01Y5906*
G03X17717Y5748I158*
X17874Y5906J158*
X17717Y6063I157*
X17559Y5906J157*
G01Y6772*
X17953*
Y3543*
G03X18015Y3418I157*
G01Y2804*
G03X18172Y2646I157*
X18288Y2697J158*
G02X18310Y2707I22J20*
X18332Y2697J30*
G03X18448Y2646I116J107*
X18605Y2804J158*
X18448Y2961I157*
X18332Y2911J157*
G02X18310Y2901I22J20*
X18288Y2911J30*
G03X18172Y2961I116J107*
X18015Y2804J157*
G01Y3418*
G03X18110Y3386I95J125*
X18268Y3543J157*
X18110Y3701I158*
X17953Y3543J158*
G01Y4331*
G03X18110Y4173I157*
X18268Y4331J158*
X18110Y4488I158*
X17953Y4331J157*
G01Y4724*
G03X18110Y4567I157*
X18268Y4724J157*
X18110Y4882I158*
X17953Y4724J158*
G01Y5906*
G03X18110Y5748I157*
X18268Y5906J158*
X18110Y6063I158*
X17953Y5906J157*
G01Y6772*
X18346*
Y4331*
G03X18504Y4173I158*
X18661Y4331J158*
X18504Y4488I157*
X18346Y4331J157*
G01Y4724*
G03X18504Y4567I158*
X18661Y4724J157*
X18504Y4882I157*
X18346Y4724J158*
G01Y5118*
G03X18504Y4961I158*
X18661Y5118J157*
X18645Y5188I157*
X18633Y5208I141J70*
X18504Y5276I129J90*
X18346Y5118J158*
G01Y5906*
G03X18504Y5748I158*
X18661Y5906J158*
X18504Y6063I157*
X18346Y5906J157*
G01Y6772*
X18740*
Y3937*
G03X18839Y3791I158*
G01Y2777*
G03X18996Y2620I157*
X19154Y2777J157*
X18996Y2935I158*
X18839Y2777J158*
G01Y3791*
G03X18898Y3780I59J146*
X19055Y3937J157*
X18898Y4094I157*
X18740Y3937J157*
G01Y4331*
G03X18898Y4173I158*
X19055Y4331J158*
X18898Y4488I157*
X18740Y4331J157*
G01Y4724*
G03X18898Y4567I158*
X19055Y4724J157*
X18898Y4882I157*
X18740Y4724J158*
G01Y5118*
G03X18898Y4961I158*
X19055Y5118J157*
X19039Y5188I157*
X19027Y5208I141J70*
X18898Y5276I129J90*
X18740Y5118J158*
G01Y5906*
G03X18898Y5748I158*
X19055Y5906J158*
X18898Y6063I157*
X18740Y5906J157*
G01Y6299*
G03X18898Y6142I158*
X19055Y6299J157*
X18898Y6457I157*
X18740Y6299J158*
G01Y6772*
X19110*
G02X19140Y6742J30*
X19139Y6734I30*
G03X19134Y6693I152J41*
G01Y3543*
G03X19291Y3386I157*
X19393Y3423J157*
G01Y2804*
G03X19550Y2646I157*
X19666Y2697J158*
G02X19688Y2707I22J20*
X19710Y2697J30*
G03X19826Y2646I116J107*
X19958Y2718J158*
G02X19983Y2732I25J16*
X20008Y2718J30*
G03X20141Y2646I133J86*
X20256Y2697J158*
G02X20278Y2707I22J20*
X20301Y2697J30*
G03X20416Y2646I115J107*
X20574Y2804J158*
X20416Y2961I158*
X20301Y2911J157*
G02X20279Y2901I22J20*
X20256Y2911J30*
G03X20141Y2961I115J107*
X20008Y2889J157*
G02X19983Y2876I25J17*
X19958Y2889J30*
G03X19826Y2961I132J85*
X19710Y2911J157*
G02X19688Y2901I22J20*
X19666Y2911J30*
G03X19550Y2961I116J107*
X19393Y2804J157*
G01Y3423*
G03X19449Y3543I102J120*
X19291Y3701I158*
X19134Y3543J158*
G01Y3937*
G03X19291Y3780I157*
X19449Y3937J157*
X19291Y4094I158*
X19134Y3937J157*
G01Y4331*
G03X19291Y4173I157*
X19449Y4331J158*
X19291Y4488I158*
X19134Y4331J157*
G01Y4724*
G03X19291Y4567I157*
X19449Y4724J157*
X19291Y4882I158*
X19134Y4724J158*
G01Y5118*
G03X19291Y4961I157*
X19449Y5118J157*
X19433Y5188I158*
X19421Y5208I142J70*
X19291Y5276I130J90*
X19134Y5118J158*
G01Y5512*
G03X19291Y5354I157*
X19449Y5512J158*
X19291Y5669I158*
X19134Y5512J157*
G01Y5906*
G03X19291Y5748I157*
X19449Y5906J158*
X19291Y6063I158*
X19134Y5906J157*
G01Y6299*
G03X19291Y6142I157*
X19449Y6299J157*
X19291Y6457I158*
X19134Y6299J158*
G01Y6693*
G03X19291Y6535I157*
X19449Y6693J158*
X19443Y6734I158*
G02X19442Y6742I29J8*
X19472Y6772I30*
G01X19898*
G02X19928Y6742J30*
X19927Y6734I30*
G03X19921Y6693I152J41*
G01Y3543*
G03X20079Y3386I158*
X20236Y3543J157*
X20079Y3701I157*
X19921Y3543J158*
G01Y3937*
G03X20079Y3780I158*
X20236Y3937J157*
X20079Y4094I157*
X19921Y3937J157*
G01Y4331*
G03X20079Y4173I158*
X20236Y4331J158*
X20079Y4488I157*
X19921Y4331J157*
G01Y4724*
G03X20079Y4567I158*
X20236Y4724J157*
X20079Y4882I157*
X19921Y4724J158*
G01Y5118*
G03X20079Y4961I158*
X20236Y5118J157*
X20220Y5188I157*
X20208Y5208I141J70*
X20079Y5276I129J90*
X19921Y5118J158*
G01Y5512*
G03X20079Y5354I158*
X20236Y5512J158*
X20079Y5669I157*
X19921Y5512J157*
G01Y5906*
G03X20079Y5748I158*
X20236Y5906J158*
X20079Y6063I157*
X19921Y5906J157*
G01Y6299*
G03X20079Y6142I158*
X20236Y6299J157*
X20079Y6457I157*
X19921Y6299J158*
G01Y6693*
G03X20079Y6535I158*
X20236Y6693J158*
X20231Y6734I157*
G02X20230Y6742I29J8*
X20260Y6772I30*
G01X20291*
G02X20321Y6742J30*
X20320Y6734I30*
G03X20315Y6693I152J41*
G01Y4331*
G03X20472Y4173I157*
X20630Y4331J158*
X20472Y4488I158*
X20315Y4331J157*
G01Y4724*
G03X20472Y4567I157*
X20630Y4724J157*
X20472Y4882I158*
X20315Y4724J158*
G01Y5906*
G03X20472Y5748I157*
X20630Y5906J158*
X20472Y6063I158*
X20315Y5906J157*
G01Y6299*
G03X20472Y6142I157*
X20630Y6299J157*
X20472Y6457I158*
X20315Y6299J158*
G01Y6693*
G03X20472Y6535I157*
X20630Y6693J158*
X20472Y6850I158*
X20370Y6813J157*
G02X20351Y6805I19J22*
X20321Y6835J30*
G01Y6871*
G02X20330Y6892I30*
G01X20348Y6910*
G03X20367Y6934I112J111*
G02X20392Y6947I25J17*
X20405Y6944J30*
G03X20472Y6929I67J143*
X20630Y7087J158*
X20472Y7244I158*
X20431Y7239J157*
G02X20424Y7238I7J29*
X20394Y7268J30*
G01Y7299*
G02X20424Y7329I30*
X20431Y7328J30*
G03X20472Y7323I41J152*
X20630Y7480J157*
X20472Y7638I158*
X20431Y7632J158*
G02X20424Y7631I7J29*
X20394Y7661J30*
G01Y8087*
G02X20424Y8117I30*
X20431Y8116J30*
G03X20472Y8110I41J152*
X20630Y8268J158*
X20472Y8425I158*
X20431Y8420J157*
G02X20424Y8419I7J29*
X20394Y8449J30*
G01Y8480*
G02X20424Y8510I30*
X20431Y8509J30*
G03X20472Y8504I41J152*
X20630Y8661J157*
X20472Y8819I158*
X20431Y8813J158*
G02X20424Y8812I7J29*
X20394Y8842J30*
G01Y8874*
G02X20424Y8904I30*
X20431Y8903J30*
G03X20472Y8898I41J152*
X20630Y9055J157*
X20472Y9213I158*
X20431Y9207J158*
G02X20424Y9206I7J29*
X20394Y9236J30*
G01Y9268*
G02X20424Y9298I30*
X20431Y9297J30*
G03X20472Y9291I41J152*
X20630Y9449J158*
X20472Y9606I158*
X20431Y9601J157*
G02X20424Y9600I7J29*
X20394Y9630J30*
G01Y9661*
G02X20424Y9691I30*
X20431Y9690J30*
G03X20472Y9685I41J153*
X20630Y9843J158*
X20472Y10000I158*
X20431Y9995J157*
G02X20424Y9994I7J29*
X20394Y10024J30*
G01Y10055*
G02X20424Y10085I30*
X20431Y10084J30*
G03X20472Y10079I41J152*
X20630Y10236J157*
X20472Y10394I158*
X20431Y10388J158*
G02X20424Y10387I7J29*
X20394Y10417J30*
G01Y11630*
G02X20424Y11660I30*
X20431Y11659J30*
G03X20472Y11654I41J152*
X20630Y11811J157*
X20625Y11852I158*
G02X20623Y11860I28J8*
X20653Y11890I30*
G01X20709*
Y3543*
G03X20866Y3386I157*
X21024Y3543J157*
X20866Y3701I158*
X20709Y3543J158*
G01Y3937*
G03X20866Y3780I157*
X21024Y3937J157*
X20866Y4094I158*
X20709Y3937J157*
G01Y5118*
G03X20866Y4961I157*
X21024Y5118J157*
G01Y5120*
G03X20996Y5208I158J2*
X20866Y5276I130J90*
X20709Y5118J158*
G01Y5512*
G03X20866Y5354I157*
X21024Y5512J158*
X20866Y5669I158*
X20709Y5512J157*
G01Y5906*
G03X20866Y5748I157*
X21024Y5906J158*
X20866Y6063I158*
X20709Y5906J157*
G01Y6299*
G03X20866Y6142I157*
X21024Y6299J157*
X20866Y6457I158*
X20709Y6299J158*
G01Y6693*
G03X20866Y6535I157*
X21024Y6693J158*
X20866Y6850I158*
X20709Y6693J157*
G01Y7087*
G03X20866Y6929I157*
X21024Y7087J158*
X20866Y7244I158*
X20709Y7087J157*
G01Y7480*
G03X20866Y7323I157*
X21024Y7480J157*
X20866Y7638I158*
X20709Y7480J158*
G01Y8268*
G03X20866Y8110I157*
X21024Y8268J158*
X20866Y8425I158*
X20709Y8268J157*
G01Y8661*
G03X20866Y8504I157*
X21024Y8661J157*
X20866Y8819I158*
X20709Y8661J158*
G01Y9055*
G03X20866Y8898I157*
X21024Y9055J157*
X20866Y9213I158*
X20709Y9055J158*
G01Y9449*
G03X20866Y9291I157*
X21024Y9449J158*
X20866Y9606I158*
X20709Y9449J157*
G01Y9843*
G03X20866Y9685I157*
X21024Y9843J158*
X20866Y10000I158*
X20709Y9843J157*
G01Y10236*
G03X20866Y10079I157*
X21024Y10236J157*
X20866Y10394I158*
X20709Y10236J158*
G01Y11890*
X21083*
G03X21102J396*
G01Y3543*
G03X21260Y3386I158*
X21417Y3543J157*
X21260Y3701I157*
X21102Y3543J158*
G01Y3937*
G03X21260Y3780I158*
X21417Y3937J157*
X21260Y4094I157*
X21102Y3937J157*
G01Y4331*
G03X21260Y4173I158*
X21417Y4331J158*
X21260Y4488I157*
X21102Y4331J157*
G01Y4724*
G03X21260Y4567I158*
X21417Y4724J157*
X21260Y4882I157*
X21102Y4724J158*
G01Y5118*
G03X21260Y4961I158*
X21417Y5118J157*
G01Y5120*
G03X21389Y5208I157J2*
X21260Y5276I129J90*
X21130Y5208J158*
X21102Y5120I130J90*
G01Y5118*
Y5512*
G03X21260Y5354I158*
X21417Y5512J158*
X21260Y5669I157*
X21102Y5512J157*
G01Y5906*
G03X21260Y5748I158*
X21417Y5906J158*
X21260Y6063I157*
X21102Y5906J157*
G01Y6299*
G03X21260Y6142I158*
X21417Y6299J157*
X21260Y6457I157*
X21102Y6299J158*
G01Y6693*
G03X21260Y6535I158*
X21417Y6693J158*
X21260Y6850I157*
X21102Y6693J157*
G01Y7087*
G03X21260Y6929I158*
X21417Y7087J158*
X21260Y7244I157*
X21102Y7087J157*
G01Y7480*
G03X21260Y7323I158*
X21417Y7480J157*
X21260Y7638I157*
X21102Y7480J158*
G01Y8268*
G03X21260Y8110I158*
X21417Y8268J158*
X21260Y8425I157*
X21102Y8268J157*
G01Y8661*
G03X21260Y8504I158*
X21417Y8661J157*
X21260Y8819I157*
X21102Y8661J158*
G01Y9055*
G03X21260Y8898I158*
X21417Y9055J157*
X21260Y9213I157*
X21102Y9055J158*
G01Y9449*
G03X21260Y9291I158*
X21417Y9449J158*
X21260Y9606I157*
X21102Y9449J157*
G01Y9843*
G03X21260Y9685I158*
X21417Y9843J158*
X21260Y10000I157*
X21102Y9843J157*
G01Y10236*
G03X21260Y10079I158*
X21417Y10236J157*
X21260Y10394I157*
X21102Y10236J158*
G01Y11024*
G03X21260Y10866I158*
X21417Y11024J158*
X21260Y11181I157*
X21102Y11024J157*
G01Y11890*
G03X21363Y12006I19J396*
G01X21364Y12007*
G02X21496Y12073I167J168*
G01Y3543*
G03X21654Y3386I158*
X21811Y3543J157*
X21654Y3701I157*
X21496Y3543J158*
G01Y3937*
G03X21654Y3780I158*
X21811Y3937J157*
X21654Y4094I157*
X21496Y3937J157*
G01Y5118*
G03X21654Y4961I158*
X21811Y5118J157*
X21795Y5188I157*
X21783Y5208I141J70*
X21654Y5276I129J90*
X21524Y5208J158*
X21496Y5120I130J90*
G01Y5118*
Y5512*
G03X21654Y5354I158*
X21811Y5512J158*
X21654Y5669I157*
X21496Y5512J157*
G01Y5906*
G03X21654Y5748I158*
X21811Y5906J158*
X21654Y6063I157*
X21496Y5906J157*
G01Y7087*
G03X21654Y6929I158*
X21811Y7087J158*
X21654Y7244I157*
X21496Y7087J157*
G01Y7480*
G03X21654Y7323I158*
X21811Y7480J157*
X21654Y7638I157*
X21496Y7480J158*
G01Y8268*
G03X21654Y8110I158*
X21811Y8268J158*
X21654Y8425I157*
X21496Y8268J157*
G01Y8661*
G03X21654Y8504I158*
X21811Y8661J157*
X21654Y8819I157*
X21496Y8661J158*
G01Y9055*
G03X21654Y8898I158*
X21811Y9055J157*
X21654Y9213I157*
X21496Y9055J158*
G01Y9449*
G03X21654Y9291I158*
X21811Y9449J158*
X21654Y9606I157*
X21496Y9449J157*
G01Y9843*
G03X21654Y9685I158*
X21811Y9843J158*
X21654Y10000I157*
X21496Y9843J157*
G01Y11024*
G03X21654Y10866I158*
X21811Y11024J158*
X21654Y11181I157*
X21496Y11024J157*
G01Y12073*
G02X21531Y12076I35J234*
G01X21743*
G03X21890Y12101J435*
G01Y4331*
G03X22047Y4173I157*
X22205Y4331J158*
X22047Y4488I158*
X21890Y4331J157*
G01Y4724*
G03X22047Y4567I157*
X22205Y4724J157*
X22047Y4882I158*
X21890Y4724J158*
G01Y5118*
G03X22047Y4961I157*
X22205Y5118J157*
X22188Y5188I158*
X22177Y5208I141J70*
X22047Y5276I130J90*
X21890Y5118J158*
G01Y5512*
G03X22047Y5354I157*
X22205Y5512J158*
X22047Y5669I158*
X21890Y5512J157*
G01Y5906*
G03X22047Y5748I157*
X22205Y5906J158*
X22047Y6063I158*
X21890Y5906J157*
G01Y8661*
G03X22047Y8504I157*
X22205Y8661J157*
X22047Y8819I158*
X21890Y8661J158*
G01Y12101*
G03X22051Y12203I147J410*
G01X22063Y12215*
G02X22230Y12285I167J167*
G01X22283*
Y3543*
G03X22441Y3386I158*
X22598Y3543J157*
X22441Y3701I157*
X22283Y3543J158*
G01Y3937*
G03X22441Y3780I158*
X22598Y3937J157*
X22441Y4094I157*
X22283Y3937J157*
G01Y4331*
G03X22441Y4173I158*
X22598Y4331J158*
X22441Y4488I157*
X22283Y4331J157*
G01Y4724*
G03X22441Y4567I158*
X22598Y4724J157*
X22441Y4882I157*
X22283Y4724J158*
G01Y5118*
Y5116*
G03X22312Y5028I158J2*
X22441Y4961I129J90*
X22598Y5118J157*
X22582Y5188I157*
X22570Y5208I141J70*
X22441Y5276I129J90*
X22283Y5118J158*
G01Y5906*
G03X22441Y5748I158*
X22598Y5906J158*
X22441Y6063I157*
X22283Y5906J157*
G01Y7087*
G03X22441Y6929I158*
X22598Y7087J158*
X22441Y7244I157*
X22283Y7087J157*
G01Y11417*
G03X22441Y11260I158*
X22598Y11417J157*
X22441Y11575I157*
X22283Y11417J158*
G01Y12285*
X22677*
Y3543*
G03X22835Y3386I158*
X22936Y3423J157*
G01Y2804*
G03X23093Y2646I157*
X23209Y2697J158*
G02X23231Y2707I22J20*
X23253Y2697J30*
G03X23369Y2646I116J107*
X23527Y2804J158*
X23369Y2961I158*
X23253Y2911J157*
G02X23231Y2901I22J20*
X23209Y2911J30*
G03X23093Y2961I116J107*
X22936Y2804J157*
G01Y3423*
G03X22992Y3543I101J120*
X22835Y3701I157*
X22677Y3543J158*
G01Y3937*
G03X22835Y3780I158*
X22992Y3937J157*
X22835Y4094I157*
X22677Y3937J157*
G01Y4331*
G03X22835Y4173I158*
X22992Y4331J158*
X22835Y4488I157*
X22677Y4331J157*
G01Y4724*
G03X22835Y4567I158*
X22992Y4724J157*
X22835Y4882I157*
X22677Y4724J158*
G01Y5906*
G03X22835Y5748I158*
X22992Y5906J158*
X22835Y6063I157*
X22677Y5906J157*
G01Y6299*
G03X22835Y6142I158*
X22992Y6299J157*
X22835Y6457I157*
X22677Y6299J158*
G01Y10236*
G03X22835Y10079I158*
X22992Y10236J157*
X22835Y10394I157*
X22677Y10236J158*
G01Y12285*
X23071*
Y3543*
G03X23228Y3386I157*
X23386Y3543J157*
X23228Y3701I158*
X23071Y3543J158*
G01Y3937*
G03X23228Y3780I157*
X23386Y3937J157*
X23228Y4094I158*
X23071Y3937J157*
G01Y4331*
G03X23228Y4173I157*
X23386Y4331J158*
X23228Y4488I158*
X23071Y4331J157*
G01Y4724*
G03X23228Y4567I157*
X23386Y4724J157*
X23228Y4882I158*
X23071Y4724J158*
G01Y5906*
G03X23228Y5748I157*
X23386Y5906J158*
X23228Y6063I158*
X23071Y5906J157*
G01Y9055*
G03X23228Y8898I157*
X23386Y9055J157*
X23228Y9213I158*
X23071Y9055J158*
G01Y10630*
G03X23228Y10472I157*
X23386Y10630J158*
X23228Y10787I158*
X23071Y10630J157*
G01Y12285*
X23315*
G02X23451Y12228J192*
G03X23698Y12126I247J247*
G01X23750*
G02X23780Y12096J30*
G01Y11948*
G02X23750Y11918I30*
X23729Y11926J30*
G03X23622Y11969I107J115*
X23465Y11811J158*
G01Y3543*
G03X23622Y3386I157*
X23723Y3423J157*
G01Y2804*
G03X23881Y2646I158*
X23997Y2697J158*
G02X24019Y2707I22J20*
X24041Y2697J30*
G03X24157Y2646I116J107*
X24314Y2804J158*
X24157Y2961I157*
X24041Y2911J157*
G02X24019Y2901I22J20*
X23997Y2911J30*
G03X23881Y2961I116J107*
X23723Y2804J157*
G01Y3423*
G03X23780Y3543I101J120*
X23622Y3701I158*
X23465Y3543J158*
G01Y7480*
G03X23622Y7323I157*
X23780Y7480J157*
X23622Y7638I158*
X23465Y7480J158*
G01Y11811*
G03X23622Y11654I157*
X23729Y11696J157*
G02X23750Y11704I21J22*
X23780Y11674J30*
G01Y9213*
X23858*
Y3937*
G03X23996Y3781I158*
G01Y3425*
G03X24154Y3268I158*
X24311Y3425J157*
X24154Y3583I157*
X23996Y3425J158*
G01Y3781*
G03X24016Y3780I20J156*
X24173Y3937J157*
X24016Y4094I157*
X23858Y3937J157*
G01Y6299*
G03X24016Y6142I158*
X24173Y6299J157*
X24016Y6457I157*
X23858Y6299J158*
G01Y9213*
X24580*
Y4370*
G03X24631Y4254I157*
G02X24640Y4232I21J22*
X24631Y4210I30*
G03X24580Y4094I106J116*
X24631Y3979I157*
G02X24640Y3957I21J22*
X24631Y3935I30*
G03X24580Y3819I106J116*
X24692Y3668I157*
G01Y3425*
G03X24850Y3268I158*
X25007Y3425J157*
X24862Y3582I157*
X24850Y3583I12J157*
X24692Y3425J158*
G01Y3668*
G03X24737Y3661I45J151*
X24895Y3819J158*
X24844Y3935I158*
G02X24835Y3957I21J22*
X24844Y3979I30*
G03X24895Y4094I107J115*
X24844Y4210I158*
G02X24835Y4232I21J22*
X24844Y4254I30*
G03X24895Y4370I107J116*
X24737Y4528I158*
X24580Y4370J158*
G01Y9213*
X24961*
Y6083*
G03X25118Y5925I157*
X25276Y6083J158*
X25118Y6240I158*
X24961Y6083J157*
G01Y9213*
X25118*
Y8137*
G03X25276Y7980I158*
X25433Y8137J157*
X25276Y8295I157*
X25118Y8137J158*
G01Y9213*
X25512*
Y6083*
G03X25669Y5925I157*
X25827Y6083J158*
X25669Y6240I158*
X25512Y6083J157*
G01Y9213*
X25869*
Y4724*
G03X26027Y4567I158*
X26184Y4724J157*
X26027Y4882I157*
X25869Y4724J158*
G01Y5512*
G03X26027Y5354I158*
X26184Y5512J158*
X26027Y5669I157*
X25869Y5512J157*
G01Y6299*
G03X26027Y6142I158*
X26184Y6299J157*
X26027Y6457I157*
X25869Y6299J158*
G01Y9213*
X25984*
Y13513*
G02X26014Y13543I30*
G01X26238*
Y11893*
G03X26395Y11736I157*
X26553Y11893J157*
X26395Y12051I158*
X26238Y11893J158*
G01Y13543*
X26565*
Y9941*
G03X26722Y9784I157*
X26880Y9941J157*
X26722Y10099I158*
X26565Y9941J158*
G01Y13543*
X26937*
G02X26967Y13513J30*
X26959Y13493I30*
G03X26917Y13386I115J107*
G01Y11417*
G03X26949Y11322I157*
G01Y9924*
G03X27106Y9767I157*
X27261Y9894J157*
G01Y7874*
G03Y7867I157*
G01Y7382*
G03X27419Y7224I158*
X27576Y7382J158*
X27419Y7539I157*
X27261Y7382J157*
G01Y7867*
G03X27418Y7717I157J7*
X27576Y7874J157*
X27418Y8031I158*
X27261Y7874J157*
G01Y9894*
G03X27264Y9924I155J30*
X27106Y10082I158*
X26949Y9924J158*
G01Y11322*
G03X27074Y11260I125J95*
X27232Y11417J157*
X27074Y11575I158*
X26917Y11417J158*
G01Y12402*
G03X27074Y12244I157*
X27232Y12402J158*
X27074Y12559I158*
X26917Y12402J157*
G01Y13386*
G03X27074Y13228I157*
X27232Y13386J158*
X27190Y13493I158*
G02X27182Y13513I22J20*
X27212Y13543I30*
G01X27564*
G02X27581Y13537J30*
G03X27663Y13481I765J1030*
G02X27677Y13456I16J25*
G01Y9838*
G02X27647Y9808I30*
X27630Y9814J30*
G03X27539Y9843I91J129*
X27382Y9685J158*
X27539Y9528I157*
X27630Y9556J157*
G02X27647Y9562I17J24*
X27677Y9532J30*
G01Y9368*
G02X27647Y9338I30*
X27639Y9339J30*
G03X27559Y9350I80J284*
X27264Y9055J295*
X27559Y8760I295*
X27639Y8771J295*
G02X27647Y8772I8J29*
X27677Y8742J30*
G01Y5431*
G02X27647Y5401I30*
X27639Y5402J30*
G03X27559Y5413I80J284*
X27264Y5118J295*
X27559Y4823I295*
X27639Y4834J295*
G02X27647Y4835I8J29*
X27677Y4805J30*
G01Y2392*
G02X27647Y2362I30*
G01X11530*
G02X11518Y2365J30*
G03X11024Y2464I494J1184*
X10529Y2365J1283*
G02X10517Y2362I12J27*
G01X7904*
G02X7874Y2392J30*
G01Y14310*
G02X7879Y14326I30*
G03X7903Y14409I134J83*
X7879Y14493I158*
G02X7874Y14509I25J16*
G01Y15097*
X18804Y8236D02*
X18991D01*
X18917Y8019*
X18878*
X18804Y8236*
X18991Y7512D02*
X18804D01*
X18878Y7729*
X18917*
X18991Y7512*
G37*
G54D10*
X11024Y1181D03*
Y14567D03*
X28346D03*
X28347Y1181D03*
G54D11*
X2558Y-549D02*
X2245D01*
X2469Y-1033*
G54D12*
X13847Y11684D02*
Y13892D01*
G02X13962Y14171I394*
G01X13926Y11684D02*
Y13892D01*
G02X14018Y14115I315*
G01X13949Y11437D02*
G02X13847Y11684I248J247D01*
G01X13962Y14171D02*
X14767Y14975D01*
X14005Y11493D02*
G02X13926Y11684I192J191D01*
G01X14006Y7214D02*
Y11301D01*
G03X13949Y11437I193*
G01X14018Y14115D02*
X14823Y14920D01*
X14085Y7214D02*
Y11301D01*
G03X14005Y11493I272*
G01X14121Y6936D02*
G02X14006Y7214I279J278D01*
G01X14177Y6991D02*
G02X14085Y7214I223J223D01*
G01X14606Y7170D02*
Y13085D01*
G02X14722Y13363I394*
G01X14685Y7170D02*
Y13085D01*
G02X14777Y13307I315*
G01X14722Y6892D02*
G02X14606Y7170I278J278D01*
G01X14722Y13363D02*
X14736Y13377D01*
G03X14819Y13578I201J201*
G01X14767Y14975D02*
G02X15045Y15091I278J278D01*
G01X14777Y6948D02*
G02X14685Y7170I223J222D01*
G01X14777Y13307D02*
X14791Y13321D01*
G03X14897Y13578I256J257*
G01X14819D02*
Y14491D01*
G02X15189Y14861I370*
G01X14823Y14920D02*
G02X15045Y15012I222J223D01*
G01X14844Y8474D02*
Y12428D01*
G02X14955Y12696I378*
G01X14879Y6178D02*
X14121Y6936D01*
X14897Y13578D02*
Y14491D01*
G02X15189Y14782I292*
G01X14923Y8474D02*
Y12428D01*
G02X15011Y12640I299*
G01X14934Y6234D02*
X14177Y6991D01*
X14955Y12696D02*
G03X15020Y12852I156J156D01*
G01X14960Y8196D02*
G02X14844Y8474I278J278D01*
G01X15011Y12640D02*
G03X15099Y12852I212J212D01*
G01X15015Y8252D02*
G02X14923Y8474I223J222D01*
G01X15020Y12852D02*
Y13477D01*
G02X15135Y13755I393*
G01X15088Y8607D02*
G03X15143Y8474I188D01*
G01X15088Y12091D02*
Y8607D01*
X15097Y6517D02*
X14722Y6892D01*
X15099Y12852D02*
Y13477D01*
G02X15191Y13699I314*
G01X15118Y7087D02*
G02X15187Y7254I236D01*
G01X15135Y13755D02*
X15529Y14149D01*
X15143Y8474D02*
G03X15262Y8425I119J119D01*
G01X15152Y6573D02*
X14777Y6948D01*
X15157Y6063D02*
G02X14879Y6178J394D01*
G01X15157Y6142D02*
G02X14934Y6234J315D01*
G01X15167Y8607D02*
G03X15199Y8530I109D01*
G01X15167Y12091D02*
Y8607D01*
X15176Y12302D02*
G03X15088Y12091I210J211D01*
G01X15187Y6920D02*
G02X15118Y7087I167J167D01*
G01X15187Y7254D02*
G02X15354Y7323I167J167D01*
G01X15191Y13699D02*
X15585Y14093D01*
X15197Y7087D02*
G02X15243Y7198I157D01*
G01X15199Y8530D02*
G03X15262Y8504I63J63D01*
G01X15217Y12401D02*
Y13067D01*
Y12401D02*
G02X15176Y12302I141D01*
G01X15231Y12246D02*
G03X15167Y12091I155J155D01*
G01X15242Y6457D02*
G02X15097Y6517J205D01*
G01X15242Y6535D02*
G02X15152Y6573J127D01*
G01X15243Y6975D02*
G02X15197Y7087I111J112D01*
G01X15243Y7198D02*
G02X15354Y7244I111J111D01*
G01X15262Y8425D02*
X15302D01*
X15262Y8504D02*
X15302D01*
X15272Y13200D02*
X15815Y13743D01*
X15272Y13200D02*
G03X15217Y13067I132J133D01*
G01X15295Y12401D02*
Y13067D01*
Y12401D02*
G02X15231Y12246I219D01*
G01X15302Y8425D02*
G02X15343Y8414J79D01*
G01X15302Y8504D02*
G03X15343Y8515J79D01*
G01X15302Y6457D02*
G02X15341Y6447J79D01*
G01X15302Y6457D02*
X15242D01*
X15302Y6535D02*
X15242D01*
X15302D02*
G03X15341Y6545J79D01*
G01X15327Y13144D02*
G03X15295Y13067I77J77D01*
G01X15327Y13144D02*
X15871Y13688D01*
X15341Y6447D02*
G02X15354Y6402I65J45D01*
G01X15341Y6545D02*
G03X15354Y6590I65J45D01*
G01X15343Y8414D02*
G02X15354Y8373I67J41D01*
G01X15343Y8515D02*
G03X15354Y8556I67J41D01*
G01Y6850D02*
G02X15466Y6804J157D01*
G01X15354Y6850D02*
G02X15187Y6920J237D01*
G01X15354Y6929D02*
G02X15243Y6975J158D01*
G01X15354Y6929D02*
G02X15521Y6860J236D01*
G01X15354Y7323D02*
X15387D01*
X15354Y7244D02*
X15387D01*
X15354Y8373D02*
Y8268D01*
Y8556D02*
Y8661D01*
Y6402D02*
Y6299D01*
Y6590D02*
Y6693D01*
Y6063D02*
X15157D01*
X15354Y6142D02*
X15157D01*
X15363Y7793D02*
X14960Y8196D01*
X15387Y7244D02*
G02X15442Y7222J79D01*
G01X15387Y7323D02*
G02X15496Y7279J158D01*
G01X15419Y7848D02*
X15015Y8252D01*
X15442Y7222D02*
X15486Y7178D01*
X15453Y7087D02*
X15354D01*
X15466Y6188D02*
G02X15354Y6142I112J111D01*
G01X15466Y6188D02*
G03X15512Y6299I112J111D01*
G01X15466Y6804D02*
X15497Y6773D01*
X15486Y7178D02*
G02X15512Y7132I70J70D01*
G01X15496Y7279D02*
X15497Y7278D01*
X15542Y7233*
X15503Y7105D02*
G02X15453Y7087I50J60D01*
G01X15512Y6693D02*
Y6299D01*
Y6693D02*
Y6727*
Y6693D01*
Y6727D02*
G03X15497Y6773I79D01*
G01X15512Y7132D02*
G02X15503Y7105I59J4D01*
G01X15521Y6132D02*
G02X15354Y6063I167J167D01*
G01X15521Y6860D02*
X15552Y6829D01*
X15529Y14149D02*
G03X15610Y14345I196J196D01*
G01X15542Y7233D02*
X15556Y7219D01*
X15552Y6829D02*
X15556Y6825D01*
Y7219D02*
G02X15583Y7172I72J73D01*
G01X15560Y6820D02*
G03X15556Y6825I127J93D01*
G01X15567Y6178D02*
X15521Y6132D01*
X15583Y7172D02*
X15590Y7144D01*
X15592Y7131*
X15608Y7092*
X15585Y14093D02*
G03X15689Y14345I252J252D01*
G01X15591Y6234D02*
G02X15567Y6178I79D01*
G01X15591Y6299D02*
Y6234D01*
Y6693D02*
Y6299D01*
Y6693D02*
Y6727*
G03X15560Y6820I158D01*
G01X15591Y6727D02*
Y6693D01*
X15602Y7097D02*
X15600Y7099D01*
Y7100*
X15602Y7097*
X15604Y7093*
X15605*
X15602Y7097*
X15605Y7093D02*
X15608Y7092D01*
X15610Y7087*
X15605Y7093*
X15608Y7092D02*
G03X15636Y7087I28J73D01*
G01X15610Y14345D02*
Y14428D01*
G02X15680Y14595I237*
G01X15636Y7087D02*
X15748D01*
X15642Y7677D02*
G02X15363Y7793J394D01*
G01X15642Y7756D02*
G02X15419Y7848J315D01*
G01X15680Y14595D02*
G02X15847Y14664I167J167D01*
G01X15689Y14345D02*
Y14428D01*
G02X15735Y14539I158*
X15847Y14585I112J111*
G01X15815Y13743D02*
G02X16093Y13859I278J278D01*
G01X15847Y14585D02*
X18082D01*
X15847Y14664D02*
X18082D01*
X15871Y13688D02*
G02X16093Y13780I222J223D01*
G01X15906Y8611D02*
G03X16021Y8333I393D01*
G01X15906Y12594D02*
Y8611D01*
X15984D02*
G03X16077Y8389I315D01*
G01X15984Y12594D02*
Y8611D01*
X16021Y8333D02*
X16601Y7753D01*
X16021Y12873D02*
G03X15906Y12594I278J279D01*
G01X16077Y8389D02*
X16656Y7809D01*
X16077Y12817D02*
G03X15984Y12594I222J223D01*
G01X16093Y13780D02*
X18477D01*
X16093Y13859D02*
X18477D01*
X16142Y6201D02*
Y6299D01*
Y6012D02*
Y6004D01*
Y5906*
X16153Y6053D02*
G03X16142Y6012I67J41D01*
G01X16153Y6054D02*
G02X16157Y6056I39J69D01*
G01X16159*
X16153Y6053*
X16160Y6150D02*
G02X16142Y6201I60J51D01*
G01X16188Y6142D02*
G02X16160Y6150I3J59D01*
G01X16189Y7677D02*
X15642D01*
X16189D02*
G02X16299Y7567J110D01*
G01X16189Y7756D02*
G02X16378Y7567J189D01*
G01X16189Y7756D02*
X15642D01*
X16227Y6071D02*
X16200Y6064D01*
X16186Y6062*
X16152Y6052*
X16153Y6054*
X16233Y6167D02*
G02X16188Y6142I70J70D01*
G01X16274Y6097D02*
G02X16227Y6071I73J73D01*
G01X16277Y6212D02*
X16233Y6167D01*
X16277Y6212D02*
G03X16299Y6267I57J55D01*
G01X16288Y6112D02*
X16274Y6097D01*
X16299Y6267D02*
Y7567D01*
Y8543D02*
Y12240D01*
X16333Y6156D02*
X16288Y6112D01*
X16333Y6157D02*
X16334D01*
X16333D02*
Y6156D01*
X16334Y6157D02*
G03X16378Y6267I114J110D01*
G01X16334Y8460D02*
G02X16299Y8543I83J83D01*
G01X16378Y6267D02*
Y7567D01*
Y8543D02*
Y12240D01*
X16389Y8515D02*
G02X16378Y8543I28J28D01*
G01X16417Y8425D02*
G02X16334Y8460J118D01*
G01X16417Y8504D02*
G02X16389Y8515J39D01*
G01X16535Y6402D02*
Y6299D01*
Y6587D02*
Y6693D01*
X16545Y6549D02*
G02X16535Y6587I69J38D01*
G01X16549Y6447D02*
G03X16535Y6402I65J45D01*
G01X16563Y6535D02*
G02X16545Y6549I39J68D01*
G01X16563Y6535D02*
X16587D01*
Y6457D02*
G03X16549Y6447J79D01*
G01X16587Y6457D02*
X16654D01*
X16587Y6535D02*
X16654D01*
X16601Y7753D02*
G02X16693Y7530I223J223D01*
G01X16627Y13479D02*
X16021Y12873D01*
X16637Y8425D02*
X16417D01*
X16637Y8504D02*
X16417D01*
X16654Y6457D02*
G03X16737Y6491J118D01*
G01X16654Y6535D02*
G03X16681Y6547J40D01*
G01X16656Y7809D02*
G02X16772Y7530I278J279D01*
G01X16661Y8661D02*
X16535D01*
X16677Y8660D02*
G03X16661Y8661I16J77D01*
G01X16679Y8655D02*
X16672Y8660D01*
X16678Y8658*
X16677Y8660*
X16681Y6547D02*
G03X16693Y6575I27J28D01*
G01X16683Y13423D02*
X16077Y12817D01*
X16693Y6575D02*
Y7530D01*
Y8527D02*
Y8610D01*
Y8527D02*
G02X16637Y8504I56J56D01*
G01X16693Y8610D02*
G03X16679Y8655I79D01*
G01X16737Y6491D02*
G03X16772Y6575I83J84D01*
G01X16749Y8471D02*
G02X16637Y8425I112J112D01*
G01X16751Y8473D02*
X16749Y8471D01*
X16772Y6575D02*
Y7530D01*
Y8512D02*
Y8527D01*
Y8512D02*
G02X16751Y8473I77J17D01*
G01X16772Y8527D02*
Y8610D01*
G02X16785Y8655I78*
G01X16792Y8660*
X16786Y8658*
X16787Y8660*
G02X16804Y8661I17J77*
G01X16929*
X16905Y13515D02*
G03X16683Y13423J315D01*
G01X16905Y13594D02*
G03X16627Y13479J394D01*
G01X17323Y6798D02*
Y6693D01*
Y6970D02*
Y7087D01*
X17327Y6945D02*
G02X17323Y6970I75J25D01*
G01X17334Y6939D02*
X17330Y6943D01*
X17331Y6942*
X17327Y6945*
X17343Y6850D02*
G03X17323Y6798I59J52D01*
G01X17367Y13228D02*
G03X16378Y12240J988D01*
G01X17367Y13307D02*
G03X16299Y12240J1067D01*
G01X17372Y6850D02*
X17343D01*
X17372Y6929D02*
G02X17334Y6939J79D01*
G01X17611Y15012D02*
X15045D01*
X17611Y15091D02*
X15045D01*
X17778Y15402D02*
X17840Y15325D01*
X17855Y15301*
X17799Y15169D02*
G02X17611Y15091I188J188D01*
G01X17855Y15113D02*
G02X17611Y15012I244J244D01*
G01X17855Y15301D02*
G02X17877Y15258I56J55D01*
G01X17858Y15228D02*
X17799Y15169D01*
X17874Y7480D02*
G03X17943Y7313I236D01*
G01X17874Y8202D02*
Y7480D01*
X17877Y15258D02*
G02X17858Y15228I74J26D01*
G01X17914Y15172D02*
X17855Y15113D01*
X17943Y7313D02*
G03X18110Y7244I167J167D01*
G01X17951Y15232D02*
G02X17914Y15172I148J52D01*
G01X17953Y7480D02*
G03X17999Y7369I157D01*
G01X17953Y8202D02*
Y7480D01*
X17956Y15247D02*
G02X17951Y15232I153J37D01*
G01X17976Y15305D02*
G03X17956Y15247I72J58D01*
G01X17989Y8481D02*
G03X17874Y8202I279J279D01*
G01X17999Y7369D02*
G03X18110Y7323I111J111D01*
G01X18045Y8425D02*
G03X17953Y8202I223J223D01*
G01X18054Y15402D02*
X17993Y15325D01*
X17976Y15305*
X18082Y14664D02*
X18141D01*
X18110Y7244D02*
X18475D01*
X18110Y7323D02*
X18475D01*
X18110Y7480D02*
X18218D01*
X18153Y14572D02*
G03X18082Y14585I71J184D01*
G01X18167Y14401D02*
Y14501D01*
G03X18153Y14572I197*
G01X18168Y14659D02*
G03X18141Y14664I27J74D01*
G01X18194Y14641D02*
X18193D01*
X18192*
X18173Y14654*
X18168Y14659*
X18205Y14631D02*
G03X18194Y14641I55J55D01*
G01X18218Y7480D02*
G03X18259Y7492J79D01*
G01X18244Y14595D02*
X18237Y14599D01*
X18223Y14614*
X18205Y14631*
X18251Y14591D02*
G02X18259Y14584I48J62D01*
G01X18251Y14591D02*
G02X18244Y14595I34J71D01*
G01X18259Y7492D02*
G03X18268Y7507I63J48D01*
G01X18259Y14584D02*
X18442Y14401D01*
X18268Y8325D02*
G02X18297Y8394I98D01*
G01X18268Y7507D02*
Y7523D01*
Y8325*
X18297Y8394D02*
X18661Y8759D01*
X18345Y14782D02*
X15189D01*
X18345Y14861D02*
X15189D01*
X18346Y8325D02*
G02X18352Y8339I20D01*
G01X18346Y7523D02*
Y8325D01*
X18352Y8339D02*
X18717Y8704D01*
X18354Y7494D02*
G02X18346Y7523I71J34D01*
G01X18398Y7480D02*
G02X18354Y7494J79D01*
G01X18475Y7244D02*
G02X18636Y7178J227D01*
G01X18475Y7323D02*
X18538D01*
X18504Y7480D02*
X18398D01*
X18538Y7323D02*
G02X18647Y7278J153D01*
G01X18568Y14953D02*
G02X18345Y14861I223J223D01*
G01X18602Y7087D02*
X18504D01*
X18623Y14897D02*
G02X18345Y14782I278J279D01*
G01X18647Y7278D02*
X18706Y7219D01*
X18653Y7105D02*
G02X18602Y7087I51J60D01*
G01X18661Y8759D02*
X18777Y8875D01*
X18661Y7132D02*
G02X18653Y7105I59J4D01*
G01X18661Y7132D02*
G03X18636Y7178I95J24D01*
G01X18699Y13951D02*
G02X18477Y13859I222J222D01*
G01X18706Y7219D02*
G02X18733Y7172I73J73D01*
G01X18718Y9209D02*
X17989Y8481D01*
X18733Y7172D02*
X18740Y7144D01*
X18742Y7131*
X18758Y7092*
X18752Y7097D02*
X18754Y7093D01*
X18755*
X18752Y7097D02*
X18750Y7099D01*
Y7100*
X18752Y7097*
X18755Y7093D02*
X18752Y7097D01*
X18755Y7093D02*
X18758Y7092D01*
X18755Y13895D02*
G02X18477Y13780I278J278D01*
G01X18758Y7092D02*
X18759Y7087D01*
X18755Y7093*
X18758Y7092D02*
G03X18785Y7087I27J73D01*
G01X18763Y15402D02*
X18824Y15325D01*
X18839Y15301*
X18773Y9154D02*
X18045Y8425D01*
X18777Y8875D02*
G02X18832Y8898I55J56D01*
G01X18785Y7087D02*
X18898D01*
X18839Y15301D02*
G02X18861Y15258I56J55D01*
G01X18842Y15228D02*
X18568Y14953D01*
X18861Y15258D02*
G02X18842Y15228I74J26D01*
G01X18898Y7784D02*
Y7579D01*
Y7480*
Y7955D02*
Y8169D01*
Y8268*
Y15172D02*
X18623Y14897D01*
X18902Y7930D02*
G02X18898Y7955I74J25D01*
G01X18908Y12561D02*
Y12920D01*
Y12946*
G02X18942Y13029I118*
G01X18909Y7923D02*
X18905Y7928D01*
X18906Y7926*
X18902Y7930*
X18911Y7828D02*
G03X18898Y7784I65J44D01*
G01X18913Y7833D02*
X18912Y7831D01*
X18918Y7833*
X18911Y7828*
X18916Y9291D02*
G03X18718Y9209J280D01*
G01X18916Y9213D02*
G03X18773Y9154J202D01*
G01X18918Y7835D02*
G03X18913Y7833I27J74D01*
G01X18935Y15232D02*
G02X18898Y15172I148J52D01*
G01X18940Y15247D02*
G02X18935Y15232I153J37D01*
G01X18942Y13029D02*
G02X19026Y13064I84J83D01*
G01X18947Y7835D02*
X18918D01*
X18947Y7913D02*
G02X18909Y7923J79D01*
G01X18960Y15305D02*
G03X18940Y15247I73J58D01*
G01X18987Y12561D02*
Y12920D01*
X18995Y8819D02*
G03X18717Y8704J394D01*
G01X18995Y8898D02*
X18832D01*
X19003Y12969D02*
G03X18987Y12920I62J49D01*
G01X19005Y12327D02*
G02X18908Y12561I233J234D01*
G01X19016Y9213D02*
X18916D01*
X19016Y9291D02*
X18916D01*
X19026Y13064D02*
X19108D01*
X19029Y7835D02*
X18947D01*
X19029Y7913D02*
X18947D01*
X19031Y12985D02*
G03X19003Y12969I26J74D01*
G01X19038Y15402D02*
X18977Y15325D01*
X18960Y15305*
X19044Y9303D02*
G02X19016Y9291I28J28D01*
G01X19055Y9331D02*
G02X19044Y9303I39D01*
G01X19055Y12205D02*
G03X19005Y12327I173D01*
G01X19055Y12205D02*
Y9331D01*
X19060Y12383D02*
G02X18987Y12561I178J178D01*
G01X19061Y12967D02*
G03X19031Y12985I56J56D01*
G01X19099Y9247D02*
G02X19016Y9213I83J84D01*
G01X19108Y13064D02*
G02X19332Y12971J316D01*
G01X19134Y9331D02*
G02X19099Y9247I118D01*
G01X19134Y12205D02*
Y9331D01*
Y12205D02*
G03X19060Y12383I252D01*
G01X19154Y12874D02*
X19061Y12967D01*
X19252Y8006D02*
G02X19029Y7913I223J222D01*
G01X19297Y14549D02*
X18699Y13951D01*
X19308Y7950D02*
G02X19029Y7835I279J278D01*
G01X19332Y12971D02*
X19429Y12874D01*
X19353Y14493D02*
X18755Y13895D01*
X19489Y8819D02*
X18995D01*
X19489Y8898D02*
X18995D01*
X19567Y8975D02*
G02X19489Y8898I78D01*
G01X19567Y11749D02*
Y8975D01*
Y11749D02*
G02X19682Y12027I394D01*
G01X19576Y14585D02*
G03X19353Y14493J315D01*
G01X19576Y14664D02*
G03X19297Y14549J394D01*
G01X19646Y8975D02*
G02X19489Y8819I157D01*
G01X19646Y11749D02*
Y8975D01*
Y11749D02*
G02X19738Y11971I315D01*
G01X19750Y8504D02*
X19252Y8006D01*
X19806Y8448D02*
X19308Y7950D01*
X19835Y13515D02*
X16905D01*
X19835Y13594D02*
X16905D01*
X19843Y8727D02*
G02X19750Y8504I315D01*
G01X19843Y11868D02*
Y8727D01*
X19871Y11938D02*
G03X19843Y11868I70J70D01*
G01X19921Y8727D02*
G02X19806Y8448I393D01*
G01X19921Y11868D02*
Y8727D01*
X19927Y11882D02*
G03X19921Y11868I14J14D01*
G01X20057Y13686D02*
G02X19835Y13594I222J223D01*
G01X20079Y6850D02*
X17372D01*
X20079Y6929D02*
X17372D01*
X20113Y13631D02*
G02X19835Y13515I278J278D01*
G01X20135Y14401D02*
X20197Y14324D01*
X20141Y13770D02*
X20057Y13686D01*
X20190Y6975D02*
G02X20079Y6929I111J112D01*
G01X20197Y14324D02*
G02X20233Y14219I132J105D01*
G01X20197Y13714D02*
X20113Y13631D01*
X20233Y13993D02*
G02X20141Y13770I315D01*
G01X20233Y14219D02*
Y13993D01*
Y14219D02*
X20236Y7087*
G02X20190Y6975I157D01*
G01X20236Y11907D02*
Y7087D01*
X20246Y6920D02*
G02X20079Y6850I167J167D01*
G01X20256Y12601D02*
G02X20535Y12716I279J278D01*
G01X20256Y12601D02*
X19682Y12027D01*
X20292Y6966D02*
X20246Y6920D01*
X20312Y12545D02*
X19738Y11971D01*
X20312Y12545D02*
G02X20535Y12638I223J222D01*
G01X20312Y13993D02*
G02X20197Y13714I394D01*
G01X20312Y14219D02*
Y13993D01*
X20315Y7021D02*
G02X20292Y6966I79D01*
G01X20315Y7087D02*
Y7021D01*
Y11907D02*
Y7087D01*
X20338Y12404D02*
X19871Y11938D01*
X20349Y14324D02*
G03X20312Y14219I131J105D01*
G01X20376Y11969D02*
G03X20315Y11907J62D01*
G01X20376Y11969D02*
X21083D01*
X20376Y12047D02*
G03X20236Y11907J140D01*
G01X20376Y12047D02*
X21083D01*
X20394Y12349D02*
X19927Y11882D01*
X20411Y14401D02*
X20349Y14324D01*
X20535Y12638D02*
X21531D01*
X20535Y12716D02*
X21531D01*
X20616Y12441D02*
G03X20394Y12349J315D01*
G01X20616Y12520D02*
G03X20338Y12404J394D01*
G01X20733Y13228D02*
X17367D01*
X20733Y13307D02*
X17367D01*
X20790Y12951D02*
X20728Y12874D01*
X20799Y13201D02*
G03X20733Y13228I66J67D01*
G01X20827Y13056D02*
G02X20790Y12951I168D01*
G01X20827Y13056D02*
Y13134D01*
G03X20799Y13201I94*
G01X20855Y13257D02*
G03X20733Y13307I122J123D01*
G01X20906Y13056D02*
Y13134D01*
Y13056D02*
G03X20943Y12951I168D01*
G01X20906Y13134D02*
G03X20855Y13257I173D01*
G01X20943Y12951D02*
X21004Y12874D01*
X21083Y11969D02*
G03X21308Y12061J317D01*
G01X21083Y12047D02*
G03X21252Y12117J239D01*
G01X21253Y12118*
G02X21531Y12233I278J279*
G01X21308Y12061D02*
Y12062D01*
G02X21531Y12154I223J223*
G01X21743*
X21531Y12233D02*
X21743D01*
X21531Y12638D02*
G03X21696Y12706J232D01*
G01X21531Y12716D02*
G03X21640Y12762J154D01*
G01X21613Y12441D02*
X20616D01*
X21613Y12520D02*
X20616D01*
X21640Y12762D02*
G02X21860Y12853I220J221D01*
G01X21696Y12706D02*
G02X21860Y12774I164J165D01*
G01X21715Y15402D02*
X21777Y15325D01*
X21722Y12565D02*
G02X21613Y12520I109J109D01*
G01X21743Y12154D02*
G03X21995Y12259J357D01*
G01X21743Y12233D02*
G03X21940Y12315J278D01*
G01X21777Y15325D02*
G02X21814Y15220I131J105D01*
G01X21777Y12509D02*
G02X21613Y12441I164J165D01*
G01X21814Y15080D02*
G03X21862Y14964I165D01*
G01X21814Y15220D02*
Y15080D01*
Y15220D02*
X21860Y12774*
X23013D01*
X21860Y12853D02*
X23013D01*
X21862Y14964D02*
G03X21979Y14915I117J116D01*
G01X21893Y15080D02*
G03X21918Y15019I86D01*
G01X21893Y15220D02*
Y15080D01*
X21918Y15019D02*
G03X21979Y14994I61J61D01*
G01X21930Y15325D02*
G03X21893Y15220I131J105D01*
G01X21940Y12315D02*
X21952Y12327D01*
X21942Y12577D02*
G03X21777Y12509J233D01*
G01X21942Y12656D02*
G03X21722Y12565J312D01*
G01X21952Y12327D02*
G02X22230Y12442I278J279D01*
G01X21979Y14915D02*
X24120D01*
X21979Y14994D02*
X24120D01*
X21991Y15402D02*
X21930Y15325D01*
X21995Y12259D02*
X22007Y12271D01*
G02X22230Y12363I223J223*
G01X22104Y14401D02*
X22165Y14478D01*
X22181Y14503*
X22149Y14585D02*
X19576D01*
X22149Y14664D02*
X19576D01*
X22181Y14503D02*
G03X22202Y14540I55J56D01*
G01X22191Y14568D02*
G03X22149Y14585I42J41D01*
G01X22202Y14540D02*
G03X22191Y14568I39D01*
G01X22230Y12363D02*
X23315D01*
X22230Y12442D02*
X23315D01*
X22246Y14624D02*
G03X22149Y14664I97J97D01*
G01X22281Y14540D02*
G03X22246Y14624I118D01*
G01X22302Y14503D02*
G02X22281Y14540I55J56D01*
G01X22379Y14401D02*
X22318Y14478D01*
X22302Y14503*
X23013Y12774D02*
G03X23292Y12889J394D01*
G01X23013Y12853D02*
G03X23236Y12945J315D01*
G01X23093Y15402D02*
X23155Y15325D01*
X23169Y15302*
G02X23192Y15255I55J56*
G03X23194Y15244I155J27*
X23236Y15170I153J38*
G01X23243Y15163*
G03X23366Y15112I123J123*
G01X23271Y15263D02*
G03X23291Y15226I76J19D01*
G01X23299Y15219*
X23291Y15300D02*
G03X23271Y15263I56J56D01*
G01X23299Y15219D02*
G03X23366Y15191I67J67D01*
G01X23315Y12363D02*
G02X23507Y12284J270D01*
G01X23315Y12442D02*
G02X23562Y12340J349D01*
G01X23366Y15112D02*
X24225D01*
X23366Y15191D02*
X24225D01*
X23369Y15402D02*
X23308Y15325D01*
X23291Y15300*
X23498Y12577D02*
X21942D01*
X23498Y12656D02*
X21942D01*
X23507Y12284D02*
G03X23698Y12205I191J191D01*
G01X23562Y12340D02*
G03X23698Y12283I136J135D01*
G01Y12205D02*
X24270D01*
X23698Y12283D02*
X24270D01*
X23720Y12748D02*
G02X23498Y12656I222J223D01*
G01X23776Y12693D02*
G02X23498Y12577I278J278D01*
G01X24072Y14401D02*
X24134Y14324D01*
X24078Y13787D02*
X23236Y12945D01*
X24120Y14915D02*
G02X24343Y14823J315D01*
G01X24120Y14994D02*
G02X24399Y14879J394D01*
G01X24134Y14324D02*
G02X24170Y14219I132J105D01*
G01X24134Y13732D02*
X23292Y12889D01*
X24170Y14010D02*
G02X24078Y13787I314D01*
G01X24170Y14219D02*
Y14010D01*
Y14219D02*
X24249Y14010*
G02X24134Y13732I393D01*
G01X24249Y14219D02*
Y14010D01*
X24270Y12205D02*
G03X24339Y12234J98D01*
G01X24270Y12283D02*
G03X24284Y12289J20D01*
G01X25352Y13358*
X24286Y14324D02*
G03X24249Y14219I131J105D01*
G01X24339Y12234D02*
X25408Y13302D01*
X24343Y14823D02*
X24485Y14681D01*
X24348Y14401D02*
X24286Y14324D01*
X24385Y13412D02*
X23720Y12748D01*
X24399Y14879D02*
X24541Y14736D01*
X24440Y13357D02*
X23776Y12693D01*
X24447Y15020D02*
G03X24225Y15112I222J223D01*
G01X24477Y13635D02*
G02X24385Y13412I315D01*
G01X24477Y13951D02*
Y13635D01*
Y13984D02*
Y13951D01*
X24485Y14681D02*
G02X24578Y14458I222J223D01*
G01X24503Y15075D02*
G03X24225Y15191I278J278D01*
G01X24527Y14106D02*
G03X24477Y13984I122J122D01*
G01X24541Y14736D02*
G02X24656Y14458I278J278D01*
G01X24556Y13635D02*
G02X24440Y13357I394D01*
G01X24556Y13951D02*
Y13635D01*
X24578Y14228D02*
G02X24527Y14106I173D01*
G01X24578Y14458D02*
Y14228D01*
X24606Y14073D02*
G03X24556Y13951I122J122D01*
G01X24633Y14101D02*
X24606Y14073D01*
X24656Y14156D02*
G02X24633Y14101I78D01*
G01X24656Y14228D02*
Y14156D01*
Y14458D02*
Y14228D01*
X25352Y13358D02*
G03X25444Y13581I222J223D01*
G01X25352Y14115D02*
X24447Y15020D01*
X25408Y13302D02*
G03X25523Y13581I278J279D01*
G01X25408Y14171D02*
X24503Y15075D01*
X25444Y13581D02*
Y13892D01*
G03X25352Y14115I314*
G01X25523Y13581D02*
Y13892D01*
G03X25408Y14171I393*
G54D13*
G01X4094Y11417D03*
X6178Y12949D03*
X8465Y12992D03*
Y13780D03*
Y14567D03*
X8858Y13386D03*
Y14173D03*
Y14961D03*
X9252Y13780D03*
Y14567D03*
X9646Y13386D03*
X15354Y5512D03*
Y6299D03*
Y6693D03*
Y7087D03*
Y8268D03*
Y8661D03*
X15748Y4331D03*
Y7087D03*
X16142Y5906D03*
Y6299D03*
X16535Y5906D03*
Y6299D03*
Y6693D03*
Y8661D03*
X16929Y4724D03*
Y8661D03*
X17323Y3543D03*
Y6693D03*
Y7087D03*
Y7480D03*
Y11811D03*
X17717Y6299D03*
Y10630D03*
X17778Y15402D03*
X18054D03*
X18110Y5118D03*
Y7480D03*
X18167Y14401D03*
X18442D03*
X18504Y3937D03*
Y7087D03*
Y7480D03*
Y12205D03*
X18763Y15402D03*
X18898Y6693D03*
Y7087D03*
Y7480D03*
Y8268D03*
Y11024D03*
X19038Y15402D03*
X19154Y12874D03*
X19429D03*
X20135Y14401D03*
X20411D03*
X20472Y11417D03*
X20728Y12874D03*
X21004D03*
X21654Y11811D03*
X21715Y15402D03*
X21991D03*
X22047Y6299D03*
Y10630D03*
X22104Y14401D03*
X22379D03*
X22441Y9449D03*
X22835Y8268D03*
Y12205D03*
X23093Y15402D03*
X23228Y6693D03*
Y11024D03*
X23369Y15402D03*
X23622Y5512D03*
Y9843D03*
X24016Y4331D03*
Y8661D03*
X24072Y14401D03*
X24348D03*
X25276Y4658D03*
Y7217D03*
Y9066D03*
X26154Y12402D03*
Y13386D03*
M02*
