*
G04 Job   : Y:\Users\CEG\Central Electronics\Projects\Hastingsp\MENTOR\DUNE\MIB_Module\PCB\MIB_Module.pcb*
G04 User  : ELWT2:hastingsp*
G04 Layer : 11_Layer9.gdo*
G04 Date  : Wed Jun 28 08:25:46 2023*
G04 VeriBest Example Gerber Output Definition*
%ICAS*%
%MOIN*%
%FSLAX24Y24*%
%OFA0.0000B0.0000*%
G90*
G74*
%AMVB_RECTANGLE*
21,1,$1,$2,0,0,$3*
%
%ADD11C,0.00787*%
%ADD12C,0.01969*%
%ADD14C,0.05906*%
%ADD13C,0.06693*%
%ADD10C,0.21654*%
%ADD15VB_RECTANGLE,0.08858X0.08858X90.00000*%
G01*
G36*
X-276Y6496D02*
X118D01*
Y7283*
X-276*
Y6496*
X197Y15521D02*
G02X227Y15551I30D01*
G01X630*
Y787*
G03X787Y630I157*
X945Y787J157*
X787Y945I158*
X630Y787J158*
G01Y1181*
G03X787Y1024I157*
X945Y1181J157*
X787Y1339I158*
X630Y1181J158*
G01Y1575*
G03X787Y1417I157*
X945Y1575J158*
X787Y1732I158*
X630Y1575J157*
G01Y15551*
X827*
Y10827*
G03X984Y10669I157*
X1024Y10674J158*
G01Y787*
G03X1181Y630I157*
X1339Y787J157*
X1181Y945I158*
X1024Y787J158*
G01Y1181*
G03X1181Y1024I157*
X1339Y1181J157*
X1181Y1339I158*
X1024Y1181J158*
G01Y1575*
G03X1181Y1417I157*
X1339Y1575J158*
X1181Y1732I158*
X1024Y1575J157*
G01Y10674*
G03X1142Y10827I40J153*
X984Y10984I158*
X827Y10827J157*
G01Y11220*
G03X984Y11063I157*
X1142Y11220J157*
X984Y11378I158*
X827Y11220J158*
G01Y11614*
G03X984Y11457I157*
X1142Y11614J157*
X984Y11772I158*
X827Y11614J158*
G01Y12008*
G03X984Y11850I157*
X1142Y12008J158*
X984Y12165I158*
X827Y12008J157*
G01Y12402*
G03X984Y12244I157*
X1142Y12402J158*
X984Y12559I158*
X827Y12402J157*
G01Y12795*
G03X984Y12638I157*
X1142Y12795J157*
X984Y12953I158*
X827Y12795J158*
G01Y13780*
G03X984Y13622I157*
X1142Y13780J158*
X984Y13937I158*
X827Y13780J157*
G01Y14173*
G03X984Y14016I157*
X1142Y14173J157*
X984Y14331I158*
X827Y14173J158*
G01Y14567*
G03X984Y14409I157*
X1142Y14567J158*
X984Y14724I158*
X827Y14567J157*
G01Y14961*
G03X984Y14803I157*
X1142Y14961J158*
X984Y15118I158*
X827Y14961J157*
G01Y15551*
X1186*
Y13334*
G03X1220Y13235I157*
G01Y10827*
G03X1378Y10669I158*
X1535Y10827J158*
X1378Y10984I157*
X1220Y10827J157*
G01Y12008*
G03X1350Y11853I158*
G01Y11417*
G03X1614Y11107I315*
G01Y10827*
G03X1616Y10802I158*
G01Y3346*
G03X1774Y3189I158*
X1931Y3346J157*
X1774Y3504I157*
X1616Y3346J158*
G01Y7283*
G03X1774Y7126I158*
X1931Y7283J157*
X1774Y7441I157*
X1616Y7283J158*
G01Y10802*
G03X1772Y10669I156J25*
X1929Y10827J158*
X1772Y10984I157*
X1614Y10827J157*
G01Y11107*
G03X1665Y11102I51J310*
X1980Y11417J315*
X1665Y11732I315*
X1350Y11417J315*
G01Y11853*
G03X1378Y11850I28J155*
X1535Y12008J158*
X1378Y12165I157*
X1220Y12008J157*
G01Y12402*
G03X1378Y12244I158*
X1535Y12402J158*
X1378Y12559I157*
X1220Y12402J157*
G01Y12795*
G03X1378Y12638I158*
X1535Y12795J157*
X1519Y12865I157*
G02X1516Y12879I27J14*
X1546Y12909I30*
X1561Y12905J30*
G03X1614Y12886I78J137*
G01Y12008*
G03X1772Y11850I158*
X1929Y12008J158*
X1772Y12165I157*
X1614Y12008J157*
G01Y12402*
G03X1772Y12244I158*
X1929Y12402J158*
X1772Y12559I157*
X1614Y12402J157*
G01Y12886*
G03X1639Y12884I25J156*
X1796Y13042J158*
X1639Y13199I157*
X1481Y13042J157*
X1498Y12972I158*
G02X1501Y12958I27J14*
X1471Y12928I30*
X1456Y12932J30*
G03X1378Y12953I78J137*
X1220Y12795J158*
G01Y13235*
G03X1343Y13176I123J99*
X1501Y13334J158*
X1343Y13491I158*
X1186Y13334J157*
G01Y15551*
X1220*
Y13780*
G03X1378Y13622I158*
X1535Y13780J158*
X1378Y13937I157*
X1220Y13780J157*
G01Y14567*
G03X1378Y14409I158*
X1535Y14567J158*
X1378Y14724I157*
X1220Y14567J157*
G01Y14961*
G03X1378Y14803I158*
X1535Y14961J158*
X1378Y15118I157*
X1220Y14961J157*
G01Y15551*
X1614*
Y14567*
G03X1772Y14409I158*
X1929Y14567J158*
X1772Y14724I157*
X1614Y14567J157*
G01Y14961*
G03X1772Y14803I158*
X1929Y14961J158*
X1772Y15118I157*
X1614Y14961J157*
G01Y15551*
X2008*
Y787*
G03X2165Y630I157*
X2323Y787J157*
X2165Y945I158*
X2008Y787J158*
G01Y1181*
G03X2165Y1024I157*
X2323Y1181J157*
X2165Y1339I158*
X2008Y1181J158*
G01Y1575*
G03X2165Y1417I157*
X2323Y1575J158*
X2165Y1732I158*
X2008Y1575J157*
G01Y3740*
G03X2165Y3583I157*
X2323Y3740J157*
X2165Y3898I158*
X2008Y3740J158*
G01Y4134*
G03X2165Y3976I157*
X2323Y4134J158*
X2165Y4291I158*
X2008Y4134J157*
G01Y4921*
G03X2165Y4764I157*
X2323Y4921J157*
X2165Y5079I158*
X2008Y4921J158*
G01Y5315*
G03X2165Y5157I157*
X2323Y5315J158*
X2165Y5472I158*
X2008Y5315J157*
G01Y5709*
G03X2165Y5551I157*
X2323Y5709J158*
X2165Y5866I158*
X2008Y5709J157*
G01Y7677*
G03X2165Y7520I157*
X2323Y7677J157*
X2165Y7835I158*
X2008Y7677J158*
G01Y8071*
G03X2165Y7913I157*
X2323Y8071J158*
X2165Y8228I158*
X2008Y8071J157*
G01Y8858*
G03X2165Y8701I157*
X2323Y8858J157*
X2165Y9016I158*
X2008Y8858J158*
G01Y9252*
G03X2165Y9094I157*
X2323Y9252J158*
X2165Y9409I158*
X2008Y9252J157*
G01Y9646*
G03X2165Y9488I157*
X2323Y9646J158*
X2165Y9803I158*
X2008Y9646J157*
G01Y10827*
G03X2165Y10669I157*
X2323Y10827J158*
X2165Y10984I158*
X2008Y10827J157*
G01Y12008*
G03X2165Y11850I157*
X2323Y12008J158*
X2165Y12165I158*
X2008Y12008J157*
G01Y12402*
G03X2165Y12244I157*
X2323Y12402J158*
X2165Y12559I158*
X2008Y12402J157*
G01Y14173*
G03X2165Y14016I157*
X2323Y14173J157*
X2165Y14331I158*
X2008Y14173J158*
G01Y14567*
G03X2165Y14409I157*
X2323Y14567J158*
X2165Y14724I158*
X2008Y14567J157*
G01Y14961*
G03X2165Y14803I157*
X2323Y14961J158*
X2165Y15118I158*
X2008Y14961J157*
G01Y15551*
X2343*
Y3053*
G03X2402Y2930I157*
G01Y787*
G03X2559Y630I157*
X2717Y787J157*
X2559Y945I158*
X2402Y787J158*
G01Y1181*
G03X2559Y1024I157*
X2717Y1181J157*
X2559Y1339I158*
X2402Y1181J158*
G01Y1575*
G03X2559Y1417I157*
X2717Y1575J158*
X2559Y1732I158*
X2402Y1575J157*
G01Y2930*
G03X2482Y2897I98J123*
G01Y2598*
G03X2640Y2441I158*
X2795Y2574J157*
G01Y787*
G03X2953Y630I158*
X3110Y787J157*
X2953Y945I157*
X2795Y787J158*
G01Y1181*
G03X2953Y1024I158*
X3110Y1181J157*
X2953Y1339I157*
X2795Y1181J158*
G01Y1575*
G03X2953Y1417I158*
X3110Y1575J158*
X2953Y1732I157*
X2795Y1575J157*
G01Y2574*
G03X2797Y2598I155J24*
X2640Y2756I157*
X2482Y2598J158*
G01Y2897*
G03X2500Y2896I18J156*
X2657Y3053J157*
X2500Y3211I157*
X2343Y3053J158*
G01Y6990*
G03X2402Y6867I157*
G01Y3740*
G03X2559Y3583I157*
X2717Y3740J157*
X2559Y3898I158*
X2402Y3740J158*
G01Y4134*
G03X2559Y3976I157*
X2717Y4134J158*
X2559Y4291I158*
X2402Y4134J157*
G01Y4528*
G03X2559Y4370I157*
X2717Y4528J158*
X2559Y4685I158*
X2402Y4528J157*
G01Y4921*
G03X2559Y4764I157*
X2717Y4921J157*
X2559Y5079I158*
X2402Y4921J158*
G01Y5315*
G03X2559Y5157I157*
X2717Y5315J158*
X2559Y5472I158*
X2402Y5315J157*
G01Y5709*
G03X2559Y5551I157*
X2717Y5709J158*
X2559Y5866I158*
X2402Y5709J157*
G01Y6867*
G03X2482Y6834I98J123*
G01Y6535*
G03X2640Y6378I158*
X2795Y6511J157*
G01Y4528*
G03X2953Y4370I158*
X2985Y4373J158*
G01Y2097*
G03X3142Y1940I157*
X3300Y2097J157*
X3142Y2255I158*
X2985Y2097J158*
G01Y4373*
G03X3110Y4528I32J155*
X2953Y4685I157*
X2795Y4528J157*
G01Y4921*
G03X2953Y4764I158*
X3110Y4921J157*
X2953Y5079I157*
X2795Y4921J158*
G01Y5315*
G03X2953Y5157I158*
X3110Y5315J158*
X2953Y5472I157*
X2795Y5315J157*
G01Y5709*
G03X2953Y5551I158*
X3110Y5709J158*
X2953Y5866I157*
X2795Y5709J157*
G01Y6511*
G03X2797Y6535I155J24*
X2640Y6693I157*
X2482Y6535J158*
G01Y6834*
G03X2500Y6833I18J156*
X2657Y6990J157*
X2500Y7148I157*
X2343Y6990J158*
G01Y15551*
X2350*
Y11417*
G03X2402Y11245I315*
G01Y7677*
G03X2559Y7520I157*
X2717Y7677J157*
X2559Y7835I158*
X2402Y7677J158*
G01Y8071*
G03X2559Y7913I157*
X2717Y8071J158*
X2559Y8228I158*
X2402Y8071J157*
G01Y8465*
G03X2559Y8307I157*
X2717Y8465J158*
X2559Y8622I158*
X2402Y8465J157*
G01Y8858*
G03X2559Y8701I157*
X2717Y8858J157*
X2559Y9016I158*
X2402Y8858J158*
G01Y9252*
G03X2559Y9094I157*
X2717Y9252J158*
X2559Y9409I158*
X2402Y9252J157*
G01Y9646*
G03X2559Y9488I157*
X2717Y9646J158*
X2559Y9803I158*
X2402Y9646J157*
G01Y10827*
G03X2559Y10669I157*
X2717Y10827J158*
X2559Y10984I158*
X2402Y10827J157*
G01Y11245*
G03X2665Y11102I263J172*
X2795Y11130J315*
G01Y8465*
G03X2953Y8307I158*
X3110Y8465J158*
X2953Y8622I157*
X2795Y8465J157*
G01Y8858*
G03X2953Y8701I158*
X3110Y8858J157*
X2953Y9016I157*
X2795Y8858J158*
G01Y9252*
G03X2953Y9094I158*
X3110Y9252J158*
X2953Y9409I157*
X2795Y9252J157*
G01Y9646*
G03X2953Y9488I158*
X3110Y9646J158*
X2953Y9803I157*
X2795Y9646J157*
G01Y10827*
G03X2953Y10669I158*
X3110Y10827J158*
X2953Y10984I157*
X2795Y10827J157*
G01Y11130*
G03X2980Y11417I130J287*
X2665Y11732I315*
X2350Y11417J315*
G01Y15551*
X2402*
Y12008*
G03X2559Y11850I157*
X2717Y12008J158*
X2559Y12165I158*
X2402Y12008J157*
G01Y12402*
G03X2559Y12244I157*
X2717Y12402J158*
X2559Y12559I158*
X2402Y12402J157*
G01Y14173*
G03X2559Y14016I157*
X2717Y14173J157*
X2559Y14331I158*
X2402Y14173J158*
G01Y14567*
G03X2559Y14409I157*
X2717Y14567J158*
X2559Y14724I158*
X2402Y14567J157*
G01Y14961*
G03X2559Y14803I157*
X2717Y14961J158*
X2559Y15118I158*
X2402Y14961J157*
G01Y15551*
X2795*
Y12008*
G03X2953Y11850I158*
X3110Y12008J158*
X2953Y12165I157*
X2795Y12008J157*
G01Y12402*
G03X2953Y12244I158*
X3110Y12402J158*
X2953Y12559I157*
X2795Y12402J157*
G01Y13298*
G03X2953Y13141I158*
X3057Y13180J157*
G02X3076Y13187I19J23*
X3104Y13169J30*
G03X3189Y13087I144J64*
G01Y4528*
G03X3346Y4370I157*
X3504Y4528J158*
X3346Y4685I158*
X3189Y4528J157*
G01Y4921*
G03X3346Y4764I157*
X3504Y4921J157*
X3346Y5079I158*
X3189Y4921J158*
G01Y5315*
G03X3346Y5157I157*
X3504Y5315J158*
X3346Y5472I158*
X3189Y5315J157*
G01Y5709*
G03X3346Y5551I157*
X3504Y5709J158*
X3346Y5866I158*
X3189Y5709J157*
G01Y8465*
G03X3209Y8388I157*
G01Y6535*
G03X3366Y6378I157*
X3524Y6535J157*
X3366Y6693I158*
X3209Y6535J158*
G01Y8388*
G03X3346Y8307I137J77*
X3504Y8465J158*
X3346Y8622I158*
X3189Y8465J157*
G01Y8858*
G03X3346Y8701I157*
X3504Y8858J157*
X3346Y9016I158*
X3189Y8858J158*
G01Y9252*
G03X3346Y9094I157*
X3504Y9252J158*
X3346Y9409I158*
X3189Y9252J157*
G01Y9646*
G03X3346Y9488I157*
X3504Y9646J158*
X3346Y9803I158*
X3189Y9646J157*
G01Y10827*
G03X3346Y10669I157*
X3504Y10827J158*
X3346Y10984I158*
X3189Y10827J157*
G01Y12008*
G03X3346Y11850I157*
X3504Y12008J158*
X3346Y12165I158*
X3189Y12008J157*
G01Y13087*
G03X3248Y13075I59J146*
X3406Y13233J158*
X3248Y13390I158*
X3144Y13351J157*
G02X3124Y13344I20J23*
X3097Y13362J30*
G03X2953Y13456I144J64*
X2795Y13298J158*
G01Y14567*
G03X2953Y14409I158*
X3110Y14567J158*
X2953Y14724I157*
X2795Y14567J157*
G01Y14961*
G03X2953Y14803I158*
X3110Y14961J158*
X2953Y15118I157*
X2795Y14961J157*
G01Y15551*
X3189*
Y13780*
G03X3346Y13622I157*
X3504Y13780J158*
X3346Y13937I158*
X3189Y13780J157*
G01Y14173*
G03X3346Y14016I157*
X3504Y14173J157*
X3346Y14331I158*
X3189Y14173J158*
G01Y14567*
G03X3346Y14409I157*
X3504Y14567J158*
X3346Y14724I158*
X3189Y14567J157*
G01Y14961*
G03X3346Y14803I157*
X3504Y14961J158*
X3346Y15118I158*
X3189Y14961J157*
G01Y15551*
X3583*
Y5315*
G03X3740Y5157I157*
X3898Y5315J158*
X3740Y5472I158*
X3583Y5315J157*
G01Y5709*
G03X3740Y5551I157*
X3898Y5709J158*
X3740Y5866I158*
X3583Y5709J157*
G01Y9252*
G03X3740Y9094I157*
X3898Y9252J158*
X3740Y9409I158*
X3583Y9252J157*
G01Y9646*
G03X3740Y9488I157*
X3898Y9646J158*
X3740Y9803I158*
X3583Y9646J157*
G01Y11161*
G03X3740Y11004I157*
X3898Y11161J157*
X3740Y11319I158*
X3583Y11161J158*
G01Y15551*
X3937*
Y11417*
G03X3976Y11313I157*
G01Y5315*
G03X4134Y5157I158*
X4291Y5315J158*
X4134Y5472I157*
X3976Y5315J157*
G01Y5709*
G03X4134Y5551I158*
X4291Y5709J158*
X4134Y5866I157*
X3976Y5709J157*
G01Y9252*
G03X4134Y9094I158*
X4291Y9252J158*
X4134Y9409I157*
X3976Y9252J157*
G01Y9646*
G03X4134Y9488I158*
X4291Y9646J158*
X4134Y9803I157*
X3976Y9646J157*
G01Y11313*
G03X4094Y11260I118J104*
X4252Y11417J157*
X4094Y11575I158*
X3937Y11417J158*
G01Y15551*
X4370*
Y4528*
G03X4528Y4370I158*
X4685Y4528J158*
X4528Y4685I157*
X4370Y4528J157*
G01Y4921*
G03X4528Y4764I158*
X4685Y4921J157*
X4528Y5079I157*
X4370Y4921J158*
G01Y5315*
G03X4528Y5157I158*
X4685Y5315J158*
X4528Y5472I157*
X4370Y5315J157*
G01Y5709*
G03X4528Y5551I158*
X4685Y5709J158*
X4528Y5866I157*
X4370Y5709J157*
G01Y8465*
G03X4528Y8307I158*
X4685Y8465J158*
X4528Y8622I157*
X4370Y8465J157*
G01Y8858*
G03X4528Y8701I158*
X4685Y8858J157*
X4528Y9016I157*
X4370Y8858J158*
G01Y9252*
G03X4528Y9094I158*
X4685Y9252J158*
X4528Y9409I157*
X4370Y9252J157*
G01Y9646*
G03X4528Y9488I158*
X4685Y9646J158*
X4528Y9803I157*
X4370Y9646J157*
G01Y15551*
X4764*
Y4528*
G03X4921Y4370I157*
X5079Y4528J158*
X4921Y4685I158*
X4764Y4528J157*
G01Y4921*
G03X4921Y4764I157*
X5079Y4921J157*
X4921Y5079I158*
X4764Y4921J158*
G01Y5315*
G03X4921Y5157I157*
X5079Y5315J158*
X4921Y5472I158*
X4764Y5315J157*
G01Y5709*
G03X4921Y5551I157*
X5079Y5709J158*
X4921Y5866I158*
X4764Y5709J157*
G01Y8465*
G03X4921Y8307I157*
X5079Y8465J158*
X4921Y8622I158*
X4764Y8465J157*
G01Y8858*
G03X4921Y8701I157*
X5079Y8858J157*
X4921Y9016I158*
X4764Y8858J158*
G01Y9252*
G03X4921Y9094I157*
X5079Y9252J158*
X4921Y9409I158*
X4764Y9252J157*
G01Y9646*
G03X4921Y9488I157*
X5079Y9646J158*
X4921Y9803I158*
X4764Y9646J157*
G01Y14567*
G03X4921Y14409I157*
X5079Y14567J158*
X4921Y14724I158*
X4764Y14567J157*
G01Y14961*
G03X4921Y14803I157*
X5079Y14961J158*
X4921Y15118I158*
X4764Y14961J157*
G01Y15551*
X5157*
Y4134*
G03X5315Y3976I158*
X5472Y4134J158*
X5315Y4291I157*
X5157Y4134J157*
G01Y4528*
G03X5315Y4370I158*
X5472Y4528J158*
X5315Y4685I157*
X5157Y4528J157*
G01Y4921*
G03X5315Y4764I158*
X5472Y4921J157*
X5315Y5079I157*
X5157Y4921J158*
G01Y5315*
G03X5315Y5157I158*
X5472Y5315J158*
X5315Y5472I157*
X5157Y5315J157*
G01Y5709*
G03X5315Y5551I158*
X5472Y5709J158*
X5315Y5866I157*
X5157Y5709J157*
G01Y8071*
G03X5315Y7913I158*
X5472Y8071J158*
X5315Y8228I157*
X5157Y8071J157*
G01Y8465*
G03X5315Y8307I158*
X5472Y8465J158*
X5315Y8622I157*
X5157Y8465J157*
G01Y8858*
G03X5315Y8701I158*
X5472Y8858J157*
X5315Y9016I157*
X5157Y8858J158*
G01Y9252*
G03X5315Y9094I158*
X5472Y9252J158*
X5315Y9409I157*
X5157Y9252J157*
G01Y9646*
G03X5315Y9488I158*
X5472Y9646J158*
X5315Y9803I157*
X5157Y9646J157*
G01Y14567*
G03X5315Y14409I158*
X5472Y14567J158*
X5315Y14724I157*
X5157Y14567J157*
G01Y14961*
G03X5315Y14803I158*
X5472Y14961J158*
X5315Y15118I157*
X5157Y14961J157*
G01Y15551*
X5551*
Y4134*
G03X5709Y3976I158*
X5866Y4134J158*
X5709Y4291I157*
X5551Y4134J157*
G01Y4528*
G03X5709Y4370I158*
X5866Y4528J158*
X5709Y4685I157*
X5551Y4528J157*
G01Y4921*
G03X5709Y4764I158*
X5866Y4921J157*
X5709Y5079I157*
X5551Y4921J158*
G01Y5709*
G03X5709Y5551I158*
X5866Y5709J158*
X5709Y5866I157*
X5551Y5709J157*
G01Y8071*
G03X5709Y7913I158*
X5866Y8071J158*
X5709Y8228I157*
X5551Y8071J157*
G01Y8465*
G03X5709Y8307I158*
X5866Y8465J158*
X5709Y8622I157*
X5551Y8465J157*
G01Y8858*
G03X5709Y8701I158*
X5866Y8858J157*
X5709Y9016I157*
X5551Y8858J158*
G01Y9646*
G03X5709Y9488I158*
X5866Y9646J158*
X5709Y9803I157*
X5551Y9646J157*
G01Y13780*
G03X5709Y13622I158*
X5866Y13780J158*
X5709Y13937I157*
X5551Y13780J157*
G01Y14173*
G03X5709Y14016I158*
X5866Y14173J157*
X5709Y14331I157*
X5551Y14173J158*
G01Y14567*
G03X5709Y14409I158*
X5866Y14567J158*
X5709Y14724I157*
X5551Y14567J157*
G01Y14961*
G03X5709Y14803I158*
X5866Y14961J158*
X5709Y15118I157*
X5551Y14961J157*
G01Y15551*
X5945*
Y13780*
G03X6021Y13645I157*
G01Y12949*
G03X6178Y12792I157*
X6336Y12949J157*
X6178Y13107I158*
X6021Y12949J158*
G01Y13645*
G03X6102Y13622I81J135*
X6260Y13780J158*
X6102Y13937I158*
X5945Y13780J157*
G01Y14173*
G03X6102Y14016I157*
X6260Y14173J157*
X6102Y14331I158*
X5945Y14173J158*
G01Y14567*
G03X6102Y14409I157*
X6260Y14567J158*
X6102Y14724I158*
X5945Y14567J157*
G01Y14961*
G03X6102Y14803I157*
X6260Y14961J158*
X6102Y15118I158*
X5945Y14961J157*
G01Y15551*
X6339*
Y13780*
G03X6362Y13697I157*
G01Y1969*
G03X6677Y1654I315*
X6992Y1969J315*
X6677Y2283I315*
X6362Y1969J314*
G01Y13697*
G03X6496Y13622I134J83*
X6654Y13780J158*
X6496Y13937I158*
X6339Y13780J157*
G01Y14173*
G03X6496Y14016I157*
X6654Y14173J157*
X6496Y14331I158*
X6339Y14173J158*
G01Y14567*
G03X6496Y14409I157*
X6654Y14567J158*
X6496Y14724I158*
X6339Y14567J157*
G01Y14961*
G03X6496Y14803I157*
X6654Y14961J158*
X6496Y15118I158*
X6339Y14961J157*
G01Y15551*
X6732*
Y13780*
G03X6890Y13622I158*
X7047Y13780J158*
X6890Y13937I157*
X6732Y13780J157*
G01Y14173*
G03X6890Y14016I158*
X7047Y14173J157*
X6890Y14331I157*
X6732Y14173J158*
G01Y14567*
G03X6890Y14409I158*
X7047Y14567J158*
X6890Y14724I157*
X6732Y14567J157*
G01Y14961*
G03X6890Y14803I158*
X7047Y14961J158*
X6890Y15118I157*
X6732Y14961J157*
G01Y15551*
X7126*
Y3740*
G03X7283Y3583I157*
X7441Y3740J157*
X7283Y3898I158*
X7126Y3740J158*
G01Y4528*
G03X7283Y4370I157*
X7441Y4528J158*
X7283Y4685I158*
X7126Y4528J157*
G01Y4921*
G03X7283Y4764I157*
X7441Y4921J157*
X7283Y5079I158*
X7126Y4921J158*
G01Y15551*
X7520*
Y4921*
G03X7677Y4764I157*
X7835Y4921J157*
X7677Y5079I158*
X7520Y4921J158*
G01Y15551*
X8307*
Y3740*
G03X8362Y3620I158*
G01Y1969*
G03X8677Y1654I315*
X8992Y1969J315*
X8677Y2283I315*
X8362Y1969J314*
G01Y3620*
G03X8465Y3583I103J120*
X8622Y3740J157*
X8465Y3898I157*
X8307Y3740J158*
G01Y4528*
G03X8465Y4370I158*
X8622Y4528J158*
X8465Y4685I157*
X8307Y4528J157*
G01Y4921*
G03X8465Y4764I158*
X8622Y4921J157*
X8465Y5079I157*
X8307Y4921J158*
G01Y11220*
G03X8465Y11063I158*
X8622Y11220J157*
X8465Y11378I157*
X8307Y11220J158*
G01Y12008*
G03X8465Y11850I158*
X8622Y12008J158*
X8465Y12165I157*
X8307Y12008J157*
G01Y12992*
G03X8465Y12835I158*
X8622Y12992J157*
X8465Y13150I157*
X8307Y12992J158*
G01Y13780*
G03X8465Y13622I158*
X8622Y13780J158*
X8465Y13937I157*
X8307Y13780J157*
G01Y14567*
G03X8465Y14409I158*
X8622Y14567J158*
X8465Y14724I157*
X8307Y14567J157*
G01Y15551*
X8701*
Y10827*
G03X8858Y10669I157*
X9016Y10827J158*
X8858Y10984I158*
X8701Y10827J157*
G01Y11614*
G03X8858Y11457I157*
X9016Y11614J157*
X8858Y11772I158*
X8701Y11614J158*
G01Y12402*
G03X8858Y12244I157*
X8961Y12283J158*
G01Y12057*
G03X9094Y11902I158*
G01Y11220*
G03X9252Y11063I158*
G01Y7294*
G03X9409Y7137I157*
X9567Y7294J157*
X9409Y7451I158*
X9252Y7294J157*
G01Y11063*
G03X9409Y11220J157*
X9252Y11378I157*
X9094Y11220J158*
G01Y11902*
G03X9119Y11900I25J155*
X9276Y12057J157*
X9119Y12215I157*
X8961Y12057J158*
G01Y12283*
G03X9016Y12402I103J119*
X8858Y12559I158*
X8701Y12402J157*
G01Y13386*
G03X8858Y13228I157*
X9016Y13386J158*
X8858Y13543I158*
X8701Y13386J157*
G01Y14173*
G03X8858Y14016I157*
X9016Y14173J157*
X8858Y14331I158*
X8701Y14173J158*
G01Y14961*
G03X8858Y14803I157*
X9016Y14961J158*
X8858Y15118I158*
X8701Y14961J157*
G01Y15551*
X9094*
Y13780*
G03X9252Y13622I158*
X9409Y13780J158*
X9252Y13937I157*
X9094Y13780J157*
G01Y14567*
G03X9252Y14409I158*
X9409Y14567J158*
X9252Y14724I157*
X9094Y14567J157*
G01Y15551*
X9488*
Y10827*
G03X9646Y10669I158*
X9803Y10827J158*
X9646Y10984I157*
X9488Y10827J157*
G01Y11614*
G03X9646Y11457I158*
X9803Y11614J157*
X9646Y11772I157*
X9488Y11614J158*
G01Y13386*
G03X9646Y13228I158*
X9803Y13386J158*
X9646Y13543I157*
X9488Y13386J157*
G01Y15551*
X10122*
G02X10152Y15521J30*
X10143Y15499I30*
G03X9741Y14567I881J932*
X11024Y13284I1283*
X11267Y13307J1283*
G01Y4528*
G03X11752Y4042I485*
X12237Y4528J486*
X11752Y5013I485*
X11267Y4528J485*
G01Y11220*
G03X11437Y10851I485*
G01Y7320*
G03X11594Y7162I157*
X11752Y7320J158*
X11594Y7477I158*
X11437Y7320J157*
G01Y8320*
G03X11594Y8162I157*
X11752Y8320J158*
X11594Y8477I158*
X11437Y8320J157*
G01Y9320*
G03X11594Y9162I157*
X11752Y9320J158*
X11594Y9477I158*
X11437Y9320J157*
G01Y10851*
G03X11752Y10735I315J369*
X12237Y11220J485*
X11752Y11706I485*
X11267Y11220J486*
G01Y13307*
G03X12306Y14567I243J1260*
X11904Y15499I1282*
G02X11895Y15521I21J22*
X11925Y15551I30*
G01X12651*
Y2854*
G03X12809Y2697I158*
X12966Y2854J157*
X12809Y3012I157*
X12651Y2854J158*
G01Y13681*
G03X12809Y13524I158*
X12966Y13681J157*
X12809Y13839I157*
X12651Y13681J158*
G01Y15551*
X13583*
Y7231*
G03X13740Y7074I157*
X13885Y7169J157*
G01Y1240*
G03X14370Y755I485*
X14856Y1240J485*
X14855Y1249I486*
G01Y1250*
G02X14885Y1280I30*
X14913Y1261J30*
G03X15059Y1163I146J59*
X15217Y1320J157*
X15059Y1478I158*
X14904Y1344J158*
G02X14874Y1319I30J5*
X14845Y1343J30*
G03X14370Y1726I475J103*
X13885Y1240J486*
G01Y7169*
G03X13898Y7231I145J62*
X13740Y7389I158*
X13583Y7231J158*
G01Y7657*
G03X13740Y7500I157*
X13898Y7657J157*
X13740Y7815I158*
X13583Y7657J158*
G01Y15551*
X13642*
Y9282*
G03X13799Y9125I157*
X13957Y9282J157*
X13799Y9439I158*
X13642Y9282J157*
G01Y15551*
X13885*
Y13839*
G03X14134Y13415I485*
G01Y7231*
G03X14291Y7074I157*
X14369Y7094J157*
G01Y6299*
G03X14526Y6142I157*
X14684Y6299J157*
X14526Y6457I158*
X14369Y6299J158*
G01Y7094*
G03X14449Y7231I78J137*
X14291Y7389I158*
X14134Y7231J158*
G01Y7657*
G03X14291Y7500I157*
X14449Y7657J157*
X14291Y7815I158*
X14134Y7657J158*
G01Y13415*
G03X14370Y13353I236J424*
X14685Y13469J486*
G01Y7231*
G03X14843Y7074I158*
X15000Y7231J157*
X14843Y7389I157*
X14685Y7231J158*
G01Y7657*
G03X14843Y7500I158*
X15000Y7657J157*
X14843Y7815I157*
X14685Y7657J158*
G01Y13469*
G03X14705Y13487I315J370*
G01Y12971*
G03X14862Y12814I157*
X15020Y12971J157*
X14862Y13129I158*
X14705Y12971J158*
G01Y13487*
G03X14856Y13839I335J352*
X14855Y13848I486*
G02X14885Y13878I30*
X14913Y13860J30*
G03X15059Y13761I146J59*
X15197Y13842J158*
G01Y3937*
G03X15354Y3780I157*
X15512Y3937J157*
X15354Y4094I158*
X15197Y3937J157*
G01Y4331*
G03X15354Y4173I157*
X15512Y4331J158*
X15354Y4488I158*
X15197Y4331J157*
G01Y4724*
G03X15354Y4567I157*
X15512Y4724J157*
X15354Y4882I158*
X15197Y4724J158*
G01Y5118*
G03X15354Y4961I157*
X15512Y5118J157*
X15354Y5276I158*
X15197Y5118J158*
G01Y5512*
G03X15354Y5354I157*
X15512Y5512J158*
X15354Y5669I158*
X15197Y5512J157*
G01Y6299*
G03X15354Y6142I157*
X15512Y6299J157*
X15354Y6457I158*
X15197Y6299J158*
G01Y6693*
G03X15354Y6535I157*
X15512Y6693J158*
X15354Y6850I158*
X15197Y6693J157*
G01Y7087*
G03X15354Y6929I157*
X15512Y7087J158*
X15354Y7244I158*
X15197Y7087J157*
G01Y8268*
G03X15354Y8110I157*
X15512Y8268J158*
X15354Y8425I158*
X15197Y8268J157*
G01Y8661*
G03X15354Y8504I157*
X15512Y8661J157*
X15354Y8819I158*
X15197Y8661J158*
G01Y9055*
G03X15354Y8898I157*
X15512Y9055J157*
X15354Y9213I158*
X15197Y9055J158*
G01Y9449*
G03X15354Y9291I157*
X15512Y9449J158*
X15354Y9606I158*
X15197Y9449J157*
G01Y9843*
G03X15354Y9685I157*
X15512Y9843J158*
X15354Y10000I158*
X15197Y9843J157*
G01Y11417*
G03X15354Y11260I157*
X15512Y11417J157*
X15354Y11575I158*
X15197Y11417J158*
G01Y13842*
G03X15217Y13919I138J77*
X15059Y14076I158*
X14904Y13943J157*
G02X14874Y13917I30J4*
X14845Y13941J30*
G03X14370Y14324I475J102*
X13885Y13839J485*
G01Y15551*
X14744*
G02X14774Y15521J30*
X14763Y15498I30*
G03X14705Y15376I99J122*
X14862Y15218I157*
X14902Y15223J158*
G01Y14428*
G03X15059Y14270I157*
X15217Y14428J158*
X15059Y14585I158*
X14902Y14428J157*
G01Y15223*
G03X15020Y15376I40J153*
X14961Y15498I158*
G02X14950Y15521I19J23*
X14980Y15551I30*
G01X15138*
G02X15168Y15521J30*
X15157Y15498I30*
G03X15099Y15376I99J122*
X15256Y15218I157*
X15295Y15223J158*
G01Y12971*
G03X15453Y12814I158*
X15591Y12895J157*
G01Y4331*
G03X15689Y4185I157*
G01Y1320*
G03X15740Y1204I158*
X15847Y1163I107J116*
X16004Y1320J157*
X15847Y1478I157*
X15740Y1437J158*
X15689Y1320I107J117*
G01Y4185*
G03X15724Y4175I59J146*
X15748Y4173I24J156*
X15886Y4255J158*
G01Y1829*
G03X16043Y1672I157*
X16083Y1677J157*
G01Y1320*
G03X16240Y1163I157*
X16398Y1320J157*
X16240Y1478I158*
X16083Y1320J158*
G01Y1677*
G03X16201Y1829I40J152*
X16043Y1987I158*
X15886Y1829J158*
G01Y4255*
G03X15906Y4331I138J76*
X15748Y4488I158*
X15724Y4486J157*
X15591Y4331I24J155*
G01Y4724*
G03X15724Y4569I157*
X15748Y4567I24J155*
X15906Y4724J157*
X15748Y4882I158*
X15724Y4880J158*
X15591Y4724I24J156*
G01Y5118*
G03X15724Y4962I157*
X15748Y4961I24J156*
X15906Y5118J157*
X15748Y5276I158*
X15724Y5274J158*
X15591Y5118I24J156*
G01Y6693*
G03X15724Y6537I157*
X15748Y6535I24J156*
X15906Y6693J158*
X15748Y6850I158*
X15724Y6849J157*
X15591Y6693I24J156*
G01Y7087*
G03X15724Y6931I157*
X15748Y6929I24J156*
X15906Y7087J158*
X15748Y7244I158*
X15724Y7242J157*
X15591Y7087I24J155*
G01Y7480*
G03X15724Y7325I157*
X15748Y7323I24J155*
X15906Y7480J157*
X15748Y7638I158*
X15724Y7636J158*
X15591Y7480I24J156*
G01Y8268*
G03X15724Y8112I157*
X15748Y8110I24J156*
X15906Y8268J158*
X15748Y8425I158*
X15724Y8423J157*
X15591Y8268I24J155*
G01Y8661*
G03X15724Y8506I157*
X15748Y8504I24J155*
X15906Y8661J157*
X15748Y8819I158*
X15724Y8817J158*
X15591Y8661I24J156*
G01Y9055*
G03X15724Y8899I157*
X15748Y8898I24J156*
X15906Y9055J157*
X15748Y9213I158*
X15724Y9211J158*
X15591Y9055I24J156*
G01Y9449*
G03X15724Y9293I157*
X15748Y9291I24J156*
X15906Y9449J158*
X15748Y9606I158*
X15724Y9605J157*
X15591Y9449I24J156*
G01Y9843*
G03X15724Y9687I157*
X15748Y9685I24J156*
X15906Y9843J158*
X15748Y10000I158*
X15724Y9998J157*
X15591Y9843I24J155*
G01Y10236*
G03X15724Y10081I157*
X15748Y10079I24J155*
X15906Y10236J157*
X15748Y10394I158*
X15724Y10392J158*
X15591Y10236I24J156*
G01Y11417*
G03X15724Y11262I157*
X15748Y11260I24J155*
X15906Y11417J157*
X15748Y11575I158*
X15724Y11573J158*
X15591Y11417I24J156*
G01Y11811*
G03X15724Y11655I157*
X15748Y11654I24J156*
X15906Y11811J157*
X15748Y11969I158*
X15724Y11967J158*
X15591Y11811I24J156*
G01Y12895*
G03X15610Y12971I138J76*
X15453Y13129I157*
X15295Y12971J158*
G01Y14428*
G03X15453Y14270I158*
X15492Y14275J158*
G01Y13919*
G03X15650Y13761I158*
X15807Y13919J158*
X15650Y14076I157*
X15492Y13919J157*
G01Y14275*
G03X15610Y14428I39J153*
X15453Y14585I157*
X15295Y14428J157*
G01Y15223*
G03X15413Y15376I39J153*
X15355Y15498I157*
G02X15344Y15521I19J23*
X15374Y15551I30*
G01X15532*
G02X15562Y15521J30*
X15551Y15498I30*
G03X15492Y15376I99J122*
X15650Y15218I158*
X15689Y15223J158*
G01Y14428*
G03X15740Y14312I158*
X15847Y14270I107J116*
X15984Y14351J158*
G01Y4331*
G03X16046Y4206I158*
G01Y2804*
G03X16204Y2646I158*
X16319Y2697J158*
G02X16341Y2707I22J20*
X16364Y2697J30*
G03X16479Y2646I115J107*
X16612Y2718J158*
G02X16637Y2732I25J16*
G01Y1347*
G03X16794Y1190I157*
X16910Y1240J157*
G02X16932Y1250I22J20*
X16954Y1240J30*
G03X17070Y1190I116J107*
X17227Y1347J157*
X17070Y1505I157*
X16954Y1454J158*
G02X16932Y1444I22J20*
X16910Y1454J30*
G03X16794Y1505I116J107*
X16637Y1347J158*
G01Y2732*
G02X16662Y2718J30*
G03X16794Y2646I132J86*
X16910Y2697J158*
G02X16932Y2707I22J20*
X16954Y2697J30*
G03X17070Y2646I116J107*
X17227Y2804J158*
X17070Y2961I157*
X16954Y2911J157*
G02X16932Y2901I22J20*
X16910Y2911J30*
G03X16794Y2961I116J107*
X16662Y2889J157*
G02X16637Y2876I25J17*
X16612Y2889J30*
G03X16479Y2961I133J85*
X16364Y2911J157*
G02X16342Y2901I22J20*
X16319Y2911J30*
G03X16204Y2961I115J107*
X16046Y2804J157*
G01Y4206*
G03X16142Y4173I96J125*
X16299Y4331J158*
X16142Y4488I157*
X15984Y4331J157*
G01Y4724*
G03X16142Y4567I158*
X16299Y4724J157*
X16142Y4882I157*
X15984Y4724J158*
G01Y5512*
G03X16142Y5354I158*
X16299Y5512J158*
X16142Y5669I157*
X15984Y5512J157*
G01Y5906*
G03X16142Y5748I158*
X16299Y5906J158*
X16142Y6063I157*
X15984Y5906J157*
G01Y6299*
G03X16142Y6142I158*
X16299Y6299J157*
X16142Y6457I157*
X15984Y6299J158*
G01Y6693*
G03X16142Y6535I158*
X16299Y6693J158*
X16142Y6850I157*
X15984Y6693J157*
G01Y7087*
G03X16142Y6929I158*
X16299Y7087J158*
X16142Y7244I157*
X15984Y7087J157*
G01Y7480*
G03X16142Y7323I158*
X16299Y7480J157*
X16142Y7638I157*
X15984Y7480J158*
G01Y10236*
G03X16142Y10079I158*
X16299Y10236J157*
X16142Y10394I157*
X15984Y10236J158*
G01Y10630*
G03X16142Y10472I158*
X16299Y10630J158*
X16142Y10787I157*
X15984Y10630J157*
G01Y11024*
G03X16142Y10866I158*
X16299Y11024J158*
X16142Y11181I157*
X15984Y11024J157*
G01Y11417*
G03X16142Y11260I158*
X16299Y11417J157*
X16142Y11575I157*
X15984Y11417J158*
G01Y11811*
G03X16142Y11654I158*
X16299Y11811J157*
X16142Y11969I157*
X15984Y11811J158*
G01Y12205*
G03X16142Y12047I158*
X16299Y12205J158*
X16142Y12362I157*
X15984Y12205J157*
G01Y14351*
G03X16004Y14428I137J77*
X15847Y14585I157*
X15740Y14544J157*
X15689Y14428I107J116*
G01Y15223*
G03X15803Y15340I39J153*
G02X15832Y15363I29J7*
X15860Y15344J30*
G03X16007Y15245I147J58*
X16123Y15295J157*
G02X16145Y15305I22J20*
X16167Y15295J30*
G03X16282Y15245I115J107*
X16378Y15277J157*
G01Y4724*
G03X16512Y4569I157*
X16535Y4567I23J155*
X16693Y4724J157*
X16535Y4882I158*
X16512Y4880J158*
X16378Y4724I23J156*
G01Y5118*
G03X16512Y4962I157*
X16535Y4961I23J156*
X16693Y5118J157*
X16535Y5276I158*
X16512Y5274J158*
X16378Y5118I23J156*
G01Y5512*
G03X16512Y5356I157*
X16535Y5354I23J156*
X16693Y5512J158*
X16535Y5669I158*
X16512Y5668J157*
X16378Y5512I23J156*
G01Y5906*
G03X16512Y5750I157*
X16535Y5748I23J156*
X16693Y5906J158*
X16535Y6063I158*
X16512Y6061J157*
X16378Y5906I23J155*
G01Y6299*
G03X16512Y6144I157*
X16535Y6142I23J155*
X16693Y6299J157*
X16535Y6457I158*
X16512Y6455J158*
X16378Y6299I23J156*
G01Y6693*
G03X16512Y6537I157*
X16535Y6535I23J156*
X16693Y6693J158*
X16535Y6850I158*
X16512Y6849J157*
X16378Y6693I23J156*
G01Y7480*
G03X16512Y7325I157*
X16535Y7323I23J155*
X16693Y7480J157*
X16535Y7638I158*
X16512Y7636J158*
X16378Y7480I23J156*
G01Y8661*
G03X16512Y8506I157*
X16535Y8504I23J155*
X16693Y8661J157*
X16535Y8819I158*
X16512Y8817J158*
X16378Y8661I23J156*
G01Y9055*
G03X16512Y8899I157*
X16535Y8898I23J156*
X16693Y9055J157*
X16535Y9213I158*
X16512Y9211J158*
X16378Y9055I23J156*
G01Y9843*
G03X16512Y9687I157*
X16535Y9685I23J156*
X16693Y9843J158*
X16535Y10000I158*
X16512Y9998J157*
X16378Y9843I23J155*
G01Y10236*
G03X16512Y10081I157*
X16535Y10079I23J155*
X16693Y10236J157*
X16535Y10394I158*
X16512Y10392J158*
X16378Y10236I23J156*
G01Y10630*
G03X16512Y10474I157*
X16535Y10472I23J156*
X16693Y10630J158*
X16535Y10787I158*
X16512Y10786J157*
X16378Y10630I23J156*
G01Y11024*
G03X16512Y10868I157*
X16535Y10866I23J156*
X16693Y11024J158*
X16535Y11181I158*
X16512Y11179J157*
X16378Y11024I23J155*
G01Y11417*
G03X16512Y11262I157*
X16535Y11260I23J155*
X16693Y11417J157*
X16535Y11575I158*
X16512Y11573J158*
X16378Y11417I23J156*
G01Y11811*
G03X16512Y11655I157*
X16535Y11654I23J156*
X16693Y11811J157*
X16535Y11969I158*
X16512Y11967J158*
X16378Y11811I23J156*
G01Y15277*
G03X16440Y15402I96J125*
X16404Y15502I158*
G02X16397Y15521I23J19*
X16427Y15551I30*
G01X16634*
Y14016*
G03X16772Y13860I157*
G01Y4724*
G03X16929Y4567I157*
X17087Y4724J157*
X16929Y4882I158*
X16772Y4724J158*
G01Y5906*
G03X16929Y5748I157*
X17087Y5906J158*
X16929Y6063I158*
X16772Y5906J157*
G01Y8661*
G03X16929Y8504I157*
X17087Y8661J157*
X16929Y8819I158*
X16772Y8661J158*
G01Y9055*
G03X16929Y8898I157*
X17087Y9055J157*
X16929Y9213I158*
X16772Y9055J158*
G01Y9449*
G03X16929Y9291I157*
X17087Y9449J158*
X16929Y9606I158*
X16772Y9449J157*
G01Y10236*
G03X16929Y10079I157*
X17087Y10236J157*
X16929Y10394I158*
X16772Y10236J158*
G01Y10630*
G03X16929Y10472I157*
X17087Y10630J158*
X16929Y10787I158*
X16772Y10630J157*
G01Y11417*
G03X16929Y11260I157*
X17087Y11417J157*
X16929Y11575I158*
X16772Y11417J158*
G01Y11811*
G03X16929Y11654I157*
X17087Y11811J157*
X16929Y11969I158*
X16772Y11811J158*
G01Y12205*
G03X16929Y12047I157*
X17087Y12205J158*
X16929Y12362I158*
X16772Y12205J157*
G01Y13860*
G03X16791Y13859I19J156*
X16907Y13909J157*
G02X16929Y13919I22J20*
X16951Y13909J30*
G03X17028Y13864I116J107*
G01Y12874*
G03X17165Y12718I157*
G01Y3543*
G03X17323Y3386I158*
X17461Y3467J157*
G01Y1830*
G03X17618Y1672I157*
X17776Y1830J158*
X17618Y1987I158*
X17461Y1830J157*
G01Y3467*
G03X17480Y3543I138J76*
X17323Y3701I157*
X17165Y3543J158*
G01Y4331*
G03X17323Y4173I158*
X17480Y4331J158*
X17323Y4488I157*
X17165Y4331J157*
G01Y4724*
G03X17323Y4567I158*
X17480Y4724J157*
X17323Y4882I157*
X17165Y4724J158*
G01Y5906*
G03X17323Y5748I158*
X17480Y5906J158*
X17323Y6063I157*
X17165Y5906J157*
G01Y6693*
G03X17323Y6535I158*
X17480Y6693J158*
X17323Y6850I157*
X17165Y6693J157*
G01Y7087*
G03X17323Y6929I158*
X17480Y7087J158*
X17323Y7244I157*
X17165Y7087J157*
G01Y7480*
G03X17323Y7323I158*
X17480Y7480J157*
X17323Y7638I157*
X17165Y7480J158*
G01Y8268*
G03X17323Y8110I158*
X17480Y8268J158*
X17323Y8425I157*
X17165Y8268J157*
G01Y9449*
G03X17323Y9291I158*
X17480Y9449J158*
X17323Y9606I157*
X17165Y9449J157*
G01Y10236*
G03X17323Y10079I158*
X17480Y10236J157*
X17323Y10394I157*
X17165Y10236J158*
G01Y10630*
G03X17323Y10472I158*
X17480Y10630J158*
X17323Y10787I157*
X17165Y10630J157*
G01Y11024*
G03X17323Y10866I158*
X17480Y11024J158*
X17323Y11181I157*
X17165Y11024J157*
G01Y11811*
G03X17323Y11654I158*
X17480Y11811J157*
X17323Y11969I157*
X17165Y11811J158*
G01Y12718*
G03X17185Y12716I20J156*
X17301Y12767J158*
G02X17323Y12777I22J20*
X17345Y12767J30*
G03X17461Y12716I116J107*
X17559Y12751J158*
G01Y3543*
G03X17717Y3386I158*
X17874Y3543J157*
X17717Y3701I157*
X17559Y3543J158*
G01Y5906*
G03X17717Y5748I158*
X17874Y5906J158*
X17717Y6063I157*
X17559Y5906J157*
G01Y6299*
G03X17717Y6142I158*
X17874Y6299J157*
X17717Y6457I157*
X17559Y6299J158*
G01Y10630*
G03X17717Y10472I158*
X17874Y10630J158*
X17717Y10787I157*
X17559Y10630J157*
G01Y12751*
G03X17618Y12874I98J123*
X17461Y13031I157*
X17345Y12981J157*
G02X17323Y12971I22J20*
X17301Y12981J30*
G03X17185Y13031I116J107*
X17028Y12874J157*
G01Y13864*
G03X17067Y13859I39J152*
X17225Y14016J157*
X17067Y14174I158*
X16951Y14123J158*
G02X16929Y14113I22J20*
X16907Y14123J30*
G03X16791Y14174I116J107*
X16634Y14016J158*
G01Y15551*
X16649*
G02X16679Y15521J30*
X16672Y15502I30*
G03X16637Y15402I122J100*
X16794Y15245I157*
X16910Y15295J157*
G02X16932Y15305I22J20*
X16954Y15295J30*
G03X17025Y15251I116J107*
G01Y14401*
G03X17182Y14244I157*
X17298Y14294J157*
G02X17320Y14304I22J20*
X17342Y14294J30*
G03X17458Y14244I116J107*
X17615Y14401J157*
X17458Y14559I157*
X17342Y14508J158*
G02X17320Y14498I22J20*
X17298Y14508J30*
G03X17182Y14559I116J107*
X17025Y14401J158*
G01Y15251*
G03X17070Y15245I45J151*
X17227Y15402J157*
X17192Y15502I157*
G02X17185Y15521I23J19*
X17215Y15551I30*
G01X17634*
G02X17664Y15521J30*
X17657Y15502I30*
G03X17621Y15402I121J100*
X17778Y15245I157*
X17894Y15295J157*
G02X17916Y15305I22J20*
X17938Y15295J30*
G03X17953Y15282I116J107*
G01Y3543*
G03X18015Y3418I157*
G01Y1347*
G03X18172Y1190I157*
X18288Y1240J157*
G02X18310Y1250I22J20*
X18332Y1240J30*
G03X18448Y1190I116J107*
X18580Y1262J157*
G02X18605Y1275I25J17*
X18631Y1262J30*
G03X18763Y1190I132J85*
X18878Y1240J157*
G02X18900Y1250I22J20*
X18923Y1240J30*
G03X19038Y1190I115J107*
X19196Y1347J157*
X19038Y1505I158*
X18923Y1454J158*
G02X18901Y1444I22J20*
X18879Y1454J30*
G03X18763Y1505I116J107*
X18630Y1433J158*
G02X18605Y1419I25J16*
X18580Y1433J30*
G03X18448Y1505I132J86*
X18332Y1454J158*
G02X18310Y1444I22J20*
X18288Y1454J30*
G03X18172Y1505I116J107*
X18015Y1347J158*
G01Y2804*
G03X18172Y2646I157*
X18288Y2697J158*
G02X18310Y2707I22J20*
X18332Y2697J30*
G03X18403Y2653I116J107*
G01Y1803*
G03X18560Y1645I157*
X18676Y1696J158*
G02X18698Y1706I22J20*
X18720Y1696J30*
G03X18836Y1645I116J107*
X18993Y1803J158*
X18836Y1960I157*
X18720Y1909J157*
G02X18698Y1900I22J21*
X18676Y1909J30*
G03X18560Y1960I116J106*
X18403Y1803J157*
G01Y2653*
G03X18448Y2646I45J151*
X18605Y2804J158*
X18448Y2961I157*
X18332Y2911J157*
G02X18310Y2901I22J20*
X18288Y2911J30*
G03X18172Y2961I116J107*
X18015Y2804J157*
G01Y3418*
G03X18110Y3386I95J125*
X18268Y3543J157*
X18110Y3701I158*
X17953Y3543J158*
G01Y4331*
G03X18110Y4173I157*
X18268Y4331J158*
X18110Y4488I158*
X17953Y4331J157*
G01Y4724*
G03X18110Y4567I157*
X18268Y4724J157*
X18110Y4882I158*
X17953Y4724J158*
G01Y5118*
G03X18110Y4961I157*
X18268Y5118J157*
X18110Y5276I158*
X17953Y5118J158*
G01Y5906*
G03X18110Y5748I157*
X18268Y5906J158*
X18110Y6063I158*
X17953Y5906J157*
G01Y7480*
G03X18110Y7323I157*
X18268Y7480J157*
X18110Y7638I158*
X17953Y7480J158*
G01Y9449*
G03X18110Y9291I157*
X18268Y9449J158*
X18110Y9606I158*
X17953Y9449J157*
G01Y15282*
G03X18009Y15251I101J120*
G01Y14401*
G03X18012Y14371I158*
G01Y14016*
G03X18169Y13859I157*
X18285Y13909J157*
G02X18307Y13919I22J20*
X18329Y13909J30*
G03X18346Y13893I116J107*
G01Y3937*
G03X18504Y3780I158*
X18661Y3937J157*
X18504Y4094I157*
X18346Y3937J157*
G01Y4331*
G03X18504Y4173I158*
X18661Y4331J158*
X18504Y4488I157*
X18346Y4331J157*
G01Y4724*
G03X18504Y4567I158*
X18661Y4724J157*
X18504Y4882I157*
X18346Y4724J158*
G01Y5118*
G03X18504Y4961I158*
X18661Y5118J157*
X18504Y5276I157*
X18346Y5118J158*
G01Y7087*
G03X18504Y6929I158*
X18661Y7087J158*
X18504Y7244I157*
X18346Y7087J157*
G01Y7480*
G03X18504Y7323I158*
X18661Y7480J157*
X18504Y7638I157*
X18346Y7480J158*
G01Y8268*
G03X18504Y8110I158*
X18661Y8268J158*
X18504Y8425I157*
X18346Y8268J157*
G01Y10630*
G03X18504Y10472I158*
X18661Y10630J158*
X18504Y10787I157*
X18346Y10630J157*
G01Y11024*
G03X18504Y10866I158*
X18661Y11024J158*
X18504Y11181I157*
X18346Y11024J157*
G01Y11417*
G03X18504Y11260I158*
X18661Y11417J157*
X18504Y11575I157*
X18346Y11417J158*
G01Y11811*
G03X18504Y11654I158*
X18661Y11811J157*
X18504Y11969I157*
X18346Y11811J158*
G01Y12205*
G03X18504Y12047I158*
X18661Y12205J158*
X18504Y12362I157*
X18346Y12205J157*
G01Y13893*
G03X18445Y13859I99J123*
X18602Y14016J157*
X18445Y14174I157*
X18329Y14123J158*
G02X18307Y14113I22J20*
X18285Y14123J30*
G03X18169Y14174I116J107*
X18012Y14016J158*
G01Y14371*
G03X18167Y14244I155J30*
X18282Y14294J157*
G02X18304Y14304I22J20*
X18326Y14294J30*
G03X18442Y14244I116J107*
X18600Y14401J157*
X18442Y14559I158*
X18326Y14508J158*
G02X18304Y14498I22J20*
X18282Y14508J30*
G03X18167Y14559I115J107*
X18009Y14401J158*
G01Y15251*
G03X18054Y15245I45J151*
X18212Y15402J157*
X18176Y15502I158*
G02X18169Y15521I23J19*
X18199Y15551I30*
G01X18618*
G02X18648Y15521J30*
X18641Y15502I30*
G03X18605Y15402I122J100*
X18740Y15246I158*
G01Y3937*
G03X18898Y3780I158*
X19055Y3937J157*
X18898Y4094I157*
X18740Y3937J157*
G01Y4331*
G03X18898Y4173I158*
X19055Y4331J158*
X18898Y4488I157*
X18740Y4331J157*
G01Y5118*
G03X18898Y4961I158*
X19055Y5118J157*
X18898Y5276I157*
X18740Y5118J158*
G01Y5906*
G03X18898Y5748I158*
X19055Y5906J158*
X18898Y6063I157*
X18740Y5906J157*
G01Y6299*
G03X18898Y6142I158*
X19055Y6299J157*
X18898Y6457I157*
X18740Y6299J158*
G01Y6693*
G03X18898Y6535I158*
X19055Y6693J158*
X18898Y6850I157*
X18740Y6693J157*
G01Y7087*
G03X18898Y6929I158*
X19055Y7087J158*
X18898Y7244I157*
X18740Y7087J157*
G01Y7480*
G03X18898Y7323I158*
X19055Y7480J157*
X18898Y7638I157*
X18740Y7480J158*
G01Y8268*
G03X18898Y8110I158*
X19055Y8268J158*
X18898Y8425I157*
X18740Y8268J157*
G01Y9449*
G03X18898Y9291I158*
X19055Y9449J158*
X18898Y9606I157*
X18740Y9449J157*
G01Y9843*
G03X18898Y9685I158*
X19055Y9843J158*
X18898Y10000I157*
X18740Y9843J157*
G01Y10236*
G03X18898Y10079I158*
X19055Y10236J157*
X18898Y10394I157*
X18740Y10236J158*
G01Y10630*
G03X18898Y10472I158*
X19055Y10630J158*
X18898Y10787I157*
X18740Y10630J157*
G01Y11024*
G03X18898Y10866I158*
X19055Y11024J158*
X18898Y11181I157*
X18740Y11024J157*
G01Y11417*
G03X18898Y11260I158*
X19055Y11417J157*
X18898Y11575I157*
X18740Y11417J158*
G01Y11811*
G03X18898Y11654I158*
X19055Y11811J157*
X18898Y11969I157*
X18740Y11811J158*
G01Y12205*
G03X18898Y12047I158*
X19055Y12205J158*
X18898Y12362I157*
X18740Y12205J157*
G01Y15246*
G03X18763Y15245I23J156*
X18878Y15295J157*
G02X18900Y15305I22J20*
X18923Y15295J30*
G03X18996Y15250I115J107*
G01Y12874*
G03X19134Y12718I158*
G01Y5118*
G03X19291Y4961I157*
X19393Y4998J157*
G01Y2804*
G03X19550Y2646I157*
X19666Y2697J158*
G02X19688Y2707I22J20*
X19710Y2697J30*
G03X19826Y2646I116J107*
X19958Y2718J158*
G02X19983Y2732I25J16*
X20008Y2718J30*
G03X20141Y2646I133J86*
X20256Y2697J158*
G02X20278Y2707I22J20*
X20301Y2697J30*
G03X20416Y2646I115J107*
X20574Y2804J158*
X20416Y2961I158*
X20301Y2911J157*
G02X20279Y2901I22J20*
X20256Y2911J30*
G03X20141Y2961I115J107*
X20008Y2889J157*
G02X19983Y2876I25J17*
X19958Y2889J30*
G03X19826Y2961I132J85*
X19710Y2911J157*
G02X19688Y2901I22J20*
X19666Y2911J30*
G03X19550Y2961I116J107*
X19393Y2804J157*
G01Y4998*
G03X19449Y5118I102J120*
X19291Y5276I158*
X19134Y5118J158*
G01Y5512*
G03X19291Y5354I157*
X19449Y5512J158*
X19291Y5669I158*
X19134Y5512J157*
G01Y6299*
G03X19291Y6142I157*
X19449Y6299J157*
X19291Y6457I158*
X19134Y6299J158*
G01Y7087*
G03X19291Y6929I157*
X19449Y7087J158*
X19291Y7244I158*
X19134Y7087J157*
G01Y7480*
G03X19291Y7323I157*
X19449Y7480J157*
X19291Y7638I158*
X19134Y7480J158*
G01Y8268*
G03X19291Y8110I157*
X19449Y8268J158*
X19291Y8425I158*
X19134Y8268J157*
G01Y8661*
G03X19291Y8504I157*
X19449Y8661J157*
X19291Y8819I158*
X19134Y8661J158*
G01Y9055*
G03X19291Y8898I157*
X19449Y9055J157*
X19291Y9213I158*
X19134Y9055J158*
G01Y9843*
G03X19291Y9685I157*
X19449Y9843J158*
X19291Y10000I158*
X19134Y9843J157*
G01Y10236*
G03X19291Y10079I157*
X19449Y10236J157*
X19291Y10394I158*
X19134Y10236J158*
G01Y10630*
G03X19291Y10472I157*
X19449Y10630J158*
X19291Y10787I158*
X19134Y10630J157*
G01Y11024*
G03X19291Y10866I157*
X19449Y11024J158*
X19291Y11181I158*
X19134Y11024J157*
G01Y11417*
G03X19291Y11260I157*
X19449Y11417J157*
X19291Y11575I158*
X19134Y11417J158*
G01Y12718*
G03X19154Y12716I20J156*
X19269Y12767J158*
G02X19291Y12777I22J20*
X19313Y12767J30*
G03X19429Y12716I116J107*
X19562Y12788J158*
G02X19587Y12802I25J16*
X19612Y12788J30*
G03X19744Y12716I132J86*
X19860Y12767J158*
G02X19882Y12777I22J20*
X19904Y12767J30*
G03X19921Y12751I116J107*
G01Y3937*
G03X20079Y3780I158*
X20236Y3937J157*
X20079Y4094I157*
X19921Y3937J157*
G01Y4331*
G03X20079Y4173I158*
X20236Y4331J158*
X20079Y4488I157*
X19921Y4331J157*
G01Y4724*
G03X20079Y4567I158*
X20236Y4724J157*
X20079Y4882I157*
X19921Y4724J158*
G01Y5906*
G03X20079Y5748I158*
X20236Y5906J158*
X20079Y6063I157*
X19921Y5906J157*
G01Y6693*
G03X20079Y6535I158*
X20236Y6693J158*
X20079Y6850I157*
X19921Y6693J157*
G01Y7480*
G03X20079Y7323I158*
X20236Y7480J157*
X20079Y7638I157*
X19921Y7480J158*
G01Y8661*
G03X20079Y8504I158*
X20236Y8661J157*
X20079Y8819I157*
X19921Y8661J158*
G01Y9449*
G03X20079Y9291I158*
X20236Y9449J158*
X20079Y9606I157*
X19921Y9449J157*
G01Y10236*
G03X20079Y10079I158*
X20236Y10236J157*
X20079Y10394I157*
X19921Y10236J158*
G01Y11024*
G03X20079Y10866I158*
X20236Y11024J158*
X20079Y11181I157*
X19921Y11024J157*
G01Y11417*
G03X20079Y11260I158*
X20236Y11417J157*
X20079Y11575I157*
X19921Y11417J158*
G01Y11811*
G03X20079Y11654I158*
X20236Y11811J157*
X20079Y11969I157*
X19921Y11811J158*
G01Y12751*
G03X20020Y12716I99J123*
X20177Y12874J158*
X20020Y13031I157*
X19904Y12981J157*
G02X19882Y12971I22J20*
X19860Y12981J30*
G03X19744Y13031I116J107*
X19612Y12959J157*
G02X19587Y12946I25J17*
X19562Y12959J30*
G03X19429Y13031I133J85*
X19313Y12981J157*
G02X19291Y12971I22J20*
X19269Y12981J30*
G03X19154Y13031I115J107*
X18996Y12874J157*
G01Y15250*
G03X19038Y15245I42J152*
X19196Y15402J157*
X19160Y15502I158*
G02X19153Y15521I23J19*
X19183Y15551I30*
G01X19602*
G02X19632Y15521J30*
X19625Y15502I30*
G03X19589Y15402I122J100*
X19747Y15245I158*
X19863Y15295J157*
G02X19885Y15305I22J20*
X19907Y15295J30*
G03X19978Y15251I116J107*
G01Y14401*
G03X20135Y14244I157*
X20251Y14294J157*
G02X20273Y14304I22J20*
X20295Y14294J30*
G03X20315Y14276I116J107*
G01Y4724*
G03X20472Y4567I157*
X20630Y4724J157*
X20472Y4882I158*
X20315Y4724J158*
G01Y6299*
G03X20472Y6142I157*
X20630Y6299J157*
X20472Y6457I158*
X20315Y6299J158*
G01Y7087*
G03X20472Y6929I157*
X20630Y7087J158*
X20472Y7244I158*
X20315Y7087J157*
G01Y7480*
G03X20472Y7323I157*
X20630Y7480J157*
X20472Y7638I158*
X20315Y7480J158*
G01Y8268*
G03X20472Y8110I157*
X20630Y8268J158*
X20472Y8425I158*
X20315Y8268J157*
G01Y9055*
G03X20472Y8898I157*
X20630Y9055J157*
X20472Y9213I158*
X20315Y9055J158*
G01Y9843*
G03X20472Y9685I157*
X20630Y9843J158*
X20472Y10000I158*
X20315Y9843J157*
G01Y10236*
G03X20472Y10079I157*
X20630Y10236J157*
X20472Y10394I158*
X20315Y10236J158*
G01Y11417*
G03X20472Y11260I157*
X20630Y11417J157*
X20472Y11575I158*
X20315Y11417J158*
G01Y11811*
G03X20472Y11654I157*
X20630Y11811J157*
X20472Y11969I158*
X20315Y11811J158*
G01Y14276*
G03X20411Y14244I96J125*
X20568Y14401J157*
X20411Y14559I157*
X20295Y14508J158*
G02X20273Y14498I22J20*
X20251Y14508J30*
G03X20135Y14559I116J107*
X19978Y14401J158*
G01Y15251*
G03X20023Y15245I45J151*
X20180Y15402J157*
X20144Y15502I157*
G02X20137Y15521I23J19*
X20167Y15551I30*
G01X20571*
Y12874*
G03X20709Y12718I157*
G01Y3937*
G03X20866Y3780I157*
X21024Y3937J157*
X20866Y4094I158*
X20709Y3937J157*
G01Y5512*
G03X20866Y5354I157*
X21024Y5512J158*
X20866Y5669I158*
X20709Y5512J157*
G01Y6693*
G03X20866Y6535I157*
X21024Y6693J158*
X20866Y6850I158*
X20709Y6693J157*
G01Y7087*
G03X20866Y6929I157*
X21024Y7087J158*
X20866Y7244I158*
X20709Y7087J157*
G01Y7480*
G03X20866Y7323I157*
X21024Y7480J157*
X20866Y7638I158*
X20709Y7480J158*
G01Y8268*
G03X20866Y8110I157*
X21024Y8268J158*
X20866Y8425I158*
X20709Y8268J157*
G01Y9449*
G03X20866Y9291I157*
X21024Y9449J158*
X20866Y9606I158*
X20709Y9449J157*
G01Y10236*
G03X20866Y10079I157*
X21024Y10236J157*
X20866Y10394I158*
X20709Y10236J158*
G01Y12718*
G03X20728Y12716I19J156*
X20844Y12767J158*
G02X20866Y12777I22J20*
X20888Y12767J30*
G03X21004Y12716I116J107*
X21102Y12751J158*
G01Y3543*
G03X21178Y3408I158*
G01Y1499*
G03X21336Y1342I158*
X21452Y1393J157*
G02X21474Y1402I22J21*
X21496Y1393J30*
G03X21612Y1342I116J106*
X21769Y1499J157*
X21612Y1657I157*
X21496Y1606J158*
G02X21474Y1597I22J21*
X21452Y1606J30*
G03X21336Y1657I116J107*
X21178Y1499J158*
G01Y3408*
G03X21260Y3386I82J135*
X21417Y3543J157*
X21260Y3701I157*
X21102Y3543J158*
G01Y3937*
G03X21260Y3780I158*
X21417Y3937J157*
X21260Y4094I157*
X21102Y3937J157*
G01Y4331*
G03X21260Y4173I158*
X21417Y4331J158*
X21260Y4488I157*
X21102Y4331J157*
G01Y5118*
G03X21260Y4961I158*
X21417Y5118J157*
X21260Y5276I157*
X21102Y5118J158*
G01Y5512*
G03X21260Y5354I158*
X21417Y5512J158*
X21260Y5669I157*
X21102Y5512J157*
G01Y6299*
G03X21260Y6142I158*
X21417Y6299J157*
X21260Y6457I157*
X21102Y6299J158*
G01Y7087*
G03X21260Y6929I158*
X21417Y7087J158*
X21260Y7244I157*
X21102Y7087J157*
G01Y8268*
G03X21260Y8110I158*
X21417Y8268J158*
X21260Y8425I157*
X21102Y8268J157*
G01Y9055*
G03X21260Y8898I158*
X21417Y9055J157*
X21260Y9213I157*
X21102Y9055J158*
G01Y9843*
G03X21260Y9685I158*
X21417Y9843J158*
X21260Y10000I157*
X21102Y9843J157*
G01Y10236*
G03X21260Y10079I158*
X21417Y10236J157*
X21260Y10394I157*
X21102Y10236J158*
G01Y12751*
G03X21162Y12874I98J123*
X21004Y13031I158*
X20888Y12981J157*
G02X20866Y12971I22J20*
X20844Y12981J30*
G03X20728Y13031I116J107*
X20571Y12874J157*
G01Y15551*
X20586*
G02X20616Y15521J30*
X20609Y15502I30*
G03X20574Y15402I122J100*
X20731Y15245I157*
X20847Y15295J157*
G02X20869Y15305I22J20*
X20891Y15295J30*
G03X21007Y15245I116J107*
X21164Y15402J157*
X21129Y15502I157*
G02X21122Y15521I23J19*
X21152Y15551I30*
G01X21496*
Y3937*
G03X21654Y3780I158*
X21811Y3937J157*
X21654Y4094I157*
X21496Y3937J157*
G01Y5512*
G03X21654Y5354I158*
X21811Y5512J158*
X21654Y5669I157*
X21496Y5512J157*
G01Y7480*
G03X21654Y7323I158*
X21811Y7480J157*
X21654Y7638I157*
X21496Y7480J158*
G01Y8661*
G03X21654Y8504I158*
X21811Y8661J157*
X21654Y8819I157*
X21496Y8661J158*
G01Y9449*
G03X21654Y9291I158*
X21811Y9449J158*
X21654Y9606I157*
X21496Y9449J157*
G01Y11024*
G03X21654Y10866I158*
X21811Y11024J158*
X21654Y11181I157*
X21496Y11024J157*
G01Y11811*
G03X21654Y11654I158*
X21811Y11811J157*
X21654Y11969I157*
X21496Y11811J158*
G01Y15551*
X21571*
G02X21601Y15521J30*
X21594Y15502I30*
G03X21558Y15402I121J100*
X21715Y15245I157*
X21831Y15295J157*
G02X21853Y15305I22J20*
X21875Y15295J30*
G03X21890Y15282I116J107*
G01Y4724*
G03X22047Y4567I157*
X22205Y4724J157*
X22047Y4882I158*
X21890Y4724J158*
G01Y5118*
G03X22047Y4961I157*
X22205Y5118J157*
X22047Y5276I158*
X21890Y5118J158*
G01Y5512*
G03X22047Y5354I157*
X22205Y5512J158*
X22047Y5669I158*
X21890Y5512J157*
G01Y6299*
G03X22047Y6142I157*
X22205Y6299J157*
X22047Y6457I158*
X21890Y6299J158*
G01Y10630*
G03X22047Y10472I157*
X22205Y10630J158*
X22047Y10787I158*
X21890Y10630J157*
G01Y15282*
G03X21946Y15251I101J120*
G01Y14401*
G03X21967Y14324I158*
X22025Y14264I137J77*
X22104Y14244I79J137*
X22219Y14294J157*
G02X22241Y14304I22J20*
X22263Y14294J30*
G03X22283Y14276I116J107*
G01Y3937*
G03X22441Y3780I158*
X22598Y3937J157*
X22441Y4094I157*
X22283Y3937J157*
G01Y4331*
G03X22441Y4173I158*
X22598Y4331J158*
X22441Y4488I157*
X22283Y4331J157*
G01Y4724*
G03X22441Y4567I158*
X22598Y4724J157*
X22441Y4882I157*
X22283Y4724J158*
G01Y9449*
G03X22441Y9291I158*
X22598Y9449J158*
X22441Y9606I157*
X22283Y9449J157*
G01Y14276*
G03X22379Y14244I96J125*
X22537Y14401J157*
X22379Y14559I158*
X22263Y14508J158*
G02X22241Y14498I22J20*
X22219Y14508J30*
G03X22155Y14550I115J107*
X22104Y14559I51J149*
X21946Y14401J158*
G01Y15251*
G03X21949I45J151*
X21991Y15245I42J151*
X22149Y15402J157*
X22142Y15449I158*
X22113Y15502I151J47*
G02X22106Y15521I23J19*
X22136Y15551I30*
G01X22677*
Y3543*
G03X22835Y3386I158*
X22936Y3423J157*
G01Y1347*
G03X23093Y1190I157*
X23209Y1240J157*
G02X23231Y1250I22J20*
X23253Y1240J30*
G03X23369Y1190I116J107*
X23527Y1347J157*
X23369Y1505I158*
X23253Y1454J158*
G02X23231Y1444I22J20*
X23209Y1454J30*
G03X23193Y1469I116J107*
X23117Y1503I100J122*
X23093Y1505I24J156*
X22936Y1347J158*
G01Y2804*
G03X23093Y2646I157*
X23209Y2697J158*
G02X23231Y2707I22J20*
X23253Y2697J30*
G03X23369Y2646I116J107*
X23527Y2804J158*
X23369Y2961I158*
X23253Y2911J157*
G02X23231Y2901I22J20*
X23209Y2911J30*
G03X23193Y2926I116J107*
X23117Y2960I100J122*
X23093Y2961I24J156*
X22936Y2804J157*
G01Y3423*
G03X22992Y3543I101J120*
X22835Y3701I157*
X22677Y3543J158*
G01Y3937*
G03X22835Y3780I158*
X22992Y3937J157*
X22835Y4094I157*
X22677Y3937J157*
G01Y4331*
G03X22835Y4173I158*
X22992Y4331J158*
X22835Y4488I157*
X22677Y4331J157*
G01Y5906*
G03X22835Y5748I158*
X22992Y5906J158*
X22835Y6063I157*
X22677Y5906J157*
G01Y6299*
G03X22835Y6142I158*
X22992Y6299J157*
X22835Y6457I157*
X22677Y6299J158*
G01Y8268*
G03X22835Y8110I158*
X22992Y8268J158*
X22835Y8425I157*
X22677Y8268J157*
G01Y12205*
G03X22835Y12047I158*
X22992Y12205J158*
X22835Y12362I157*
X22677Y12205J157*
G01Y15551*
X22948*
G02X22978Y15521J30*
X22972Y15502I30*
G03X22936Y15402I121J100*
X23071Y15246I157*
G01Y5906*
G03X23228Y5748I157*
X23386Y5906J158*
X23228Y6063I158*
X23071Y5906J157*
G01Y6693*
G03X23228Y6535I157*
X23386Y6693J158*
X23228Y6850I158*
X23071Y6693J157*
G01Y10630*
G03X23228Y10472I157*
X23386Y10630J158*
X23228Y10787I158*
X23071Y10630J157*
G01Y11024*
G03X23228Y10866I157*
X23386Y11024J158*
X23228Y11181I158*
X23071Y11024J157*
G01Y15246*
G03X23093Y15245I22J156*
X23209Y15295J157*
G02X23231Y15305I22J20*
X23253Y15295J30*
G03X23369Y15245I116J107*
X23465Y15277J157*
G01Y5512*
G03X23622Y5354I157*
X23723Y5391J158*
G01Y2804*
G03X23881Y2646I158*
X23957Y2666J158*
G01Y1320*
G03X24114Y1163I157*
X24272Y1320J157*
X24114Y1478I158*
X23957Y1320J158*
G01Y2666*
G03X23997Y2697I76J138*
G02X24019Y2707I22J20*
X24041Y2697J30*
G03X24157Y2646I116J107*
X24314Y2804J158*
X24157Y2961I157*
X24041Y2911J157*
G02X24019Y2901I22J20*
X23997Y2911J30*
G03X23881Y2961I116J107*
X23723Y2804J157*
G01Y5391*
G03X23780Y5512I101J121*
X23622Y5669I158*
X23465Y5512J157*
G01Y9843*
G03X23622Y9685I157*
X23780Y9843J158*
X23622Y10000I158*
X23465Y9843J157*
G01Y15277*
G03X23527Y15402I96J125*
X23491Y15502I158*
G02X23484Y15521I23J19*
X23514Y15551I30*
G01X23563*
Y12971*
G03X23721Y12814I158*
X23858Y12895J157*
G01Y3937*
G03X23996Y3781I158*
G01Y3425*
G03X24154Y3268I158*
X24311Y3425J157*
X24154Y3583I157*
X23996Y3425J158*
G01Y3781*
G03X24016Y3780I20J156*
X24173Y3937J157*
X24016Y4094I157*
X23858Y3937J157*
G01Y4331*
G03X24016Y4173I158*
X24173Y4331J158*
X24016Y4488I157*
X23858Y4331J157*
G01Y8661*
G03X24016Y8504I158*
X24173Y8661J157*
X24016Y8819I157*
X23858Y8661J158*
G01Y12895*
G03X23878Y12971I137J76*
X23721Y13129I157*
X23563Y12971J158*
G01Y15551*
X23915*
Y14401*
G03X24055Y14245I157*
G01Y12441*
G03X24213Y12283I158*
X24350Y12365J158*
G01Y1320*
G03X24498Y1163I158*
G02X24525Y1140I2J30*
G03X25000Y755I475J100*
X25485Y1240J485*
X25000Y1726I485*
X24582Y1486J486*
G02X24556Y1472I26J16*
X24548Y1473J30*
G03X24508Y1478I40J153*
X24350Y1320J158*
G01Y12365*
G03X24370Y12441I137J76*
X24213Y12598I157*
X24055Y12441J157*
G01Y14245*
G03X24072Y14244I17J156*
X24188Y14294J157*
G02X24210Y14304I22J20*
X24232Y14294J30*
G03X24348Y14244I116J107*
X24505Y14401J157*
X24348Y14559I157*
X24232Y14508J158*
G02X24210Y14498I22J20*
X24188Y14508J30*
G03X24072Y14559I116J107*
X23915Y14401J158*
G01Y15551*
X24405*
G02X24435Y15521J30*
X24429Y15502I30*
G03X24393Y15402I121J100*
X24515Y15249I157*
G01Y13839*
G03X24556Y13642I485*
G01Y11750*
G03X24714Y11593I158*
X24871Y11750J157*
X24714Y11908I157*
X24556Y11750J158*
G01Y13642*
G03X24912Y13361I444J197*
G01Y12052*
G03X25020Y11903I157*
G01Y9685*
G03X25118Y9539I157*
G01Y4658*
G03X25276Y4501I158*
X25433Y4658J157*
X25276Y4816I157*
X25118Y4658J158*
G01Y7217*
G03X25276Y7060I158*
X25433Y7217J157*
X25276Y7375I157*
X25118Y7217J158*
G01Y9066*
G03X25276Y8908I158*
X25433Y9066J158*
X25276Y9223I157*
X25118Y9066J157*
G01Y9539*
G03X25177Y9528I59J146*
X25335Y9685J157*
X25177Y9843I158*
X25020Y9685J158*
G01Y11903*
G03X25069Y11895I49J149*
X25227Y12052J157*
X25069Y12210I158*
X24912Y12052J158*
G01Y13361*
G03X24928Y13359I88J478*
G01Y12480*
G03X25085Y12323I157*
X25242Y12480J157*
X25085Y12638I157*
X24928Y12480J158*
G01Y13359*
G03X25000Y13353I72J480*
X25485Y13839J486*
X25000Y14324I485*
X24515Y13839J485*
G01Y15249*
G03X24550Y15245I35J153*
X24708Y15402J157*
X24672Y15502I158*
G02X24665Y15521I23J19*
X24695Y15551I30*
G01X25869*
Y4724*
G03X26027Y4567I158*
X26184Y4724J157*
X26027Y4882I157*
X25869Y4724J158*
G01Y5512*
G03X26027Y5354I158*
X26184Y5512J158*
X26027Y5669I157*
X25869Y5512J157*
G01Y6299*
G03X26027Y6142I158*
X26184Y6299J157*
X26027Y6457I157*
X25869Y6299J158*
G01Y15551*
X25997*
Y12402*
G03X26154Y12244I157*
X26312Y12402J158*
X26154Y12559I158*
X25997Y12402J157*
G01Y13386*
G03X26154Y13228I157*
X26312Y13386J158*
X26154Y13543I158*
X25997Y13386J157*
G01Y15551*
X26565*
Y9941*
G03X26722Y9784I157*
X26880Y9941J157*
X26722Y10099I158*
X26565Y9941J158*
G01Y15551*
X27445*
G02X27475Y15521J30*
X27466Y15499I30*
G03X27064Y14567I880J932*
X27261Y13884I1282*
G01Y7874*
G03Y7867I157*
G01Y7382*
G03X27264Y7353I158*
G01Y5118*
G03X27559Y4823I295*
X27854Y5118J295*
X27559Y5413I295*
X27264Y5118J295*
G01Y7353*
G03X27419Y7224I155J29*
X27576Y7382J158*
X27419Y7539I157*
X27261Y7382J157*
G01Y7867*
G03X27418Y7717I157J7*
X27576Y7874J157*
X27418Y8031I158*
X27261Y7874J157*
G01Y13884*
G03X27264Y13879I1085J683*
G01Y9055*
G03X27559Y8760I295*
X27854Y9055J295*
X27559Y9350I295*
X27264Y9055J295*
G01Y13879*
G03X27382Y13721I1082J688*
G01Y9685*
G03X27539Y9528I157*
X27697Y9685J157*
X27539Y9843I158*
X27382Y9685J158*
G01Y13721*
G03X28346Y13284I964J846*
X29279Y13686J1283*
G02X29301Y13696I22J20*
X29331Y13666J30*
G01Y2083*
G02X29301Y2053I30*
X29279Y2062J30*
G03X28347Y2464I932J881*
X27064Y1181J1283*
X27466Y249I1283*
G02X27475Y227I21J22*
X27445Y197I30*
G01X24429*
G02X24399Y227J30*
X24410Y250I30*
G03X24469Y373I99J123*
X24311Y530I158*
X24158Y408J157*
G02X24128Y385I30J7*
X24101Y404J30*
G03X23954Y503I147J58*
X23838Y453J157*
G02X23816Y443I22J20*
X23794Y453J30*
G03X23678Y504I116J107*
X23521Y346J158*
X23557Y246I157*
G02X23564Y227I23J19*
X23534Y197I30*
G01X23115*
G02X23085Y227J30*
X23091Y246I30*
G03X23127Y346I121J100*
X22970Y503I157*
X22854Y453J157*
G02X22832Y443I22J20*
X22810Y453J30*
G03X22694Y504I116J107*
X22562Y432J158*
G02X22537Y418I25J16*
X22511Y432J30*
G03X22379Y503I132J86*
X22263Y453J157*
G02X22241Y443I22J20*
X22219Y453J30*
G03X22104Y504I115J107*
X21946Y346J158*
X21982Y246I158*
G02X21989Y227I23J19*
X21959Y197I30*
G01X21540*
G02X21510Y227J30*
X21517Y246I30*
G03X21552Y346I122J100*
X21395Y503I157*
X21279Y453J157*
G02X21257Y443I22J20*
X21235Y453J30*
G03X21119Y504I116J107*
X20987Y432J158*
G02X20962Y418I25J16*
X20937Y432J30*
G03X20804Y503I133J86*
X20689Y453J157*
G02X20667Y443I22J20*
X20645Y453J30*
G03X20529Y504I116J107*
X20371Y346J158*
X20407Y246I158*
G02X20414Y227I23J19*
X20384Y197I30*
G01X19965*
G02X19935Y227J30*
X19942Y246I30*
G03X19978Y346I122J100*
X19820Y503I158*
X19704Y453J157*
G02X19682Y443I22J20*
X19660Y453J30*
G03X19544Y504I116J107*
X19387Y346J158*
X19423Y246I157*
G02X19430Y227I23J19*
X19400Y197I30*
G01X18720*
G02X18690Y227J30*
X18701Y250I30*
G03X18760Y373I99J123*
X18602Y530I158*
X18445Y373J157*
X18504Y250I157*
G02X18515Y227I19J23*
X18485Y197I30*
G01X18193*
G02X18163Y227J30*
X18170Y246I30*
G03X18206Y346I121J100*
X18049Y503I157*
X17933Y453J157*
G02X17911Y443I22J20*
X17889Y453J30*
G03X17773Y504I116J107*
X17641Y432J158*
G02X17615Y418I26J16*
X17590Y432J30*
G03X17458Y503I132J86*
X17342Y453J157*
G02X17320Y443I22J20*
X17298Y453J30*
G03X17182Y504I116J107*
X17025Y346J158*
X17061Y246I157*
G02X17068Y227I23J19*
X17038Y197I30*
G01X16815*
G02X16785Y227J30*
X16792Y246I30*
G03X16828Y346I121J100*
X16671Y503I157*
X16555Y453J157*
G02X16533Y443I22J20*
X16511Y453J30*
G03X16395Y504I116J107*
X16251Y411J158*
G02X16224Y393I27J12*
X16195Y415J30*
G03X16043Y530I152J42*
X15886Y373J157*
X15944Y250I157*
G02X15956Y227I18J23*
X15926Y197I30*
G01X15768*
G02X15738Y227J30*
X15749Y250I30*
G03X15807Y373I99J123*
X15650Y530I157*
X15492Y373J157*
X15551Y250I158*
G02X15562Y227I19J23*
X15532Y197I30*
G01X15374*
G02X15344Y227J30*
X15355Y250I30*
G03X15413Y373I99J123*
X15256Y530I157*
X15099Y373J157*
X15157Y250I157*
G02X15168Y227I19J23*
X15138Y197I30*
G01X14980*
G02X14950Y227J30*
X14961Y250I30*
G03X15020Y373I99J123*
X14862Y530I158*
X14705Y373J157*
X14763Y250I157*
G02X14775Y227I18J23*
X14745Y197I30*
G01X11925*
G02X11895Y227J30*
X11904Y249I30*
G03X12306Y1181I880J932*
X11024Y2464I1282*
X9741Y1181J1283*
X10143Y249I1283*
G02X10152Y227I21J22*
X10122Y197I30*
G01X227*
G02X197Y227J30*
G01Y702*
G02X227Y732I30*
X254Y716J30*
G03X394Y630I140J71*
X551Y787J157*
X394Y945I157*
X254Y859J158*
G02X227Y843I27J14*
X197Y873J30*
G01Y1096*
G02X227Y1126I30*
X254Y1109J30*
G03X394Y1024I140J72*
X551Y1181J157*
X394Y1339I157*
X254Y1253J158*
G02X227Y1237I27J14*
X197Y1267J30*
G01Y1489*
G02X227Y1519I30*
X254Y1503J30*
G03X394Y1417I140J72*
X551Y1575J158*
X394Y1732I157*
X254Y1647J157*
G02X227Y1630I27J13*
X197Y1660J30*
G01Y15521*
G37*
G54D10*
X11024Y1181D03*
Y14567D03*
X28346D03*
X28347Y1181D03*
G54D11*
X3111Y-705D02*
X3134Y-780D01*
X3178Y-825*
X3260Y-847*
X3283*
X3357Y-825*
X3402Y-780*
X3424Y-705*
Y-683*
X3402Y-616*
X3357Y-571*
X3283Y-549*
X3260*
X3178Y-571*
X3134Y-616*
X3111Y-705*
Y-825*
X3134Y-944*
X3178Y-1011*
X3260Y-1033*
X3305*
X3380Y-1011*
X3402Y-966*
G54D12*
X1459Y4528D03*
Y8465D03*
X1639Y14124D03*
X2544Y13484D03*
X3809Y2864D03*
Y6801D03*
X4066Y15197D03*
X4213Y10827D03*
X4606D03*
Y11220D03*
Y11614D03*
Y12008D03*
X4705Y2860D03*
Y6797D03*
X5000Y10827D03*
Y11220D03*
Y11614D03*
Y12008D03*
X5394Y10827D03*
Y11220D03*
Y11614D03*
X5512Y2152D03*
Y6089D03*
X5787Y10827D03*
Y11220D03*
Y11614D03*
X6181Y10827D03*
Y11220D03*
Y11614D03*
X6415Y5315D03*
Y9252D03*
X6575Y10827D03*
Y11220D03*
Y11614D03*
X7645Y6874D03*
Y7874D03*
Y8874D03*
X7677Y3740D03*
X7745Y14409D03*
Y15197D03*
X8917Y4134D03*
X9119Y13140D03*
X9409Y8454D03*
X10025Y12500D03*
X10245Y5413D03*
Y6004D03*
Y6595D03*
Y7185D03*
Y7776D03*
Y8366D03*
Y9350D03*
X12590Y5413D03*
Y6004D03*
Y6595D03*
Y7185D03*
Y7776D03*
Y8366D03*
Y9350D03*
X12809Y4232D03*
Y12303D03*
X13740Y8091D03*
X14291D03*
X14843Y6548D03*
Y8091D03*
X14862Y1829D03*
X15354Y3543D03*
Y7480D03*
Y11811D03*
X15453Y1829D03*
X15748Y6299D03*
Y10630D03*
X16142Y5118D03*
Y9449D03*
X16535Y3543D03*
Y3937D03*
Y8268D03*
Y12205D03*
X16634Y1829D03*
Y14428D03*
X16929Y6693D03*
Y11024D03*
X17225Y1829D03*
X17323Y5512D03*
Y9843D03*
X17618Y1320D03*
X17717Y4331D03*
Y8661D03*
X17737Y14401D03*
X17939Y1782D03*
X18110Y7087D03*
Y11417D03*
X18475Y15403D03*
X18504Y5906D03*
Y10236D03*
X18602Y12971D03*
X18898Y4724D03*
Y9055D03*
X18996Y2777D03*
X19291Y3543D03*
Y3937D03*
Y4331D03*
Y4724D03*
Y5906D03*
Y6693D03*
Y9449D03*
Y11811D03*
X19587Y13919D03*
Y14428D03*
X19980Y1320D03*
Y1829D03*
X20079Y3543D03*
Y5118D03*
Y5512D03*
Y6299D03*
Y7087D03*
Y8268D03*
Y9055D03*
Y9843D03*
Y10630D03*
X20472Y4331D03*
Y5906D03*
Y6693D03*
Y8661D03*
Y9449D03*
X20571Y13919D03*
X20866Y3543D03*
Y5118D03*
Y5906D03*
Y6299D03*
Y8661D03*
Y9055D03*
Y9843D03*
Y12205D03*
X20965Y1320D03*
Y1829D03*
X21260Y4724D03*
Y5906D03*
Y6693D03*
Y7480D03*
Y8661D03*
Y9449D03*
Y11024D03*
X21555Y13919D03*
Y14428D03*
X21654Y3543D03*
Y5118D03*
Y5906D03*
Y7087D03*
Y8268D03*
Y9055D03*
Y9843D03*
X21949Y1320D03*
Y1829D03*
X22047Y4331D03*
Y5906D03*
Y8661D03*
X22441Y3543D03*
Y5118D03*
Y5906D03*
Y7087D03*
Y11417D03*
X22539Y13919D03*
Y15376D03*
X22835Y4724D03*
Y10236D03*
X22933Y1829D03*
X23228Y3543D03*
Y3937D03*
Y4331D03*
Y4724D03*
Y9055D03*
X23524Y1829D03*
Y14428D03*
X23622Y3543D03*
Y7480D03*
Y11811D03*
X24016Y6299D03*
Y10630D03*
X24737Y3819D03*
Y4094D03*
Y4370D03*
X24744Y9685D03*
X24850Y3425D03*
X25118Y6083D03*
X25276Y8137D03*
X25669Y6083D03*
X26395Y11893D03*
X27074Y11417D03*
Y12402D03*
Y13386D03*
X27106Y9924D03*
X28757Y11893D03*
X29092Y4724D03*
Y5512D03*
Y6299D03*
Y7087D03*
Y7874D03*
Y8661D03*
Y9449D03*
G54D13*
X7677Y1969D03*
G54D14*
X10984Y3947D03*
Y11801D03*
X13789Y2008D03*
Y14606D03*
X25581Y2008D03*
Y14606D03*
G54D15*
X3937Y3937D03*
Y7874D03*
M02*
