*
G04 Job   : Y:\Users\CEG\Central Electronics\Projects\Hastingsp\MENTOR\DUNE\MIB_Module\PCB\MIB_Module.pcb*
G04 User  : ELWT2:hastingsp*
G04 Layer : 14_SilkscreenBottom.gdo*
G04 Date  : Wed Jun 28 08:25:46 2023*
G04 VeriBest Example Gerber Output Definition*
%ICAS*%
%MOIN*%
%FSLAX24Y24*%
%OFA0.0000B0.0000*%
G90*
G74*
%ADD13C,0.00394*%
%ADD10C,0.00500*%
%ADD15C,0.00512*%
%ADD14C,0.00700*%
%ADD12C,0.00787*%
%ADD11C,0.00800*%
%ADD16C,0.01575*%
G01*
G54D10*
X3941Y13184D02*
X4641D01*
Y15084*
X3941*
Y13184*
X4768Y12436D02*
X5468D01*
Y14336*
X4768*
Y12436*
X7091Y12239D02*
X7791D01*
Y14139*
X7091*
Y12239*
X9059Y6924D02*
X9759D01*
Y8824*
X9059*
Y6924*
X29528Y1181D02*
G02X28346Y0I1182D01*
G01X28345*
X0*
Y15748*
X28346*
G02X29528Y14567J1181*
G01Y1181*
G54D11*
X3512Y11467D02*
X3579Y11445D01*
X3623Y11378*
X3646Y11260*
Y11193*
X3623Y11074*
X3579Y11007*
X3512Y10985*
X3467*
X3401Y11007*
X3356Y11074*
X3334Y11193*
Y11260*
X3356Y11378*
X3401Y11445*
X3467Y11467*
X3512*
X4091D02*
X3846D01*
X3980Y11282*
X3913*
X3868Y11260*
X3846Y11237*
X3824Y11171*
Y11119*
X3846Y11052*
X3891Y11007*
X3957Y10985*
X4024*
X4091Y11007*
X4113Y11029*
X4136Y11074*
X4470Y11237D02*
X4314Y10985D01*
X4626D02*
Y11475D01*
X4425*
X4358Y11445*
X4336Y11423*
X4314Y11378*
Y11334*
X4336Y11289*
X4358Y11260*
X4425Y11237*
X4626*
X20737Y4476D02*
Y4231D01*
X20923Y4365*
Y4298*
X20945Y4253*
X20967Y4231*
X21034Y4209*
X21086*
X21153Y4231*
X21198Y4276*
X21220Y4342*
Y4409*
X21198Y4476*
X21175Y4498*
X21131Y4521*
X20967Y4855D02*
X21220Y4699D01*
Y5011D02*
X20730D01*
Y4810*
X20760Y4743*
X20782Y4721*
X20826Y4699*
X20871*
X20915Y4721*
X20945Y4743*
X20967Y4810*
Y5011*
X24969Y8368D02*
X25288Y8576D01*
Y8264*
X24969Y8368D02*
X25451D01*
X25199Y8910D02*
X25451Y8754D01*
Y9066D02*
X24961D01*
Y8865*
X24991Y8798*
X25013Y8776*
X25058Y8754*
X25102*
X25147Y8776*
X25177Y8798*
X25199Y8865*
Y9066*
X27410Y7572D02*
X27892D01*
X27410D02*
X27729Y7779D01*
Y7468*
X27521Y8247D02*
X27499D01*
X27454Y8225*
X27432Y8203*
X27402Y8158*
Y8069*
X27432Y8024*
X27454Y8002*
X27499Y7980*
X27543*
X27588Y8002*
X27662Y8047*
X27892Y8269*
Y7958*
X27640Y8604D02*
X27892Y8448D01*
Y8759D02*
X27402D01*
Y8559*
X27432Y8492*
X27454Y8470*
X27499Y8448*
X27543*
X27588Y8470*
X27618Y8492*
X27640Y8559*
Y8759*
G54D12*
X2898Y15485D02*
X2920Y15411D01*
X2965Y15366*
X3047Y15343*
X3069*
X3144Y15366*
X3189Y15411*
X3211Y15485*
Y15508*
X3189Y15575*
X3144Y15619*
X3069Y15642*
X3047*
X2965Y15619*
X2920Y15575*
X2898Y15485*
Y15366*
X2920Y15247*
X2965Y15179*
X3047Y15157*
X3092*
X3166Y15179*
X3189Y15224*
X3296Y13628D02*
X3318Y13695D01*
X3386Y13740*
X3505Y13762*
X3572*
X3691Y13740*
X3758Y13695*
X3781Y13628*
Y13583*
X3758Y13516*
X3691Y13472*
X3572Y13449*
X3505*
X3386Y13472*
X3318Y13516*
X3296Y13583*
Y13628*
Y14143D02*
X3318Y14210D01*
X3363Y14232*
X3408*
X3460Y14210*
X3482Y14165*
X3505Y14075*
X3527Y14008*
X3572Y13964*
X3617Y13941*
X3691*
X3736Y13964*
X3758Y13986*
X3781Y14053*
Y14143*
X3758Y14210*
X3736Y14232*
X3691Y14254*
X3617*
X3572Y14232*
X3527Y14187*
X3505Y14120*
X3482Y14031*
X3460Y13986*
X3408Y13964*
X3363*
X3318Y13986*
X3296Y14053*
Y14143*
X3408Y14433D02*
X3363Y14456D01*
X3318Y14500*
X3289Y14538*
Y14627*
X3318Y14665*
X3363Y14709*
X3408Y14732*
X3475Y14747*
X3594*
X3661Y14732*
X3714Y14709*
X3758Y14665*
X3781Y14627*
Y14538*
X3758Y14500*
X3714Y14456*
X3661Y14433*
X3659Y15642D02*
X3412D01*
X3547Y15455*
X3480*
X3435Y15433*
X3412Y15411*
X3390Y15343*
Y15291*
X3412Y15224*
X3457Y15179*
X3524Y15157*
X3591*
X3659Y15179*
X3681Y15202*
X3703Y15247*
X3882Y15530D02*
X3905Y15575D01*
X3949Y15619*
X3987Y15649*
X4076*
X4113Y15619*
X4158Y15575*
X4180Y15530*
X4195Y15463*
Y15343*
X4180Y15276*
X4158Y15224*
X4113Y15179*
X4076Y15157*
X3987*
X3949Y15179*
X3905Y15224*
X3882Y15276*
X4871Y11662D02*
X4893Y11729D01*
X4938Y11752*
X4983*
X5035Y11729*
X5057Y11685*
X5080Y11595*
X5102Y11528*
X5147Y11483*
X5191Y11461*
X5266*
X5311Y11483*
X5333Y11506*
X5356Y11573*
Y11662*
X5333Y11729*
X5311Y11752*
X5266Y11774*
X5191*
X5147Y11752*
X5102Y11707*
X5080Y11640*
X5057Y11550*
X5035Y11506*
X4983Y11483*
X4938*
X4893Y11506*
X4871Y11573*
Y11662*
X4960Y11163D02*
X4938Y11133D01*
X4871Y11096*
X5356*
X4983Y11953D02*
X4938Y11975D01*
X4893Y12020*
X4863Y12057*
Y12147*
X4893Y12184*
X4938Y12229*
X4983Y12251*
X5050Y12266*
X5169*
X5236Y12251*
X5288Y12229*
X5333Y12184*
X5356Y12147*
Y12057*
X5333Y12020*
X5288Y11975*
X5236Y11953*
X5558Y11808D02*
Y11562D01*
X5745Y11696*
Y11629*
X5767Y11584*
X5789Y11562*
X5857Y11540*
X5909*
X5976Y11562*
X6021Y11607*
X6043Y11674*
Y11741*
X6021Y11808*
X5998Y11830*
X5953Y11853*
X5625Y11070D02*
X5581Y11092D01*
X5558Y11167*
Y11219*
X5581Y11294*
X5648Y11338*
X5767Y11361*
X5879*
X5976Y11338*
X6021Y11294*
X6043Y11219*
Y11197*
X6021Y11122*
X5976Y11070*
X5909Y11048*
X5879*
X5812Y11070*
X5767Y11122*
X5745Y11197*
Y11219*
X5767Y11294*
X5812Y11338*
X5879Y11361*
X5670Y12032D02*
X5625Y12054D01*
X5581Y12099*
X5551Y12136*
Y12226*
X5581Y12263*
X5625Y12308*
X5670Y12330*
X5737Y12345*
X5857*
X5924Y12330*
X5976Y12308*
X6021Y12263*
X6043Y12226*
Y12136*
X6021Y12099*
X5976Y12054*
X5924Y12032*
X5836Y4615D02*
Y4637D01*
X5814Y4682*
X5792Y4704*
X5747Y4734*
X5657*
X5613Y4704*
X5590Y4682*
X5568Y4637*
Y4593*
X5590Y4548*
X5635Y4473*
X5859Y4242*
X5546*
X6267Y11361D02*
Y11048D01*
X6752Y11271*
X6267Y11808D02*
Y11562D01*
X6453Y11696*
Y11629*
X6476Y11584*
X6498Y11562*
X6565Y11540*
X6617*
X6684Y11562*
X6729Y11607*
X6752Y11674*
Y11741*
X6729Y11808*
X6707Y11830*
X6662Y11853*
X6351Y4734D02*
Y4384D01*
X6329Y4309*
X6284Y4265*
X6217Y4242*
X6172*
X6105Y4265*
X6060Y4309*
X6038Y4384*
Y4734*
X6379Y12032D02*
X6334Y12054D01*
X6289Y12099*
X6259Y12136*
Y12226*
X6289Y12263*
X6334Y12308*
X6379Y12330*
X6446Y12345*
X6565*
X6632Y12330*
X6684Y12308*
X6729Y12263*
X6752Y12226*
Y12136*
X6729Y12099*
X6684Y12054*
X6632Y12032*
X6732Y2756D02*
G03X6693Y2795I39D01*
X6654Y2756J39*
X6693Y2717I39*
X6732Y2756J39*
G01X7480D02*
X9055D01*
Y5906*
X6693*
Y3543*
X7480Y2756*
X7902Y13237D02*
X7925Y13304D01*
X7969Y13327*
X8014*
X8066Y13304*
X8089Y13259*
X8111Y13170*
X8133Y13103*
X8178Y13058*
X8223Y13036*
X8298*
X8342Y13058*
X8365Y13080*
X8387Y13148*
Y13237*
X8365Y13304*
X8342Y13327*
X8298Y13349*
X8223*
X8178Y13327*
X8133Y13282*
X8111Y13215*
X8089Y13125*
X8066Y13080*
X8014Y13058*
X7969*
X7925Y13080*
X7902Y13148*
Y13237*
Y15623D02*
X7970Y15600D01*
X7992Y15556*
Y15511*
X7970Y15459*
X7925Y15436*
X7835Y15414*
X7768Y15392*
X7723Y15347*
X7701Y15302*
Y15228*
X7723Y15183*
X7746Y15161*
X7813Y15138*
X7902*
X7970Y15161*
X7992Y15183*
X8014Y15228*
Y15302*
X7992Y15347*
X7947Y15392*
X7880Y15414*
X7791Y15436*
X7746Y15459*
X7723Y15511*
Y15556*
X7746Y15600*
X7813Y15623*
X7902*
X8014Y13528D02*
X7969Y13550D01*
X7925Y13595*
X7895Y13632*
Y13722*
X7925Y13759*
X7969Y13804*
X8014Y13826*
X8081Y13841*
X8201*
X8268Y13826*
X8320Y13804*
X8365Y13759*
X8387Y13722*
Y13632*
X8365Y13595*
X8320Y13550*
X8268Y13528*
X8014Y12834D02*
X7992D01*
X7947Y12812*
X7925Y12790*
X7895Y12745*
Y12655*
X7925Y12611*
X7947Y12588*
X7992Y12566*
X8037*
X8081Y12588*
X8156Y12633*
X8387Y12857*
Y12544*
X8431Y14993D02*
X8498Y14971D01*
X8543Y14903*
X8565Y14784*
Y14717*
X8543Y14598*
X8498Y14531*
X8431Y14508*
X8387*
X8319Y14531*
X8275Y14598*
X8252Y14717*
Y14784*
X8275Y14903*
X8319Y14971*
X8387Y14993*
X8431*
X8462Y15623D02*
X8216D01*
X8350Y15436*
X8283*
X8238Y15414*
X8216Y15392*
X8193Y15325*
Y15272*
X8216Y15205*
X8260Y15161*
X8327Y15138*
X8395*
X8462Y15161*
X8484Y15183*
X8506Y15228*
X8471Y7497D02*
Y7251D01*
X8657Y7385*
Y7318*
X8680Y7273*
X8702Y7251*
X8769Y7229*
X8821*
X8888Y7251*
X8933Y7296*
X8956Y7363*
Y7430*
X8933Y7497*
X8911Y7519*
X8866Y7542*
X8471Y7922D02*
X8493Y7989D01*
X8538Y8012*
X8583*
X8635Y7989*
X8657Y7944*
X8680Y7855*
X8702Y7788*
X8747Y7743*
X8791Y7721*
X8866*
X8911Y7743*
X8933Y7766*
X8956Y7833*
Y7922*
X8933Y7989*
X8911Y8012*
X8866Y8034*
X8791*
X8747Y8012*
X8702Y7967*
X8680Y7900*
X8657Y7810*
X8635Y7766*
X8583Y7743*
X8538*
X8493Y7766*
X8471Y7833*
Y7922*
X8583Y8213D02*
X8538Y8235D01*
X8493Y8280*
X8463Y8317*
Y8407*
X8493Y8444*
X8538Y8489*
X8583Y8511*
X8650Y8526*
X8769*
X8836Y8511*
X8888Y8489*
X8933Y8444*
X8956Y8407*
Y8317*
X8933Y8280*
X8888Y8235*
X8836Y8213*
X8685Y15511D02*
X8708Y15556D01*
X8752Y15600*
X8790Y15630*
X8879*
X8916Y15600*
X8961Y15556*
X8984Y15511*
X8999Y15444*
Y15325*
X8984Y15257*
X8961Y15205*
X8916Y15161*
X8879Y15138*
X8790*
X8752Y15161*
X8708Y15205*
X8685Y15257*
X8849Y14993D02*
X9058Y14672D01*
X8744*
X8849Y14993D02*
Y14508D01*
X9237Y14881D02*
X9259Y14926D01*
X9304Y14971*
X9341Y15000*
X9430*
X9468Y14971*
X9512Y14926*
X9535Y14881*
X9550Y14814*
Y14695*
X9535Y14628*
X9512Y14575*
X9468Y14531*
X9430Y14508*
X9341*
X9304Y14531*
X9259Y14575*
X9237Y14628*
X12571Y8213D02*
X12944D01*
X13019Y8243*
X13041Y8280*
X13063Y8340*
Y8407*
X13041Y8466*
X13019Y8496*
X12944Y8526*
X12899*
X12579Y7497D02*
Y7251D01*
X12765Y7385*
Y7318*
X12787Y7273*
X12810Y7251*
X12877Y7229*
X12929*
X12996Y7251*
X13041Y7296*
X13063Y7363*
Y7430*
X13041Y7497*
X13019Y7519*
X12974Y7542*
X12810Y8034D02*
Y7833D01*
X12832Y7766*
X12855Y7743*
X12899Y7721*
X12974*
X13019Y7743*
X13041Y7766*
X13063Y7833*
Y8034*
X12571*
Y7833*
X12601Y7766*
X12623Y7743*
X12668Y7721*
X12713*
X12758Y7743*
X12787Y7766*
X12810Y7833*
X12835Y5020D02*
G03X12736Y5118I99D01*
X12638Y5020J98*
X12736Y4921I98*
X12835Y5020J99*
G01X13349Y5400D02*
X13372Y5467D01*
X13439Y5512*
X13558Y5534*
X13625*
X13744Y5512*
X13811Y5467*
X13834Y5400*
Y5355*
X13811Y5288*
X13744Y5243*
X13625Y5221*
X13558*
X13439Y5243*
X13372Y5288*
X13349Y5355*
Y5400*
Y6026D02*
Y5713D01*
X13834Y5937*
X13413Y9872D02*
X13734Y10081D01*
Y9768*
X13413Y9872D02*
X13898D01*
X13413Y9321D02*
Y9544D01*
X13622Y9567*
X13600Y9544*
X13577Y9477*
Y9410*
X13600Y9343*
X13645Y9298*
X13712Y9276*
X13764*
X13831Y9298*
X13876Y9343*
X13898Y9410*
Y9477*
X13876Y9544*
X13853Y9567*
X13809Y9589*
X13461Y6205D02*
X13416Y6227D01*
X13372Y6272*
X13342Y6309*
Y6399*
X13372Y6436*
X13416Y6481*
X13461Y6503*
X13528Y6518*
X13647*
X13715Y6503*
X13767Y6481*
X13811Y6436*
X13834Y6399*
Y6309*
X13811Y6272*
X13767Y6227*
X13715Y6205*
X13525Y10260D02*
X13480Y10283D01*
X13436Y10327*
X13406Y10365*
Y10454*
X13436Y10491*
X13480Y10536*
X13525Y10558*
X13592Y10573*
X13712*
X13779Y10558*
X13831Y10536*
X13876Y10491*
X13898Y10454*
Y10365*
X13876Y10327*
X13831Y10283*
X13779Y10260*
X13979Y5422D02*
X14001Y5489D01*
X14046Y5512*
X14091*
X14143Y5489*
X14166Y5444*
X14188Y5355*
X14210Y5288*
X14255Y5243*
X14300Y5221*
X14374*
X14419Y5243*
X14441Y5266*
X14464Y5333*
Y5422*
X14441Y5489*
X14419Y5512*
X14374Y5534*
X14300*
X14255Y5512*
X14210Y5467*
X14188Y5400*
X14166Y5310*
X14143Y5266*
X14091Y5243*
X14046*
X14001Y5266*
X13979Y5333*
Y5422*
X14004Y9380D02*
X14489D01*
X14004D02*
X14325Y9589D01*
Y9276*
X14004Y9872D02*
X14489D01*
X14004D02*
X14325Y10081D01*
Y9768*
X14046Y5735D02*
X14001Y5758D01*
X13979Y5832*
Y5884*
X14001Y5959*
X14069Y6004*
X14188Y6026*
X14300*
X14397Y6004*
X14441Y5959*
X14464Y5884*
Y5862*
X14441Y5787*
X14397Y5735*
X14330Y5713*
X14300*
X14233Y5735*
X14188Y5787*
X14166Y5862*
Y5884*
X14188Y5959*
X14233Y6004*
X14300Y6026*
X14080Y10809D02*
X14058Y10765D01*
X14013Y10720*
X13976Y10690*
X13887*
X13849Y10720*
X13805Y10765*
X13782Y10809*
X13767Y10877*
Y10996*
X13782Y11063*
X13805Y11115*
X13849Y11160*
X13887Y11182*
X13976*
X14013Y11160*
X14058Y11115*
X14080Y11063*
X14091Y6205D02*
X14046Y6227D01*
X14001Y6272*
X13972Y6309*
Y6399*
X14001Y6436*
X14046Y6481*
X14091Y6503*
X14158Y6518*
X14277*
X14344Y6503*
X14397Y6481*
X14441Y6436*
X14464Y6399*
Y6309*
X14441Y6272*
X14397Y6227*
X14344Y6205*
X14116Y10260D02*
X14071Y10283D01*
X14026Y10327*
X13996Y10365*
Y10454*
X14026Y10491*
X14071Y10536*
X14116Y10558*
X14183Y10573*
X14302*
X14369Y10558*
X14421Y10536*
X14466Y10491*
X14489Y10454*
Y10365*
X14466Y10327*
X14421Y10283*
X14369Y10260*
X14528Y10698D02*
X14304D01*
X14282Y10906*
X14304Y10884*
X14371Y10862*
X14438*
X14505Y10884*
X14550Y10929*
X14573Y10996*
Y11048*
X14550Y11115*
X14505Y11160*
X14438Y11182*
X14371*
X14304Y11160*
X14282Y11138*
X14259Y11093*
X14594Y9544D02*
Y9298D01*
X14781Y9432*
Y9365*
X14803Y9321*
X14826Y9298*
X14893Y9276*
X14945*
X15012Y9298*
X15057Y9343*
X15079Y9410*
Y9477*
X15057Y9544*
X15034Y9567*
X14990Y9589*
X14594Y9872D02*
X14915Y10081D01*
Y9768*
X14594Y9872D02*
X15079D01*
X14676Y5735D02*
X14631Y5758D01*
X14609Y5832*
Y5884*
X14631Y5959*
X14699Y6004*
X14818Y6026*
X14930*
X15027Y6004*
X15071Y5959*
X15094Y5884*
Y5862*
X15071Y5787*
X15027Y5735*
X14959Y5713*
X14930*
X14863Y5735*
X14818Y5787*
X14795Y5862*
Y5884*
X14818Y5959*
X14863Y6004*
X14930Y6026*
X14706Y10260D02*
X14662Y10283D01*
X14617Y10327*
X14587Y10365*
Y10454*
X14617Y10491*
X14662Y10536*
X14706Y10558*
X14773Y10573*
X14893*
X14960Y10558*
X15012Y10536*
X15057Y10491*
X15079Y10454*
Y10365*
X15057Y10327*
X15012Y10283*
X14960Y10260*
X14721Y6205D02*
X14676Y6227D01*
X14631Y6272*
X14602Y6309*
Y6399*
X14631Y6436*
X14676Y6481*
X14721Y6503*
X14788Y6518*
X14907*
X14974Y6503*
X15027Y6481*
X15071Y6436*
X15094Y6399*
Y6309*
X15071Y6272*
X15027Y6227*
X14974Y6205*
X14766Y5221D02*
X14840Y5243D01*
X14885Y5288*
X14907Y5370*
Y5392*
X14885Y5467*
X14840Y5512*
X14766Y5534*
X14743*
X14676Y5512*
X14631Y5467*
X14609Y5392*
Y5370*
X14631Y5288*
X14676Y5243*
X14766Y5221*
X14885*
X15004Y5243*
X15071Y5288*
X15094Y5370*
Y5415*
X15071Y5489*
X15027Y5512*
X14911Y4859D02*
X15135D01*
X15157Y4651*
X15135Y4673*
X15068Y4695*
X15001*
X14934Y4673*
X14889Y4628*
X14866Y4561*
Y4509*
X14889Y4442*
X14934Y4397*
X15001Y4375*
X15068*
X15135Y4397*
X15157Y4420*
X15180Y4464*
X14961Y256D02*
G03X14862Y354I99D01*
X14764Y256J98*
X14862Y157I98*
X14961Y256J99*
G01Y12854D02*
G03X14862Y12953I99D01*
X14764Y12854J99*
X14862Y12756I98*
X14961Y12854J98*
G01X15036Y11773D02*
X15006Y11796D01*
X14969Y11863*
Y11378*
X15260Y10186D02*
X15283Y10111D01*
X15327Y10066*
X15409Y10044*
X15432*
X15506Y10066*
X15551Y10111*
X15573Y10186*
Y10208*
X15551Y10275*
X15506Y10320*
X15432Y10342*
X15409*
X15327Y10320*
X15283Y10275*
X15260Y10186*
Y10066*
X15283Y9947*
X15327Y9880*
X15409Y9857*
X15454*
X15529Y9880*
X15551Y9925*
X15343Y3885D02*
X15410Y3863D01*
X15433Y3818*
Y3774*
X15410Y3721*
X15366Y3699*
X15276Y3677*
X15209Y3654*
X15164Y3610*
X15142Y3565*
Y3490*
X15164Y3446*
X15187Y3423*
X15254Y3401*
X15343*
X15410Y3423*
X15433Y3446*
X15455Y3490*
Y3565*
X15433Y3610*
X15388Y3654*
X15321Y3677*
X15232Y3699*
X15187Y3721*
X15164Y3774*
Y3818*
X15187Y3863*
X15254Y3885*
X15343*
X15519Y9094D02*
X15541Y9139D01*
X15616Y9161*
X15668*
X15742Y9139*
X15787Y9072*
X15810Y8952*
Y8840*
X15787Y8743*
X15742Y8699*
X15668Y8676*
X15646*
X15571Y8699*
X15519Y8743*
X15496Y8811*
Y8840*
X15519Y8908*
X15571Y8952*
X15646Y8975*
X15668*
X15742Y8952*
X15787Y8908*
X15810Y8840*
X15534Y5982D02*
X15221D01*
X15444Y5497*
X15625Y11751D02*
Y11773D01*
X15603Y11818*
X15580Y11840*
X15535Y11870*
X15446*
X15401Y11840*
X15379Y11818*
X15357Y11773*
Y11728*
X15379Y11684*
X15424Y11609*
X15647Y11378*
X15334*
X15640Y8009D02*
Y7524D01*
Y8009D02*
X15849Y7688D01*
X15536*
X15649Y4748D02*
Y4770D01*
X15627Y4815*
X15605Y4837*
X15560Y4867*
X15470*
X15426Y4837*
X15403Y4815*
X15381Y4770*
Y4725*
X15403Y4681*
X15448Y4606*
X15672Y4375*
X15359*
X15765Y6828D02*
X15519D01*
X15653Y6642*
X15586*
X15541Y6619*
X15519Y6597*
X15496Y6530*
Y6478*
X15519Y6410*
X15563Y6366*
X15631Y6343*
X15698*
X15765Y6366*
X15787Y6388*
X15810Y6433*
X15826Y11751D02*
X15849Y11796D01*
X15893Y11840*
X15931Y11870*
X16020*
X16057Y11840*
X16102Y11796*
X16125Y11751*
X16139Y11684*
Y11564*
X16125Y11497*
X16102Y11445*
X16057Y11400*
X16020Y11378*
X15931*
X15893Y11400*
X15849Y11445*
X15826Y11497*
X15828Y3796D02*
X15798Y3818D01*
X15761Y3885*
Y3401*
X15851Y4748D02*
X15873Y4792D01*
X15918Y4837*
X15955Y4867*
X16045*
X16082Y4837*
X16127Y4792*
X16149Y4748*
X16164Y4681*
Y4561*
X16149Y4494*
X16127Y4442*
X16082Y4397*
X16045Y4375*
X15955*
X15918Y4397*
X15873Y4442*
X15851Y4494*
X15907Y5892D02*
X15877Y5914D01*
X15840Y5982*
Y5497*
X15946Y10253D02*
X15916Y10275D01*
X15879Y10342*
Y9857*
X16126Y3774D02*
X16149Y3818D01*
X16193Y3863*
X16231Y3893*
X16320*
X16357Y3863*
X16402Y3818*
X16425Y3774*
X16439Y3706*
Y3587*
X16425Y3520*
X16402Y3468*
X16357Y3423*
X16320Y3401*
X16231*
X16193Y3423*
X16149Y3468*
X16126Y3520*
X16205Y5870D02*
X16227Y5914D01*
X16272Y5959*
X16309Y5989*
X16399*
X16436Y5959*
X16481Y5914*
X16503Y5870*
X16518Y5803*
Y5683*
X16503Y5616*
X16481Y5564*
X16436Y5519*
X16399Y5497*
X16309*
X16272Y5519*
X16227Y5564*
X16205Y5616*
X16244Y10230D02*
X16267Y10275D01*
X16312Y10320*
X16349Y10350*
X16438*
X16476Y10320*
X16520Y10275*
X16543Y10230*
X16558Y10163*
Y10044*
X16543Y9977*
X16520Y9925*
X16476Y9880*
X16438Y9857*
X16349*
X16312Y9880*
X16267Y9925*
X16244Y9977*
X16250Y11228D02*
X16473D01*
X16496Y11019*
X16473Y11042*
X16406Y11064*
X16339*
X16272Y11042*
X16227Y10997*
X16205Y10930*
Y10878*
X16227Y10810*
X16272Y10766*
X16339Y10743*
X16406*
X16473Y10766*
X16496Y10788*
X16518Y10833*
X16279Y6716D02*
Y6739D01*
X16257Y6783*
X16235Y6806*
X16190Y6835*
X16100*
X16056Y6806*
X16033Y6783*
X16011Y6739*
Y6694*
X16033Y6649*
X16078Y6574*
X16302Y6343*
X15989*
X16279Y9049D02*
Y9072D01*
X16257Y9116*
X16235Y9139*
X16190Y9168*
X16100*
X16056Y9139*
X16033Y9116*
X16011Y9072*
Y9027*
X16033Y8982*
X16078Y8908*
X16302Y8676*
X15989*
X16306Y3257D02*
X16329Y3302D01*
X16403Y3324*
X16455*
X16530Y3302*
X16575Y3235*
X16597Y3115*
Y3003*
X16575Y2906*
X16530Y2862*
X16455Y2839*
X16433*
X16358Y2862*
X16306Y2906*
X16284Y2974*
Y3003*
X16306Y3071*
X16358Y3115*
X16433Y3138*
X16455*
X16530Y3115*
X16575Y3071*
X16597Y3003*
X16319Y7897D02*
Y7920D01*
X16296Y7964*
X16274Y7987*
X16229Y8017*
X16140*
X16095Y7987*
X16073Y7964*
X16050Y7920*
Y7875*
X16073Y7830*
X16117Y7756*
X16341Y7524*
X16028*
X16439Y7399D02*
X16126D01*
X16350Y6914*
X16481Y6716D02*
X16503Y6761D01*
X16548Y6806*
X16585Y6835*
X16674*
X16712Y6806*
X16757Y6761*
X16779Y6716*
X16794Y6649*
Y6530*
X16779Y6463*
X16757Y6410*
X16712Y6366*
X16674Y6343*
X16585*
X16548Y6366*
X16503Y6410*
X16481Y6463*
Y9049D02*
X16503Y9094D01*
X16548Y9139*
X16585Y9168*
X16674*
X16712Y9139*
X16757Y9094*
X16779Y9049*
X16794Y8982*
Y8863*
X16779Y8796*
X16757Y8743*
X16712Y8699*
X16674Y8676*
X16585*
X16548Y8699*
X16503Y8743*
X16481Y8796*
X16520Y7897D02*
X16542Y7942D01*
X16587Y7987*
X16624Y8017*
X16714*
X16751Y7987*
X16796Y7942*
X16818Y7897*
X16833Y7830*
Y7711*
X16818Y7644*
X16796Y7592*
X16751Y7547*
X16714Y7524*
X16624*
X16587Y7547*
X16542Y7592*
X16520Y7644*
X16552Y12300D02*
X16306D01*
X16440Y12114*
X16373*
X16329Y12092*
X16306Y12069*
X16284Y12002*
Y11950*
X16306Y11883*
X16351Y11838*
X16418Y11816*
X16485*
X16552Y11838*
X16575Y11860*
X16597Y11905*
X16697Y11071D02*
X16720Y10997D01*
X16764Y10952*
X16846Y10930*
X16869*
X16943Y10952*
X16988Y10997*
X17010Y11071*
Y11094*
X16988Y11161*
X16943Y11206*
X16869Y11228*
X16846*
X16764Y11206*
X16720Y11161*
X16697Y11071*
Y10952*
X16720Y10833*
X16764Y10766*
X16846Y10743*
X16891*
X16966Y10766*
X16988Y10810*
X16776Y12144D02*
X16798Y12069D01*
X16843Y12025*
X16925Y12002*
X16947*
X17022Y12025*
X17067Y12069*
X17089Y12144*
Y12166*
X17067Y12233*
X17022Y12278*
X16947Y12300*
X16925*
X16843Y12278*
X16798Y12233*
X16776Y12144*
Y12025*
X16798Y11905*
X16843Y11838*
X16925Y11816*
X16970*
X17044Y11838*
X17067Y11883*
X16909Y7287D02*
Y7309D01*
X16887Y7354*
X16864Y7376*
X16820Y7406*
X16730*
X16686Y7376*
X16663Y7354*
X16641Y7309*
Y7265*
X16663Y7220*
X16708Y7145*
X16932Y6914*
X16618*
X16968Y6077D02*
Y6099D01*
X16946Y6144*
X16924Y6166*
X16879Y6196*
X16789*
X16745Y6166*
X16722Y6144*
X16700Y6099*
Y6054*
X16722Y6010*
X16767Y5935*
X16991Y5704*
X16677*
X16970Y3235D02*
X16940Y3257D01*
X16903Y3324*
Y2839*
X17111Y7287D02*
X17133Y7332D01*
X17178Y7376*
X17215Y7406*
X17304*
X17342Y7376*
X17386Y7332*
X17409Y7287*
X17424Y7220*
Y7101*
X17409Y7033*
X17386Y6981*
X17342Y6937*
X17304Y6914*
X17215*
X17178Y6937*
X17133Y6981*
X17111Y7033*
X17164Y9549D02*
X17142Y9519D01*
X17075Y9481*
X17559*
X17164Y10041D02*
X17142Y10011D01*
X17075Y9974*
X17559*
X17187Y10339D02*
X17142Y10361D01*
X17097Y10406*
X17067Y10443*
Y10533*
X17097Y10570*
X17142Y10615*
X17187Y10637*
X17254Y10652*
X17373*
X17440Y10637*
X17492Y10615*
X17537Y10570*
X17559Y10533*
Y10443*
X17537Y10406*
X17492Y10361*
X17440Y10339*
X17189Y11116D02*
X17212Y11161D01*
X17256Y11206*
X17294Y11235*
X17383*
X17420Y11206*
X17465Y11161*
X17488Y11116*
X17502Y11049*
Y10930*
X17488Y10863*
X17465Y10810*
X17420Y10766*
X17383Y10743*
X17294*
X17256Y10766*
X17212Y10810*
X17189Y10863*
X17227Y12882D02*
X16914D01*
X17137Y12397*
X17268Y3212D02*
X17290Y3257D01*
X17335Y3302*
X17372Y3331*
X17462*
X17499Y3302*
X17544Y3257*
X17566Y3212*
X17581Y3145*
Y3026*
X17566Y2959*
X17544Y2906*
X17499Y2862*
X17462Y2839*
X17372*
X17335Y2862*
X17290Y2906*
X17268Y2959*
Y12189D02*
X17290Y12233D01*
X17335Y12278*
X17372Y12308*
X17462*
X17499Y12278*
X17544Y12233*
X17566Y12189*
X17581Y12121*
Y12002*
X17566Y11935*
X17544Y11883*
X17499Y11838*
X17462Y11816*
X17372*
X17335Y11838*
X17290Y11883*
X17268Y11935*
X17401Y4826D02*
Y4849D01*
X17379Y4893*
X17357Y4916*
X17312Y4946*
X17222*
X17178Y4916*
X17155Y4893*
X17133Y4849*
Y4804*
X17155Y4759*
X17200Y4685*
X17424Y4454*
X17111*
X17406Y12725D02*
X17428Y12650D01*
X17473Y12606*
X17555Y12583*
X17577*
X17652Y12606*
X17697Y12650*
X17719Y12725*
Y12747*
X17697Y12814*
X17652Y12859*
X17577Y12882*
X17555*
X17473Y12859*
X17428Y12814*
X17406Y12725*
Y12606*
X17428Y12486*
X17473Y12419*
X17555Y12397*
X17600*
X17674Y12419*
X17697Y12464*
X17460Y6077D02*
Y6099D01*
X17438Y6144*
X17416Y6166*
X17371Y6196*
X17281*
X17237Y6166*
X17214Y6144*
X17192Y6099*
Y6054*
X17214Y6010*
X17259Y5935*
X17483Y5704*
X17170*
X17603Y4782D02*
X17625Y4707D01*
X17670Y4662*
X17752Y4640*
X17774*
X17849Y4662*
X17893Y4707*
X17916Y4782*
Y4804*
X17893Y4871*
X17849Y4916*
X17774Y4938*
X17752*
X17670Y4916*
X17625Y4871*
X17603Y4782*
Y4662*
X17625Y4543*
X17670Y4476*
X17752Y4454*
X17797*
X17871Y4476*
X17893Y4521*
X17662Y6077D02*
X17684Y6122D01*
X17729Y6166*
X17766Y6196*
X17856*
X17893Y6166*
X17938Y6122*
X17960Y6077*
X17975Y6010*
Y5890*
X17960Y5823*
X17938Y5771*
X17893Y5726*
X17856Y5704*
X17766*
X17729Y5726*
X17684Y5771*
X17662Y5823*
X17666Y3875D02*
X17733Y3853D01*
X17756Y3808*
Y3763*
X17733Y3711*
X17689Y3689*
X17599Y3666*
X17532Y3644*
X17487Y3599*
X17465Y3555*
Y3480*
X17487Y3435*
X17510Y3413*
X17577Y3391*
X17666*
X17733Y3413*
X17756Y3435*
X17778Y3480*
Y3555*
X17756Y3599*
X17711Y3644*
X17644Y3666*
X17554Y3689*
X17510Y3711*
X17487Y3763*
Y3808*
X17510Y3853*
X17577Y3875*
X17666*
X17898Y12770D02*
X17920Y12814D01*
X17965Y12859*
X18002Y12889*
X18092*
X18129Y12859*
X18174Y12814*
X18196Y12770*
X18211Y12703*
Y12583*
X18196Y12516*
X18174Y12464*
X18129Y12419*
X18092Y12397*
X18002*
X17965Y12419*
X17920Y12464*
X17898Y12516*
X17957Y3719D02*
X17979Y3644D01*
X18024Y3599*
X18106Y3577*
X18129*
X18203Y3599*
X18248Y3644*
X18270Y3719*
Y3741*
X18248Y3808*
X18203Y3853*
X18129Y3875*
X18106*
X18024Y3853*
X17979Y3808*
X17957Y3719*
Y3599*
X17979Y3480*
X18024Y3413*
X18106Y3391*
X18151*
X18225Y3413*
X18248Y3458*
X18095Y4826D02*
X18117Y4871D01*
X18162Y4916*
X18199Y4946*
X18289*
X18326Y4916*
X18371Y4871*
X18393Y4826*
X18408Y4759*
Y4640*
X18393Y4573*
X18371Y4521*
X18326Y4476*
X18289Y4454*
X18199*
X18162Y4476*
X18117Y4521*
X18095Y4573*
X18449Y3763D02*
X18471Y3808D01*
X18516Y3853*
X18554Y3883*
X18643*
X18680Y3853*
X18725Y3808*
X18747Y3763*
X18762Y3696*
Y3577*
X18747Y3510*
X18725Y3458*
X18680Y3413*
X18643Y3391*
X18554*
X18516Y3413*
X18471Y3458*
X18449Y3510*
X19234Y3080D02*
X19204Y3102D01*
X19166Y3169*
Y2685*
X19330Y12900D02*
Y12922D01*
X19308Y12967*
X19286Y12989*
X19241Y13019*
X19152*
X19107Y12989*
X19084Y12967*
X19062Y12922*
Y12878*
X19084Y12833*
X19129Y12758*
X19353Y12527*
X19040*
X19845Y2938D02*
X19644D01*
X19577Y2916*
X19554Y2893*
X19532Y2849*
Y2774*
X19554Y2729*
X19577Y2707*
X19644Y2685*
X19845*
Y3177*
X19644*
X19577Y3147*
X19554Y3125*
X19532Y3080*
Y3035*
X19554Y2990*
X19577Y2961*
X19644Y2938*
X19845Y12781D02*
X19644D01*
X19577Y12758*
X19554Y12736*
X19532Y12691*
Y12617*
X19554Y12572*
X19577Y12550*
X19644Y12527*
X19845*
Y13019*
X19644*
X19577Y12989*
X19554Y12967*
X19532Y12922*
Y12878*
X19554Y12833*
X19577Y12803*
X19644Y12781*
X20024Y3177D02*
Y2804D01*
X20054Y2729*
X20091Y2707*
X20151Y2685*
X20218*
X20277Y2707*
X20307Y2729*
X20337Y2804*
Y2849*
X20024Y13019D02*
Y12646D01*
X20054Y12572*
X20091Y12550*
X20151Y12527*
X20218*
X20277Y12550*
X20307Y12572*
X20337Y12646*
Y12691*
X20865Y12650D02*
X20932Y12627D01*
X20955Y12583*
Y12538*
X20932Y12486*
X20887Y12463*
X20798Y12441*
X20731Y12418*
X20686Y12374*
X20664Y12329*
Y12254*
X20686Y12210*
X20708Y12187*
X20776Y12165*
X20865*
X20932Y12187*
X20955Y12210*
X20977Y12254*
Y12329*
X20955Y12374*
X20910Y12418*
X20843Y12441*
X20753Y12463*
X20708Y12486*
X20686Y12538*
Y12583*
X20708Y12627*
X20776Y12650*
X20865*
X21156Y12538D02*
X21178Y12583D01*
X21223Y12627*
X21260Y12657*
X21350*
X21387Y12627*
X21432Y12583*
X21454Y12538*
X21469Y12471*
Y12351*
X21454Y12284*
X21432Y12232*
X21387Y12187*
X21350Y12165*
X21260*
X21223Y12187*
X21178Y12232*
X21156Y12284*
X21339Y9646D02*
X21417Y9528D01*
X21339Y9646D02*
X21417Y9764D01*
X21578Y3337D02*
X21898Y3546D01*
Y3233*
X21578Y3337D02*
X22062D01*
X21654Y8858D02*
X21732Y8740D01*
X21654Y8858D02*
X21732Y8976D01*
X21689Y3725D02*
X21645Y3747D01*
X21600Y3792*
X21570Y3829*
Y3919*
X21600Y3956*
X21645Y4001*
X21689Y4023*
X21756Y4038*
X21876*
X21943Y4023*
X21995Y4001*
X22040Y3956*
X22062Y3919*
Y3829*
X22040Y3792*
X21995Y3747*
X21943Y3725*
X21734Y2740D02*
X21809Y2763D01*
X21853Y2808*
X21876Y2890*
Y2912*
X21853Y2987*
X21809Y3031*
X21734Y3054*
X21712*
X21645Y3031*
X21600Y2987*
X21578Y2912*
Y2890*
X21600Y2808*
X21645Y2763*
X21734Y2740*
X21853*
X21973Y2763*
X22040Y2808*
X22062Y2890*
Y2934*
X22040Y3009*
X21995Y3031*
X21772Y9646D02*
X21339D01*
X21832Y12061D02*
X21788Y12084D01*
X21743Y12128*
X21713Y12166*
Y12255*
X21743Y12292*
X21788Y12337*
X21832Y12360*
X21899Y12374*
X22019*
X22086Y12360*
X22138Y12337*
X22183Y12292*
X22205Y12255*
Y12166*
X22183Y12128*
X22138Y12084*
X22086Y12061*
X21850Y8858D02*
X21654D01*
X21877Y11569D02*
X21952Y11592D01*
X21996Y11636*
X22019Y11718*
Y11741*
X21996Y11815*
X21952Y11860*
X21877Y11882*
X21855*
X21788Y11860*
X21743Y11815*
X21720Y11741*
Y11718*
X21743Y11636*
X21788Y11592*
X21877Y11569*
X21996*
X22116Y11592*
X22183Y11636*
X22205Y11718*
Y11763*
X22183Y11838*
X22138Y11860*
X22168Y3277D02*
Y3501D01*
X22377Y3523*
X22355Y3501*
X22332Y3434*
Y3367*
X22355Y3300*
X22399Y3255*
X22466Y3233*
X22519*
X22586Y3255*
X22630Y3300*
X22653Y3367*
Y3434*
X22630Y3501*
X22608Y3523*
X22563Y3546*
X22258Y2934D02*
X22235Y2905D01*
X22168Y2867*
X22653*
X22280Y3725D02*
X22235Y3747D01*
X22190Y3792*
X22161Y3829*
Y3919*
X22190Y3956*
X22235Y4001*
X22280Y4023*
X22347Y4038*
X22466*
X22533Y4023*
X22586Y4001*
X22630Y3956*
X22653Y3919*
Y3829*
X22630Y3792*
X22586Y3747*
X22533Y3725*
X22759Y2919D02*
X22781Y2987D01*
X22848Y3031*
X22967Y3054*
X23035*
X23154Y3031*
X23221Y2987*
X23243Y2919*
Y2875*
X23221Y2808*
X23154Y2763*
X23035Y2740*
X22967*
X22848Y2763*
X22781Y2808*
X22759Y2875*
Y2919*
Y3277D02*
Y3501D01*
X22967Y3523*
X22945Y3501*
X22923Y3434*
Y3367*
X22945Y3300*
X22990Y3255*
X23057Y3233*
X23109*
X23176Y3255*
X23221Y3300*
X23243Y3367*
Y3434*
X23221Y3501*
X23199Y3523*
X23154Y3546*
X22835Y4173D02*
X23071Y4685D01*
X22870Y3725D02*
X22826Y3747D01*
X22781Y3792*
X22751Y3829*
Y3919*
X22781Y3956*
X22826Y4001*
X22870Y4023*
X22938Y4038*
X23057*
X23124Y4023*
X23176Y4001*
X23221Y3956*
X23243Y3919*
Y3829*
X23221Y3792*
X23176Y3747*
X23124Y3725*
X23071Y4685D02*
X22913Y4646D01*
X23071Y4685D02*
X23150Y4567D01*
X23134Y9718D02*
X23157Y9644D01*
X23201Y9599*
X23283Y9577*
X23306*
X23380Y9599*
X23425Y9644*
X23447Y9718*
Y9741*
X23425Y9808*
X23380Y9852*
X23306Y9875*
X23283*
X23201Y9852*
X23157Y9808*
X23134Y9718*
Y9599*
X23157Y9480*
X23201Y9413*
X23283Y9390*
X23328*
X23403Y9413*
X23425Y9457*
X23253Y6225D02*
X23003D01*
X23139Y6035*
X23071*
X23026Y6012*
X23003Y5990*
X22980Y5922*
Y5869*
X23003Y5800*
X23048Y5755*
X23117Y5732*
X23185*
X23253Y5755*
X23276Y5778*
X23298Y5823*
X23313Y7374D02*
X23380Y7352D01*
X23425Y7285*
X23447Y7165*
Y7098*
X23425Y6979*
X23380Y6912*
X23313Y6889*
X23268*
X23201Y6912*
X23157Y6979*
X23134Y7098*
Y7165*
X23157Y7285*
X23201Y7352*
X23268Y7374*
X23313*
X23403Y12413D02*
X23157D01*
X23291Y12227*
X23224*
X23179Y12205*
X23157Y12182*
X23134Y12115*
Y12063*
X23157Y11996*
X23201Y11951*
X23268Y11929*
X23336*
X23403Y11951*
X23425Y11973*
X23447Y12018*
X23425Y11711D02*
Y11733D01*
X23403Y11778*
X23380Y11800*
X23336Y11830*
X23246*
X23201Y11800*
X23179Y11778*
X23157Y11733*
Y11689*
X23179Y11644*
X23224Y11569*
X23447Y11338*
X23134*
X23446Y3523D02*
X23424D01*
X23379Y3501*
X23357Y3479*
X23327Y3434*
Y3344*
X23357Y3300*
X23379Y3277*
X23424Y3255*
X23469*
X23514Y3277*
X23588Y3322*
X23819Y3546*
Y3233*
X23446Y3725D02*
X23402Y3747D01*
X23357Y3792*
X23327Y3829*
Y3919*
X23357Y3956*
X23402Y4001*
X23446Y4023*
X23514Y4038*
X23633*
X23700Y4023*
X23752Y4001*
X23797Y3956*
X23819Y3919*
Y3829*
X23797Y3792*
X23752Y3747*
X23700Y3725*
X23491Y2740D02*
X23566Y2763D01*
X23611Y2808*
X23633Y2890*
Y2912*
X23611Y2987*
X23566Y3031*
X23491Y3054*
X23469*
X23402Y3031*
X23357Y2987*
X23335Y2912*
Y2890*
X23357Y2808*
X23402Y2763*
X23491Y2740*
X23611*
X23730Y2763*
X23797Y2808*
X23819Y2890*
Y2934*
X23797Y3009*
X23752Y3031*
X23626Y7217D02*
X23649Y7143D01*
X23693Y7098*
X23775Y7076*
X23798*
X23872Y7098*
X23917Y7143*
X23939Y7217*
Y7240*
X23917Y7307*
X23872Y7352*
X23798Y7374*
X23775*
X23693Y7352*
X23649Y7307*
X23626Y7217*
Y7098*
X23649Y6979*
X23693Y6912*
X23775Y6889*
X23820*
X23895Y6912*
X23917Y6956*
X23798Y6232D02*
Y5732D01*
X23480*
X23820Y11733D02*
X23790Y11756D01*
X23753Y11823*
Y11338*
X23820Y12324D02*
X23790Y12346D01*
X23753Y12413*
Y11929*
X23828Y9875D02*
X23895Y9852D01*
X23917Y9808*
Y9763*
X23895Y9711*
X23850Y9688*
X23761Y9666*
X23693Y9644*
X23649Y9599*
X23626Y9554*
Y9480*
X23649Y9435*
X23671Y9413*
X23738Y9390*
X23828*
X23895Y9413*
X23917Y9435*
X23939Y9480*
Y9554*
X23917Y9599*
X23872Y9644*
X23805Y9666*
X23716Y9688*
X23671Y9711*
X23649Y9763*
Y9808*
X23671Y9852*
X23738Y9875*
X23828*
X24118Y7262D02*
X24141Y7307D01*
X24186Y7352*
X24223Y7381*
X24312*
X24350Y7352*
X24394Y7307*
X24417Y7262*
X24432Y7195*
Y7076*
X24417Y7009*
X24394Y6956*
X24350Y6912*
X24312Y6889*
X24223*
X24186Y6912*
X24141Y6956*
X24118Y7009*
Y9763D02*
X24141Y9808D01*
X24186Y9852*
X24223Y9882*
X24312*
X24350Y9852*
X24394Y9808*
X24417Y9763*
X24432Y9696*
Y9577*
X24417Y9509*
X24394Y9457*
X24350Y9413*
X24312Y9390*
X24223*
X24186Y9413*
X24141Y9457*
X24118Y9509*
Y11711D02*
X24141Y11756D01*
X24186Y11800*
X24223Y11830*
X24312*
X24350Y11800*
X24394Y11756*
X24417Y11711*
X24432Y11644*
Y11525*
X24417Y11457*
X24394Y11405*
X24350Y11361*
X24312Y11338*
X24223*
X24186Y11361*
X24141Y11405*
X24118Y11457*
Y12302D02*
X24141Y12346D01*
X24186Y12391*
X24223Y12421*
X24312*
X24350Y12391*
X24394Y12346*
X24417Y12302*
X24432Y12234*
Y12115*
X24417Y12048*
X24394Y11996*
X24350Y11951*
X24312Y11929*
X24223*
X24186Y11951*
X24141Y11996*
X24118Y12048*
X24368Y7798D02*
Y7485D01*
X24852Y7709*
X24457Y8663D02*
X24435Y8633D01*
X24368Y8596*
X24852*
X24457Y8171D02*
X24435Y8141D01*
X24368Y8104*
X24852*
X24480Y8961D02*
X24435Y8984D01*
X24390Y9028*
X24360Y9066*
Y9155*
X24390Y9192*
X24435Y9237*
X24480Y9260*
X24547Y9274*
X24666*
X24733Y9260*
X24785Y9237*
X24830Y9192*
X24852Y9155*
Y9066*
X24830Y9028*
X24785Y8984*
X24733Y8961*
X25039Y3228D02*
X25079Y3071D01*
X25039Y3228D02*
X25157Y3307D01*
X25539Y7674D02*
Y7428D01*
X25726Y7562*
Y7495*
X25748Y7451*
X25770Y7428*
X25838Y7406*
X25890*
X25957Y7428*
X26002Y7473*
X26024Y7540*
Y7607*
X26002Y7674*
X25979Y7697*
X25935Y7719*
X25579Y3514D02*
X26063D01*
X25579D02*
X25899Y3723D01*
Y3410*
X25629Y7108D02*
X25606Y7078D01*
X25539Y7040*
X26024*
X25651Y7898D02*
X25606Y7920D01*
X25562Y7965*
X25532Y8002*
Y8092*
X25562Y8129*
X25606Y8174*
X25651Y8196*
X25718Y8211*
X25838*
X25905Y8196*
X25957Y8174*
X26002Y8129*
X26024Y8092*
Y8002*
X26002Y7965*
X25957Y7920*
X25905Y7898*
X25668Y4096D02*
X25646Y4066D01*
X25579Y4029*
X26063*
X25691Y4394D02*
X25646Y4416D01*
X25601Y4461*
X25571Y4498*
Y4588*
X25601Y4625*
X25646Y4670*
X25691Y4692*
X25758Y4707*
X25877*
X25944Y4692*
X25996Y4670*
X26041Y4625*
X26063Y4588*
Y4498*
X26041Y4461*
X25996Y4416*
X25944Y4394*
X25777Y12331D02*
Y12354D01*
X25755Y12399*
X25733Y12421*
X25688Y12451*
X25598*
X25554Y12421*
X25531Y12399*
X25509Y12354*
Y12309*
X25531Y12264*
X25576Y12190*
X25800Y11959*
X25487*
X25979Y12451D02*
X26292Y11959D01*
X26012Y5817D02*
X26332Y6026D01*
Y5713*
X26012Y5817D02*
X26496D01*
X26101Y5415D02*
X26079Y5385D01*
X26012Y5348*
X26496*
X26102Y2795D02*
X25039Y3228D01*
X26124Y6205D02*
X26079Y6227D01*
X26034Y6272*
X26004Y6309*
Y6399*
X26034Y6436*
X26079Y6481*
X26124Y6503*
X26191Y6518*
X26310*
X26377Y6503*
X26429Y6481*
X26474Y6436*
X26496Y6399*
Y6309*
X26474Y6272*
X26429Y6227*
X26377Y6205*
X26130Y7674D02*
Y7428D01*
X26316Y7562*
Y7495*
X26339Y7451*
X26361Y7428*
X26428Y7406*
X26480*
X26547Y7428*
X26592Y7473*
X26615Y7540*
Y7607*
X26592Y7674*
X26570Y7697*
X26525Y7719*
X26242Y7205D02*
X26219D01*
X26175Y7182*
X26152Y7160*
X26122Y7115*
Y7026*
X26152Y6981*
X26175Y6958*
X26219Y6936*
X26264*
X26309Y6958*
X26383Y7003*
X26615Y7227*
Y6914*
X26242Y7898D02*
X26197Y7920D01*
X26152Y7965*
X26122Y8002*
Y8092*
X26152Y8129*
X26197Y8174*
X26242Y8196*
X26309Y8211*
X26428*
X26495Y8196*
X26547Y8174*
X26592Y8129*
X26615Y8092*
Y8002*
X26592Y7965*
X26547Y7920*
X26495Y7898*
X26280Y4235D02*
Y3750D01*
Y4235D02*
X26489Y3914D01*
X26176*
X26292Y12451D02*
X25979Y11959D01*
X26354Y2488D02*
X26422Y2465D01*
X26466Y2398*
X26489Y2279*
Y2212*
X26466Y2093*
X26422Y2026*
X26354Y2003*
X26310*
X26243Y2026*
X26198Y2093*
X26176Y2212*
Y2279*
X26198Y2398*
X26243Y2465*
X26310Y2488*
X26354*
X26444Y3645D02*
X26198D01*
X26332Y3458*
X26265*
X26220Y3436*
X26198Y3413*
X26176Y3346*
Y3294*
X26198Y3227*
X26243Y3182*
X26310Y3160*
X26377*
X26444Y3182*
X26466Y3205*
X26489Y3249*
X26466Y2942D02*
Y2964D01*
X26444Y3009*
X26422Y3032*
X26377Y3061*
X26287*
X26243Y3032*
X26220Y3009*
X26198Y2964*
Y2920*
X26220Y2875*
X26265Y2800*
X26489Y2569*
X26176*
X26602Y5817D02*
X27087D01*
X26602D02*
X26923Y6026D01*
Y5713*
X26712Y3054D02*
X26936D01*
X26958Y2845*
X26936Y2868*
X26869Y2890*
X26802*
X26735Y2868*
X26690Y2823*
X26668Y2756*
Y2704*
X26690Y2636*
X26735Y2592*
X26802Y2569*
X26869*
X26936Y2592*
X26958Y2614*
X26981Y2659*
X26712Y3645D02*
X26936D01*
X26958Y3436*
X26936Y3458*
X26869Y3480*
X26802*
X26735Y3458*
X26690Y3413*
X26668Y3346*
Y3294*
X26690Y3227*
X26735Y3182*
X26802Y3160*
X26869*
X26936Y3182*
X26958Y3205*
X26981Y3249*
X26712Y4235D02*
X26936D01*
X26958Y4026*
X26936Y4049*
X26869Y4071*
X26802*
X26735Y4049*
X26690Y4004*
X26668Y3937*
Y3885*
X26690Y3818*
X26735Y3773*
X26802Y3750*
X26869*
X26936Y3773*
X26958Y3795*
X26981Y3840*
X26714Y5512D02*
X26692D01*
X26647Y5489*
X26625Y5467*
X26595Y5422*
Y5333*
X26625Y5288*
X26647Y5266*
X26692Y5243*
X26737*
X26781Y5266*
X26856Y5310*
X27087Y5534*
Y5221*
X26714Y6205D02*
X26669Y6227D01*
X26625Y6272*
X26595Y6309*
Y6399*
X26625Y6436*
X26669Y6481*
X26714Y6503*
X26781Y6518*
X26901*
X26968Y6503*
X27020Y6481*
X27065Y6436*
X27087Y6399*
Y6309*
X27065Y6272*
X27020Y6227*
X26968Y6205*
X26876Y7468D02*
X26831Y7490D01*
X26809Y7565*
Y7617*
X26831Y7692*
X26898Y7736*
X27017Y7759*
X27129*
X27226Y7736*
X27271Y7692*
X27293Y7617*
Y7595*
X27271Y7520*
X27226Y7468*
X27159Y7446*
X27129*
X27062Y7468*
X27017Y7520*
X26995Y7595*
Y7617*
X27017Y7692*
X27062Y7736*
X27129Y7759*
X26898Y8132D02*
X26876Y8102D01*
X26809Y8064*
X27293*
X26898Y8624D02*
X26876Y8594D01*
X26809Y8557*
X27293*
X26920Y8922D02*
X26876Y8944D01*
X26831Y8989*
X26801Y9026*
Y9116*
X26831Y9153*
X26876Y9198*
X26920Y9220*
X26988Y9235*
X27107*
X27174Y9220*
X27226Y9198*
X27271Y9153*
X27293Y9116*
Y9026*
X27271Y8989*
X27226Y8944*
X27174Y8922*
X26936Y2488D02*
X26690D01*
X26824Y2301*
X26757*
X26712Y2279*
X26690Y2257*
X26668Y2190*
Y2137*
X26690Y2070*
X26735Y2026*
X26802Y2003*
X26869*
X26936Y2026*
X26958Y2048*
X26981Y2093*
X27160Y2376D02*
X27182Y2421D01*
X27227Y2465*
X27264Y2495*
X27354*
X27391Y2465*
X27436Y2421*
X27458Y2376*
X27473Y2309*
Y2190*
X27458Y2122*
X27436Y2070*
X27391Y2026*
X27354Y2003*
X27264*
X27227Y2026*
X27182Y2070*
X27160Y2122*
Y2942D02*
X27182Y2987D01*
X27227Y3032*
X27264Y3061*
X27354*
X27391Y3032*
X27436Y2987*
X27458Y2942*
X27473Y2875*
Y2756*
X27458Y2689*
X27436Y2636*
X27391Y2592*
X27354Y2569*
X27264*
X27227Y2592*
X27182Y2636*
X27160Y2689*
Y3533D02*
X27182Y3577D01*
X27227Y3622*
X27264Y3652*
X27354*
X27391Y3622*
X27436Y3577*
X27458Y3533*
X27473Y3466*
Y3346*
X27458Y3279*
X27436Y3227*
X27391Y3182*
X27354Y3160*
X27264*
X27227Y3182*
X27182Y3227*
X27160Y3279*
Y4123D02*
X27182Y4168D01*
X27227Y4213*
X27264Y4243*
X27354*
X27391Y4213*
X27436Y4168*
X27458Y4123*
X27473Y4056*
Y3937*
X27458Y3870*
X27436Y3818*
X27391Y3773*
X27354Y3750*
X27264*
X27227Y3773*
X27182Y3818*
X27160Y3870*
X28043Y12354D02*
X28013Y12376D01*
X27976Y12443*
Y11959*
X28059Y6397D02*
Y6621D01*
X28268Y6643*
X28245Y6621*
X28223Y6554*
Y6487*
X28245Y6420*
X28290Y6375*
X28357Y6353*
X28409*
X28477Y6375*
X28521Y6420*
X28544Y6487*
Y6554*
X28521Y6621*
X28499Y6643*
X28454Y6666*
X28149Y7039D02*
X28126Y7009D01*
X28059Y6972*
X28544*
X28149Y7531D02*
X28126Y7501D01*
X28059Y7464*
X28544*
X28171Y7829D02*
X28126Y7851D01*
X28081Y7896*
X28052Y7933*
Y8023*
X28081Y8060*
X28126Y8105*
X28171Y8127*
X28238Y8142*
X28357*
X28424Y8127*
X28477Y8105*
X28521Y8060*
X28544Y8023*
Y7933*
X28521Y7896*
X28477Y7851*
X28424Y7829*
X28341Y12451D02*
X28654Y11959D01*
X28531Y4796D02*
X28285D01*
X28419Y4610*
X28352*
X28307Y4587*
X28285Y4565*
X28262Y4498*
Y4446*
X28285Y4379*
X28329Y4334*
X28396Y4311*
X28463*
X28531Y4334*
X28553Y4356*
X28575Y4401*
X28654Y12451D02*
X28341Y11959D01*
X28689Y6457D02*
X29174D01*
X28689D02*
X29010Y6666D01*
Y6353*
X28754Y4684D02*
X28777Y4729D01*
X28821Y4774*
X28859Y4804*
X28948*
X28985Y4774*
X29030Y4729*
X29053Y4684*
X29067Y4617*
Y4498*
X29053Y4431*
X29030Y4379*
X28985Y4334*
X28948Y4311*
X28859*
X28821Y4334*
X28777Y4379*
X28754Y4431*
X28778Y7039D02*
X28756Y7009D01*
X28689Y6972*
X29174*
X28778Y7531D02*
X28756Y7501D01*
X28689Y7464*
X29174*
X28801Y7829D02*
X28756Y7851D01*
X28711Y7896*
X28682Y7933*
Y8023*
X28711Y8060*
X28756Y8105*
X28801Y8127*
X28868Y8142*
X28987*
X29054Y8127*
X29107Y8105*
X29151Y8060*
X29174Y8023*
Y7933*
X29151Y7896*
X29107Y7851*
X29054Y7829*
G54D13*
X10437Y3907D02*
X12398D01*
Y11841*
X10437*
Y3907*
X13632Y6683D02*
X13848D01*
Y7096*
X13632*
Y6683*
X13750Y594D02*
X25620D01*
Y2555*
X13750*
Y594*
Y13193D02*
X25620D01*
Y15154*
X13750*
Y13193*
X14183Y6683D02*
X14400D01*
Y7096*
X14183*
Y6683*
X14734D02*
X14951D01*
Y7096*
X14734*
Y6683*
X15541Y5246D02*
X15955D01*
Y5463*
X15541*
Y5246*
Y7175D02*
X15955D01*
Y7392*
X15541*
Y7175*
Y9537D02*
X15955D01*
Y9754*
X15541*
Y9537*
X15837Y10817D02*
X16053D01*
Y11230*
X15837*
Y10817*
X15935Y3986D02*
X16348D01*
Y4203*
X15935*
Y3986*
Y5994D02*
X16348D01*
Y6211*
X15935*
Y5994*
Y8356D02*
X16348D01*
Y8573*
X15935*
Y8356*
X16329Y4813D02*
X16742D01*
Y5030*
X16329*
Y4813*
X16722Y3435D02*
X17136D01*
Y3652*
X16722*
Y3435*
Y11506D02*
X17136D01*
Y11722*
X16722*
Y11506*
X17116Y6348D02*
X17530D01*
Y6565*
X17116*
Y6348*
X17455Y8042D02*
X17493Y8030D01*
X17518Y7992*
X17531Y7925*
Y7888*
X17518Y7821*
X17493Y7783*
X17455Y7771*
X17430*
X17393Y7783*
X17368Y7821*
X17355Y7888*
Y7925*
X17368Y7992*
X17393Y8030*
X17430Y8042*
X17455*
X17510Y7175D02*
X17923D01*
Y7392*
X17510*
Y7175*
X17549Y5010D02*
X17963D01*
Y5226*
X17549*
Y5010*
X17608Y10778D02*
X17825D01*
Y11191*
X17608*
Y10778*
X17613Y8318D02*
Y8143D01*
X17884Y8268*
X17613Y8477D02*
X17792Y8594D01*
Y8418*
X17613Y8477D02*
X17884D01*
X17675Y8694D02*
X17650Y8706D01*
X17625Y8731*
X17609Y8752*
Y8802*
X17625Y8823*
X17650Y8848*
X17675Y8861*
X17713Y8869*
X17780*
X17817Y8861*
X17847Y8848*
X17872Y8823*
X17884Y8802*
Y8752*
X17872Y8731*
X17847Y8706*
X17817Y8694*
X17794Y7980D02*
Y7992D01*
X17781Y8017*
X17769Y8030*
X17743Y8046*
X17693*
X17668Y8030*
X17656Y8017*
X17643Y7992*
Y7967*
X17656Y7942*
X17681Y7900*
X17806Y7771*
X17631*
X17868Y10172D02*
X17880Y10209D01*
X17918Y10235*
X17985Y10247*
X18022*
X18089Y10235*
X18127Y10209*
X18139Y10172*
Y10147*
X18127Y10109*
X18089Y10084*
X18022Y10072*
X17985*
X17918Y10084*
X17880Y10109*
X17868Y10147*
Y10172*
X17904Y3986D02*
X18317D01*
Y4203*
X17904*
Y3986*
X17906Y7980D02*
X17919Y8005D01*
X17944Y8030*
X17965Y8046*
X18015*
X18036Y8030*
X18061Y8005*
X18073Y7980*
X18082Y7942*
Y7875*
X18073Y7838*
X18061Y7808*
X18036Y7783*
X18015Y7771*
X17965*
X17944Y7783*
X17919Y7808*
X17906Y7838*
X17918Y10456D02*
X17906Y10439D01*
X17868Y10418*
X18139*
X17931Y10623D02*
X17906Y10635D01*
X17880Y10660*
X17864Y10681*
Y10731*
X17880Y10752*
X17906Y10777*
X17931Y10790*
X17968Y10798*
X18035*
X18073Y10790*
X18102Y10777*
X18127Y10752*
X18139Y10731*
Y10681*
X18127Y10660*
X18102Y10635*
X18073Y10623*
X17982Y8159D02*
X18396D01*
Y8376*
X17982*
Y8159*
X18155Y6666D02*
X18168Y6691D01*
X18209Y6704*
X18239*
X18280Y6691*
X18305Y6654*
X18318Y6587*
Y6524*
X18305Y6470*
X18280Y6445*
X18239Y6432*
X18226*
X18184Y6445*
X18155Y6470*
X18143Y6507*
Y6524*
X18155Y6562*
X18184Y6587*
X18226Y6599*
X18239*
X18280Y6587*
X18305Y6562*
X18318Y6524*
X18297Y6742D02*
X18711D01*
Y6959*
X18297*
Y6742*
X18350Y10005D02*
X18333Y10017D01*
X18312Y10055*
Y9783*
X18396Y12392D02*
X18612D01*
Y12805*
X18396*
Y12392*
X18418Y6616D02*
X18431Y6574D01*
X18456Y6549*
X18502Y6537*
X18514*
X18556Y6549*
X18581Y6574*
X18594Y6616*
Y6629*
X18581Y6666*
X18556Y6691*
X18514Y6704*
X18502*
X18456Y6691*
X18431Y6666*
X18418Y6616*
Y6549*
X18431Y6482*
X18456Y6445*
X18502Y6432*
X18527*
X18568Y6445*
X18581Y6470*
X18492Y7545D02*
X18529Y7532D01*
X18542Y7507*
Y7482*
X18529Y7453*
X18504Y7440*
X18454Y7428*
X18416Y7415*
X18391Y7390*
X18379Y7365*
Y7323*
X18391Y7298*
X18404Y7286*
X18441Y7273*
X18492*
X18529Y7286*
X18542Y7298*
X18554Y7323*
Y7365*
X18542Y7390*
X18517Y7415*
X18479Y7428*
X18429Y7440*
X18404Y7453*
X18391Y7482*
Y7507*
X18404Y7532*
X18441Y7545*
X18492*
X18692Y10059D02*
X18604D01*
X18567Y10042*
X18542Y10017*
X18529Y9992*
X18517Y9955*
Y9888*
X18529Y9850*
X18542Y9821*
X18567Y9796*
X18604Y9783*
X18692*
Y10059*
X18694Y6641D02*
X18706Y6666D01*
X18731Y6691*
X18752Y6708*
X18802*
X18823Y6691*
X18848Y6666*
X18861Y6641*
X18869Y6603*
Y6537*
X18861Y6499*
X18848Y6470*
X18823Y6445*
X18802Y6432*
X18752*
X18731Y6445*
X18706Y6470*
X18694Y6499*
X18713Y7545D02*
X18830Y7365D01*
X18654*
X18713Y7545D02*
Y7273D01*
X18758Y9145D02*
X18883D01*
X18896Y9028*
X18883Y9040*
X18846Y9053*
X18808*
X18771Y9040*
X18746Y9015*
X18733Y8978*
Y8948*
X18746Y8911*
X18771Y8886*
X18808Y8873*
X18846*
X18883Y8886*
X18896Y8898*
X18908Y8923*
X18799Y9939D02*
Y10065D01*
X18916Y10077*
X18903Y10065*
X18891Y10027*
Y9989*
X18903Y9952*
X18928Y9927*
X18966Y9914*
X18995*
X19032Y9927*
X19058Y9952*
X19070Y9989*
Y10027*
X19058Y10065*
X19045Y10077*
X19020Y10090*
X18799Y10303D02*
X18811Y10340D01*
X18836Y10353*
X18861*
X18891Y10340*
X18903Y10315*
X18916Y10265*
X18928Y10227*
X18953Y10202*
X18978Y10190*
X19020*
X19045Y10202*
X19058Y10215*
X19070Y10252*
Y10303*
X19058Y10340*
X19045Y10353*
X19020Y10365*
X18978*
X18953Y10353*
X18928Y10328*
X18916Y10290*
X18903Y10240*
X18891Y10215*
X18861Y10202*
X18836*
X18811Y10215*
X18799Y10252*
Y10303*
X18842Y11230D02*
X18825Y11242D01*
X18804Y11280*
Y11009*
X18861Y10465D02*
X18836Y10478D01*
X18811Y10503*
X18794Y10524*
Y10574*
X18811Y10595*
X18836Y10620*
X18861Y10632*
X18899Y10641*
X18966*
X19003Y10632*
X19032Y10620*
X19058Y10595*
X19070Y10574*
Y10524*
X19058Y10503*
X19032Y10478*
X19003Y10465*
X18888Y9144D02*
X19301D01*
Y9360*
X18888*
Y9144*
Y10719D02*
X19301D01*
Y10935*
X18888*
Y10719*
X18930Y7482D02*
X18942Y7507D01*
X18968Y7532*
X18988Y7549*
X19039*
X19059Y7532*
X19084Y7507*
X19097Y7482*
X19105Y7444*
Y7378*
X19097Y7340*
X19084Y7311*
X19059Y7286*
X19039Y7273*
X18988*
X18968Y7286*
X18942Y7311*
X18930Y7340*
X18986Y9439D02*
X19203D01*
Y9852*
X18986*
Y9439*
X19009Y11192D02*
X19021Y11151D01*
X19046Y11126*
X19092Y11113*
X19105*
X19146Y11126*
X19172Y11151*
X19184Y11192*
Y11205*
X19172Y11242*
X19146Y11268*
X19105Y11280*
X19092*
X19046Y11268*
X19021Y11242*
X19009Y11192*
Y11126*
X19021Y11059*
X19046Y11021*
X19092Y11009*
X19117*
X19159Y11021*
X19172Y11046*
X19074Y6979D02*
Y6804D01*
X19346Y6929*
X19124Y6637D02*
X19112Y6620D01*
X19074Y6599*
X19346*
X19137Y7080D02*
X19112Y7092D01*
X19087Y7117*
X19070Y7138*
Y7188*
X19087Y7209*
X19112Y7234*
X19137Y7247*
X19174Y7255*
X19241*
X19279Y7247*
X19308Y7234*
X19333Y7209*
X19346Y7188*
Y7138*
X19333Y7117*
X19308Y7092*
X19279Y7080*
X19165Y10025D02*
X19140Y10038D01*
X19128Y10079*
Y10109*
X19140Y10150*
X19178Y10175*
X19245Y10188*
X19307*
X19362Y10175*
X19387Y10150*
X19399Y10109*
Y10096*
X19387Y10054*
X19362Y10025*
X19324Y10013*
X19307*
X19270Y10025*
X19245Y10054*
X19232Y10096*
Y10109*
X19245Y10150*
X19270Y10175*
X19307Y10188*
X19184Y9145D02*
X19009D01*
X19134Y8873*
X19257Y10376D02*
X19399Y10288D01*
X19284Y9082D02*
X19297Y9107D01*
X19322Y9132*
X19343Y9149*
X19393*
X19414Y9132*
X19439Y9107*
X19451Y9082*
X19460Y9044*
Y8978*
X19451Y8940*
X19439Y8911*
X19414Y8886*
X19393Y8873*
X19343*
X19322Y8886*
X19297Y8911*
X19284Y8940*
Y11217D02*
X19297Y11242D01*
X19322Y11268*
X19343Y11284*
X19393*
X19414Y11268*
X19439Y11242*
X19451Y11217*
X19460Y11180*
Y11113*
X19451Y11075*
X19439Y11046*
X19414Y11021*
X19393Y11009*
X19343*
X19322Y11021*
X19297Y11046*
X19284Y11075*
X19336Y7665D02*
X19349Y7690D01*
X19390Y7702*
X19420*
X19461Y7690*
X19486Y7652*
X19499Y7585*
Y7523*
X19486Y7468*
X19461Y7443*
X19420Y7431*
X19407*
X19365Y7443*
X19336Y7468*
X19324Y7506*
Y7523*
X19336Y7560*
X19365Y7585*
X19407Y7598*
X19420*
X19461Y7585*
X19486Y7560*
X19499Y7523*
X19350Y5419D02*
Y5281D01*
X19454Y5356*
Y5319*
X19467Y5294*
X19479Y5281*
X19517Y5269*
X19546*
X19584Y5281*
X19609Y5306*
X19621Y5344*
Y5381*
X19609Y5419*
X19596Y5431*
X19571Y5444*
X19350Y5719D02*
Y5544D01*
X19621Y5669*
X19380Y6093D02*
X19596D01*
Y6506*
X19380*
Y6093*
Y6683D02*
X19596D01*
Y7096*
X19380*
Y6683*
X19399Y10464D02*
X19124D01*
Y10351*
X19140Y10313*
X19153Y10301*
X19178Y10288*
X19203*
X19228Y10301*
X19245Y10313*
X19257Y10351*
Y10464*
X19412Y5820D02*
X19387Y5832D01*
X19362Y5857*
X19346Y5878*
Y5928*
X19362Y5949*
X19387Y5974*
X19412Y5987*
X19450Y5995*
X19517*
X19554Y5987*
X19584Y5974*
X19609Y5949*
X19621Y5928*
Y5878*
X19609Y5857*
X19584Y5832*
X19554Y5820*
X19557Y7175D02*
X19970D01*
Y7392*
X19557*
Y7175*
X19658Y7702D02*
X19775Y7523D01*
X19599*
X19658Y7702D02*
Y7431D01*
X19821Y7074D02*
Y7087D01*
X19809Y7112*
X19796Y7124*
X19771Y7141*
X19721*
X19696Y7124*
X19683Y7112*
X19671Y7087*
Y7062*
X19683Y7037*
X19708Y6995*
X19834Y6865*
X19658*
X19821Y11227D02*
X19946D01*
X19959Y11110*
X19946Y11122*
X19909Y11135*
X19871*
X19834Y11122*
X19809Y11097*
X19796Y11060*
Y11030*
X19809Y10993*
X19834Y10968*
X19871Y10955*
X19909*
X19946Y10968*
X19959Y10980*
X19971Y11005*
X19855Y11595D02*
Y11324D01*
Y11595D02*
X19971Y11415D01*
X19796*
X19875Y7639D02*
X19887Y7665D01*
X19912Y7690*
X19933Y7706*
X19983*
X20004Y7690*
X20029Y7665*
X20042Y7639*
X20050Y7602*
Y7535*
X20042Y7498*
X20029Y7468*
X20004Y7443*
X19983Y7431*
X19933*
X19912Y7443*
X19887Y7468*
X19875Y7498*
X20032Y8348D02*
X20045Y8307D01*
X20070Y8281*
X20116Y8269*
X20128*
X20170Y8281*
X20195Y8307*
X20208Y8348*
Y8361*
X20195Y8398*
X20170Y8423*
X20128Y8436*
X20116*
X20070Y8423*
X20045Y8398*
X20032Y8348*
Y8281*
X20045Y8215*
X20070Y8177*
X20116Y8165*
X20141*
X20183Y8177*
X20195Y8202*
X20049Y7667D02*
X20266D01*
Y8081*
X20049*
Y7667*
X20069Y9144D02*
X20482D01*
Y9360*
X20069*
Y9144*
X20072Y11507D02*
X20084Y11466D01*
X20109Y11441*
X20155Y11428*
X20168*
X20209Y11441*
X20235Y11466*
X20247Y11507*
Y11520*
X20235Y11557*
X20209Y11583*
X20168Y11595*
X20155*
X20109Y11583*
X20084Y11557*
X20072Y11507*
Y11441*
X20084Y11374*
X20109Y11336*
X20155Y11324*
X20180*
X20222Y11336*
X20235Y11361*
X20109Y7141D02*
Y6865D01*
X19934*
X20135Y5793D02*
X20110Y5805D01*
X20098Y5847*
Y5876*
X20110Y5918*
X20148Y5943*
X20215Y5956*
X20277*
X20332Y5943*
X20357Y5918*
X20369Y5876*
Y5864*
X20357Y5822*
X20332Y5793*
X20294Y5780*
X20277*
X20240Y5793*
X20215Y5822*
X20202Y5864*
Y5876*
X20215Y5918*
X20240Y5943*
X20277Y5956*
X20143Y10222D02*
X20005D01*
X20081Y10117*
X20043*
X20018Y10105*
X20005Y10092*
X19993Y10055*
Y10026*
X20005Y9988*
X20031Y9963*
X20068Y9950*
X20106*
X20143Y9963*
X20156Y9975*
X20168Y10001*
X20161Y5668D02*
X20148D01*
X20123Y5655*
X20110Y5643*
X20094Y5617*
Y5567*
X20110Y5542*
X20123Y5530*
X20148Y5517*
X20173*
X20198Y5530*
X20240Y5555*
X20369Y5680*
Y5505*
X20161Y6056D02*
X20135Y6068D01*
X20110Y6094*
X20094Y6114*
Y6164*
X20110Y6185*
X20135Y6210*
X20161Y6223*
X20198Y6231*
X20265*
X20302Y6223*
X20332Y6210*
X20357Y6185*
X20369Y6164*
Y6114*
X20357Y6094*
X20332Y6068*
X20302Y6056*
X20167Y6289D02*
X20384D01*
Y6703*
X20167*
Y6289*
Y6998D02*
X20384D01*
Y7411*
X20167*
Y6998*
Y8652D02*
X20384D01*
Y9065*
X20167*
Y8652*
Y9439D02*
X20384D01*
Y9852*
X20167*
Y9439*
X20222Y11227D02*
X20084D01*
X20159Y11122*
X20122*
X20097Y11110*
X20084Y11097*
X20072Y11060*
Y11030*
X20084Y10993*
X20109Y10968*
X20147Y10955*
X20184*
X20222Y10968*
X20235Y10980*
X20247Y11005*
X20308Y8348D02*
X20320Y8307D01*
X20345Y8281*
X20391Y8269*
X20404*
X20446Y8281*
X20471Y8307*
X20483Y8348*
Y8361*
X20471Y8398*
X20446Y8423*
X20404Y8436*
X20391*
X20345Y8423*
X20320Y8398*
X20308Y8348*
Y8281*
X20320Y8215*
X20345Y8177*
X20391Y8165*
X20416*
X20458Y8177*
X20471Y8202*
X20347Y11164D02*
X20360Y11189D01*
X20385Y11214*
X20406Y11231*
X20456*
X20477Y11214*
X20502Y11189*
X20514Y11164*
X20523Y11126*
Y11060*
X20514Y11022*
X20502Y10993*
X20477Y10968*
X20456Y10955*
X20406*
X20385Y10968*
X20360Y10993*
X20347Y11022*
Y11532D02*
X20360Y11557D01*
X20385Y11583*
X20406Y11599*
X20456*
X20477Y11583*
X20502Y11557*
X20514Y11532*
X20523Y11495*
Y11428*
X20514Y11390*
X20502Y11361*
X20477Y11336*
X20456Y11324*
X20406*
X20385Y11336*
X20360Y11361*
X20347Y11390*
X20364Y7667D02*
X20581D01*
Y8081*
X20364*
Y7667*
X20413Y7153D02*
X20425Y7190D01*
X20450Y7203*
X20475*
X20505Y7190*
X20517Y7165*
X20530Y7115*
X20542Y7078*
X20567Y7053*
X20592Y7040*
X20634*
X20659Y7053*
X20672Y7065*
X20684Y7103*
Y7153*
X20672Y7190*
X20659Y7203*
X20634Y7216*
X20592*
X20567Y7203*
X20542Y7178*
X20530Y7140*
X20517Y7090*
X20505Y7065*
X20475Y7053*
X20450*
X20425Y7065*
X20413Y7103*
Y7153*
X20419Y10222D02*
X20281D01*
X20356Y10117*
X20319*
X20294Y10105*
X20281Y10092*
X20269Y10055*
Y10026*
X20281Y9988*
X20306Y9963*
X20344Y9950*
X20381*
X20419Y9963*
X20431Y9975*
X20444Y10001*
X20450Y6777D02*
X20425Y6790D01*
X20413Y6831*
Y6861*
X20425Y6902*
X20463Y6927*
X20530Y6940*
X20592*
X20647Y6927*
X20672Y6902*
X20684Y6861*
Y6848*
X20672Y6806*
X20647Y6777*
X20609Y6765*
X20592*
X20555Y6777*
X20530Y6806*
X20517Y6848*
Y6861*
X20530Y6902*
X20555Y6927*
X20592Y6940*
X20475Y7316D02*
X20450Y7328D01*
X20425Y7353*
X20409Y7374*
Y7424*
X20425Y7445*
X20450Y7470*
X20475Y7483*
X20513Y7491*
X20580*
X20617Y7483*
X20647Y7470*
X20672Y7445*
X20684Y7424*
Y7374*
X20672Y7353*
X20647Y7328*
X20617Y7316*
X20531Y5563D02*
X20802D01*
X20531D02*
X20710Y5680D01*
Y5505*
X20544Y10159D02*
X20557Y10184D01*
X20582Y10209*
X20603Y10226*
X20653*
X20674Y10209*
X20699Y10184*
X20711Y10159*
X20719Y10122*
Y10055*
X20711Y10017*
X20699Y9988*
X20674Y9963*
X20653Y9950*
X20603*
X20582Y9963*
X20557Y9988*
X20544Y10017*
X20561Y6289D02*
X20778D01*
Y6703*
X20561*
Y6289*
Y8652D02*
X20778D01*
Y9065*
X20561*
Y8652*
Y9439D02*
X20778D01*
Y9852*
X20561*
Y9439*
X20563Y9390D02*
Y9119D01*
Y9390D02*
X20680Y9211D01*
X20505*
X20569Y5793D02*
X20543Y5805D01*
X20531Y5847*
Y5876*
X20543Y5918*
X20581Y5943*
X20648Y5956*
X20710*
X20765Y5943*
X20790Y5918*
X20802Y5876*
Y5864*
X20790Y5822*
X20765Y5793*
X20727Y5780*
X20710*
X20673Y5793*
X20648Y5822*
X20635Y5864*
Y5876*
X20648Y5918*
X20673Y5943*
X20710Y5956*
X20583Y8373D02*
X20596Y8398D01*
X20621Y8423*
X20642Y8440*
X20692*
X20713Y8423*
X20738Y8398*
X20751Y8373*
X20759Y8336*
Y8269*
X20751Y8231*
X20738Y8202*
X20713Y8177*
X20692Y8165*
X20642*
X20621Y8177*
X20596Y8202*
X20583Y8231*
X20594Y6056D02*
X20569Y6068D01*
X20543Y6094*
X20527Y6114*
Y6164*
X20543Y6185*
X20569Y6210*
X20594Y6223*
X20631Y6231*
X20698*
X20736Y6223*
X20765Y6210*
X20790Y6185*
X20802Y6164*
Y6114*
X20790Y6094*
X20765Y6068*
X20736Y6056*
X20699Y11112D02*
X21112D01*
Y11329*
X20699*
Y11112*
X20743Y7924D02*
X20780Y7912D01*
X20805Y7874*
X20818Y7807*
Y7770*
X20805Y7703*
X20780Y7665*
X20743Y7653*
X20718*
X20680Y7665*
X20655Y7703*
X20643Y7770*
Y7807*
X20655Y7874*
X20680Y7912*
X20718Y7924*
X20743*
X20856Y6781D02*
X21270D01*
Y6998*
X20856*
Y6781*
X20909Y7254D02*
X20892Y7266D01*
X20871Y7304*
Y7032*
X20955Y6289D02*
X21171D01*
Y6703*
X20955*
Y6289*
Y8652D02*
X21171D01*
Y9065*
X20955*
Y8652*
Y9439D02*
X21171D01*
Y9852*
X20955*
Y9439*
X20956Y9390D02*
X20780D01*
X20906Y9119*
X20973Y5655D02*
Y5517D01*
X21078Y5592*
Y5555*
X21090Y5530*
X21103Y5517*
X21140Y5505*
X21170*
X21207Y5517*
X21232Y5542*
X21245Y5580*
Y5617*
X21232Y5655*
X21220Y5668*
X21195Y5680*
X21011Y5793D02*
X20986Y5805D01*
X20973Y5847*
Y5876*
X20986Y5918*
X21024Y5943*
X21090Y5956*
X21153*
X21207Y5943*
X21232Y5918*
X21245Y5876*
Y5864*
X21232Y5822*
X21207Y5793*
X21170Y5780*
X21153*
X21115Y5793*
X21090Y5822*
X21078Y5864*
Y5876*
X21090Y5918*
X21115Y5943*
X21153Y5956*
X21018Y7924D02*
X21056Y7912D01*
X21081Y7874*
X21094Y7807*
Y7770*
X21081Y7703*
X21056Y7665*
X21018Y7653*
X20993*
X20956Y7665*
X20931Y7703*
X20918Y7770*
Y7807*
X20931Y7874*
X20956Y7912*
X20993Y7924*
X21018*
X21036Y6056D02*
X21011Y6068D01*
X20986Y6094*
X20969Y6114*
Y6164*
X20986Y6185*
X21011Y6210*
X21036Y6223*
X21074Y6231*
X21140*
X21178Y6223*
X21207Y6210*
X21232Y6185*
X21245Y6164*
Y6114*
X21232Y6094*
X21207Y6068*
X21178Y6056*
X21056Y9328D02*
X21068Y9353D01*
X21094Y9378*
X21114Y9394*
X21164*
X21185Y9378*
X21210Y9353*
X21223Y9328*
X21231Y9290*
Y9223*
X21223Y9186*
X21210Y9156*
X21185Y9131*
X21164Y9119*
X21114*
X21094Y9131*
X21068Y9156*
X21056Y9186*
X21250Y7963D02*
X21663D01*
Y8179*
X21250*
Y7963*
X21251Y7308D02*
Y7032D01*
X21076*
X21302Y7874D02*
X21286Y7887D01*
X21265Y7924*
Y7653*
X21348Y6289D02*
X21565D01*
Y6703*
X21348*
Y6289*
Y7077D02*
X21565D01*
Y7490*
X21348*
Y7077*
Y8652D02*
X21565D01*
Y9065*
X21348*
Y8652*
X21367Y5530D02*
Y5655D01*
X21484Y5668*
X21472Y5655*
X21459Y5617*
Y5580*
X21472Y5542*
X21497Y5517*
X21534Y5505*
X21563*
X21601Y5517*
X21626Y5542*
X21639Y5580*
Y5617*
X21626Y5655*
X21614Y5668*
X21588Y5680*
X21405Y5793D02*
X21380Y5805D01*
X21367Y5847*
Y5876*
X21380Y5918*
X21417Y5943*
X21484Y5956*
X21547*
X21601Y5943*
X21626Y5918*
X21639Y5876*
Y5864*
X21626Y5822*
X21601Y5793*
X21563Y5780*
X21547*
X21509Y5793*
X21484Y5822*
X21472Y5864*
Y5876*
X21484Y5918*
X21509Y5943*
X21547Y5956*
X21430Y6056D02*
X21405Y6068D01*
X21380Y6094*
X21363Y6114*
Y6164*
X21380Y6185*
X21405Y6210*
X21430Y6223*
X21467Y6231*
X21534*
X21572Y6223*
X21601Y6210*
X21626Y6185*
X21639Y6164*
Y6114*
X21626Y6094*
X21601Y6068*
X21572Y6056*
X21469Y7862D02*
X21482Y7887D01*
X21507Y7912*
X21528Y7928*
X21578*
X21599Y7912*
X21624Y7887*
X21636Y7862*
X21645Y7824*
Y7757*
X21636Y7720*
X21624Y7690*
X21599Y7665*
X21578Y7653*
X21528*
X21507Y7665*
X21482Y7690*
X21469Y7720*
X21682Y6314D02*
X21695Y6351D01*
X21732Y6376*
X21799Y6389*
X21837*
X21903Y6376*
X21941Y6351*
X21954Y6314*
Y6289*
X21941Y6251*
X21903Y6226*
X21837Y6213*
X21799*
X21732Y6226*
X21695Y6251*
X21682Y6289*
Y6314*
X21720Y6502D02*
X21695Y6514D01*
X21682Y6556*
Y6585*
X21695Y6627*
X21732Y6652*
X21799Y6664*
X21862*
X21916Y6652*
X21941Y6627*
X21954Y6585*
Y6573*
X21941Y6531*
X21916Y6502*
X21878Y6489*
X21862*
X21824Y6502*
X21799Y6531*
X21787Y6573*
Y6585*
X21799Y6627*
X21824Y6652*
X21862Y6664*
X21742Y7077D02*
X21959D01*
Y7490*
X21742*
Y7077*
X21745Y6765D02*
X21720Y6777D01*
X21695Y6802*
X21678Y6823*
Y6873*
X21695Y6894*
X21720Y6919*
X21745Y6932*
X21782Y6940*
X21849*
X21887Y6932*
X21916Y6919*
X21941Y6894*
X21954Y6873*
Y6823*
X21941Y6802*
X21916Y6777*
X21887Y6765*
X21765Y8122D02*
X21777Y8080D01*
X21802Y8055*
X21848Y8042*
X21861*
X21902Y8055*
X21927Y8080*
X21940Y8122*
Y8134*
X21927Y8172*
X21902Y8197*
X21861Y8209*
X21848*
X21802Y8197*
X21777Y8172*
X21765Y8122*
Y8055*
X21777Y7988*
X21802Y7950*
X21848Y7938*
X21873*
X21915Y7950*
X21927Y7975*
X21879Y9656D02*
Y9481D01*
X22150Y9606*
X21904Y10130D02*
X22176D01*
X21904D02*
X22084Y10247D01*
Y10072*
X21904Y10498D02*
Y10360D01*
X22009Y10435*
Y10397*
X22021Y10372*
X22034Y10360*
X22071Y10347*
X22100*
X22138Y10360*
X22163Y10385*
X22176Y10422*
Y10460*
X22163Y10498*
X22151Y10510*
X22125Y10523*
X21918Y8364D02*
Y8490D01*
X22035Y8502*
X22023Y8490*
X22010Y8452*
Y8415*
X22023Y8377*
X22048Y8352*
X22085Y8339*
X22115*
X22152Y8352*
X22177Y8377*
X22190Y8415*
Y8452*
X22177Y8490*
X22165Y8502*
X22140Y8515*
X21918Y8640D02*
Y8765D01*
X22035Y8778*
X22023Y8765*
X22010Y8728*
Y8690*
X22023Y8653*
X22048Y8628*
X22085Y8615*
X22115*
X22152Y8628*
X22177Y8653*
X22190Y8690*
Y8728*
X22177Y8765*
X22165Y8778*
X22140Y8790*
X21942Y9368D02*
X21929D01*
X21904Y9356*
X21892Y9343*
X21875Y9318*
Y9268*
X21892Y9243*
X21904Y9231*
X21929Y9218*
X21954*
X21979Y9231*
X22021Y9256*
X22150Y9381*
Y9206*
X21942Y9757D02*
X21917Y9769D01*
X21892Y9794*
X21875Y9815*
Y9865*
X21892Y9886*
X21917Y9911*
X21942Y9924*
X21979Y9932*
X22046*
X22084Y9924*
X22113Y9911*
X22138Y9886*
X22150Y9865*
Y9815*
X22138Y9794*
X22113Y9769*
X22084Y9757*
X21967Y10623D02*
X21942Y10635D01*
X21917Y10660*
X21900Y10681*
Y10731*
X21917Y10752*
X21942Y10777*
X21967Y10790*
X22004Y10798*
X22071*
X22109Y10790*
X22138Y10777*
X22163Y10752*
X22176Y10731*
Y10681*
X22163Y10660*
X22138Y10635*
X22109Y10623*
X21981Y8891D02*
X21956Y8903D01*
X21931Y8928*
X21914Y8949*
Y8999*
X21931Y9020*
X21956Y9045*
X21981Y9058*
X22019Y9066*
X22085*
X22123Y9058*
X22152Y9045*
X22177Y9020*
X22190Y8999*
Y8949*
X22177Y8928*
X22152Y8903*
X22123Y8891*
X22065Y8209D02*
X22190D01*
X22203Y8092*
X22190Y8105*
X22153Y8117*
X22115*
X22078Y8105*
X22053Y8080*
X22040Y8042*
Y8013*
X22053Y7975*
X22078Y7950*
X22115Y7938*
X22153*
X22190Y7950*
X22203Y7963*
X22216Y7988*
X22104Y6502D02*
X22079Y6514D01*
X22066Y6556*
Y6585*
X22079Y6627*
X22116Y6652*
X22183Y6664*
X22246*
X22300Y6652*
X22325Y6627*
X22338Y6585*
Y6573*
X22325Y6531*
X22300Y6502*
X22263Y6489*
X22246*
X22208Y6502*
X22183Y6531*
X22171Y6573*
Y6585*
X22183Y6627*
X22208Y6652*
X22246Y6664*
X22116Y6322D02*
X22104Y6305D01*
X22066Y6284*
X22338*
X22129Y6765D02*
X22104Y6777D01*
X22079Y6802*
X22062Y6823*
Y6873*
X22079Y6894*
X22104Y6919*
X22129Y6932*
X22167Y6940*
X22233*
X22271Y6932*
X22300Y6919*
X22325Y6894*
X22338Y6873*
Y6823*
X22325Y6802*
X22300Y6777*
X22271Y6765*
X22263Y8640D02*
Y8765D01*
X22380Y8778*
X22368Y8765*
X22355Y8728*
Y8690*
X22368Y8653*
X22393Y8628*
X22430Y8615*
X22459*
X22497Y8628*
X22522Y8653*
X22535Y8690*
Y8728*
X22522Y8765*
X22510Y8778*
X22485Y8790*
X22271Y9218D02*
X22246Y9231D01*
X22233Y9272*
Y9302*
X22246Y9343*
X22283Y9368*
X22350Y9381*
X22413*
X22467Y9368*
X22492Y9343*
X22505Y9302*
Y9289*
X22492Y9247*
X22467Y9218*
X22430Y9206*
X22413*
X22375Y9218*
X22350Y9247*
X22338Y9289*
Y9302*
X22350Y9343*
X22375Y9368*
X22413Y9381*
X22271Y9494D02*
X22246Y9506D01*
X22233Y9548*
Y9577*
X22246Y9619*
X22283Y9644*
X22350Y9656*
X22413*
X22467Y9644*
X22492Y9619*
X22505Y9577*
Y9565*
X22492Y9523*
X22467Y9494*
X22430Y9481*
X22413*
X22375Y9494*
X22350Y9523*
X22338Y9565*
Y9577*
X22350Y9619*
X22375Y9644*
X22413Y9656*
X22296Y9757D02*
X22271Y9769D01*
X22246Y9794*
X22229Y9815*
Y9865*
X22246Y9886*
X22271Y9911*
X22296Y9924*
X22334Y9932*
X22400*
X22438Y9924*
X22467Y9911*
X22492Y9886*
X22505Y9865*
Y9815*
X22492Y9794*
X22467Y9769*
X22438Y9757*
X22301Y8352D02*
X22276Y8364D01*
X22263Y8406*
Y8435*
X22276Y8477*
X22313Y8502*
X22380Y8515*
X22443*
X22497Y8502*
X22522Y8477*
X22535Y8435*
Y8423*
X22522Y8381*
X22497Y8352*
X22459Y8339*
X22443*
X22405Y8352*
X22380Y8381*
X22368Y8423*
Y8435*
X22380Y8477*
X22405Y8502*
X22443Y8515*
X22316Y8147D02*
X22328Y8172D01*
X22353Y8197*
X22374Y8213*
X22424*
X22445Y8197*
X22470Y8172*
X22483Y8147*
X22491Y8109*
Y8042*
X22483Y8005*
X22470Y7975*
X22445Y7950*
X22424Y7938*
X22374*
X22353Y7950*
X22328Y7975*
X22316Y8005*
X22326Y8891D02*
X22301Y8903D01*
X22276Y8928*
X22259Y8949*
Y8999*
X22276Y9020*
X22301Y9045*
X22326Y9058*
X22363Y9066*
X22430*
X22468Y9058*
X22497Y9045*
X22522Y9020*
X22535Y8999*
Y8949*
X22522Y8928*
X22497Y8903*
X22468Y8891*
X22578Y9381D02*
Y9206D01*
X22850Y9331*
X22616Y9494D02*
X22591Y9506D01*
X22578Y9548*
Y9577*
X22591Y9619*
X22628Y9644*
X22695Y9656*
X22758*
X22812Y9644*
X22837Y9619*
X22850Y9577*
Y9565*
X22837Y9523*
X22812Y9494*
X22774Y9481*
X22758*
X22720Y9494*
X22695Y9523*
X22683Y9565*
Y9577*
X22695Y9619*
X22720Y9644*
X22758Y9656*
X22618Y8515D02*
Y8339D01*
X22889Y8465*
X22618Y8640D02*
Y8765D01*
X22734Y8778*
X22722Y8765*
X22709Y8728*
Y8690*
X22722Y8653*
X22747Y8628*
X22785Y8615*
X22814*
X22851Y8628*
X22876Y8653*
X22889Y8690*
Y8728*
X22876Y8765*
X22864Y8778*
X22839Y8790*
X22641Y9757D02*
X22616Y9769D01*
X22591Y9794*
X22574Y9815*
Y9865*
X22591Y9886*
X22616Y9911*
X22641Y9924*
X22678Y9932*
X22745*
X22783Y9924*
X22812Y9911*
X22837Y9886*
X22850Y9865*
Y9815*
X22837Y9794*
X22812Y9769*
X22783Y9757*
X22680Y8891D02*
X22655Y8903D01*
X22630Y8928*
X22613Y8949*
Y8999*
X22630Y9020*
X22655Y9045*
X22680Y9058*
X22718Y9066*
X22785*
X22822Y9058*
X22851Y9045*
X22876Y9020*
X22889Y8999*
Y8949*
X22876Y8928*
X22851Y8903*
X22822Y8891*
X22726Y4911D02*
X22943D01*
Y5325*
X22726*
Y4911*
X22942Y8452D02*
X22954Y8490D01*
X22980Y8502*
X23005*
X23034Y8490*
X23046Y8465*
X23059Y8415*
X23071Y8377*
X23096Y8352*
X23122Y8339*
X23163*
X23188Y8352*
X23201Y8364*
X23213Y8402*
Y8452*
X23201Y8490*
X23188Y8502*
X23163Y8515*
X23122*
X23096Y8502*
X23071Y8477*
X23059Y8440*
X23046Y8389*
X23034Y8364*
X23005Y8352*
X22980*
X22954Y8364*
X22942Y8402*
Y8452*
Y8640D02*
Y8765D01*
X23059Y8778*
X23046Y8765*
X23034Y8728*
Y8690*
X23046Y8653*
X23071Y8628*
X23109Y8615*
X23138*
X23176Y8628*
X23201Y8653*
X23213Y8690*
Y8728*
X23201Y8765*
X23188Y8778*
X23163Y8790*
X22963Y4911D02*
X23179D01*
Y5325*
X22963*
Y4911*
X23005Y8891D02*
X22980Y8903D01*
X22954Y8928*
X22938Y8949*
Y8999*
X22954Y9020*
X22980Y9045*
X23005Y9058*
X23042Y9066*
X23109*
X23147Y9058*
X23176Y9045*
X23201Y9020*
X23213Y8999*
Y8949*
X23201Y8928*
X23176Y8903*
X23147Y8891*
X23199Y4911D02*
X23415D01*
Y5325*
X23199*
Y4911*
X23794Y7538D02*
Y7663D01*
X23911Y7675*
X23898Y7663*
X23886Y7625*
Y7588*
X23898Y7550*
X23923Y7525*
X23961Y7513*
X23990*
X24028Y7525*
X24053Y7550*
X24065Y7588*
Y7625*
X24053Y7663*
X24040Y7675*
X24015Y7688*
X23844Y7897D02*
X23832Y7880D01*
X23794Y7859*
X24065*
X23857Y8064D02*
X23832Y8076D01*
X23806Y8101*
X23790Y8122*
Y8172*
X23806Y8193*
X23832Y8218*
X23857Y8231*
X23894Y8239*
X23961*
X23999Y8231*
X24028Y8218*
X24053Y8193*
X24065Y8172*
Y8122*
X24053Y8101*
X24028Y8076*
X23999Y8064*
X24203Y3711D02*
X24616D01*
Y3927*
X24203*
Y3711*
Y3986D02*
X24616D01*
Y4203*
X24203*
Y3986*
Y4262D02*
X24616D01*
Y4478*
X24203*
Y4262*
G54D14*
X3826Y11614D02*
X3524D01*
Y12008*
X3826*
X4429D02*
Y11614D01*
X4126*
X4429Y12008D02*
X4126D01*
X19488Y10386D02*
Y10689D01*
X19882*
Y10386*
Y9783D02*
X19488D01*
Y10086*
X19882Y9783D02*
Y10086D01*
X21378Y5059D02*
Y4756D01*
Y5059D02*
X21772D01*
Y4756*
Y4456D02*
Y4154D01*
X21378*
Y4456*
X24094Y4724D02*
X24724D01*
Y6063*
X24094*
Y4724*
X25992Y9488D02*
X25689D01*
Y9882*
X25992*
X26594D02*
X26292D01*
X26594D02*
Y9488D01*
X26292*
X28051D02*
Y9882D01*
X28354*
X28051Y9488D02*
X28354D01*
X28654Y9882D02*
X28957D01*
Y9488*
X28654*
G54D15*
X26870Y10276D02*
Y11535D01*
X25312*
X24902Y11125*
Y10276*
X26870*
X29232D02*
Y11535D01*
X27674*
X27264Y11125*
Y10276*
X29232*
G54D16*
X18543Y9055D03*
M02*
