; Version : LOCAL
; Job     : Y:\Users\CEG\Central Electronics\Projects\Hastingsp\MENTOR\DUNE\MIB_Module\PCB\MIB_Module.pcb
; User    : ELWT2:hastingsp
; Date    : Wed Jun 28 08:25:33 2023
; Format  : 3.3 / Absolute / MM / Leading
; Contents: Thru / Drill / Plated
M48
METRIC,TZ
FMAT,2
ICI,OFF
T05C0.300
T04C0.500
T03C1.000
T02C1.050
T01C1.100
T07C1.450
T06C3.300
%
M71
G90
G93X0Y0
T05
X61750Y947
X60843Y879
X60143
X58343
X57643
X56843
X56143
X54343
X53643
X52843
X52143
X50343
X49643
X47250Y947
X45843Y879
X45143
X44343
X43643
X42343
X41643
X40750Y947
X39750
X38750
X37750
X7500Y2000
X6500
X5500
X3000
X2000
X1000
Y3000
Y4000
X2000Y3000
Y4000
X3000Y3000
Y4000
X5500Y3000
Y4000
X6500Y3000
Y4000
X7500Y3000
Y4000
X37750Y4647
X38250Y3354
X39250Y4647
X40250Y3354
X40750Y4647
X41250Y3354
X42250Y4647
X42657Y3422
X43358Y3421
X43750Y4647
X44750
Y3354
X45565Y4526
X46157Y3422
X46858Y3421
X47143Y4579
X47657Y3422
X47843Y4579
X48358Y3421
X50750Y3354
Y4647
X53250Y3354
Y4647
X54193Y3808
X54893
X55750Y3354
Y4647
X58250
X58657Y3422
X59358Y3421
X59750Y4647
X61250Y3354
X62250
X61358Y7121
X60657Y7122
X59358Y7121
X58657Y7122
X51858Y7121
X51157Y7122
X50358Y7121
X49657Y7122
X48250Y7054
X46858Y7121
X46157Y7122
X43358Y7121
X42657Y7122
X41858Y7121
X41157Y7122
X32534Y7250
X14000Y5467
X11950Y7264
X9675Y7275
X7981Y5327
X6705Y6600
X4505Y8500
X5500Y9500
X6350Y7755
X6500Y9500
X18500
X19500
X21500
X39000Y9000
Y10000
X42000Y9000
Y10000
X44000Y9000
X45000
X46000
X47000Y10000
X48000
X49000Y9000
Y10000
X51000Y9000
Y10000
X53000Y9000
Y10000
X54000Y9000
Y10000
X55000Y9000
Y10000
X57000Y9000
Y10000
X58000Y9000
Y10000
X59000Y9000
Y10000
X60000Y9000
X61000Y10000
X61350Y8700
X62833Y9700
X63118Y8700
X73893Y12000
X66107
X64200Y11832
X62833Y10400
Y11100
X61000Y11000
X59000
Y12000
X58000Y11000
Y12000
X57000Y11000
Y12000
X56000Y11000
Y12000
X54000Y11000
Y12000
X52000Y11000
Y12000
X51000Y11000
Y12000
X49000Y11000
Y12000
X48000Y11000
Y12000
X47000Y11000
Y12000
X46000Y11000
Y12000
X45000Y11000
X44000
Y12000
X43000
X42000
X41000Y11000
Y12000
X40000Y11000
Y12000
X39000Y11000
Y12000
X32534Y10750
X22650Y10500
X21500Y11500
Y12500
X19500
X18500Y11500
Y12500
X14500Y10500
Y11500
Y12500
X13500Y10500
Y11500
Y12500
X12500Y11500
Y12500
X11500Y11500
Y12500
X8500Y11500
Y12500
X7500Y11500
Y12500
X6500Y10500
Y11500
Y12500
X5500Y10500
Y12500
X3705Y11500
X5500Y13500
Y14500
X6500Y13500
Y14500
X7500Y13500
Y14500
X8500Y13500
Y14500
X9500Y13500
Y14500
X10500Y13500
Y14500
X11500Y13500
Y14500
X12500Y13500
Y14500
X13500Y13500
Y14500
X14500
X16295Y13500
X26022Y13750
X31978
X39000Y13000
Y14000
X40000Y13000
X41000
Y14000
Y15000
X42000Y13000
Y14000
Y15000
X43000
X44000Y14000
Y15000
X45000
X46000Y13000
Y15000
X47000Y13000
Y15000
X48000Y13000
Y15000
X49000Y13000
Y14000
Y15000
X51000Y13000
Y14000
Y15000
X52000
X53000Y13000
Y14000
Y15000
X54000Y13000
Y14000
Y15000
X55000Y13000
Y14000
Y15000
X56000Y13000
Y14000
Y15000
X57000Y13000
Y15000
X58000
X59000
X60000Y14000
X66107
X73893
Y16000
X66107
X65200Y15450
X63800
X61000Y16000
X59000Y17000
X58000Y16000
X56000
X54000
Y17000
X53000Y16000
Y17000
X52000Y16000
Y17000
X51000Y16000
Y17000
X49000Y16000
Y17000
X48000Y16000
Y17000
X45000Y16000
X44000Y17000
X43000
X42000Y16000
Y17000
X41000Y16000
Y17000
X40000Y16000
Y17000
X39000Y16000
Y17000
X37700Y16633
X36897Y16000
X31978Y15250
Y16750
X26022Y15250
Y16750
X19418Y17460
X14000Y15467
X11950Y17264
X9675Y17275
X8550Y16600
X6705
X6350Y17755
X4505Y18500
X5500Y19500
X6500
X19418Y20000
X23900Y18527
X26022Y18250
Y19750
X29450Y18592
X31978Y18250
Y19750
X34900Y18367
Y19450
X36300Y18367
Y19450
X37700Y18367
Y19450
X39000Y18000
Y19000
X40000Y18000
Y19000
X41000Y18000
Y19000
X42000
X44000Y18000
Y19000
X46000Y18000
Y19000
X47000Y18000
Y19000
X48000Y18000
Y19000
X49000Y18000
Y19000
X51000Y18000
Y19000
X52000Y18000
Y19000
X53000Y18000
Y19000
X54000Y18000
Y19000
X55000Y18000
Y19000
X57000Y18000
X60000Y19000
X64200Y18332
X69643Y20000
Y18750
X73893Y18000
Y20000
Y22000
X64200Y20668
X61000Y22000
X58000Y21000
X56000Y22000
X55000Y21000
Y22000
X54000Y21000
Y22000
X53000Y21000
Y22000
X52000Y21000
Y22000
X51000Y21000
Y22000
X49000Y21000
Y22000
X48000Y21000
X47000
X45000Y22000
X44000Y21000
X43000Y22000
X42000Y21000
Y22000
X40000Y21000
Y22000
X39000Y21000
Y22000
X37700Y20550
X36300
X34900
X31978Y21250
X29450Y21132
X26022Y21250
X23900Y21473
X19418Y22540
X14500Y20500
Y21500
Y22500
X13500Y20500
Y21500
Y22500
X12500Y21500
Y22500
X11500Y21500
Y22500
X8500Y21500
Y22500
X7500Y21500
Y22500
X6500Y20500
Y21500
Y22500
X5500Y20500
Y22500
X3705Y21500
X5500Y23500
Y24500
X6500Y23500
Y24500
X7500Y23500
Y24500
X8500Y23500
Y24500
X9500Y23500
Y24500
X10500Y23500
Y24500
X11500Y23500
Y24500
X12500Y23500
Y24500
X13500Y23500
Y24500
X14500
X16295Y23500
X26022Y23750
X29450Y23672
X31978Y23750
X35050Y23576
X39000Y23000
Y24000
Y25000
X40000Y23000
Y24000
Y25000
X41000Y24000
X42000Y23000
Y25000
X43000Y23000
Y24000
X44000
Y25000
X46000Y24000
X48000Y23000
Y24000
Y25000
X49000Y23000
Y24000
Y25000
X51000Y23000
Y24000
Y25000
X52000Y23000
Y24000
Y25000
X53000Y23000
Y24000
Y25000
X54000Y23000
Y24000
Y25000
X55000Y23000
Y24000
Y25000
X57000Y24000
X59000Y23000
X60000Y25000
X62850Y24600
X63950
X64200Y23027
X67875Y25251
X68850Y25208
X69950Y24600
X73893Y24000
X61000Y27000
X59000
X58000Y26000
X56000Y27000
X54000Y26000
X53000
X52000
X51000
Y27000
X49000Y26000
Y27000
X48000Y26000
Y27000
X47000Y26000
Y27000
X45000
X44000Y26000
Y27000
X43000Y26000
Y27000
X42000Y26000
Y27000
X41000Y26000
Y27000
X40000Y26000
Y27000
X24500Y27500
X22500
X16700
X15700
X14700
X13700
X12700
X11700
X10700
X8500
X7500
X6500
X5500
X4500
X3500
X2500
Y28500
Y29500
X9500Y28350
X10400Y29000
X11700Y28500
Y29500
X12700Y28500
Y29500
X13700Y28500
Y29500
X14700Y28500
Y29500
X15700Y28500
Y29500
X16700Y28500
Y29500
X21500Y28500
X22500Y29500
X23500Y28500
X24500Y29500
X39000Y29000
Y30000
X40000Y29000
Y30000
X41000Y28000
Y29000
Y30000
X42000Y28000
Y29000
Y30000
X43000Y28000
Y29000
Y30000
X44000Y28000
Y30000
X46000Y29000
X47000Y28000
Y29000
Y30000
X48000Y28000
Y29000
Y30000
X49000Y28000
Y29000
Y30000
X51000Y28000
Y29000
Y30000
X52000Y29000
Y30000
X54000Y28000
X55000
Y30000
X57000Y29000
X59000Y28000
X60000Y30000
X62773Y29845
X67044Y30208
X68768Y29000
X73044Y30208
X68768Y31500
X66432
X63716Y31699
X63676Y30613
X61500Y31600
X60250Y32947
X58000Y31000
X53350Y32700
X53000Y31000
X52650Y32700
X50850
X50150
X49350
X48650
X48000Y31000
X47250Y32947
X47000Y31000
X44350Y32700
X43650
X43000Y31000
X42000
X41000
X39250Y32947
X37750
X32534Y31250
X25462Y31750
X23162Y30626
X22500Y31500
X21500Y30500
Y33000
X15693Y32891
X12700Y30500
X11700
X8500
X7500
Y31500
X6500Y30500
Y31500
X5500Y30500
Y31500
X4500Y30500
Y31500
X3500Y30500
Y31500
Y32500
X2500Y30500
Y31500
Y32500
Y35000
X3412Y33868
X3500Y35000
X4162Y33126
X6462Y34250
X7500Y33778
X8250Y33611
X8500Y35000
X14500
X15500
X16500
X17500
X21500
X22500Y34000
X23162Y33374
X23500Y35000
X24500Y34000
X32534Y34750
X38250Y35354
X39750
X49750
X52250
X54750
X57250
X66432Y34000
X68768
X61843Y36579
X61143
X59750Y36647
X56843Y36579
X56143
X54750Y36647
X51843Y36579
X51143
X49750Y36647
X46850Y35601
X46843Y36579
X46150Y35601
X46143Y36579
X45052
X44343
X43643
X43350Y35601
X42650
X42250Y36647
X40250
X39250
X38250
X23500Y37000
X22500Y36000
Y38000
X21500Y37000
X19673Y36600
X17500Y36000
Y37000
Y38000
X16500Y36000
Y37000
Y38000
X15500Y36000
Y37000
Y38000
X14500Y36000
Y37000
Y38000
X13500Y37000
Y38000
X12500Y37000
Y38000
X8500Y36000
Y37000
Y38000
X7500Y37000
Y38000
X6500Y36000
Y37000
Y38000
X5500Y36000
Y37000
Y38000
X4500Y37000
Y38000
X4162Y35874
X3500Y37000
Y38000
X2500Y36000
Y37000
Y38000
X10327Y38600
X19673
X37750Y39054
X38750
X39750
X40657Y39122
X41358Y39121
X42657Y39122
X43358Y39121
X45157Y39122
X45858Y39121
X46927Y39123
X47657Y39122
X48358Y39121
X50157Y39122
X50858Y39121
X52657Y39122
X53358Y39121
X55157Y39122
X55858Y39121
X57250Y39054
X58657Y39122
X59358Y39121
X62358
T04
X9300Y9300
X10000Y10000
X10700Y9300
Y10700
X9300
Y19300
X10000Y20000
X10700Y19300
Y20700
X9300
T03
X70000Y13000
Y23000
T02
X64975Y5100
X35025
X27900Y10025
Y29975
X64975Y37100
X35025
T01
X16960Y5000
X19500
X22040
X4230Y29000
X6770
T07
X36500Y3150
X63500
X29850Y11500
Y28500
X36500Y35150
X63500
T06
X28000Y3000
X72000
Y37000
X28000
T00
M30
